<?xml version="1.0" encoding="us-ascii" standalone="no"?><svg xmlns="http://www.w3.org/2000/svg" xmlns:xlink="http://www.w3.org/1999/xlink" contentStyleType="text/css" height="736px" preserveAspectRatio="none" style="width:454px;height:736px;background:#FFFFFF;" version="1.1" viewBox="0 0 454 736" width="454px" zoomAndPan="magnify"><defs/><g><path d="M68,7 L343,7 A12.5,12.5 0 0 1 355.5,19.5 L355.5,34.6094 L55.5,34.6094 L55.5,19.5 A12.5,12.5 0 0 1 68,7 " fill="#F1F1F1" style="stroke:#F1F1F1;stroke-width:1.0;"/><rect fill="none" height="576.6094" rx="12.5" ry="12.5" style="stroke:#181818;stroke-width:0.5;" width="300" x="55.5" y="7"/><line style="stroke:#181818;stroke-width:0.5;" x1="55.5" x2="355.5" y1="34.6094" y2="34.6094"/><text fill="#000000" font-family="sans-serif" font-size="14" lengthAdjust="spacing" textLength="118" x="146.5" y="26.5332">extraerCasosUso()</text><g id="extraerCasosUso.ProcesandoDocumentacion"><rect fill="#F1F1F1" height="50" rx="12.5" ry="12.5" style="stroke:#181818;stroke-width:0.5;" width="50" x="67.5" y="137.6094"/><line style="stroke:#181818;stroke-width:0.5;" x1="67.5" x2="117.5" y1="165.2188" y2="165.2188"/><text fill="#000000" font-family="sans-serif" font-size="14" lengthAdjust="spacing" textLength="4" x="90.5" y="157.1426">&#160;</text></g><g id="extraerCasosUso.IdentificandoCasosUso"><rect fill="#F1F1F1" height="50" rx="12.5" ry="12.5" style="stroke:#181818;stroke-width:0.5;" width="50" x="67.5" y="275.6094"/><line style="stroke:#181818;stroke-width:0.5;" x1="67.5" x2="117.5" y1="303.2188" y2="303.2188"/><text fill="#000000" font-family="sans-serif" font-size="14" lengthAdjust="spacing" textLength="4" x="90.5" y="295.1426">&#160;</text></g><g id="extraerCasosUso.RegistrandoCasosUso"><rect fill="#F1F1F1" height="50" rx="12.5" ry="12.5" style="stroke:#181818;stroke-width:0.5;" width="50" x="67.5" y="413.6094"/><line style="stroke:#181818;stroke-width:0.5;" x1="67.5" x2="117.5" y1="441.2188" y2="441.2188"/><text fill="#000000" font-family="sans-serif" font-size="14" lengthAdjust="spacing" textLength="4" x="90.5" y="433.1426">&#160;</text></g><ellipse cx="92.5" cy="55.6094" fill="#222222" rx="10" ry="10" style="stroke:#222222;stroke-width:1.0;"/><ellipse cx="92.5" cy="562.6094" fill="none" rx="11" ry="11" style="stroke:#222222;stroke-width:1.0;"/><ellipse cx="92.5" cy="562.6094" fill="#222222" rx="6" ry="6" style="stroke:#222222;stroke-width:1.0;"/><!--link *start*extraerCasosUso to ProcesandoDocumentacion--><g id="link_*start*extraerCasosUso_ProcesandoDocumentacion"><path d="M92.5,65.9294 C92.5,81.7894 92.5,108.5194 92.5,131.2494 " fill="none" id="*start*extraerCasosUso-to-ProcesandoDocumentacion" style="stroke:#008000;stroke-width:1.0;"/><polygon fill="#008000" points="92.5,137.2494,96.5,128.2494,92.5,132.2494,88.5,128.2494,92.5,137.2494" style="stroke:#008000;stroke-width:1.0;"/><path d="M97.5,88.6094 L97.5,114.6094 L346.5,114.6094 L346.5,98.6094 L336.5,88.6094 L97.5,88.6094 " fill="#FEFFDD" style="stroke:#181818;stroke-width:0.5;"/><path d="M336.5,88.6094 L336.5,98.6094 L346.5,98.6094 L336.5,88.6094 " fill="#FEFFDD" style="stroke:#181818;stroke-width:0.5;"/><text fill="#000000" font-family="sans-serif" font-size="13" lengthAdjust="spacing" textLength="228" x="103.5" y="107.1045">Se inicia la extraccion de casos de uso</text></g><!--link ProcesandoDocumentacion to IdentificandoCasosUso--><g id="link_ProcesandoDocumentacion_IdentificandoCasosUso"><path d="M92.5,187.6094 C92.5,212.3194 92.5,244.6094 92.5,269.3894 " fill="none" id="ProcesandoDocumentacion-to-IdentificandoCasosUso" style="stroke:#008000;stroke-width:1.0;"/><polygon fill="#008000" points="92.5,275.3894,96.5,266.3894,92.5,270.3894,88.5,266.3894,92.5,275.3894" style="stroke:#008000;stroke-width:1.0;"/><path d="M97.5,210.6094 L97.5,252.6094 L325.5,252.6094 L325.5,220.6094 L315.5,210.6094 L97.5,210.6094 " fill="#FEFFDD" style="stroke:#181818;stroke-width:0.5;"/><path d="M315.5,210.6094 L315.5,220.6094 L325.5,220.6094 L315.5,210.6094 " fill="#FEFFDD" style="stroke:#181818;stroke-width:0.5;"/><text fill="#000000" font-family="sans-serif" font-size="13" font-weight="bold" lengthAdjust="spacing" textLength="51" x="103.5" y="229.1045">Sistema</text><text fill="#000000" font-family="sans-serif" font-size="13" lengthAdjust="spacing" textLength="152" x="158.5" y="229.1045">procesa la documentacion</text><text fill="#000000" font-family="sans-serif" font-size="13" lengthAdjust="spacing" textLength="165" x="103.5" y="245.4561">e identifica los casos de uso</text></g><!--link IdentificandoCasosUso to RegistrandoCasosUso--><g id="link_IdentificandoCasosUso_RegistrandoCasosUso"><path d="M92.5,325.6094 C92.5,350.3194 92.5,382.6094 92.5,407.3894 " fill="none" id="IdentificandoCasosUso-to-RegistrandoCasosUso" style="stroke:#008000;stroke-width:1.0;"/><polygon fill="#008000" points="92.5,413.3894,96.5,404.3894,92.5,408.3894,88.5,404.3894,92.5,413.3894" style="stroke:#008000;stroke-width:1.0;"/><path d="M97.5,348.6094 L97.5,390.6094 L303.5,390.6094 L303.5,358.6094 L293.5,348.6094 L97.5,348.6094 " fill="#FEFFDD" style="stroke:#181818;stroke-width:0.5;"/><path d="M293.5,348.6094 L293.5,358.6094 L303.5,358.6094 L293.5,348.6094 " fill="#FEFFDD" style="stroke:#181818;stroke-width:0.5;"/><text fill="#000000" font-family="sans-serif" font-size="13" font-weight="bold" lengthAdjust="spacing" textLength="51" x="103.5" y="367.1045">Sistema</text><text fill="#000000" font-family="sans-serif" font-size="13" lengthAdjust="spacing" textLength="104" x="158.5" y="367.1045">prepara el registro</text><text fill="#000000" font-family="sans-serif" font-size="13" lengthAdjust="spacing" textLength="185" x="103.5" y="383.4561">de los casos de uso detectados</text></g><!--link RegistrandoCasosUso to *end*extraerCasosUso--><g id="link_RegistrandoCasosUso_*end*extraerCasosUso"><path d="M92.5,463.7094 C92.5,490.3794 92.5,526.1094 92.5,545.3094 " fill="none" id="RegistrandoCasosUso-to-*end*extraerCasosUso" style="stroke:#008000;stroke-width:1.0;"/><polygon fill="#008000" points="92.5,551.3094,96.5,542.3094,92.5,546.3094,88.5,542.3094,92.5,551.3094" style="stroke:#008000;stroke-width:1.0;"/><path d="M97.5,486.6094 L97.5,528.6094 L315.5,528.6094 L315.5,496.6094 L305.5,486.6094 L97.5,486.6094 " fill="#FEFFDD" style="stroke:#181818;stroke-width:0.5;"/><path d="M305.5,486.6094 L305.5,496.6094 L315.5,496.6094 L305.5,486.6094 " fill="#FEFFDD" style="stroke:#181818;stroke-width:0.5;"/><text fill="#000000" font-family="sans-serif" font-size="13" font-weight="bold" lengthAdjust="spacing" textLength="51" x="103.5" y="505.1045">Sistema</text><text fill="#000000" font-family="sans-serif" font-size="13" lengthAdjust="spacing" textLength="142" x="158.5" y="505.1045">guarda los casos de uso</text><text fill="#000000" font-family="sans-serif" font-size="13" lengthAdjust="spacing" textLength="109" x="103.5" y="521.4561">en el sistema local</text></g><g id="CASOS_USO_ABIERTO"><rect fill="#F1F1F1" height="50" rx="12.5" ry="12.5" style="stroke:#181818;stroke-width:0.5;" width="173" x="7" y="680"/><line style="stroke:#181818;stroke-width:0.5;" x1="7" x2="180" y1="707.6094" y2="707.6094"/><text fill="#000000" font-family="sans-serif" font-size="14" lengthAdjust="spacing" textLength="153" x="17" y="699.5332">CASOS_USO_ABIERTO</text></g><g id="DOCUMENTACION_ABIERTA"><rect fill="#F1F1F1" height="50" rx="12.5" ry="12.5" style="stroke:#181818;stroke-width:0.5;" width="206" x="215.5" y="680"/><line style="stroke:#181818;stroke-width:0.5;" x1="215.5" x2="421.5" y1="707.6094" y2="707.6094"/><text fill="#000000" font-family="sans-serif" font-size="14" lengthAdjust="spacing" textLength="186" x="225.5" y="699.5332">DOCUMENTACION_ABIERTA</text></g><!--link extraerCasosUso to CASOS_USO_ABIERTO--><g id="link_extraerCasosUso_CASOS_USO_ABIERTO"><path d="M125.78,584.13 C120.66,602.6 117.5,614 117.5,614 C117.5,614 108.5861,647.4226 101.4761,674.0826 " fill="none" id="extraerCasosUso-to-CASOS_USO_ABIERTO" style="stroke:#008000;stroke-width:1.0;"/><polygon fill="#008000" points="99.93,679.88,106.1141,672.2147,101.2184,675.0489,98.3843,670.1532,99.93,679.88" style="stroke:#008000;stroke-width:1.0;"/><path d="M122.5,619 L122.5,645 L270.5,645 L270.5,629 L260.5,619 L122.5,619 " fill="#FEFFDD" style="stroke:#181818;stroke-width:0.5;"/><path d="M260.5,619 L260.5,629 L270.5,629 L260.5,619 " fill="#FEFFDD" style="stroke:#181818;stroke-width:0.5;"/><text fill="#000000" font-family="sans-serif" font-size="13" lengthAdjust="spacing" textLength="127" x="128.5" y="637.4951">completarExtraccion()</text></g><!--link extraerCasosUso to DOCUMENTACION_ABIERTA--><g id="link_extraerCasosUso_DOCUMENTACION_ABIERTA"><path d="M285.28,584.22 C296.22,623.65 304.1347,652.2187 310.1547,673.8987 " fill="none" id="extraerCasosUso-to-DOCUMENTACION_ABIERTA" style="stroke:#FF0000;stroke-width:1.0;"/><polygon fill="#FF0000" points="311.76,679.68,313.2062,669.9379,310.4222,674.8623,305.4979,672.0783,311.76,679.68" style="stroke:#FF0000;stroke-width:1.0;"/><path d="M306.5,619 L306.5,645 L447.5,645 L447.5,629 L437.5,619 L306.5,619 " fill="#FEFFDD" style="stroke:#181818;stroke-width:0.5;"/><path d="M437.5,619 L437.5,629 L447.5,629 L437.5,619 " fill="#FEFFDD" style="stroke:#181818;stroke-width:0.5;"/><text fill="#000000" font-family="sans-serif" font-size="13" lengthAdjust="spacing" textLength="120" x="312.5" y="637.4951">rechazarExtraccion()</text></g><!--SRC=[ZP91Ri8m44NtFiM8Rg0IwWKGKXfOi2Yf2AmGGeCzfHQ97Tb6Agrwzzg4Ka8IIho8xNp_UTyPkvEgG8CvP5AHEnG4XSuEOS6OTUW8wCCP91EZrNPXDQ25pjLUjzU1ByR0F-MPZXzUzseq9ujAw97c-voKGowrgWidmd-JRv87xQzhNJQZhRI-ygNeg5e-hg2_VDWQ8hNg3syMLjeRQXK2xuuRAO5Kaak43CkqF8X14F1G9Kps9nnIucXGbcqfKq5fZrO36Mo6gSz7EGwUDaCeIlT09MefFFFP638F-Gzg8qO5jEboxyEaq4506PZIeZpdKQwv_CiHToYqRK1i0AW0-fzy5z1sZqQqNahWjANQIpXcLP9lnguR_f8XZj8aNI_IP1qzJyQpUS8gD5pdHKOEpVZSHjqU-ulPO6r81EDH4YzUnjDv54-IwSaygfeRuk_usURz0m00]--></g></svg>