<?xml version="1.0" encoding="us-ascii" standalone="no"?><svg xmlns="http://www.w3.org/2000/svg" xmlns:xlink="http://www.w3.org/1999/xlink" contentStyleType="text/css" height="736px" preserveAspectRatio="none" style="width:488px;height:736px;background:#FFFFFF;" version="1.1" viewBox="0 0 488 736" width="488px" zoomAndPan="magnify"><defs/><g><path d="M64.5,7 L385.5,7 A12.5,12.5 0 0 1 398,19.5 L398,34.6094 L52,34.6094 L52,19.5 A12.5,12.5 0 0 1 64.5,7 " fill="#F1F1F1" style="stroke:#F1F1F1;stroke-width:1.0;"/><rect fill="none" height="576.6094" rx="12.5" ry="12.5" style="stroke:#181818;stroke-width:0.5;" width="346" x="52" y="7"/><line style="stroke:#181818;stroke-width:0.5;" x1="52" x2="398" y1="34.6094" y2="34.6094"/><text fill="#000000" font-family="sans-serif" font-size="14" lengthAdjust="spacing" textLength="178" x="136" y="26.5332">crearBorradorCasoPrueba()</text><g id="crearBorradorCasoPrueba.RecuperandoEscenarios"><rect fill="#F1F1F1" height="50" rx="12.5" ry="12.5" style="stroke:#181818;stroke-width:0.5;" width="50" x="64" y="137.6094"/><line style="stroke:#181818;stroke-width:0.5;" x1="64" x2="114" y1="165.2188" y2="165.2188"/><text fill="#000000" font-family="sans-serif" font-size="14" lengthAdjust="spacing" textLength="4" x="87" y="157.1426">&#160;</text></g><g id="crearBorradorCasoPrueba.GenerandoBorrador"><rect fill="#F1F1F1" height="50" rx="12.5" ry="12.5" style="stroke:#181818;stroke-width:0.5;" width="50" x="64" y="275.6094"/><line style="stroke:#181818;stroke-width:0.5;" x1="64" x2="114" y1="303.2188" y2="303.2188"/><text fill="#000000" font-family="sans-serif" font-size="14" lengthAdjust="spacing" textLength="4" x="87" y="295.1426">&#160;</text></g><g id="crearBorradorCasoPrueba.RegistrandoBorrador"><rect fill="#F1F1F1" height="50" rx="12.5" ry="12.5" style="stroke:#181818;stroke-width:0.5;" width="50" x="64" y="413.6094"/><line style="stroke:#181818;stroke-width:0.5;" x1="64" x2="114" y1="441.2188" y2="441.2188"/><text fill="#000000" font-family="sans-serif" font-size="14" lengthAdjust="spacing" textLength="4" x="87" y="433.1426">&#160;</text></g><ellipse cx="89" cy="55.6094" fill="#222222" rx="10" ry="10" style="stroke:#222222;stroke-width:1.0;"/><ellipse cx="89" cy="562.6094" fill="none" rx="11" ry="11" style="stroke:#222222;stroke-width:1.0;"/><ellipse cx="89" cy="562.6094" fill="#222222" rx="6" ry="6" style="stroke:#222222;stroke-width:1.0;"/><!--link *start*crearBorradorCasoPrueba to RecuperandoEscenarios--><g id="link_*start*crearBorradorCasoPrueba_RecuperandoEscenarios"><path d="M89,65.9294 C89,81.7894 89,108.5194 89,131.2494 " fill="none" id="*start*crearBorradorCasoPrueba-to-RecuperandoEscenarios" style="stroke:#008000;stroke-width:1.0;"/><polygon fill="#008000" points="89,137.2494,93,128.2494,89,132.2494,85,128.2494,89,137.2494" style="stroke:#008000;stroke-width:1.0;"/><path d="M94,88.6094 L94,114.6094 L389,114.6094 L389,98.6094 L379,88.6094 L94,88.6094 " fill="#FEFFDD" style="stroke:#181818;stroke-width:0.5;"/><path d="M379,88.6094 L379,98.6094 L389,98.6094 L379,88.6094 " fill="#FEFFDD" style="stroke:#181818;stroke-width:0.5;"/><text fill="#000000" font-family="sans-serif" font-size="13" lengthAdjust="spacing" textLength="274" x="100" y="107.1045">Se solicita crear un borrador de caso de prueba</text></g><!--link RecuperandoEscenarios to GenerandoBorrador--><g id="link_RecuperandoEscenarios_GenerandoBorrador"><path d="M89,187.6094 C89,212.3194 89,244.6094 89,269.3894 " fill="none" id="RecuperandoEscenarios-to-GenerandoBorrador" style="stroke:#008000;stroke-width:1.0;"/><polygon fill="#008000" points="89,275.3894,93,266.3894,89,270.3894,85,266.3894,89,275.3894" style="stroke:#008000;stroke-width:1.0;"/><path d="M94,210.6094 L94,252.6094 L357,252.6094 L357,220.6094 L347,210.6094 L94,210.6094 " fill="#FEFFDD" style="stroke:#181818;stroke-width:0.5;"/><path d="M347,210.6094 L347,220.6094 L357,220.6094 L347,210.6094 " fill="#FEFFDD" style="stroke:#181818;stroke-width:0.5;"/><text fill="#000000" font-family="sans-serif" font-size="13" font-weight="bold" lengthAdjust="spacing" textLength="51" x="100" y="229.1045">Sistema</text><text fill="#000000" font-family="sans-serif" font-size="13" lengthAdjust="spacing" textLength="187" x="155" y="229.1045">recupera los escenarios Gherkin</text><text fill="#000000" font-family="sans-serif" font-size="13" lengthAdjust="spacing" textLength="226" x="100" y="245.4561">disponibles y prepara la transformacion</text></g><!--link GenerandoBorrador to RegistrandoBorrador--><g id="link_GenerandoBorrador_RegistrandoBorrador"><path d="M89,325.6094 C89,350.3194 89,382.6094 89,407.3894 " fill="none" id="GenerandoBorrador-to-RegistrandoBorrador" style="stroke:#008000;stroke-width:1.0;"/><polygon fill="#008000" points="89,413.3894,93,404.3894,89,408.3894,85,404.3894,89,413.3894" style="stroke:#008000;stroke-width:1.0;"/><path d="M94,348.6094 L94,390.6094 L318,390.6094 L318,358.6094 L308,348.6094 L94,348.6094 " fill="#FEFFDD" style="stroke:#181818;stroke-width:0.5;"/><path d="M308,348.6094 L308,358.6094 L318,358.6094 L308,348.6094 " fill="#FEFFDD" style="stroke:#181818;stroke-width:0.5;"/><text fill="#000000" font-family="sans-serif" font-size="13" font-weight="bold" lengthAdjust="spacing" textLength="51" x="100" y="367.1045">Sistema</text><text fill="#000000" font-family="sans-serif" font-size="13" lengthAdjust="spacing" textLength="148" x="155" y="367.1045">genera el borrador a partir</text><text fill="#000000" font-family="sans-serif" font-size="13" lengthAdjust="spacing" textLength="189" x="100" y="383.4561">de los escenarios seleccionados</text></g><!--link RegistrandoBorrador to *end*crearBorradorCasoPrueba--><g id="link_RegistrandoBorrador_*end*crearBorradorCasoPrueba"><path d="M89,463.7094 C89,490.3794 89,526.1094 89,545.3094 " fill="none" id="RegistrandoBorrador-to-*end*crearBorradorCasoPrueba" style="stroke:#008000;stroke-width:1.0;"/><polygon fill="#008000" points="89,551.3094,93,542.3094,89,546.3094,85,542.3094,89,551.3094" style="stroke:#008000;stroke-width:1.0;"/><path d="M94,486.6094 L94,528.6094 L302,528.6094 L302,496.6094 L292,486.6094 L94,486.6094 " fill="#FEFFDD" style="stroke:#181818;stroke-width:0.5;"/><path d="M292,486.6094 L292,496.6094 L302,496.6094 L292,486.6094 " fill="#FEFFDD" style="stroke:#181818;stroke-width:0.5;"/><text fill="#000000" font-family="sans-serif" font-size="13" font-weight="bold" lengthAdjust="spacing" textLength="51" x="100" y="505.1045">Sistema</text><text fill="#000000" font-family="sans-serif" font-size="13" lengthAdjust="spacing" textLength="108" x="155" y="505.1045">registra el borrador</text><text fill="#000000" font-family="sans-serif" font-size="13" lengthAdjust="spacing" textLength="187" x="100" y="521.4561">y lo deja disponible para revision</text></g><g id="BORRADORES_ABIERTO"><rect fill="#F1F1F1" height="50" rx="12.5" ry="12.5" style="stroke:#181818;stroke-width:0.5;" width="186" x="7" y="680"/><line style="stroke:#181818;stroke-width:0.5;" x1="7" x2="193" y1="707.6094" y2="707.6094"/><text fill="#000000" font-family="sans-serif" font-size="14" lengthAdjust="spacing" textLength="166" x="17" y="699.5332">BORRADORES_ABIERTO</text></g><g id="ESCENARIOS_GHERKIN_ABIERTO"><rect fill="#F1F1F1" height="50" rx="12.5" ry="12.5" style="stroke:#181818;stroke-width:0.5;" width="244" x="228" y="680"/><line style="stroke:#181818;stroke-width:0.5;" x1="228" x2="472" y1="707.6094" y2="707.6094"/><text fill="#000000" font-family="sans-serif" font-size="14" lengthAdjust="spacing" textLength="224" x="238" y="699.5332">ESCENARIOS_GHERKIN_ABIERTO</text></g><!--link crearBorradorCasoPrueba to BORRADORES_ABIERTO--><g id="link_crearBorradorCasoPrueba_BORRADORES_ABIERTO"><path d="M136.74,584.22 C124.65,623.65 115.8695,652.2638 109.2195,673.9438 " fill="none" id="crearBorradorCasoPrueba-to-BORRADORES_ABIERTO" style="stroke:#008000;stroke-width:1.0;"/><polygon fill="#008000" points="107.46,679.68,113.9234,672.2487,108.9262,674.8998,106.2751,669.9027,107.46,679.68" style="stroke:#008000;stroke-width:1.0;"/><path d="M133,619 L133,645 L285,645 L285,629 L275,619 L133,619 " fill="#FEFFDD" style="stroke:#181818;stroke-width:0.5;"/><path d="M275,619 L275,629 L285,629 L275,619 " fill="#FEFFDD" style="stroke:#181818;stroke-width:0.5;"/><text fill="#000000" font-family="sans-serif" font-size="13" lengthAdjust="spacing" textLength="131" x="139" y="637.4951">completarGeneracion()</text></g><!--link crearBorradorCasoPrueba to ESCENARIOS_GHERKIN_ABIERTO--><g id="link_crearBorradorCasoPrueba_ESCENARIOS_GHERKIN_ABIERTO"><path d="M313.26,584.22 C325.35,623.65 334.1305,652.2638 340.7805,673.9438 " fill="none" id="crearBorradorCasoPrueba-to-ESCENARIOS_GHERKIN_ABIERTO" style="stroke:#FF0000;stroke-width:1.0;"/><polygon fill="#FF0000" points="342.54,679.68,343.7249,669.9027,341.0738,674.8998,336.0766,672.2487,342.54,679.68" style="stroke:#FF0000;stroke-width:1.0;"/><path d="M336,619 L336,645 L481,645 L481,629 L471,619 L336,619 " fill="#FEFFDD" style="stroke:#181818;stroke-width:0.5;"/><path d="M471,619 L471,629 L481,629 L471,619 " fill="#FEFFDD" style="stroke:#181818;stroke-width:0.5;"/><text fill="#000000" font-family="sans-serif" font-size="13" lengthAdjust="spacing" textLength="124" x="342" y="637.4951">rechazarGeneracion()</text></g><!--SRC=[ZPFHRe9044NV-Og9VT4cfZzWJDGIQvf80tqpnWmmrQtBBjd59hJfltTOR1H18pmGOEREkNV0xeNAqM06KYWgofmWrxAiRZpF5bWG98RGJBKnc6epGwlVp85Y1BJGk_AkF-Z1Z-S17xL6Zq-k3oavv6HGfTgt2IaqGjjssPnKNVIltAMq5RPe5hcgrUCQXgk7hI5Iw-7unaYbMKwholZUFOW8h9OY4GNMfk6W83wgGyf9iC7gcZkJheTKweJguPt36ZZTrbeeetWSiJ_ASFGKZy4STK6o79sKvpiol43NaWgRQoLYIHPAHgHghI0HgfJiXpOP9aAh3keMqqM0xQJlOTuwLI1vYX21cGfHztEE5suiIKegHYwsdUcsI1galFexqwnrpjbSNSb4pFM9Ps62Yz7Gbx2jz7uzxzhFSSur3S9myXo4VhIPJ1T- -1vu3SH4Pxca0aszY2g1_i0xURynmr1QJV2ZcR-SX8iWsinV_F1riUoUnD_H3h-l3Ve3]--></g></svg>