<?xml version="1.0" encoding="us-ascii" standalone="no"?><svg xmlns="http://www.w3.org/2000/svg" xmlns:xlink="http://www.w3.org/1999/xlink" contentStyleType="text/css" height="736px" preserveAspectRatio="none" style="width:420px;height:736px;background:#FFFFFF;" version="1.1" viewBox="0 0 420 736" width="420px" zoomAndPan="magnify"><defs/><g><path d="M62,7 L320,7 A12.5,12.5 0 0 1 332.5,19.5 L332.5,34.6094 L49.5,34.6094 L49.5,19.5 A12.5,12.5 0 0 1 62,7 " fill="#F1F1F1" style="stroke:#F1F1F1;stroke-width:1.0;"/><rect fill="none" height="576.6094" rx="12.5" ry="12.5" style="stroke:#181818;stroke-width:0.5;" width="283" x="49.5" y="7"/><line style="stroke:#181818;stroke-width:0.5;" x1="49.5" x2="332.5" y1="34.6094" y2="34.6094"/><text fill="#000000" font-family="sans-serif" font-size="14" lengthAdjust="spacing" textLength="125" x="128.5" y="26.5332">consultarCasoUso()</text><g id="consultarCasoUso.SeleccionandoCasoUso"><rect fill="#F1F1F1" height="50" rx="12.5" ry="12.5" style="stroke:#181818;stroke-width:0.5;" width="50" x="61.5" y="137.6094"/><line style="stroke:#181818;stroke-width:0.5;" x1="61.5" x2="111.5" y1="165.2188" y2="165.2188"/><text fill="#000000" font-family="sans-serif" font-size="14" lengthAdjust="spacing" textLength="4" x="84.5" y="157.1426">&#160;</text></g><g id="consultarCasoUso.RecuperandoDetalle"><rect fill="#F1F1F1" height="50" rx="12.5" ry="12.5" style="stroke:#181818;stroke-width:0.5;" width="50" x="61.5" y="275.6094"/><line style="stroke:#181818;stroke-width:0.5;" x1="61.5" x2="111.5" y1="303.2188" y2="303.2188"/><text fill="#000000" font-family="sans-serif" font-size="14" lengthAdjust="spacing" textLength="4" x="84.5" y="295.1426">&#160;</text></g><g id="consultarCasoUso.MostrandoDetalle"><rect fill="#F1F1F1" height="50" rx="12.5" ry="12.5" style="stroke:#181818;stroke-width:0.5;" width="50" x="61.5" y="413.6094"/><line style="stroke:#181818;stroke-width:0.5;" x1="61.5" x2="111.5" y1="441.2188" y2="441.2188"/><text fill="#000000" font-family="sans-serif" font-size="14" lengthAdjust="spacing" textLength="4" x="84.5" y="433.1426">&#160;</text></g><ellipse cx="86.5" cy="55.6094" fill="#222222" rx="10" ry="10" style="stroke:#222222;stroke-width:1.0;"/><ellipse cx="86.5" cy="562.6094" fill="none" rx="11" ry="11" style="stroke:#222222;stroke-width:1.0;"/><ellipse cx="86.5" cy="562.6094" fill="#222222" rx="6" ry="6" style="stroke:#222222;stroke-width:1.0;"/><!--link *start*consultarCasoUso to SeleccionandoCasoUso--><g id="link_*start*consultarCasoUso_SeleccionandoCasoUso"><path d="M86.5,65.9294 C86.5,81.7894 86.5,108.5194 86.5,131.2494 " fill="none" id="*start*consultarCasoUso-to-SeleccionandoCasoUso" style="stroke:#008000;stroke-width:1.0;"/><polygon fill="#008000" points="86.5,137.2494,90.5,128.2494,86.5,132.2494,82.5,128.2494,86.5,137.2494" style="stroke:#008000;stroke-width:1.0;"/><path d="M91.5,88.6094 L91.5,114.6094 L323.5,114.6094 L323.5,98.6094 L313.5,88.6094 L91.5,88.6094 " fill="#FEFFDD" style="stroke:#181818;stroke-width:0.5;"/><path d="M313.5,88.6094 L313.5,98.6094 L323.5,98.6094 L313.5,88.6094 " fill="#FEFFDD" style="stroke:#181818;stroke-width:0.5;"/><text fill="#000000" font-family="sans-serif" font-size="13" lengthAdjust="spacing" textLength="211" x="97.5" y="107.1045">Se solicita consultar un caso de uso</text></g><!--link SeleccionandoCasoUso to RecuperandoDetalle--><g id="link_SeleccionandoCasoUso_RecuperandoDetalle"><path d="M86.5,187.6094 C86.5,212.3194 86.5,244.6094 86.5,269.3894 " fill="none" id="SeleccionandoCasoUso-to-RecuperandoDetalle" style="stroke:#008000;stroke-width:1.0;"/><polygon fill="#008000" points="86.5,275.3894,90.5,266.3894,86.5,270.3894,82.5,266.3894,86.5,275.3894" style="stroke:#008000;stroke-width:1.0;"/><path d="M91.5,210.6094 L91.5,252.6094 L322.5,252.6094 L322.5,220.6094 L312.5,210.6094 L91.5,210.6094 " fill="#FEFFDD" style="stroke:#181818;stroke-width:0.5;"/><path d="M312.5,210.6094 L312.5,220.6094 L322.5,220.6094 L312.5,210.6094 " fill="#FEFFDD" style="stroke:#181818;stroke-width:0.5;"/><text fill="#000000" font-family="sans-serif" font-size="13" font-weight="bold" lengthAdjust="spacing" textLength="51" x="97.5" y="229.1045">Sistema</text><text fill="#000000" font-family="sans-serif" font-size="13" lengthAdjust="spacing" textLength="155" x="152.5" y="229.1045">toma el caso seleccionado</text><text fill="#000000" font-family="sans-serif" font-size="13" lengthAdjust="spacing" textLength="121" x="97.5" y="245.4561">y recupera su detalle</text></g><!--link RecuperandoDetalle to MostrandoDetalle--><g id="link_RecuperandoDetalle_MostrandoDetalle"><path d="M86.5,325.6094 C86.5,350.3194 86.5,382.6094 86.5,407.3894 " fill="none" id="RecuperandoDetalle-to-MostrandoDetalle" style="stroke:#008000;stroke-width:1.0;"/><polygon fill="#008000" points="86.5,413.3894,90.5,404.3894,86.5,408.3894,82.5,404.3894,86.5,413.3894" style="stroke:#008000;stroke-width:1.0;"/><path d="M91.5,348.6094 L91.5,390.6094 L294.5,390.6094 L294.5,358.6094 L284.5,348.6094 L91.5,348.6094 " fill="#FEFFDD" style="stroke:#181818;stroke-width:0.5;"/><path d="M284.5,348.6094 L284.5,358.6094 L294.5,358.6094 L284.5,348.6094 " fill="#FEFFDD" style="stroke:#181818;stroke-width:0.5;"/><text fill="#000000" font-family="sans-serif" font-size="13" font-weight="bold" lengthAdjust="spacing" textLength="51" x="97.5" y="367.1045">Sistema</text><text fill="#000000" font-family="sans-serif" font-size="13" lengthAdjust="spacing" textLength="127" x="152.5" y="367.1045">prepara la informacion</text><text fill="#000000" font-family="sans-serif" font-size="13" lengthAdjust="spacing" textLength="120" x="97.5" y="383.4561">para su visualizacion</text></g><!--link MostrandoDetalle to *end*consultarCasoUso--><g id="link_MostrandoDetalle_*end*consultarCasoUso"><path d="M86.5,463.7094 C86.5,490.3794 86.5,526.1094 86.5,545.3094 " fill="none" id="MostrandoDetalle-to-*end*consultarCasoUso" style="stroke:#008000;stroke-width:1.0;"/><polygon fill="#008000" points="86.5,551.3094,90.5,542.3094,86.5,546.3094,82.5,542.3094,86.5,551.3094" style="stroke:#008000;stroke-width:1.0;"/><path d="M91.5,486.6094 L91.5,528.6094 L270.5,528.6094 L270.5,496.6094 L260.5,486.6094 L91.5,486.6094 " fill="#FEFFDD" style="stroke:#181818;stroke-width:0.5;"/><path d="M260.5,486.6094 L260.5,496.6094 L270.5,496.6094 L260.5,486.6094 " fill="#FEFFDD" style="stroke:#181818;stroke-width:0.5;"/><text fill="#000000" font-family="sans-serif" font-size="13" font-weight="bold" lengthAdjust="spacing" textLength="51" x="97.5" y="505.1045">Sistema</text><text fill="#000000" font-family="sans-serif" font-size="13" lengthAdjust="spacing" textLength="103" x="152.5" y="505.1045">muestra el detalle</text><text fill="#000000" font-family="sans-serif" font-size="13" lengthAdjust="spacing" textLength="92" x="97.5" y="521.4561">del caso de uso</text></g><g id="CASO_USO_ABIERTO"><rect fill="#F1F1F1" height="50" rx="12.5" ry="12.5" style="stroke:#181818;stroke-width:0.5;" width="164" x="7" y="680"/><line style="stroke:#181818;stroke-width:0.5;" x1="7" x2="171" y1="707.6094" y2="707.6094"/><text fill="#000000" font-family="sans-serif" font-size="14" lengthAdjust="spacing" textLength="144" x="17" y="699.5332">CASO_USO_ABIERTO</text></g><g id="CASOS_USO_ABIERTO"><rect fill="#F1F1F1" height="50" rx="12.5" ry="12.5" style="stroke:#181818;stroke-width:0.5;" width="173" x="206.5" y="680"/><line style="stroke:#181818;stroke-width:0.5;" x1="206.5" x2="379.5" y1="707.6094" y2="707.6094"/><text fill="#000000" font-family="sans-serif" font-size="14" lengthAdjust="spacing" textLength="153" x="216.5" y="699.5332">CASOS_USO_ABIERTO</text></g><!--link consultarCasoUso to CASO_USO_ABIERTO--><g id="link_consultarCasoUso_CASO_USO_ABIERTO"><path d="M111.28,584.13 C106.16,602.6 103,614 103,614 C103,614 97.8229,647.2914 93.6729,673.9514 " fill="none" id="consultarCasoUso-to-CASO_USO_ABIERTO" style="stroke:#008000;stroke-width:1.0;"/><polygon fill="#008000" points="92.75,679.88,98.0867,671.6023,93.5191,674.9395,90.1819,670.3719,92.75,679.88" style="stroke:#008000;stroke-width:1.0;"/><path d="M108,619 L108,645 L245,645 L245,629 L235,619 L108,619 " fill="#FEFFDD" style="stroke:#181818;stroke-width:0.5;"/><path d="M235,619 L235,629 L245,629 L235,619 " fill="#FEFFDD" style="stroke:#181818;stroke-width:0.5;"/><text fill="#000000" font-family="sans-serif" font-size="13" lengthAdjust="spacing" textLength="116" x="114" y="637.4951">completarConsulta()</text></g><!--link consultarCasoUso to CASOS_USO_ABIERTO--><g id="link_consultarCasoUso_CASOS_USO_ABIERTO"><path d="M263.02,584.22 C272.89,623.65 280.0223,652.1798 285.4523,673.8598 " fill="none" id="consultarCasoUso-to-CASOS_USO_ABIERTO" style="stroke:#FF0000;stroke-width:1.0;"/><polygon fill="#FF0000" points="286.91,679.68,288.6035,669.9778,285.6952,674.8298,280.8432,671.9215,286.91,679.68" style="stroke:#FF0000;stroke-width:1.0;"/><path d="M283,619 L283,645 L413,645 L413,629 L403,619 L283,619 " fill="#FEFFDD" style="stroke:#181818;stroke-width:0.5;"/><path d="M403,619 L403,629 L413,629 L403,619 " fill="#FEFFDD" style="stroke:#181818;stroke-width:0.5;"/><text fill="#000000" font-family="sans-serif" font-size="13" lengthAdjust="spacing" textLength="109" x="289" y="637.4951">rechazarConsulta()</text></g><!--SRC=[ZLBDQW8n4BxdAGPxqOBq1KImjeSUYk3MaqWPizCsc4sM_1IqzDsRh6lNc1NSPG-P_Vvc9dOdL8q6Av12aTlN1BMM-tXWp3fq15mhwwL3CqUhLrO3MXXS5eUZ0Vmm1k4viWRX3S22974kj49LwXQRevR4VKqcOfx8ePIKOrwrTGcYWQplDp1UttqQ8hKPJw_xAHsaj8fjxff2GM2r55mux5e4hu075fG4lcMIAXisQscvGPBWIY-P_sGxBOHrLE7aOJi5foi4aaTt-szI7ZFimRIoO7q8r-ccwNBp95ismrkIrORY3G698DI7DXN6P0sogOT0ty9wbEBG_KbZNVeceS8ARyfHUOegSKZd0oXFG-jRsIzZsVKzzvxFYiNxAdopnvVdvTk29I6uhcf9aTfg34UiQwnFs51vaYskwuPTVk6XN_OF]--></g></svg>