<?xml version="1.0" encoding="us-ascii" standalone="no"?><svg xmlns="http://www.w3.org/2000/svg" xmlns:xlink="http://www.w3.org/1999/xlink" contentStyleType="text/css" height="598px" preserveAspectRatio="none" style="width:351px;height:598px;background:#FFFFFF;" version="1.1" viewBox="0 0 351 598" width="351px" zoomAndPan="magnify"><defs/><g><path d="M19.5,7 L288.5,7 A12.5,12.5 0 0 1 301,19.5 L301,34.6094 L7,34.6094 L7,19.5 A12.5,12.5 0 0 1 19.5,7 " fill="#F1F1F1" style="stroke:#F1F1F1;stroke-width:1.0;"/><rect fill="none" height="438.6094" rx="12.5" ry="12.5" style="stroke:#181818;stroke-width:0.5;" width="294" x="7" y="7"/><line style="stroke:#181818;stroke-width:0.5;" x1="7" x2="301" y1="34.6094" y2="34.6094"/><text fill="#000000" font-family="sans-serif" font-size="14" lengthAdjust="spacing" textLength="183" x="62.5" y="26.5332">listarRequisitosFuncionales()</text><g id="listarRequisitosFuncionales.RecuperandoRequisitos"><rect fill="#F1F1F1" height="50" rx="12.5" ry="12.5" style="stroke:#181818;stroke-width:0.5;" width="50" x="19" y="137.6094"/><line style="stroke:#181818;stroke-width:0.5;" x1="19" x2="69" y1="165.2188" y2="165.2188"/><text fill="#000000" font-family="sans-serif" font-size="14" lengthAdjust="spacing" textLength="4" x="42" y="157.1426">&#160;</text></g><g id="listarRequisitosFuncionales.MostrandoRequisitos"><rect fill="#F1F1F1" height="50" rx="12.5" ry="12.5" style="stroke:#181818;stroke-width:0.5;" width="50" x="19" y="275.6094"/><line style="stroke:#181818;stroke-width:0.5;" x1="19" x2="69" y1="303.2188" y2="303.2188"/><text fill="#000000" font-family="sans-serif" font-size="14" lengthAdjust="spacing" textLength="4" x="42" y="295.1426">&#160;</text></g><ellipse cx="44" cy="55.6094" fill="#222222" rx="10" ry="10" style="stroke:#222222;stroke-width:1.0;"/><ellipse cx="44" cy="424.6094" fill="none" rx="11" ry="11" style="stroke:#222222;stroke-width:1.0;"/><ellipse cx="44" cy="424.6094" fill="#222222" rx="6" ry="6" style="stroke:#222222;stroke-width:1.0;"/><!--link *start*listarRequisitosFuncionales to RecuperandoRequisitos--><g id="link_*start*listarRequisitosFuncionales_RecuperandoRequisitos"><path d="M44,65.9294 C44,81.7894 44,108.5194 44,131.2494 " fill="none" id="*start*listarRequisitosFuncionales-to-RecuperandoRequisitos" style="stroke:#008000;stroke-width:1.0;"/><polygon fill="#008000" points="44,137.2494,48,128.2494,44,132.2494,40,128.2494,44,137.2494" style="stroke:#008000;stroke-width:1.0;"/><path d="M49,88.6094 L49,114.6094 L292,114.6094 L292,98.6094 L282,88.6094 L49,88.6094 " fill="#FEFFDD" style="stroke:#181818;stroke-width:0.5;"/><path d="M282,88.6094 L282,98.6094 L292,98.6094 L282,88.6094 " fill="#FEFFDD" style="stroke:#181818;stroke-width:0.5;"/><text fill="#000000" font-family="sans-serif" font-size="13" lengthAdjust="spacing" textLength="222" x="55" y="107.1045">Se solicita listar requisitos funcionales</text></g><!--link RecuperandoRequisitos to MostrandoRequisitos--><g id="link_RecuperandoRequisitos_MostrandoRequisitos"><path d="M44,187.6094 C44,212.3194 44,244.6094 44,269.3894 " fill="none" id="RecuperandoRequisitos-to-MostrandoRequisitos" style="stroke:#008000;stroke-width:1.0;"/><polygon fill="#008000" points="44,275.3894,48,266.3894,44,270.3894,40,266.3894,44,275.3894" style="stroke:#008000;stroke-width:1.0;"/><path d="M49,210.6094 L49,252.6094 L256,252.6094 L256,220.6094 L246,210.6094 L49,210.6094 " fill="#FEFFDD" style="stroke:#181818;stroke-width:0.5;"/><path d="M246,210.6094 L246,220.6094 L256,220.6094 L246,210.6094 " fill="#FEFFDD" style="stroke:#181818;stroke-width:0.5;"/><text fill="#000000" font-family="sans-serif" font-size="13" font-weight="bold" lengthAdjust="spacing" textLength="51" x="55" y="229.1045">Sistema</text><text fill="#000000" font-family="sans-serif" font-size="13" lengthAdjust="spacing" textLength="131" x="110" y="229.1045">recupera los requisitos</text><text fill="#000000" font-family="sans-serif" font-size="13" lengthAdjust="spacing" textLength="133" x="55" y="245.4561">funcionales registrados</text></g><!--link MostrandoRequisitos to *end*listarRequisitosFuncionales--><g id="link_MostrandoRequisitos_*end*listarRequisitosFuncionales"><path d="M44,325.7094 C44,352.3794 44,388.1094 44,407.3094 " fill="none" id="MostrandoRequisitos-to-*end*listarRequisitosFuncionales" style="stroke:#008000;stroke-width:1.0;"/><polygon fill="#008000" points="44,413.3094,48,404.3094,44,408.3094,40,404.3094,44,413.3094" style="stroke:#008000;stroke-width:1.0;"/><path d="M49,348.6094 L49,390.6094 L214,390.6094 L214,358.6094 L204,348.6094 L49,348.6094 " fill="#FEFFDD" style="stroke:#181818;stroke-width:0.5;"/><path d="M204,348.6094 L204,358.6094 L214,358.6094 L204,348.6094 " fill="#FEFFDD" style="stroke:#181818;stroke-width:0.5;"/><text fill="#000000" font-family="sans-serif" font-size="13" font-weight="bold" lengthAdjust="spacing" textLength="51" x="55" y="367.1045">Sistema</text><text fill="#000000" font-family="sans-serif" font-size="13" lengthAdjust="spacing" textLength="89" x="110" y="367.1045">muestra la lista</text><text fill="#000000" font-family="sans-serif" font-size="13" lengthAdjust="spacing" textLength="143" x="55" y="383.4561">de requisitos funcionales</text></g><g id="REQUISITOS_FUNCIONALES_ABIERTO"><rect fill="#F1F1F1" height="50" rx="12.5" ry="12.5" style="stroke:#181818;stroke-width:0.5;" width="274" x="17" y="542"/><line style="stroke:#181818;stroke-width:0.5;" x1="17" x2="291" y1="569.6094" y2="569.6094"/><text fill="#000000" font-family="sans-serif" font-size="14" lengthAdjust="spacing" textLength="254" x="27" y="561.5332">REQUISITOS_FUNCIONALES_ABIERTO</text></g><!--link listarRequisitosFuncionales to REQUISITOS_FUNCIONALES_ABIERTO--><g id="link_listarRequisitosFuncionales_REQUISITOS_FUNCIONALES_ABIERTO"><path d="M69.58,446.03 C62.51,464.32 58,476 58,476 C58,476 58,512 58,512 C58,512 80.2599,524.5296 105.8199,538.8996 " fill="none" id="listarRequisitosFuncionales-to-REQUISITOS_FUNCIONALES_ABIERTO" style="stroke:#008000;stroke-width:1.0;"/><polygon fill="#008000" points="111.05,541.84,105.1651,533.9427,106.6916,539.3897,101.2446,540.9161,111.05,541.84" style="stroke:#008000;stroke-width:1.0;"/><path d="M63,481 L63,507 L200,507 L200,491 L190,481 L63,481 " fill="#FEFFDD" style="stroke:#181818;stroke-width:0.5;"/><path d="M190,481 L190,491 L200,491 L190,481 " fill="#FEFFDD" style="stroke:#181818;stroke-width:0.5;"/><text fill="#000000" font-family="sans-serif" font-size="13" lengthAdjust="spacing" textLength="116" x="69" y="499.4951">completarConsulta()</text></g><!--link listarRequisitosFuncionales to REQUISITOS_FUNCIONALES_ABIERTO--><g id="link_listarRequisitosFuncionales_REQUISITOS_FUNCIONALES_ABIERTO"><path d="M202.37,446.03 C206.41,464.32 209,476 209,476 C209,476 209,512 209,512 C209,512 197.5334,523.2685 182.8834,537.6385 " fill="none" id="listarRequisitosFuncionales-to-REQUISITOS_FUNCIONALES_ABIERTO-1" style="stroke:#FF0000;stroke-width:1.0;"/><polygon fill="#FF0000" points="178.6,541.84,187.8261,538.3933,182.1695,538.3387,182.2241,532.6822,178.6,541.84" style="stroke:#FF0000;stroke-width:1.0;"/><path d="M214,481 L214,507 L344,507 L344,491 L334,481 L214,481 " fill="#FEFFDD" style="stroke:#181818;stroke-width:0.5;"/><path d="M334,481 L334,491 L344,491 L334,481 " fill="#FEFFDD" style="stroke:#181818;stroke-width:0.5;"/><text fill="#000000" font-family="sans-serif" font-size="13" lengthAdjust="spacing" textLength="109" x="220" y="499.4951">rechazarConsulta()</text></g><!--SRC=[bPB1QeD048Rl-nI3lII5q1S8GXeI4Df8DJc543OwJPUiktPtFQIbxzvHGwtjObCzYCu____DhFOaLCaDBq0AXUvS8fHQdkiNngpZ3gb0JvFWQoMiSDekAvK9hRX42zn2C50VZGDuPmpeQhq2kgadmQmgqN2Lwwxlj-nHM_TJrAYsjpkOR6-E1b7j9k60dz9afrKztQdva29OBKKc7BzC1kQh1PuxzaQDAcyisbXlJ0_4H-p5c1x2bDAnuDExGqW8hJD8CZJztczCL3gAEY7NFZvFUe-ErdOLJL5XRGJoig96a-DLY_fWREY7wPtQucaJfT4wJlVBpMeUnQlPmoBTp-wZHRAEMOyoqqKfaMpdMjbAEZuQisxuFn8Dvl_DemDvuM_-k4y0]--></g></svg>