<?xml version="1.0" encoding="us-ascii" standalone="no"?><svg xmlns="http://www.w3.org/2000/svg" xmlns:xlink="http://www.w3.org/1999/xlink" contentStyleType="text/css" height="736px" preserveAspectRatio="none" style="width:456px;height:736px;background:#FFFFFF;" version="1.1" viewBox="0 0 456 736" width="456px" zoomAndPan="magnify"><defs/><g><path d="M65.5,7 L326.5,7 A12.5,12.5 0 0 1 339,19.5 L339,34.6094 L53,34.6094 L53,19.5 A12.5,12.5 0 0 1 65.5,7 " fill="#F1F1F1" style="stroke:#F1F1F1;stroke-width:1.0;"/><rect fill="none" height="576.6094" rx="12.5" ry="12.5" style="stroke:#181818;stroke-width:0.5;" width="286" x="53" y="7"/><line style="stroke:#181818;stroke-width:0.5;" x1="53" x2="339" y1="34.6094" y2="34.6094"/><text fill="#000000" font-family="sans-serif" font-size="14" lengthAdjust="spacing" textLength="127" x="132.5" y="26.5332">actualizarCasoUso()</text><g id="actualizarCasoUso.RecuperandoCasoUso"><rect fill="#F1F1F1" height="50" rx="12.5" ry="12.5" style="stroke:#181818;stroke-width:0.5;" width="50" x="65" y="137.6094"/><line style="stroke:#181818;stroke-width:0.5;" x1="65" x2="115" y1="165.2188" y2="165.2188"/><text fill="#000000" font-family="sans-serif" font-size="14" lengthAdjust="spacing" textLength="4" x="88" y="157.1426">&#160;</text></g><g id="actualizarCasoUso.EditandoCasoUso"><rect fill="#F1F1F1" height="50" rx="12.5" ry="12.5" style="stroke:#181818;stroke-width:0.5;" width="50" x="65" y="275.6094"/><line style="stroke:#181818;stroke-width:0.5;" x1="65" x2="115" y1="303.2188" y2="303.2188"/><text fill="#000000" font-family="sans-serif" font-size="14" lengthAdjust="spacing" textLength="4" x="88" y="295.1426">&#160;</text></g><g id="actualizarCasoUso.GuardandoCambios"><rect fill="#F1F1F1" height="50" rx="12.5" ry="12.5" style="stroke:#181818;stroke-width:0.5;" width="50" x="65" y="413.6094"/><line style="stroke:#181818;stroke-width:0.5;" x1="65" x2="115" y1="441.2188" y2="441.2188"/><text fill="#000000" font-family="sans-serif" font-size="14" lengthAdjust="spacing" textLength="4" x="88" y="433.1426">&#160;</text></g><ellipse cx="90" cy="55.6094" fill="#222222" rx="10" ry="10" style="stroke:#222222;stroke-width:1.0;"/><ellipse cx="90" cy="562.6094" fill="none" rx="11" ry="11" style="stroke:#222222;stroke-width:1.0;"/><ellipse cx="90" cy="562.6094" fill="#222222" rx="6" ry="6" style="stroke:#222222;stroke-width:1.0;"/><!--link *start*actualizarCasoUso to RecuperandoCasoUso--><g id="link_*start*actualizarCasoUso_RecuperandoCasoUso"><path d="M90,65.9294 C90,81.7894 90,108.5194 90,131.2494 " fill="none" id="*start*actualizarCasoUso-to-RecuperandoCasoUso" style="stroke:#008000;stroke-width:1.0;"/><polygon fill="#008000" points="90,137.2494,94,128.2494,90,132.2494,86,128.2494,90,137.2494" style="stroke:#008000;stroke-width:1.0;"/><path d="M95,88.6094 L95,114.6094 L330,114.6094 L330,98.6094 L320,88.6094 L95,88.6094 " fill="#FEFFDD" style="stroke:#181818;stroke-width:0.5;"/><path d="M320,88.6094 L320,98.6094 L330,98.6094 L320,88.6094 " fill="#FEFFDD" style="stroke:#181818;stroke-width:0.5;"/><text fill="#000000" font-family="sans-serif" font-size="13" lengthAdjust="spacing" textLength="214" x="101" y="107.1045">Se solicita actualizar un caso de uso</text></g><!--link RecuperandoCasoUso to EditandoCasoUso--><g id="link_RecuperandoCasoUso_EditandoCasoUso"><path d="M90,187.6094 C90,212.3194 90,244.6094 90,269.3894 " fill="none" id="RecuperandoCasoUso-to-EditandoCasoUso" style="stroke:#008000;stroke-width:1.0;"/><polygon fill="#008000" points="90,275.3894,94,266.3894,90,270.3894,86,266.3894,90,275.3894" style="stroke:#008000;stroke-width:1.0;"/><path d="M95,210.6094 L95,252.6094 L310,252.6094 L310,220.6094 L300,210.6094 L95,210.6094 " fill="#FEFFDD" style="stroke:#181818;stroke-width:0.5;"/><path d="M300,210.6094 L300,220.6094 L310,220.6094 L300,210.6094 " fill="#FEFFDD" style="stroke:#181818;stroke-width:0.5;"/><text fill="#000000" font-family="sans-serif" font-size="13" font-weight="bold" lengthAdjust="spacing" textLength="51" x="101" y="229.1045">Sistema</text><text fill="#000000" font-family="sans-serif" font-size="13" lengthAdjust="spacing" textLength="139" x="156" y="229.1045">recupera el caso de uso</text><text fill="#000000" font-family="sans-serif" font-size="13" lengthAdjust="spacing" textLength="117" x="101" y="245.4561">y permite su edicion</text></g><!--link EditandoCasoUso to GuardandoCambios--><g id="link_EditandoCasoUso_GuardandoCambios"><path d="M90,325.6094 C90,350.3194 90,382.6094 90,407.3894 " fill="none" id="EditandoCasoUso-to-GuardandoCambios" style="stroke:#008000;stroke-width:1.0;"/><polygon fill="#008000" points="90,413.3894,94,404.3894,90,408.3894,86,404.3894,90,413.3894" style="stroke:#008000;stroke-width:1.0;"/><path d="M95,348.6094 L95,390.6094 L277,390.6094 L277,358.6094 L267,348.6094 L95,348.6094 " fill="#FEFFDD" style="stroke:#181818;stroke-width:0.5;"/><path d="M267,348.6094 L267,358.6094 L277,358.6094 L267,348.6094 " fill="#FEFFDD" style="stroke:#181818;stroke-width:0.5;"/><text fill="#000000" font-family="sans-serif" font-size="13" font-weight="bold" lengthAdjust="spacing" textLength="51" x="101" y="367.1045">Sistema</text><text fill="#000000" font-family="sans-serif" font-size="13" lengthAdjust="spacing" textLength="106" x="156" y="367.1045">valida los cambios</text><text fill="#000000" font-family="sans-serif" font-size="13" lengthAdjust="spacing" textLength="70" x="101" y="383.4561">introducidos</text></g><!--link GuardandoCambios to *end*actualizarCasoUso--><g id="link_GuardandoCambios_*end*actualizarCasoUso"><path d="M90,463.7094 C90,490.3794 90,526.1094 90,545.3094 " fill="none" id="GuardandoCambios-to-*end*actualizarCasoUso" style="stroke:#008000;stroke-width:1.0;"/><polygon fill="#008000" points="90,551.3094,94,542.3094,90,546.3094,86,542.3094,90,551.3094" style="stroke:#008000;stroke-width:1.0;"/><path d="M95,486.6094 L95,528.6094 L305,528.6094 L305,496.6094 L295,486.6094 L95,486.6094 " fill="#FEFFDD" style="stroke:#181818;stroke-width:0.5;"/><path d="M295,486.6094 L295,496.6094 L305,496.6094 L295,486.6094 " fill="#FEFFDD" style="stroke:#181818;stroke-width:0.5;"/><text fill="#000000" font-family="sans-serif" font-size="13" font-weight="bold" lengthAdjust="spacing" textLength="51" x="101" y="505.1045">Sistema</text><text fill="#000000" font-family="sans-serif" font-size="13" lengthAdjust="spacing" textLength="134" x="156" y="505.1045">guarda la nueva version</text><text fill="#000000" font-family="sans-serif" font-size="13" lengthAdjust="spacing" textLength="92" x="101" y="521.4561">del caso de uso</text></g><g id="CASO_USO_ABIERTO"><rect fill="#F1F1F1" height="50" rx="12.5" ry="12.5" style="stroke:#181818;stroke-width:0.5;" width="164" x="7" y="680"/><line style="stroke:#181818;stroke-width:0.5;" x1="7" x2="171" y1="707.6094" y2="707.6094"/><text fill="#000000" font-family="sans-serif" font-size="14" lengthAdjust="spacing" textLength="144" x="17" y="699.5332">CASO_USO_ABIERTO</text></g><g id="CASOS_USO_ABIERTO"><rect fill="#F1F1F1" height="50" rx="12.5" ry="12.5" style="stroke:#181818;stroke-width:0.5;" width="173" x="216.5" y="680"/><line style="stroke:#181818;stroke-width:0.5;" x1="216.5" x2="389.5" y1="707.6094" y2="707.6094"/><text fill="#000000" font-family="sans-serif" font-size="14" lengthAdjust="spacing" textLength="153" x="226.5" y="699.5332">CASOS_USO_ABIERTO</text></g><!--link actualizarCasoUso to CASO_USO_ABIERTO--><g id="link_actualizarCasoUso_CASO_USO_ABIERTO"><path d="M96.35,584.13 C89.95,602.6 86,614 86,614 C86,614 86,650 86,650 C86,650 86.5265,659.4793 87.3265,673.8493 " fill="none" id="actualizarCasoUso-to-CASO_USO_ABIERTO" style="stroke:#008000;stroke-width:1.0;"/><polygon fill="#008000" points="87.66,679.84,91.1535,670.6316,87.3821,674.8477,83.1659,671.0763,87.66,679.84" style="stroke:#008000;stroke-width:1.0;"/><path d="M91,619 L91,645 L255,645 L255,629 L245,619 L91,619 " fill="#FEFFDD" style="stroke:#181818;stroke-width:0.5;"/><path d="M245,619 L245,629 L255,629 L245,619 " fill="#FEFFDD" style="stroke:#181818;stroke-width:0.5;"/><text fill="#000000" font-family="sans-serif" font-size="13" lengthAdjust="spacing" textLength="143" x="97" y="637.4951">completarActualizacion()</text></g><!--link actualizarCasoUso to CASOS_USO_ABIERTO--><g id="link_actualizarCasoUso_CASOS_USO_ABIERTO"><path d="M271.55,584.22 C281.9,623.65 289.3969,652.1965 295.0869,673.8765 " fill="none" id="actualizarCasoUso-to-CASOS_USO_ABIERTO" style="stroke:#FF0000;stroke-width:1.0;"/><polygon fill="#FF0000" points="296.61,679.68,298.1943,669.9594,295.3407,674.8438,290.4563,671.9902,296.61,679.68" style="stroke:#FF0000;stroke-width:1.0;"/><path d="M292,619 L292,645 L449,645 L449,629 L439,619 L292,619 " fill="#FEFFDD" style="stroke:#181818;stroke-width:0.5;"/><path d="M439,619 L439,629 L449,629 L439,619 " fill="#FEFFDD" style="stroke:#181818;stroke-width:0.5;"/><text fill="#000000" font-family="sans-serif" font-size="13" lengthAdjust="spacing" textLength="136" x="298" y="637.4951">rechazarActualizacion()</text></g><!--SRC=[ZLBDQi904BxlKmpseWNf2uXWHKfFWgadaJ9c1rtSx8Rz4RJqtJkQM8qRnOGSClb-P-EtofJei02j38LzIL1QlJ- -2E431WBCGqIj3kZ6wEtSMq0FdMJQxNNWHmZWg-9r-6RaZF9OaaCZROrCCHEfmaF0HqGdAqInKjPNFelN9VGNBsj7P9RzuJqhOrd8ccF3xMcG4NYhLSwcL-qW6iYP1f8WrbGoyaIl_5BzXdrRYyHxi1fcoWSgSF2s6eAh9O5qOhu7_b8e5l0HI79UQrfItTWs8YLxUoRJZlSX4RJr7Eb2KoOuAsEkP3renhYrQkJWathAUdqI0OrW8kqGTkJykRLiMT5_X5yXql_qEi5ub4s_v_oCtZydiw-fQ4J9RL5g2kX6Pv7ZihizSUdOAkz8diMp- -fyo1iyF13_0m00]--></g></svg>