<svg xmlns="http://www.w3.org/2000/svg" xmlns:xlink="http://www.w3.org/1999/xlink" contentStyleType="text/css" data-diagram-type="SEQUENCE" height="424px" preserveAspectRatio="none" style="width:1657px;height:424px;background:#FFFFFF;" version="1.1" viewBox="0 0 1657 424" width="1657px" zoomAndPan="magnify"><?plantuml 1.2026.3beta6?><defs/><g><g class="title" data-source-line="1"><text fill="#000000" font-family="sans-serif" font-size="14" font-weight="700" lengthAdjust="spacing" textLength="471.8643" x="589.5234" y="27.9951">Diagrama de Secuencia - Obtenci&#243;n de datos de producci&#243;n</text></g><g class="participant-lifeline" data-entity-uid="part1" data-qualified-name="Responsable" data-source-line="4" id="part1-lifeline"><g><title>Responsable de producci.n</title><rect fill="#000000" fill-opacity="0.00000" height="223.9297" width="8" x="100.6567" y="118.5938"/><line style="stroke:#181818;stroke-width:0.5;stroke-dasharray:5,5;" x1="104" x2="104" y1="118.5938" y2="342.5234"/></g></g><g class="participant-lifeline" data-entity-uid="part2" data-qualified-name="Frontend" data-source-line="5" id="part2-lifeline"><g><title>VT</title><rect fill="#000000" fill-opacity="0.00000" height="223.9297" width="8" x="262.0444" y="118.5938"/><line style="stroke:#181818;stroke-width:0.5;stroke-dasharray:5,5;" x1="265.3135" x2="265.3135" y1="118.5938" y2="342.5234"/></g></g><g class="participant-lifeline" data-entity-uid="part3" data-qualified-name="MasterController" data-source-line="6" id="part3-lifeline"><g><title>Master-ManufacturingInfoController</title><rect fill="#000000" fill-opacity="0.00000" height="223.9297" width="8" x="554.0933" y="118.5938"/><line style="stroke:#181818;stroke-width:0.5;stroke-dasharray:5,5;" x1="557.1392" x2="557.1392" y1="118.5938" y2="342.5234"/></g></g><g class="participant-lifeline" data-entity-uid="part4" data-qualified-name="MasterService" data-source-line="7" id="part4-lifeline"><g><title>Master-ManufacturingInfoService</title><rect fill="#000000" fill-opacity="0.00000" height="223.9297" width="8" x="819.2856" y="118.5938"/><line style="stroke:#181818;stroke-width:0.5;stroke-dasharray:5,5;" x1="823.0474" x2="823.0474" y1="118.5938" y2="342.5234"/></g></g><g class="participant-lifeline" data-entity-uid="part5" data-qualified-name="APIController" data-source-line="8" id="part5-lifeline"><g><title>API-ManufacturingInfoController</title><rect fill="#000000" fill-opacity="0.00000" height="223.9297" width="8" x="1111.3345" y="118.5938"/><line style="stroke:#181818;stroke-width:0.5;stroke-dasharray:5,5;" x1="1115.2114" x2="1115.2114" y1="118.5938" y2="342.5234"/></g></g><g class="participant-lifeline" data-entity-uid="part6" data-qualified-name="APIService" data-source-line="9" id="part6-lifeline"><g><title>API-ManufacturingInfoServiceV2</title><rect fill="#000000" fill-opacity="0.00000" height="223.9297" width="8" x="1383.4834" y="118.5938"/><line style="stroke:#181818;stroke-width:0.5;stroke-dasharray:5,5;" x1="1386.834" x2="1386.834" y1="118.5938" y2="342.5234"/></g></g><g class="participant-lifeline" data-entity-uid="part7" data-qualified-name="BD" data-source-line="10" id="part7-lifeline"><g><title>Base de Datos VT</title><rect fill="#000000" fill-opacity="0.00000" height="223.9297" width="8" x="1578.022" y="118.5938"/><line style="stroke:#181818;stroke-width:0.5;stroke-dasharray:5,5;" x1="1581.1328" x2="1581.1328" y1="118.5938" y2="342.5234"/></g></g><g class="participant participant-head" data-entity-uid="part1" data-qualified-name="Responsable" data-source-line="4" id="part1-head"><text fill="#000000" font-family="sans-serif" font-size="14" lengthAdjust="spacing" textLength="193.3135" x="5" y="115.292">Responsable de producci&#243;n</text><ellipse cx="104.6567" cy="50.7969" fill="#E2E2F0" rx="8" ry="8" style="stroke:#181818;stroke-width:0.5;"/><path d="M104.6567,58.7969 L104.6567,85.7969 M91.6567,66.7969 L117.6567,66.7969 M104.6567,85.7969 L91.6567,100.7969 M104.6567,85.7969 L117.6567,100.7969" fill="none" style="stroke:#181818;stroke-width:0.5;"/></g><g class="participant participant-tail" data-entity-uid="part1" data-qualified-name="Responsable" data-source-line="4" id="part1-tail"><text fill="#000000" font-family="sans-serif" font-size="14" lengthAdjust="spacing" textLength="193.3135" x="5" y="354.5186">Responsable de producci&#243;n</text><ellipse cx="104.6567" cy="366.3203" fill="#E2E2F0" rx="8" ry="8" style="stroke:#181818;stroke-width:0.5;"/><path d="M104.6567,374.3203 L104.6567,401.3203 M91.6567,382.3203 L117.6567,382.3203 M104.6567,401.3203 L91.6567,416.3203 M104.6567,401.3203 L117.6567,416.3203" fill="none" style="stroke:#181818;stroke-width:0.5;"/></g><g class="participant participant-head" data-entity-uid="part2" data-qualified-name="Frontend" data-source-line="5" id="part2-head"><rect fill="#E2E2F0" height="46.5938" rx="2.5" ry="2.5" style="stroke:#181818;stroke-width:0.5;" width="103.4619" x="214.3135" y="71"/><text fill="#000000" font-family="sans-serif" font-size="14" lengthAdjust="spacing" textLength="18.1289" x="256.98" y="90.9951">VT</text><text fill="#000000" font-family="sans-serif" font-size="14" lengthAdjust="spacing" textLength="89.4619" x="221.3135" y="107.292">Performance</text></g><g class="participant participant-tail" data-entity-uid="part2" data-qualified-name="Frontend" data-source-line="5" id="part2-tail"><rect fill="#E2E2F0" height="46.5938" rx="2.5" ry="2.5" style="stroke:#181818;stroke-width:0.5;" width="103.4619" x="214.3135" y="341.5234"/><text fill="#000000" font-family="sans-serif" font-size="14" lengthAdjust="spacing" textLength="18.1289" x="256.98" y="361.5186">VT</text><text fill="#000000" font-family="sans-serif" font-size="14" lengthAdjust="spacing" textLength="89.4619" x="221.3135" y="377.8154">Performance</text></g><g class="participant participant-head" data-entity-uid="part3" data-qualified-name="MasterController" data-source-line="6" id="part3-head"><rect fill="#E2E2F0" height="30.2969" rx="2.5" ry="2.5" style="stroke:#181818;stroke-width:0.5;" width="263.9082" x="426.1392" y="87.2969"/><text fill="#000000" font-family="sans-serif" font-size="14" lengthAdjust="spacing" textLength="249.9082" x="433.1392" y="107.292">Master-ManufacturingInfoController</text></g><g class="participant participant-tail" data-entity-uid="part3" data-qualified-name="MasterController" data-source-line="6" id="part3-tail"><rect fill="#E2E2F0" height="30.2969" rx="2.5" ry="2.5" style="stroke:#181818;stroke-width:0.5;" width="263.9082" x="426.1392" y="341.5234"/><text fill="#000000" font-family="sans-serif" font-size="14" lengthAdjust="spacing" textLength="249.9082" x="433.1392" y="361.5186">Master-ManufacturingInfoController</text></g><g class="participant participant-head" data-entity-uid="part4" data-qualified-name="MasterService" data-source-line="7" id="part4-head"><rect fill="#E2E2F0" height="30.2969" rx="2.5" ry="2.5" style="stroke:#181818;stroke-width:0.5;" width="246.4766" x="700.0474" y="87.2969"/><text fill="#000000" font-family="sans-serif" font-size="14" lengthAdjust="spacing" textLength="232.4766" x="707.0474" y="107.292">Master-ManufacturingInfoService</text></g><g class="participant participant-tail" data-entity-uid="part4" data-qualified-name="MasterService" data-source-line="7" id="part4-tail"><rect fill="#E2E2F0" height="30.2969" rx="2.5" ry="2.5" style="stroke:#181818;stroke-width:0.5;" width="246.4766" x="700.0474" y="341.5234"/><text fill="#000000" font-family="sans-serif" font-size="14" lengthAdjust="spacing" textLength="232.4766" x="707.0474" y="361.5186">Master-ManufacturingInfoService</text></g><g class="participant participant-head" data-entity-uid="part5" data-qualified-name="APIController" data-source-line="8" id="part5-head"><rect fill="#E2E2F0" height="30.2969" rx="2.5" ry="2.5" style="stroke:#181818;stroke-width:0.5;" width="238.2461" x="996.2114" y="87.2969"/><text fill="#000000" font-family="sans-serif" font-size="14" lengthAdjust="spacing" textLength="224.2461" x="1003.2114" y="107.292">API-ManufacturingInfoController</text></g><g class="participant participant-tail" data-entity-uid="part5" data-qualified-name="APIController" data-source-line="8" id="part5-tail"><rect fill="#E2E2F0" height="30.2969" rx="2.5" ry="2.5" style="stroke:#181818;stroke-width:0.5;" width="238.2461" x="996.2114" y="341.5234"/><text fill="#000000" font-family="sans-serif" font-size="14" lengthAdjust="spacing" textLength="224.2461" x="1003.2114" y="361.5186">API-ManufacturingInfoController</text></g><g class="participant participant-head" data-entity-uid="part6" data-qualified-name="APIService" data-source-line="9" id="part6-head"><rect fill="#E2E2F0" height="30.2969" rx="2.5" ry="2.5" style="stroke:#181818;stroke-width:0.5;" width="239.2988" x="1267.834" y="87.2969"/><text fill="#000000" font-family="sans-serif" font-size="14" lengthAdjust="spacing" textLength="225.2988" x="1274.834" y="107.292">API-ManufacturingInfoServiceV2</text></g><g class="participant participant-tail" data-entity-uid="part6" data-qualified-name="APIService" data-source-line="9" id="part6-tail"><rect fill="#E2E2F0" height="30.2969" rx="2.5" ry="2.5" style="stroke:#181818;stroke-width:0.5;" width="239.2988" x="1267.834" y="341.5234"/><text fill="#000000" font-family="sans-serif" font-size="14" lengthAdjust="spacing" textLength="225.2988" x="1274.834" y="361.5186">API-ManufacturingInfoServiceV2</text></g><g class="participant participant-head" data-entity-uid="part7" data-qualified-name="BD" data-source-line="10" id="part7-head"><text fill="#000000" font-family="sans-serif" font-size="14" lengthAdjust="spacing" textLength="123.7783" x="1517.1328" y="115.292">Base de Datos VT</text><path d="M1564.022,66.2969 C1564.022,56.2969 1582.022,56.2969 1582.022,56.2969 C1582.022,56.2969 1600.022,56.2969 1600.022,66.2969 L1600.022,92.2969 C1600.022,102.2969 1582.022,102.2969 1582.022,102.2969 C1582.022,102.2969 1564.022,102.2969 1564.022,92.2969 L1564.022,66.2969" fill="#E2E2F0" style="stroke:#181818;stroke-width:0.5;"/><path d="M1564.022,66.2969 C1564.022,76.2969 1582.022,76.2969 1582.022,76.2969 C1582.022,76.2969 1600.022,76.2969 1600.022,66.2969" fill="none" style="stroke:#181818;stroke-width:0.5;"/></g><g class="participant participant-tail" data-entity-uid="part7" data-qualified-name="BD" data-source-line="10" id="part7-tail"><text fill="#000000" font-family="sans-serif" font-size="14" lengthAdjust="spacing" textLength="123.7783" x="1517.1328" y="354.5186">Base de Datos VT</text><path d="M1564.022,367.8203 C1564.022,357.8203 1582.022,357.8203 1582.022,357.8203 C1582.022,357.8203 1600.022,357.8203 1600.022,367.8203 L1600.022,393.8203 C1600.022,403.8203 1582.022,403.8203 1582.022,403.8203 C1582.022,403.8203 1564.022,403.8203 1564.022,393.8203 L1564.022,367.8203" fill="#E2E2F0" style="stroke:#181818;stroke-width:0.5;"/><path d="M1564.022,367.8203 C1564.022,377.8203 1582.022,377.8203 1582.022,377.8203 C1582.022,377.8203 1600.022,377.8203 1600.022,367.8203" fill="none" style="stroke:#181818;stroke-width:0.5;"/></g><g class="message" data-entity-1="part1" data-entity-2="part2" data-source-line="12" id="msg1"><polygon fill="#181818" points="254.0444,145.7266,264.0444,149.7266,254.0444,153.7266,258.0444,149.7266" style="stroke:#181818;stroke-width:1;"/><line style="stroke:#181818;stroke-width:1;" x1="104.6567" x2="260.0444" y1="149.7266" y2="149.7266"/><text fill="#000000" font-family="sans-serif" font-size="13" lengthAdjust="spacing" textLength="123.7349" x="111.6567" y="144.6606">abrirPerformance()</text></g><g class="message" data-entity-1="part2" data-entity-2="part3" data-source-line="14" id="msg2"><polygon fill="#181818" points="546.0933,174.8594,556.0933,178.8594,546.0933,182.8594,550.0933,178.8594" style="stroke:#181818;stroke-width:1;"/><line style="stroke:#181818;stroke-width:1;" x1="266.0444" x2="552.0933" y1="178.8594" y2="178.8594"/><text fill="#000000" font-family="sans-serif" font-size="13" lengthAdjust="spacing" textLength="268.0488" x="273.0444" y="173.7935">getManufacturingInfoBySplit(dtoEntrada)</text></g><g class="message" data-entity-1="part3" data-entity-2="part4" data-source-line="16" id="msg3"><polygon fill="#181818" points="811.2856,203.9922,821.2856,207.9922,811.2856,211.9922,815.2856,207.9922" style="stroke:#181818;stroke-width:1;"/><line style="stroke:#181818;stroke-width:1;" x1="558.0933" x2="817.2856" y1="207.9922" y2="207.9922"/><text fill="#000000" font-family="sans-serif" font-size="13" lengthAdjust="spacing" textLength="165.9214" x="565.0933" y="202.9263">calcBySplitId(dtoEntrada)</text></g><g class="message" data-entity-1="part4" data-entity-2="part5" data-source-line="18" id="msg4"><polygon fill="#181818" points="1103.3345,233.125,1113.3345,237.125,1103.3345,241.125,1107.3345,237.125" style="stroke:#181818;stroke-width:1;"/><line style="stroke:#181818;stroke-width:1;" x1="823.2856" x2="1109.3345" y1="237.125" y2="237.125"/><text fill="#000000" font-family="sans-serif" font-size="13" lengthAdjust="spacing" textLength="268.0488" x="830.2856" y="232.0591">getManufacturingInfoBySplit(dtoEntrada)</text></g><g class="message" data-entity-1="part5" data-entity-2="part6" data-source-line="20" id="msg5"><polygon fill="#181818" points="1375.4834,262.2578,1385.4834,266.2578,1375.4834,270.2578,1379.4834,266.2578" style="stroke:#181818;stroke-width:1;"/><line style="stroke:#181818;stroke-width:1;" x1="1115.3345" x2="1381.4834" y1="266.2578" y2="266.2578"/><text fill="#000000" font-family="sans-serif" font-size="13" lengthAdjust="spacing" textLength="248.1489" x="1122.3345" y="261.1919">manufacturingInfoBySplit(dtoEntrada)</text></g><g class="message" data-entity-1="part6" data-entity-2="part7" data-source-line="22" id="msg6"><polygon fill="#181818" points="1570.022,291.3906,1580.022,295.3906,1570.022,299.3906,1574.022,295.3906" style="stroke:#181818;stroke-width:1;"/><line style="stroke:#181818;stroke-width:1;" x1="1387.4834" x2="1576.022" y1="295.3906" y2="295.3906"/><text fill="#000000" font-family="sans-serif" font-size="13" lengthAdjust="spacing" textLength="129.2065" x="1394.4834" y="290.3247">consultaInfo(splitId)</text></g><g class="message" data-entity-1="part7" data-entity-2="part6" data-source-line="24" id="msg7"><polygon fill="#181818" points="1398.4834,320.5234,1388.4834,324.5234,1398.4834,328.5234,1394.4834,324.5234" style="stroke:#181818;stroke-width:1;"/><line style="stroke:#181818;stroke-width:1;" x1="1392.4834" x2="1581.022" y1="324.5234" y2="324.5234"/><text fill="#000000" font-family="sans-serif" font-size="13" lengthAdjust="spacing" textLength="118.6123" x="1404.4834" y="319.4575">devuelveInfo(info)</text></g><?plantuml-src bP6xRi8m58PtFyLH9XXOEZ9KQffMOa151J5rER4Fo9AnesC7gS_LH-YBzUH2IYXLwH9PzlTVz2VPv0WAYtl60u8XM9EkoMkBC8ENCZN7pm_Vl1XC8JQ7YeEfTNklb4AT0aFsIh4AFc8fVcCc0unmzgmgv6IrhT0doBQRDxyYtWK-eDVKmiySl2IRCRd4c8XdI_JrJa9hjdw_yBlmA307vuXRSOTzNzvciYO-sZw-O_gRiVnXjVYpW32_fL-Lzq7RkvFwb2o3OucH8CkRhwnQjBzWksd9l53gVFNP_J0Sp05Bjdmsx6IgrF0iwELCSzXJ-j4jVrzNpgQ9IU59I3GeDfVImQqlFWUDJlVIXRacxicco6YkVxGOwJgV8VzmgqEl47bUI6sPidO96yKaTks5ouiBUqF7cjoHMixAP_e5?></g></svg>