<svg xmlns="http://www.w3.org/2000/svg" xmlns:xlink="http://www.w3.org/1999/xlink" contentStyleType="text/css" data-diagram-type="CLASS" height="1319px" preserveAspectRatio="none" style="width:1698px;height:1319px;background:#FFFFFF;" version="1.1" viewBox="0 0 1698 1319" width="1698px" zoomAndPan="magnify"><?plantuml 1.2026.3beta6?><defs/><g><!--cluster Modelos--><g class="cluster" data-qualified-name="Modelos" data-source-line="5" id="ent0002"><rect fill="none" height="590.75" rx="2.5" ry="2.5" style="stroke:#000000;stroke-width:1.5;" width="1562" x="122" y="7"/><text fill="#000000" font-family="sans-serif" font-size="14" font-weight="700" lengthAdjust="spacing" textLength="65.8164" x="870.0918" y="21.9951">Modelos</text></g><!--cluster API--><g class="cluster" data-qualified-name="Modelos.API" data-source-line="7" id="ent0003"><rect fill="none" height="156.19" rx="2.5" ry="2.5" style="stroke:#000000;stroke-width:1.5;" width="1422" x="192" y="286.26"/><text fill="#000000" font-family="sans-serif" font-size="14" font-weight="700" lengthAdjust="spacing" textLength="26.3047" x="889.8477" y="301.2551">API</text></g><!--cluster vt-master-api--><g class="cluster" data-qualified-name="Modelos.vt-master-api" data-source-line="16" id="ent0005"><rect fill="none" height="107.3" rx="2.5" ry="2.5" style="stroke:#000000;stroke-width:1.5;" width="966" x="534" y="466.45"/><text fill="#000000" font-family="sans-serif" font-size="14" font-weight="700" lengthAdjust="spacing" textLength="107.167" x="963.4165" y="481.4451">vt-master-api</text></g><!--cluster Controladores--><g class="cluster" data-qualified-name="Controladores" data-source-line="70" id="ent0016"><rect fill="none" height="305.59" rx="2.5" ry="2.5" style="stroke:#000000;stroke-width:1.5;" width="1008" x="7" y="621.75"/><text fill="#000000" font-family="sans-serif" font-size="14" font-weight="700" lengthAdjust="spacing" textLength="111.6924" x="455.1538" y="636.7451">Controladores</text></g><!--cluster API--><g class="cluster" data-qualified-name="Controladores.API" data-source-line="71" id="ent0017"><rect fill="none" height="107.29" rx="2.5" ry="2.5" style="stroke:#000000;stroke-width:1.5;" width="946" x="34" y="664.75"/><text fill="#000000" font-family="sans-serif" font-size="14" font-weight="700" lengthAdjust="spacing" textLength="26.3047" x="493.8477" y="679.7451">API</text></g><!--cluster vt-master-api--><g class="cluster" data-qualified-name="Controladores.vt-master-api" data-source-line="76" id="ent0019"><rect fill="none" height="107.3" rx="2.5" ry="2.5" style="stroke:#000000;stroke-width:1.5;" width="960" x="31" y="796.04"/><text fill="#000000" font-family="sans-serif" font-size="14" font-weight="700" lengthAdjust="spacing" textLength="107.167" x="457.4165" y="811.0351">vt-master-api</text></g><!--cluster Vistas--><g class="cluster" data-qualified-name="Vistas" data-source-line="84" id="ent0022"><rect fill="none" height="353.97" rx="2.5" ry="2.5" style="stroke:#000000;stroke-width:1.5;" width="1004" x="38" y="951.34"/><text fill="#000000" font-family="sans-serif" font-size="14" font-weight="700" lengthAdjust="spacing" textLength="48.4395" x="515.7803" y="966.3351">Vistas</text></g><!--class AssignmentSplit--><g class="entity" data-qualified-name="Modelos.AssignmentSplit" data-source-line="22" id="ent0007"><rect fill="#F1F1F1" height="219.2656" rx="2.5" ry="2.5" style="stroke:#181818;stroke-width:0.5;" width="390.4854" x="137.76" y="42"/><ellipse cx="272.0178" cy="58" fill="#ADD1B2" rx="11" ry="11" style="stroke:#181818;stroke-width:1;"/><path d="M274.9866,63.6406 Q274.4084,63.9375 273.7678,64.0781 Q273.1272,64.2344 272.4241,64.2344 Q269.9241,64.2344 268.5959,62.5938 Q267.2834,60.9375 267.2834,57.8125 Q267.2834,54.6875 268.5959,53.0313 Q269.9241,51.375 272.4241,51.375 Q273.1272,51.375 273.7678,51.5313 Q274.4241,51.6875 274.9866,51.9844 L274.9866,54.7031 Q274.3616,54.125 273.7678,53.8594 Q273.1741,53.5781 272.5491,53.5781 Q271.2053,53.5781 270.5178,54.6563 Q269.8303,55.7188 269.8303,57.8125 Q269.8303,59.9063 270.5178,60.9844 Q271.2053,62.0469 272.5491,62.0469 Q273.1741,62.0469 273.7678,61.7813 Q274.3616,61.5 274.9866,60.9219 L274.9866,63.6406 Z " fill="#000000"/><text fill="#000000" font-family="sans-serif" font-size="14" lengthAdjust="spacing" textLength="113.4697" x="292.5178" y="62.8467">AssignmentSplit</text><line style="stroke:#181818;stroke-width:0.5;" x1="138.76" x2="527.2454" y1="74" y2="74"/><g data-visibility-modifier="PUBLIC_FIELD"><ellipse cx="148.76" cy="87.6484" fill="none" rx="3" ry="3" style="stroke:#038048;stroke-width:1;"/></g><text fill="#000000" font-family="sans-serif" font-size="14" lengthAdjust="spacing" textLength="56.0684" x="157.76" y="90.9951">id: Long</text><g data-visibility-modifier="PUBLIC_FIELD"><ellipse cx="148.76" cy="103.9453" fill="none" rx="3" ry="3" style="stroke:#038048;stroke-width:1;"/></g><text fill="#000000" font-family="sans-serif" font-size="14" lengthAdjust="spacing" textLength="138.3662" x="157.76" y="107.292">workstationId: Long</text><g data-visibility-modifier="PUBLIC_FIELD"><ellipse cx="148.76" cy="120.2422" fill="none" rx="3" ry="3" style="stroke:#038048;stroke-width:1;"/></g><text fill="#000000" font-family="sans-serif" font-size="14" lengthAdjust="spacing" textLength="222.6123" x="157.76" y="123.5889">startDateTime: ZonedDateTime</text><g data-visibility-modifier="PUBLIC_FIELD"><ellipse cx="148.76" cy="136.5391" fill="none" rx="3" ry="3" style="stroke:#038048;stroke-width:1;"/></g><text fill="#000000" font-family="sans-serif" font-size="14" lengthAdjust="spacing" textLength="147.5469" x="157.76" y="139.8857">duration: BigDecimal</text><g data-visibility-modifier="PUBLIC_FIELD"><ellipse cx="148.76" cy="152.8359" fill="none" rx="3" ry="3" style="stroke:#038048;stroke-width:1;"/></g><text fill="#000000" font-family="sans-serif" font-size="14" lengthAdjust="spacing" textLength="164.8281" x="157.76" y="156.1826">executions: BigDecimal</text><g data-visibility-modifier="PUBLIC_FIELD"><ellipse cx="148.76" cy="169.1328" fill="none" rx="3" ry="3" style="stroke:#038048;stroke-width:1;"/></g><text fill="#000000" font-family="sans-serif" font-size="14" lengthAdjust="spacing" textLength="173.0244" x="157.76" y="172.4795">assignment: Assignment</text><g data-visibility-modifier="PUBLIC_FIELD"><ellipse cx="148.76" cy="185.4297" fill="none" rx="3" ry="3" style="stroke:#038048;stroke-width:1;"/></g><text fill="#000000" font-family="sans-serif" font-size="14" lengthAdjust="spacing" textLength="151.4844" x="157.76" y="188.7764">routeStep: RouteStep</text><g data-visibility-modifier="PUBLIC_FIELD"><ellipse cx="148.76" cy="201.7266" fill="none" rx="3" ry="3" style="stroke:#038048;stroke-width:1;"/></g><text fill="#000000" font-family="sans-serif" font-size="14" lengthAdjust="spacing" textLength="320.3867" x="157.76" y="205.0732">routeStepWorkstation: RouteStepWorkstation</text><g data-visibility-modifier="PUBLIC_FIELD"><ellipse cx="148.76" cy="218.0234" fill="none" rx="3" ry="3" style="stroke:#038048;stroke-width:1;"/></g><text fill="#000000" font-family="sans-serif" font-size="14" lengthAdjust="spacing" textLength="272.7129" x="157.76" y="221.3701">activities: Set&lt;ManufacturingActivity&gt;</text><g data-visibility-modifier="PUBLIC_FIELD"><ellipse cx="148.76" cy="234.3203" fill="none" rx="3" ry="3" style="stroke:#038048;stroke-width:1;"/></g><text fill="#000000" font-family="sans-serif" font-size="14" lengthAdjust="spacing" textLength="293.1729" x="157.76" y="237.667">materials: List&lt;AssignmentSplitMaterial&gt;</text><g data-visibility-modifier="PUBLIC_FIELD"><ellipse cx="148.76" cy="250.6172" fill="none" rx="3" ry="3" style="stroke:#038048;stroke-width:1;"/></g><text fill="#000000" font-family="sans-serif" font-size="14" lengthAdjust="spacing" textLength="364.4854" x="157.76" y="253.9639">manufacturingOutputs: Set&lt;ManufacturingOutput&gt;</text></g><!--class ManufacturingIndexInfoBySplitDto--><g class="entity" data-qualified-name="Modelos.ManufacturingIndexInfoBySplitDto" data-source-line="36" id="ent0008"><rect fill="#F1F1F1" height="154.0781" rx="2.5" ry="2.5" style="stroke:#181818;stroke-width:0.5;" width="474.7109" x="563.64" y="74.59"/><ellipse cx="676.5321" cy="90.59" fill="#ADD1B2" rx="11" ry="11" style="stroke:#181818;stroke-width:1;"/><path d="M679.5008,96.2306 Q678.9227,96.5275 678.2821,96.6681 Q677.6415,96.8244 676.9383,96.8244 Q674.4383,96.8244 673.1102,95.1837 Q671.7977,93.5275 671.7977,90.4025 Q671.7977,87.2775 673.1102,85.6212 Q674.4383,83.965 676.9383,83.965 Q677.6415,83.965 678.2821,84.1212 Q678.9383,84.2775 679.5008,84.5744 L679.5008,87.2931 Q678.8758,86.715 678.2821,86.4494 Q677.6883,86.1681 677.0633,86.1681 Q675.7196,86.1681 675.0321,87.2462 Q674.3446,88.3087 674.3446,90.4025 Q674.3446,92.4962 675.0321,93.5744 Q675.7196,94.6369 677.0633,94.6369 Q677.6883,94.6369 678.2821,94.3712 Q678.8758,94.09 679.5008,93.5119 L679.5008,96.2306 Z " fill="#000000"/><text fill="#000000" font-family="sans-serif" font-size="14" lengthAdjust="spacing" textLength="240.4268" x="697.0321" y="95.4367">ManufacturingIndexInfoBySplitDto</text><line style="stroke:#181818;stroke-width:0.5;" x1="564.64" x2="1037.3509" y1="106.59" y2="106.59"/><g data-visibility-modifier="PUBLIC_FIELD"><ellipse cx="574.64" cy="120.2384" fill="none" rx="3" ry="3" style="stroke:#038048;stroke-width:1;"/></g><text fill="#000000" font-family="sans-serif" font-size="14" lengthAdjust="spacing" textLength="85.7568" x="583.64" y="123.5851">splitId: Long</text><g data-visibility-modifier="PUBLIC_FIELD"><ellipse cx="574.64" cy="136.5353" fill="none" rx="3" ry="3" style="stroke:#038048;stroke-width:1;"/></g><text fill="#000000" font-family="sans-serif" font-size="14" lengthAdjust="spacing" textLength="326.4023" x="583.64" y="139.882">executionInfo: ManufacturingExecutionInfoDto</text><g data-visibility-modifier="PUBLIC_FIELD"><ellipse cx="574.64" cy="152.8322" fill="none" rx="3" ry="3" style="stroke:#038048;stroke-width:1;"/></g><text fill="#000000" font-family="sans-serif" font-size="14" lengthAdjust="spacing" textLength="277.915" x="583.64" y="156.1789">piecesInfo: ManufacturingPiecesInfoDto</text><g data-visibility-modifier="PUBLIC_FIELD"><ellipse cx="574.64" cy="169.1291" fill="none" rx="3" ry="3" style="stroke:#038048;stroke-width:1;"/></g><text fill="#000000" font-family="sans-serif" font-size="14" lengthAdjust="spacing" textLength="254.6934" x="583.64" y="172.4757">timeInfo: ManufacturingTimeInfoDto</text><g data-visibility-modifier="PUBLIC_FIELD"><ellipse cx="574.64" cy="185.4259" fill="none" rx="3" ry="3" style="stroke:#038048;stroke-width:1;"/></g><text fill="#000000" font-family="sans-serif" font-size="14" lengthAdjust="spacing" textLength="265.7061" x="583.64" y="188.7726">indexInfo: ManufacturingIndexInfoDto</text><g data-visibility-modifier="PUBLIC_FIELD"><ellipse cx="574.64" cy="201.7228" fill="none" rx="3" ry="3" style="stroke:#038048;stroke-width:1;"/></g><text fill="#000000" font-family="sans-serif" font-size="14" lengthAdjust="spacing" textLength="448.7109" x="583.64" y="205.0695">piecesInfoByMaterial: Map&lt;Long, ManufacturingPiecesInfoDto&gt;</text><g data-visibility-modifier="PUBLIC_FIELD"><ellipse cx="574.64" cy="218.0197" fill="none" rx="3" ry="3" style="stroke:#038048;stroke-width:1;"/></g><text fill="#000000" font-family="sans-serif" font-size="14" lengthAdjust="spacing" textLength="174.8223" x="583.64" y="221.3664">speedCurve: List&lt;Long&gt;</text></g><!--class ManufacturingInfoBySplitToCalculateDto--><g class="entity" data-qualified-name="Modelos.ManufacturingInfoBySplitToCalculateDto" data-source-line="46" id="ent0009"><rect fill="#F1F1F1" height="137.7813" rx="2.5" ry="2.5" style="stroke:#181818;stroke-width:0.5;" width="316.1426" x="1072.93" y="82.74"/><ellipse cx="1087.93" cy="98.74" fill="#ADD1B2" rx="11" ry="11" style="stroke:#181818;stroke-width:1;"/><path d="M1090.8988,104.3806 Q1090.3206,104.6775 1089.68,104.8181 Q1089.0394,104.9744 1088.3363,104.9744 Q1085.8363,104.9744 1084.5081,103.3338 Q1083.1956,101.6775 1083.1956,98.5525 Q1083.1956,95.4275 1084.5081,93.7713 Q1085.8363,92.115 1088.3363,92.115 Q1089.0394,92.115 1089.68,92.2713 Q1090.3363,92.4275 1090.8988,92.7244 L1090.8988,95.4431 Q1090.2738,94.865 1089.68,94.5994 Q1089.0863,94.3181 1088.4613,94.3181 Q1087.1175,94.3181 1086.43,95.3963 Q1085.7425,96.4588 1085.7425,98.5525 Q1085.7425,100.6463 1086.43,101.7244 Q1087.1175,102.7869 1088.4613,102.7869 Q1089.0863,102.7869 1089.68,102.5213 Q1090.2738,102.24 1090.8988,101.6619 L1090.8988,104.3806 Z " fill="#000000"/><text fill="#000000" font-family="sans-serif" font-size="14" lengthAdjust="spacing" textLength="284.1426" x="1101.93" y="103.5867">ManufacturingInfoBySplitToCalculateDto</text><line style="stroke:#181818;stroke-width:0.5;" x1="1073.93" x2="1388.0726" y1="114.74" y2="114.74"/><g data-visibility-modifier="PUBLIC_FIELD"><ellipse cx="1083.93" cy="128.3884" fill="none" rx="3" ry="3" style="stroke:#038048;stroke-width:1;"/></g><text fill="#000000" font-family="sans-serif" font-size="14" lengthAdjust="spacing" textLength="85.7568" x="1092.93" y="131.7351">splitId: Long</text><g data-visibility-modifier="PUBLIC_FIELD"><ellipse cx="1083.93" cy="144.6853" fill="none" rx="3" ry="3" style="stroke:#038048;stroke-width:1;"/></g><text fill="#000000" font-family="sans-serif" font-size="14" lengthAdjust="spacing" textLength="106.5518" x="1092.93" y="148.032">initDate: String</text><g data-visibility-modifier="PUBLIC_FIELD"><ellipse cx="1083.93" cy="160.9822" fill="none" rx="3" ry="3" style="stroke:#038048;stroke-width:1;"/></g><text fill="#000000" font-family="sans-serif" font-size="14" lengthAdjust="spacing" textLength="110.7832" x="1092.93" y="164.3289">endDate: String</text><g data-visibility-modifier="PUBLIC_FIELD"><ellipse cx="1083.93" cy="177.2791" fill="none" rx="3" ry="3" style="stroke:#038048;stroke-width:1;"/></g><text fill="#000000" font-family="sans-serif" font-size="14" lengthAdjust="spacing" textLength="124.8652" x="1092.93" y="180.6257">fullMode: boolean</text><g data-visibility-modifier="PUBLIC_FIELD"><ellipse cx="1083.93" cy="193.5759" fill="none" rx="3" ry="3" style="stroke:#038048;stroke-width:1;"/></g><text fill="#000000" font-family="sans-serif" font-size="14" lengthAdjust="spacing" textLength="282.3174" x="1092.93" y="196.9226">scrappedReportedInProduction: boolean</text><g data-visibility-modifier="PUBLIC_FIELD"><ellipse cx="1083.93" cy="209.8728" fill="none" rx="3" ry="3" style="stroke:#038048;stroke-width:1;"/></g><text fill="#000000" font-family="sans-serif" font-size="14" lengthAdjust="spacing" textLength="228.6074" x="1092.93" y="213.2195">returnInProductionOnly: boolean</text></g><!--class ManufacturingIndexInfoDto--><g class="entity" data-qualified-name="Modelos.ManufacturingIndexInfoDto" data-source-line="55" id="ent0010"><rect fill="#F1F1F1" height="121.4844" rx="2.5" ry="2.5" style="stroke:#181818;stroke-width:0.5;" width="243.3281" x="1424.34" y="90.89"/><ellipse cx="1448.2649" cy="106.89" fill="#ADD1B2" rx="11" ry="11" style="stroke:#181818;stroke-width:1;"/><path d="M1451.2336,112.5306 Q1450.6555,112.8275 1450.0149,112.9681 Q1449.3742,113.1244 1448.6711,113.1244 Q1446.1711,113.1244 1444.843,111.4837 Q1443.5305,109.8275 1443.5305,106.7025 Q1443.5305,103.5775 1444.843,101.9212 Q1446.1711,100.265 1448.6711,100.265 Q1449.3742,100.265 1450.0149,100.4212 Q1450.6711,100.5775 1451.2336,100.8744 L1451.2336,103.5931 Q1450.6086,103.015 1450.0149,102.7494 Q1449.4211,102.4681 1448.7961,102.4681 Q1447.4524,102.4681 1446.7649,103.5462 Q1446.0774,104.6087 1446.0774,106.7025 Q1446.0774,108.7962 1446.7649,109.8744 Q1447.4524,110.9369 1448.7961,110.9369 Q1449.4211,110.9369 1450.0149,110.6712 Q1450.6086,110.39 1451.2336,109.8119 L1451.2336,112.5306 Z " fill="#000000"/><text fill="#000000" font-family="sans-serif" font-size="14" lengthAdjust="spacing" textLength="191.4951" x="1464.2482" y="111.7367">ManufacturingIndexInfoDto</text><line style="stroke:#181818;stroke-width:0.5;" x1="1425.34" x2="1666.6681" y1="122.89" y2="122.89"/><g data-visibility-modifier="PUBLIC_FIELD"><ellipse cx="1435.34" cy="136.5384" fill="none" rx="3" ry="3" style="stroke:#038048;stroke-width:1;"/></g><text fill="#000000" font-family="sans-serif" font-size="14" lengthAdjust="spacing" textLength="159.5098" x="1444.34" y="139.8851">cycleTime: BigDecimal</text><g data-visibility-modifier="PUBLIC_FIELD"><ellipse cx="1435.34" cy="152.8353" fill="none" rx="3" ry="3" style="stroke:#038048;stroke-width:1;"/></g><text fill="#000000" font-family="sans-serif" font-size="14" lengthAdjust="spacing" textLength="175.3145" x="1444.34" y="156.182">qualityIndex: BigDecimal</text><g data-visibility-modifier="PUBLIC_FIELD"><ellipse cx="1435.34" cy="169.1322" fill="none" rx="3" ry="3" style="stroke:#038048;stroke-width:1;"/></g><text fill="#000000" font-family="sans-serif" font-size="14" lengthAdjust="spacing" textLength="203.5537" x="1444.34" y="172.4789">availabilityIndex: BigDecimal</text><g data-visibility-modifier="PUBLIC_FIELD"><ellipse cx="1435.34" cy="185.4291" fill="none" rx="3" ry="3" style="stroke:#038048;stroke-width:1;"/></g><text fill="#000000" font-family="sans-serif" font-size="14" lengthAdjust="spacing" textLength="217.3281" x="1444.34" y="188.7757">performanceIndex: BigDecimal</text><g data-visibility-modifier="PUBLIC_FIELD"><ellipse cx="1435.34" cy="201.7259" fill="none" rx="3" ry="3" style="stroke:#038048;stroke-width:1;"/></g><text fill="#000000" font-family="sans-serif" font-size="14" lengthAdjust="spacing" textLength="114.4268" x="1444.34" y="205.0726">oee: BigDecimal</text></g><!--class ManufacturingInfoServiceV2--><g class="entity" data-qualified-name="Modelos.API.ManufacturingInfoServiceV2" data-source-line="8" id="ent0004"><rect fill="#F1F1F1" height="105.1875" rx="2.5" ry="2.5" style="stroke:#181818;stroke-width:0.5;" width="1390.6172" x="207.69" y="321.26"/><ellipse cx="799.6993" cy="337.26" fill="#ADD1B2" rx="11" ry="11" style="stroke:#181818;stroke-width:1;"/><path d="M802.668,342.9006 Q802.0899,343.1975 801.4493,343.3381 Q800.8087,343.4944 800.1055,343.4944 Q797.6055,343.4944 796.2774,341.8538 Q794.9649,340.1975 794.9649,337.0725 Q794.9649,333.9475 796.2774,332.2913 Q797.6055,330.635 800.1055,330.635 Q800.8087,330.635 801.4493,330.7913 Q802.1055,330.9475 802.668,331.2444 L802.668,333.9631 Q802.043,333.385 801.4493,333.1194 Q800.8555,332.8381 800.2305,332.8381 Q798.8868,332.8381 798.1993,333.9163 Q797.5118,334.9788 797.5118,337.0725 Q797.5118,339.1663 798.1993,340.2444 Q798.8868,341.3069 800.2305,341.3069 Q800.8555,341.3069 801.4493,341.0413 Q802.043,340.76 802.668,340.1819 L802.668,342.9006 Z " fill="#000000"/><text fill="#000000" font-family="sans-serif" font-size="14" lengthAdjust="spacing" textLength="198.0986" x="820.1993" y="342.1067">ManufacturingInfoServiceV2</text><line style="stroke:#181818;stroke-width:0.5;" x1="208.69" x2="1597.3072" y1="353.26" y2="353.26"/><g data-visibility-modifier="PUBLIC_METHOD"><ellipse cx="218.69" cy="366.9084" fill="#84BE84" rx="3" ry="3" style="stroke:#038048;stroke-width:1;"/></g><text fill="#000000" font-family="sans-serif" font-size="14" lengthAdjust="spacing" textLength="815.3496" x="227.69" y="370.2551">getManufacturingIndexInfoBySplit(dto: ManufacturingInfoBySplitToCalculateDto): ManufacturingIndexInfoBySplitDto</text><g data-visibility-modifier="PUBLIC_METHOD"><ellipse cx="218.69" cy="383.2053" fill="#84BE84" rx="3" ry="3" style="stroke:#038048;stroke-width:1;"/></g><text fill="#000000" font-family="sans-serif" font-size="14" lengthAdjust="spacing" textLength="1364.6172" x="227.69" y="386.552">getManufacturingInfoForSpeedCurve(dto: ManufacturingInfoBySplitToCalculateDto, assignmentSplit: AssignmentSplit, fullMode: boolean, init: ZonedDateTime, end: ZonedDateTime): List&lt;Long&gt;</text><g data-visibility-modifier="PUBLIC_METHOD"><ellipse cx="218.69" cy="399.5022" fill="#84BE84" rx="3" ry="3" style="stroke:#038048;stroke-width:1;"/></g><text fill="#000000" font-family="sans-serif" font-size="14" lengthAdjust="spacing" textLength="1221.3838" x="227.69" y="402.8489">getIndexInfo(piecesInfo: ManufacturingPiecesInfoDto, timeInfo: ManufacturingTimeInfoDto, cycleTimeTarget: Double, materialsByExecution: Double): ManufacturingIndexInfo</text><g data-visibility-modifier="PUBLIC_METHOD"><ellipse cx="218.69" cy="415.7991" fill="#84BE84" rx="3" ry="3" style="stroke:#038048;stroke-width:1;"/></g><text fill="#000000" font-family="sans-serif" font-size="14" lengthAdjust="spacing" textLength="571.6689" x="227.69" y="419.1457">getManufacturingInfoOfSplit(split: AssignmentSplit): ManufacturingInfoBySplitDto</text></g><!--class ManufacturingInfoService--><g class="entity" data-qualified-name="Modelos.vt-master-api.ManufacturingInfoService" data-source-line="17" id="ent0006"><rect fill="#F1F1F1" height="56.2969" rx="2.5" ry="2.5" style="stroke:#181818;stroke-width:0.5;" width="933.1631" x="550.42" y="501.45"/><ellipse cx="922.9444" cy="517.45" fill="#ADD1B2" rx="11" ry="11" style="stroke:#181818;stroke-width:1;"/><path d="M925.9132,523.0906 Q925.335,523.3875 924.6944,523.5281 Q924.0538,523.6844 923.3507,523.6844 Q920.8507,523.6844 919.5225,522.0437 Q918.21,520.3875 918.21,517.2625 Q918.21,514.1375 919.5225,512.4812 Q920.8507,510.825 923.3507,510.825 Q924.0538,510.825 924.6944,510.9812 Q925.3507,511.1375 925.9132,511.4344 L925.9132,514.1531 Q925.2882,513.575 924.6944,513.3094 Q924.1007,513.0281 923.4757,513.0281 Q922.1319,513.0281 921.4444,514.1062 Q920.7569,515.1687 920.7569,517.2625 Q920.7569,519.3562 921.4444,520.4344 Q922.1319,521.4969 923.4757,521.4969 Q924.1007,521.4969 924.6944,521.2312 Q925.2882,520.95 925.9132,520.3719 L925.9132,523.0906 Z " fill="#000000"/><text fill="#000000" font-family="sans-serif" font-size="14" lengthAdjust="spacing" textLength="179.6143" x="943.4444" y="522.2967">ManufacturingInfoService</text><line style="stroke:#181818;stroke-width:0.5;" x1="551.42" x2="1482.5831" y1="533.45" y2="533.45"/><g data-visibility-modifier="PUBLIC_METHOD"><ellipse cx="561.42" cy="547.0984" fill="#84BE84" rx="3" ry="3" style="stroke:#038048;stroke-width:1;"/></g><text fill="#000000" font-family="sans-serif" font-size="14" lengthAdjust="spacing" textLength="907.1631" x="570.42" y="550.4451">calcBySplitId(clientId: Long, dto: ManufacturingInfoBySplitToCalculateDto): ResponseObject&lt;ManufacturingIndexInfoBySplitDto&gt;</text></g><!--class ApiManufacturingInfoController--><g class="entity" data-qualified-name="Controladores.API.ApiManufacturingInfoController" data-source-line="72" id="ent0018"><rect fill="#F1F1F1" height="56.2969" rx="2.5" ry="2.5" style="stroke:#181818;stroke-width:0.5;" width="913.332" x="50.33" y="699.75"/><ellipse cx="404.2231" cy="715.75" fill="#ADD1B2" rx="11" ry="11" style="stroke:#181818;stroke-width:1;"/><path d="M407.1918,721.3906 Q406.6137,721.6875 405.9731,721.8281 Q405.3324,721.9844 404.6293,721.9844 Q402.1293,721.9844 400.8012,720.3438 Q399.4887,718.6875 399.4887,715.5625 Q399.4887,712.4375 400.8012,710.7813 Q402.1293,709.125 404.6293,709.125 Q405.3324,709.125 405.9731,709.2813 Q406.6293,709.4375 407.1918,709.7344 L407.1918,712.4531 Q406.5668,711.875 405.9731,711.6094 Q405.3793,711.3281 404.7543,711.3281 Q403.4106,711.3281 402.7231,712.4063 Q402.0356,713.4688 402.0356,715.5625 Q402.0356,717.6563 402.7231,718.7344 Q403.4106,719.7969 404.7543,719.7969 Q405.3793,719.7969 405.9731,719.5313 Q406.5668,719.25 407.1918,718.6719 L407.1918,721.3906 Z " fill="#000000"/><text fill="#000000" font-family="sans-serif" font-size="14" lengthAdjust="spacing" textLength="197.0459" x="424.7231" y="720.5967">ManufacturingInfoController</text><line style="stroke:#181818;stroke-width:0.5;" x1="51.33" x2="962.662" y1="731.75" y2="731.75"/><g data-visibility-modifier="PUBLIC_METHOD"><ellipse cx="61.33" cy="745.3984" fill="#84BE84" rx="3" ry="3" style="stroke:#038048;stroke-width:1;"/></g><text fill="#000000" font-family="sans-serif" font-size="14" lengthAdjust="spacing" textLength="887.332" x="70.33" y="748.7451">manufacturingInfoBySplit(dto: ManufacturingInfoBySplitToCalculateDto): ResponseEntity&lt;ManufacturingIndexInfoBySplitDto&gt;</text></g><!--class MasterManufacturingInfoController--><g class="entity" data-qualified-name="Controladores.vt-master-api.MasterManufacturingInfoController" data-source-line="77" id="ent0020"><rect fill="#F1F1F1" height="56.2969" rx="2.5" ry="2.5" style="stroke:#181818;stroke-width:0.5;" width="928.4395" x="46.78" y="831.04"/><ellipse cx="408.2268" cy="847.04" fill="#ADD1B2" rx="11" ry="11" style="stroke:#181818;stroke-width:1;"/><path d="M411.1955,852.6806 Q410.6174,852.9775 409.9768,853.1181 Q409.3362,853.2744 408.633,853.2744 Q406.133,853.2744 404.8049,851.6338 Q403.4924,849.9775 403.4924,846.8525 Q403.4924,843.7275 404.8049,842.0713 Q406.133,840.415 408.633,840.415 Q409.3362,840.415 409.9768,840.5713 Q410.633,840.7275 411.1955,841.0244 L411.1955,843.7431 Q410.5705,843.165 409.9768,842.8994 Q409.383,842.6181 408.758,842.6181 Q407.4143,842.6181 406.7268,843.6963 Q406.0393,844.7588 406.0393,846.8525 Q406.0393,848.9463 406.7268,850.0244 Q407.4143,851.0869 408.758,851.0869 Q409.383,851.0869 409.9768,850.8213 Q410.5705,850.54 411.1955,849.9619 L411.1955,852.6806 Z " fill="#000000"/><text fill="#000000" font-family="sans-serif" font-size="14" lengthAdjust="spacing" textLength="197.0459" x="428.7268" y="851.8867">ManufacturingInfoController</text><line style="stroke:#181818;stroke-width:0.5;" x1="47.78" x2="974.2195" y1="863.04" y2="863.04"/><g data-visibility-modifier="PUBLIC_METHOD"><ellipse cx="57.78" cy="876.6884" fill="#84BE84" rx="3" ry="3" style="stroke:#038048;stroke-width:1;"/></g><text fill="#000000" font-family="sans-serif" font-size="14" lengthAdjust="spacing" textLength="902.4395" x="66.78" y="880.0351">calcBySplitId(clientId: Long, dto: ManufacturingInfoBySplitToCalculateDto): ResponseEntity&lt;ManufacturingIndexInfoBySplitDto&gt;</text></g><!--class Performance--><g class="entity" data-qualified-name="Vistas.Performance" data-source-line="85" id="ent0023"><rect fill="#F1F1F1" height="137.7813" rx="2.5" ry="2.5" style="stroke:#181818;stroke-width:0.5;" width="270.8086" x="375.6" y="986.34"/><ellipse cx="462.0233" cy="1002.34" fill="#ADD1B2" rx="11" ry="11" style="stroke:#181818;stroke-width:1;"/><path d="M464.9921,1007.9806 Q464.414,1008.2775 463.7733,1008.4181 Q463.1327,1008.5744 462.4296,1008.5744 Q459.9296,1008.5744 458.6015,1006.9337 Q457.289,1005.2775 457.289,1002.1525 Q457.289,999.0275 458.6015,997.3712 Q459.9296,995.715 462.4296,995.715 Q463.1327,995.715 463.7733,995.8712 Q464.4296,996.0275 464.9921,996.3244 L464.9921,999.0431 Q464.3671,998.465 463.7733,998.1994 Q463.1796,997.9181 462.5546,997.9181 Q461.2108,997.9181 460.5233,998.9962 Q459.8358,1000.0587 459.8358,1002.1525 Q459.8358,1004.2462 460.5233,1005.3244 Q461.2108,1006.3869 462.5546,1006.3869 Q463.1796,1006.3869 463.7733,1006.1212 Q464.3671,1005.84 464.9921,1005.2619 L464.9921,1007.9806 Z " fill="#000000"/><text fill="#000000" font-family="sans-serif" font-size="14" lengthAdjust="spacing" textLength="89.4619" x="482.5233" y="1007.1867">Performance</text><line style="stroke:#181818;stroke-width:0.5;" x1="376.6" x2="645.4086" y1="1018.34" y2="1018.34"/><g data-visibility-modifier="PUBLIC_FIELD"><ellipse cx="386.6" cy="1031.9884" fill="none" rx="3" ry="3" style="stroke:#038048;stroke-width:1;"/></g><text fill="#000000" font-family="sans-serif" font-size="14" lengthAdjust="spacing" textLength="244.8086" x="395.6" y="1035.3351">speedCurveData: SpeedCurveData</text><g data-visibility-modifier="PUBLIC_FIELD"><ellipse cx="386.6" cy="1048.2853" fill="none" rx="3" ry="3" style="stroke:#038048;stroke-width:1;"/></g><text fill="#000000" font-family="sans-serif" font-size="14" lengthAdjust="spacing" textLength="214.7783" x="395.6" y="1051.632">executionsInfo: ExecutionsInfo</text><g data-visibility-modifier="PUBLIC_FIELD"><ellipse cx="386.6" cy="1064.5822" fill="none" rx="3" ry="3" style="stroke:#038048;stroke-width:1;"/></g><text fill="#000000" font-family="sans-serif" font-size="14" lengthAdjust="spacing" textLength="151.7031" x="395.6" y="1067.9289">piecesInfo: PiecesInfo</text><g data-visibility-modifier="PUBLIC_FIELD"><ellipse cx="386.6" cy="1080.8791" fill="none" rx="3" ry="3" style="stroke:#038048;stroke-width:1;"/></g><text fill="#000000" font-family="sans-serif" font-size="14" lengthAdjust="spacing" textLength="128.4814" x="395.6" y="1084.2257">timeInfo: TimeInfo</text><g data-visibility-modifier="PUBLIC_FIELD"><ellipse cx="386.6" cy="1097.1759" fill="none" rx="3" ry="3" style="stroke:#038048;stroke-width:1;"/></g><text fill="#000000" font-family="sans-serif" font-size="14" lengthAdjust="spacing" textLength="139.4941" x="395.6" y="1100.5226">indexInfo: IndexInfo</text><g data-visibility-modifier="PUBLIC_FIELD"><ellipse cx="386.6" cy="1113.4728" fill="none" rx="3" ry="3" style="stroke:#038048;stroke-width:1;"/></g><text fill="#000000" font-family="sans-serif" font-size="14" lengthAdjust="spacing" textLength="156.8438" x="395.6" y="1116.8195">selectedSplit: SplitInfo</text></g><!--class PerformanceSpeedCurve--><g class="entity" data-qualified-name="Vistas.PerformanceSpeedCurve" data-source-line="93" id="ent0024"><rect fill="#F1F1F1" height="56.2969" rx="2.5" ry="2.5" style="stroke:#181818;stroke-width:0.5;" width="270.8086" x="53.6" y="1208.57"/><ellipse cx="97.4708" cy="1224.57" fill="#ADD1B2" rx="11" ry="11" style="stroke:#181818;stroke-width:1;"/><path d="M100.4395,1230.2106 Q99.8614,1230.5075 99.2208,1230.6481 Q98.5801,1230.8044 97.877,1230.8044 Q95.377,1230.8044 94.0489,1229.1638 Q92.7364,1227.5075 92.7364,1224.3825 Q92.7364,1221.2575 94.0489,1219.6013 Q95.377,1217.945 97.877,1217.945 Q98.5801,1217.945 99.2208,1218.1013 Q99.877,1218.2575 100.4395,1218.5544 L100.4395,1221.2731 Q99.8145,1220.695 99.2208,1220.4294 Q98.627,1220.1481 98.002,1220.1481 Q96.6583,1220.1481 95.9708,1221.2263 Q95.2833,1222.2888 95.2833,1224.3825 Q95.2833,1226.4763 95.9708,1227.5544 Q96.6583,1228.6169 98.002,1228.6169 Q98.627,1228.6169 99.2208,1228.3513 Q99.8145,1228.07 100.4395,1227.4919 L100.4395,1230.2106 Z " fill="#000000"/><text fill="#000000" font-family="sans-serif" font-size="14" lengthAdjust="spacing" textLength="174.6514" x="117.8865" y="1229.4167">PerformanceSpeedCurve</text><line style="stroke:#181818;stroke-width:0.5;" x1="54.6" x2="323.4086" y1="1240.57" y2="1240.57"/><g data-visibility-modifier="PUBLIC_FIELD"><ellipse cx="64.6" cy="1254.2184" fill="none" rx="3" ry="3" style="stroke:#038048;stroke-width:1;"/></g><text fill="#000000" font-family="sans-serif" font-size="14" lengthAdjust="spacing" textLength="244.8086" x="73.6" y="1257.5651">speedCurveData: SpeedCurveData</text></g><!--class PerformanceInfoGraphs--><g class="entity" data-qualified-name="Vistas.PerformanceInfoGraphs" data-source-line="96" id="ent0025"><rect fill="#F1F1F1" height="105.1875" rx="2.5" ry="2.5" style="stroke:#181818;stroke-width:0.5;" width="240.7783" x="359.61" y="1184.12"/><ellipse cx="393.7724" cy="1200.12" fill="#ADD1B2" rx="11" ry="11" style="stroke:#181818;stroke-width:1;"/><path d="M396.7411,1205.7606 Q396.163,1206.0575 395.5224,1206.1981 Q394.8817,1206.3544 394.1786,1206.3544 Q391.6786,1206.3544 390.3505,1204.7138 Q389.038,1203.0575 389.038,1199.9325 Q389.038,1196.8075 390.3505,1195.1513 Q391.6786,1193.495 394.1786,1193.495 Q394.8817,1193.495 395.5224,1193.6513 Q396.1786,1193.8075 396.7411,1194.1044 L396.7411,1196.8231 Q396.1161,1196.245 395.5224,1195.9794 Q394.9286,1195.6981 394.3036,1195.6981 Q392.9599,1195.6981 392.2724,1196.7763 Q391.5849,1197.8388 391.5849,1199.9325 Q391.5849,1202.0263 392.2724,1203.1044 Q392.9599,1204.1669 394.3036,1204.1669 Q394.9286,1204.1669 395.5224,1203.9013 Q396.1161,1203.62 396.7411,1203.0419 L396.7411,1205.7606 Z " fill="#000000"/><text fill="#000000" font-family="sans-serif" font-size="14" lengthAdjust="spacing" textLength="166.1953" x="412.0307" y="1204.9667">PerformanceInfoGraphs</text><line style="stroke:#181818;stroke-width:0.5;" x1="360.61" x2="599.3883" y1="1216.12" y2="1216.12"/><g data-visibility-modifier="PUBLIC_FIELD"><ellipse cx="370.61" cy="1229.7684" fill="none" rx="3" ry="3" style="stroke:#038048;stroke-width:1;"/></g><text fill="#000000" font-family="sans-serif" font-size="14" lengthAdjust="spacing" textLength="214.7783" x="379.61" y="1233.1151">executionsInfo: ExecutionsInfo</text><g data-visibility-modifier="PUBLIC_FIELD"><ellipse cx="370.61" cy="1246.0653" fill="none" rx="3" ry="3" style="stroke:#038048;stroke-width:1;"/></g><text fill="#000000" font-family="sans-serif" font-size="14" lengthAdjust="spacing" textLength="151.7031" x="379.61" y="1249.412">piecesInfo: PiecesInfo</text><g data-visibility-modifier="PUBLIC_FIELD"><ellipse cx="370.61" cy="1262.3622" fill="none" rx="3" ry="3" style="stroke:#038048;stroke-width:1;"/></g><text fill="#000000" font-family="sans-serif" font-size="14" lengthAdjust="spacing" textLength="128.4814" x="379.61" y="1265.7089">timeInfo: TimeInfo</text><g data-visibility-modifier="PUBLIC_FIELD"><ellipse cx="370.61" cy="1278.6591" fill="none" rx="3" ry="3" style="stroke:#038048;stroke-width:1;"/></g><text fill="#000000" font-family="sans-serif" font-size="14" lengthAdjust="spacing" textLength="139.4941" x="379.61" y="1282.0057">indexInfo: IndexInfo</text></g><!--class PerformanceTable--><g class="entity" data-qualified-name="Vistas.PerformanceTable" data-source-line="102" id="ent0026"><rect fill="#F1F1F1" height="56.2969" rx="2.5" ry="2.5" style="stroke:#181818;stroke-width:0.5;" width="165.4941" x="635.25" y="1208.57"/><ellipse cx="652.7303" cy="1224.57" fill="#ADD1B2" rx="11" ry="11" style="stroke:#181818;stroke-width:1;"/><path d="M655.699,1230.2106 Q655.1209,1230.5075 654.4803,1230.6481 Q653.8396,1230.8044 653.1365,1230.8044 Q650.6365,1230.8044 649.3084,1229.1638 Q647.9959,1227.5075 647.9959,1224.3825 Q647.9959,1221.2575 649.3084,1219.6013 Q650.6365,1217.945 653.1365,1217.945 Q653.8396,1217.945 654.4803,1218.1013 Q655.1365,1218.2575 655.699,1218.5544 L655.699,1221.2731 Q655.074,1220.695 654.4803,1220.4294 Q653.8865,1220.1481 653.2615,1220.1481 Q651.9178,1220.1481 651.2303,1221.2263 Q650.5428,1222.2888 650.5428,1224.3825 Q650.5428,1226.4763 651.2303,1227.5544 Q651.9178,1228.6169 653.2615,1228.6169 Q653.8865,1228.6169 654.4803,1228.3513 Q655.074,1228.07 655.699,1227.4919 L655.699,1230.2106 Z " fill="#000000"/><text fill="#000000" font-family="sans-serif" font-size="14" lengthAdjust="spacing" textLength="127.9824" x="667.2814" y="1229.4167">PerformanceTable</text><line style="stroke:#181818;stroke-width:0.5;" x1="636.25" x2="799.7441" y1="1240.57" y2="1240.57"/><g data-visibility-modifier="PUBLIC_FIELD"><ellipse cx="646.25" cy="1254.2184" fill="none" rx="3" ry="3" style="stroke:#038048;stroke-width:1;"/></g><text fill="#000000" font-family="sans-serif" font-size="14" lengthAdjust="spacing" textLength="139.4941" x="655.25" y="1257.5651">indexInfo: IndexInfo</text></g><!--class PerformanceSplitState--><g class="entity" data-qualified-name="Vistas.PerformanceSplitState" data-source-line="105" id="ent0027"><rect fill="#F1F1F1" height="56.2969" rx="2.5" ry="2.5" style="stroke:#181818;stroke-width:0.5;" width="189.5615" x="836.22" y="1208.57"/><ellipse cx="851.22" cy="1224.57" fill="#ADD1B2" rx="11" ry="11" style="stroke:#181818;stroke-width:1;"/><path d="M854.1888,1230.2106 Q853.6106,1230.5075 852.97,1230.6481 Q852.3294,1230.8044 851.6263,1230.8044 Q849.1263,1230.8044 847.7981,1229.1638 Q846.4856,1227.5075 846.4856,1224.3825 Q846.4856,1221.2575 847.7981,1219.6013 Q849.1263,1217.945 851.6263,1217.945 Q852.3294,1217.945 852.97,1218.1013 Q853.6263,1218.2575 854.1888,1218.5544 L854.1888,1221.2731 Q853.5638,1220.695 852.97,1220.4294 Q852.3763,1220.1481 851.7513,1220.1481 Q850.4075,1220.1481 849.72,1221.2263 Q849.0325,1222.2888 849.0325,1224.3825 Q849.0325,1226.4763 849.72,1227.5544 Q850.4075,1228.6169 851.7513,1228.6169 Q852.3763,1228.6169 852.97,1228.3513 Q853.5638,1228.07 854.1888,1227.4919 L854.1888,1230.2106 Z " fill="#000000"/><text fill="#000000" font-family="sans-serif" font-size="14" lengthAdjust="spacing" textLength="157.5615" x="865.22" y="1229.4167">PerformanceSplitState</text><line style="stroke:#181818;stroke-width:0.5;" x1="837.22" x2="1024.7815" y1="1240.57" y2="1240.57"/><g data-visibility-modifier="PUBLIC_FIELD"><ellipse cx="847.22" cy="1254.2184" fill="none" rx="3" ry="3" style="stroke:#038048;stroke-width:1;"/></g><text fill="#000000" font-family="sans-serif" font-size="14" lengthAdjust="spacing" textLength="156.8438" x="856.22" y="1257.5651">selectedSplit: SplitInfo</text></g><!--link ManufacturingIndexInfoBySplitDto to ManufacturingInfoServiceV2--><!--link ManufacturingIndexInfoBySplitDto to ManufacturingInfoServiceV2--><g class="link" data-entity-1="ent0008" data-entity-2="ent0004" data-link-type="dependency" data-source-line="111" id="lnk29"><path codeLine="111" d="M849.31,229.04 C864.42,259.35 877.5937,287.8464 888.3637,315.2264" fill="none" id="ManufacturingIndexInfoBySplitDto-to-ManufacturingInfoServiceV2-1" style="stroke:#181818;stroke-width:1;"/><polygon fill="#181818" points="890.56,320.81,890.9879,310.9704,888.7297,316.157,883.5432,313.8989,890.56,320.81" style="stroke:#181818;stroke-width:1;"/></g><!--link ManufacturingInfoBySplitToCalculateDto to ManufacturingInfoServiceV2--><!--link ManufacturingInfoBySplitToCalculateDto to ManufacturingInfoServiceV2--><g class="link" data-entity-1="ent0009" data-entity-2="ent0004" data-link-type="dependency" data-source-line="113" id="lnk31"><path codeLine="113" d="M1142.05,220.8 C1095.45,253.08 1043.7005,287.7708 997.0805,317.6708" fill="none" id="ManufacturingInfoBySplitToCalculateDto-to-ManufacturingInfoServiceV2-1" style="stroke:#181818;stroke-width:1;"/><polygon fill="#181818" points="992.03,320.91,1001.7652,319.4182,996.2388,318.2107,997.4463,312.6842,992.03,320.91" style="stroke:#181818;stroke-width:1;"/></g><!--link ManufacturingIndexInfoDto to ManufacturingInfoServiceV2--><!--link ManufacturingIndexInfoDto to ManufacturingInfoServiceV2--><g class="link" data-entity-1="ent0010" data-entity-2="ent0004" data-link-type="dependency" data-source-line="112" id="lnk30"><path codeLine="112" d="M1498.53,212.76 C1477.24,230.69 1451.32,248.85 1425,261.26 C1372.21,286.16 1319.4666,304.0988 1261.2166,319.2588" fill="none" id="ManufacturingIndexInfoDto-to-ManufacturingInfoServiceV2-1" style="stroke:#181818;stroke-width:1;"/><polygon fill="#181818" points="1255.41,320.77,1265.1273,322.3742,1260.2488,319.5107,1263.1124,314.6321,1255.41,320.77" style="stroke:#181818;stroke-width:1;"/></g><!--link AssignmentSplit to ManufacturingInfoServiceV2--><!--link AssignmentSplit to ManufacturingInfoServiceV2--><g class="link" data-entity-1="ent0007" data-entity-2="ent0004" data-link-type="dependency" data-source-line="110" id="lnk28"><path codeLine="110" d="M528.63,246.01 C540.52,251.38 552.37,256.52 564,261.26 C618.11,283.34 672.5752,301.8837 727.1052,318.9937" fill="none" id="AssignmentSplit-to-ManufacturingInfoServiceV2-1" style="stroke:#181818;stroke-width:1;"/><polygon fill="#181818" points="732.83,320.79,725.4403,314.279,728.0593,319.2931,723.0453,321.9121,732.83,320.79" style="stroke:#181818;stroke-width:1;"/></g><!--link ManufacturingInfoServiceV2 to ManufacturingInfoService--><!--link ApiManufacturingInfoController to MasterManufacturingInfoController--><!--link ManufacturingInfoServiceV2 to ApiManufacturingInfoController--><g class="link" data-entity-1="ent0004" data-entity-2="ent0018" data-link-type="dependency" data-source-line="115" id="lnk32"><path codeLine="115" d="M589.9,426.93 C564.56,436 544.61,446.46 534,458.45 C473.8,526.52 488.1303,639.7032 499.1803,693.3832" fill="none" id="ManufacturingInfoServiceV2-to-ApiManufacturingInfoController" style="stroke:#181818;stroke-width:1;"/><polygon fill="#181818" points="500.39,699.26,502.4933,689.6383,499.3819,694.3627,494.6575,691.2513,500.39,699.26" style="stroke:#181818;stroke-width:1;"/></g><!--link ManufacturingInfoService to MasterManufacturingInfoController--><g class="link" data-entity-1="ent0006" data-entity-2="ent0020" data-link-type="dependency" data-source-line="116" id="lnk33"><path codeLine="116" d="M1022.2,557.93 C1030.22,609.17 1039.06,719.92 980,780.04 C957.51,802.94 911.3189,818.0331 849.6889,829.4931" fill="none" id="ManufacturingInfoService-to-MasterManufacturingInfoController" style="stroke:#181818;stroke-width:1;"/><polygon fill="#181818" points="843.79,830.59,853.3696,832.8773,848.7057,829.6759,851.9071,825.0121,843.79,830.59" style="stroke:#181818;stroke-width:1;"/></g><!--reverse link ManufacturingInfoService to ApiManufacturingInfoController--><g class="link" data-entity-1="ent0006" data-entity-2="ent0018" data-link-type="dependency" data-source-line="118" id="lnk34"><path codeLine="118" d="M939.6806,560.3557 C842.5606,597.7457 675.82,661.92 578.71,699.3" fill="none" id="ManufacturingInfoService-backto-ApiManufacturingInfoController" style="stroke:#181818;stroke-width:1;"/><polygon fill="#181818" points="945.28,558.2,935.4438,557.7006,940.6139,559.9964,938.3181,565.1665,945.28,558.2" style="stroke:#181818;stroke-width:1;"/></g><!--link MasterManufacturingInfoController to Performance--><g class="link" data-entity-1="ent0020" data-entity-2="ent0023" data-link-type="dependency" data-source-line="120" id="lnk35"><path codeLine="120" d="M511,887.58 C511,913.07 511,946.12 511,980" fill="none" id="MasterManufacturingInfoController-to-Performance" style="stroke:#181818;stroke-width:1;"/><polygon fill="#181818" points="511,986,515,977,511,981,507,977,511,986" style="stroke:#181818;stroke-width:1;"/></g><!--link Performance to PerformanceSpeedCurve--><g class="link" data-entity-1="ent0023" data-entity-2="ent0024" data-link-type="dependency" data-source-line="121" id="lnk36"><path codeLine="121" d="M388.35,1124.6 C336.09,1153.72 283.3605,1183.1182 243.4705,1205.3582" fill="none" id="Performance-to-PerformanceSpeedCurve" style="stroke:#181818;stroke-width:1;"/><polygon fill="#181818" points="238.23,1208.28,248.0387,1207.391,242.5971,1205.8452,244.143,1200.4036,238.23,1208.28" style="stroke:#181818;stroke-width:1;"/></g><!--link Performance to PerformanceInfoGraphs--><g class="link" data-entity-1="ent0023" data-entity-2="ent0025" data-link-type="dependency" data-source-line="122" id="lnk37"><path codeLine="122" d="M499.19,1124.6 C495.8,1144.21 493.1922,1159.3677 490.0022,1177.8177" fill="none" id="Performance-to-PerformanceInfoGraphs" style="stroke:#181818;stroke-width:1;"/><polygon fill="#181818" points="488.98,1183.73,494.4549,1175.5431,489.8319,1178.8031,486.5718,1174.1801,488.98,1183.73" style="stroke:#181818;stroke-width:1;"/></g><!--link Performance to PerformanceTable--><g class="link" data-entity-1="ent0023" data-entity-2="ent0026" data-link-type="dependency" data-source-line="123" id="lnk38"><path codeLine="123" d="M589.85,1124.6 C623.44,1153.72 656.1767,1182.1094 681.8267,1204.3494" fill="none" id="Performance-to-PerformanceTable" style="stroke:#181818;stroke-width:1;"/><polygon fill="#181818" points="686.36,1208.28,682.1805,1199.3619,682.5823,1205.0045,676.9397,1205.4063,686.36,1208.28" style="stroke:#181818;stroke-width:1;"/></g><!--link Performance to PerformanceSplitState--><g class="link" data-entity-1="ent0023" data-entity-2="ent0027" data-link-type="dependency" data-source-line="124" id="lnk39"><path codeLine="124" d="M646.67,1111.6 C700.22,1133.75 762.17,1159.76 818,1184.12 C835.49,1191.76 848.943,1197.7857 866.183,1205.6657" fill="none" id="Performance-to-PerformanceSplitState" style="stroke:#181818;stroke-width:1;"/><polygon fill="#181818" points="871.64,1208.16,865.1174,1200.7806,867.0925,1206.0815,861.7917,1208.0566,871.64,1208.16" style="stroke:#181818;stroke-width:1;"/></g><?plantuml-src lLPBRziu4BxhLn0vfOXpwJ483EIr2mCD4jH62-oY1reSkznG94jHReKY_xqZYPIejvsY6o20nHaEPxxvvc6L9bQHhR9M9OHn0x7bIaRf2vUQ6feGJUCNkeUrpGMGGapbNa3qbJCWa6YRamIIBPWqYfmgENjK38HApyZFA2AaFhvvNXL71FzYGTEKF5APxMXiCyFbVYLtQWtcm6FuzDwf4N91zc0xUWn-5Cgt-LeBRi-PLLTzKqwwKNTKn9cW5kwjUjTJRDj2bObtT-elPTOQWDrbvW2dFBmW62_VomIaBSLNvAPzi22xJ8W2kIjCXn90vO9mMMZ-eoImUpIquGai24ZMESEmFl3KNdzGShyC0wZZEzSSOaYBdnsNdsj1wQP5SmDQ6tTSwiHvBCftDzJW8rVaNcLRWPubw8_XLAIt-SCFYBE2Ibuw2lqau4-xAiVf86Rlnk7tcNoDYl-GXGTxcT0K7RsacX_7nu2DCIRLFR5Yvx7WwCiAyr50lo2dKV4Zf5h959ws_s5TNSynSzaEg7AvWuZpz89mvvFx_AxCIsffaP1LMuAdndeYTNZbL5XcQ9NAMxw_XvWdL3WH-3Id0yA6yc7cdD2ep69N0Oqu-9zTqUV6wq0hEFKFOTCwSCi1lLX31ycRIfWldN9DKbSq7GGVdRXH3smzPLPdTkYLIh9i9sSketMsqefFhSJKq0wKuqCeyrI_8CSLkLEUhtHF9U_uM0KFEN2RUo2BM_gwgeznfvOr4hwzTdhQEAmZ1JO9Rj5O2vPZ9crXnMCksS1fhp5xmx6XMWFx25eP2smbdurYMLpnjQrh0DsLeSQJ57ceDSkRCAQw1G-KtRUCOi1vUM-eAW-K2xhbKpeQp4uPf7uCOoeAkc-N0SnI_l9VN1qOo2zCVPUNouaTe6zjBDE_OpC0zoGptSRxUt4rYy-nTgBNOE6wKz8Q9IXJ1j9gferlNMSza-ww07E6JPlSQ3wX4Wp3P2Gzvs-RWm_I8YTFceF7pVNPY1_BYyS5_ISsW3T5FfEcFf5cOcmnwXFsNkgeL87utFI4eBNwRerjasBRR7ttTeHgY3oqlWT6LpCOUgFAJwV-Q6hla-WQ25ogWBbjkyfN9NuTYgbn_VZe1WqLZ_oDW-5hMXlw_n4Oz6n3SGzlDiGJRfRehN7d2i2PmXUPrEkFytrnVdQyrSRRBe-EctbBqLI7TzUdwtVKGl3yN46FsxYkZCpv4CqtHkzDm9OeR1K3ygQEvZIRMfhJBBaz_x2dyIy0?></g></svg>