<svg xmlns="http://www.w3.org/2000/svg" xmlns:xlink="http://www.w3.org/1999/xlink" contentStyleType="text/css" data-diagram-type="DESCRIPTION" height="360px" preserveAspectRatio="none" style="width:278px;height:360px;background:#FFFFFF;" version="1.1" viewBox="0 0 278 360" width="278px" zoomAndPan="magnify"><?plantuml 1.2026.3beta6?><defs/><g><!--cluster ListarParticiones()--><g class="cluster" data-qualified-name="ListarParticiones.." data-source-line="5" id="ent0003"><path d="M8.5,144.8 L156.0078,144.8 A3.75,3.75 0 0 1 158.5078,147.3 L165.5078,167.0969 L227.5,167.0969 A2.5,2.5 0 0 1 230,169.5969 L230,342.89 A2.5,2.5 0 0 1 227.5,345.39 L8.5,345.39 A2.5,2.5 0 0 1 6,342.89 L6,147.3 A2.5,2.5 0 0 1 8.5,144.8" fill="none" style="stroke:#000000;stroke-width:1.5;"/><line style="stroke:#000000;stroke-width:1.5;" x1="6" x2="165.5078" y1="167.0969" y2="167.0969"/><text fill="#000000" font-family="sans-serif" font-size="14" font-weight="700" lengthAdjust="spacing" textLength="146.5078" x="10" y="159.7951">ListarParticiones()</text></g><!--entity PerformanceSplitState--><g class="entity" data-qualified-name="ListarParticiones...PerformanceSplitState" data-source-line="7" id="ent0004"><rect fill="#F1F1F1" height="36.2969" rx="2.5" ry="2.5" style="stroke:#181818;stroke-width:0.5;" width="177.5615" x="22.22" y="179.8"/><text fill="#000000" font-family="sans-serif" font-size="14" lengthAdjust="spacing" textLength="157.5615" x="32.22" y="202.7951">PerformanceSplitState</text></g><!--entity Performance--><g class="entity" data-qualified-name="ListarParticiones...Performance" data-source-line="9" id="ent0005"><rect fill="#F1F1F1" height="36.2969" rx="2.5" ry="2.5" style="stroke:#181818;stroke-width:0.5;" width="109.4619" x="22.27" y="293.09"/><text fill="#000000" font-family="sans-serif" font-size="14" lengthAdjust="spacing" textLength="89.4619" x="32.27" y="316.0851">Performance</text></g><!--entity Responsable--><g class="entity" data-qualified-name="Responsable" data-source-line="3" id="ent0002"><ellipse cx="111.0013" cy="14" fill="#F1F1F1" rx="8" ry="8" style="stroke:#181818;stroke-width:0.5;"/><path d="M111.0013,22 L111.0013,49 M98.0013,30 L124.0013,30 M111.0013,49 L98.0013,64 M111.0013,49 L124.0013,64" fill="none" style="stroke:#181818;stroke-width:0.5;"/><text fill="#000000" font-family="sans-serif" font-size="14" lengthAdjust="spacing" textLength="89.2227" x="66.39" y="78.4951">Responsable</text></g><!--link PerformanceSplitState to Performance--><!--link PerformanceSplitState to Performance--><g class="link" data-entity-1="ent0004" data-entity-2="ent0005" data-link-type="dependency" data-source-line="13" id="lnk7"><path d="M105.69,216.33 C99.34,237.12 90.5218,265.9714 84.1418,286.8714" fill="none" id="PerformanceSplitState-to-Performance-1" style="stroke:#181818;stroke-width:1;"/><polygon fill="#181818" points="82.39,292.61,88.8434,285.17,83.8498,287.8279,81.1919,282.8343,82.39,292.61" style="stroke:#181818;stroke-width:1;"/><text fill="#000000" font-family="sans-serif" font-size="13" lengthAdjust="spacing" textLength="148.002" x="98" y="259.1569">nuevaParticion(SplitId)</text></g><!--link Responsable to PerformanceSplitState--><g class="link" data-entity-1="ent0002" data-entity-2="ent0004" data-link-type="dependency" data-source-line="17" id="lnk8"><path d="M111,82.29 C111,113.3 111,149.86 111,173.44" fill="none" id="Responsable-to-PerformanceSplitState" style="stroke:#181818;stroke-width:1;"/><polygon fill="#181818" points="111,179.44,115,170.44,111,174.44,107,170.44,111,179.44" style="stroke:#181818;stroke-width:1;"/><text fill="#000000" font-family="sans-serif" font-size="13" lengthAdjust="spacing" textLength="150.8774" x="112" y="124.8669">abrir(SelectorParticion)</text></g><?plantuml-src ZP2n3e9038RtFaN310ClmE1kua1aD0xbhkB5uqhkgelntGK7L8A9Sx_lI_gh3AY2hQXAZzP5Dkea091HYRZdD4X8r7e66CXSg6FCTYufnPgYEZF2dF8Ympi0ugHJwFm8rHnF4diAXfl1EssKb3EaXAkNt_RIcSZLH7auEsiv7ClDV_mtLs6uyetcj_8NkRK5m0FWOuc5zmvMI6rqCM_OypJVd2gU?></g></svg>