<svg xmlns="http://www.w3.org/2000/svg" xmlns:xlink="http://www.w3.org/1999/xlink" contentStyleType="text/css" data-diagram-type="CLASS" height="461px" preserveAspectRatio="none" style="width:1414px;height:461px;background:#FFFFFF;" version="1.1" viewBox="0 0 1414 461" width="1414px" zoomAndPan="magnify"><?plantuml 1.2026.3beta6?><defs/><g><!--cluster Modelos--><g class="cluster" data-qualified-name="Modelos" data-source-line="5" id="ent0002"><rect fill="none" height="166" rx="2.5" ry="2.5" style="stroke:#000000;stroke-width:1.5;" width="1393" x="7" y="7"/><text fill="#000000" font-family="sans-serif" font-size="14" font-weight="700" lengthAdjust="spacing" textLength="65.8164" x="670.5918" y="21.9951">Modelos</text></g><!--cluster API--><g class="cluster" data-qualified-name="Modelos.API" data-source-line="7" id="ent0003"><rect fill="none" height="99" rx="2.5" ry="2.5" style="stroke:#000000;stroke-width:1.5;" width="262" x="31" y="50"/><text fill="#000000" font-family="sans-serif" font-size="14" font-weight="700" lengthAdjust="spacing" textLength="26.3047" x="148.8477" y="64.9951">API</text></g><!--cluster vt-master-api--><g class="cluster" data-qualified-name="Modelos.vt-master-api" data-source-line="11" id="ent0005"><rect fill="none" height="99" rx="2.5" ry="2.5" style="stroke:#000000;stroke-width:1.5;" width="244" x="317" y="50"/><text fill="#000000" font-family="sans-serif" font-size="14" font-weight="700" lengthAdjust="spacing" textLength="107.167" x="385.4165" y="64.9951">vt-master-api</text></g><!--cluster Vistas--><g class="cluster" data-qualified-name="Vistas" data-source-line="20" id="ent0010"><rect fill="none" height="207" rx="2.5" ry="2.5" style="stroke:#000000;stroke-width:1.5;" width="628" x="102" y="240"/><text fill="#000000" font-family="sans-serif" font-size="14" font-weight="700" lengthAdjust="spacing" textLength="48.4395" x="391.7803" y="254.9951">Vistas</text></g><!--cluster Controladores--><g class="cluster" data-qualified-name="Controladores" data-source-line="28" id="ent0016"><rect fill="none" height="166" rx="2.5" ry="2.5" style="stroke:#000000;stroke-width:1.5;" width="596" x="785" y="197"/><text fill="#000000" font-family="sans-serif" font-size="14" font-weight="700" lengthAdjust="spacing" textLength="111.6924" x="1027.1538" y="211.9951">Controladores</text></g><!--cluster API--><g class="cluster" data-qualified-name="Controladores.API" data-source-line="29" id="ent0017"><rect fill="none" height="99" rx="2.5" ry="2.5" style="stroke:#000000;stroke-width:1.5;" width="262" x="809" y="240"/><text fill="#000000" font-family="sans-serif" font-size="14" font-weight="700" lengthAdjust="spacing" textLength="26.3047" x="926.8477" y="254.9951">API</text></g><!--cluster vt-master-api--><g class="cluster" data-qualified-name="Controladores.vt-master-api" data-source-line="32" id="ent0019"><rect fill="none" height="99" rx="2.5" ry="2.5" style="stroke:#000000;stroke-width:1.5;" width="262" x="1095" y="240"/><text fill="#000000" font-family="sans-serif" font-size="14" font-weight="700" lengthAdjust="spacing" textLength="107.167" x="1172.4165" y="254.9951">vt-master-api</text></g><!--class AssignmentSplit--><g class="entity" data-qualified-name="Modelos.AssignmentSplit" data-source-line="15" id="ent0007"><rect fill="#F1F1F1" height="48" rx="2.5" ry="2.5" style="stroke:#181818;stroke-width:0.5;" width="145.4697" x="580.27" y="85"/><ellipse cx="595.27" cy="101" fill="#ADD1B2" rx="11" ry="11" style="stroke:#181818;stroke-width:1;"/><path d="M598.2388,106.6406 Q597.6606,106.9375 597.02,107.0781 Q596.3794,107.2344 595.6763,107.2344 Q593.1763,107.2344 591.8481,105.5938 Q590.5356,103.9375 590.5356,100.8125 Q590.5356,97.6875 591.8481,96.0313 Q593.1763,94.375 595.6763,94.375 Q596.3794,94.375 597.02,94.5313 Q597.6763,94.6875 598.2388,94.9844 L598.2388,97.7031 Q597.6138,97.125 597.02,96.8594 Q596.4263,96.5781 595.8013,96.5781 Q594.4575,96.5781 593.77,97.6563 Q593.0825,98.7188 593.0825,100.8125 Q593.0825,102.9063 593.77,103.9844 Q594.4575,105.0469 595.8013,105.0469 Q596.4263,105.0469 597.02,104.7813 Q597.6138,104.5 598.2388,103.9219 L598.2388,106.6406 Z " fill="#000000"/><text fill="#000000" font-family="sans-serif" font-size="14" lengthAdjust="spacing" textLength="113.4697" x="609.27" y="105.8467">AssignmentSplit</text><line style="stroke:#181818;stroke-width:0.5;" x1="581.27" x2="724.7397" y1="117" y2="117"/><line style="stroke:#181818;stroke-width:0.5;" x1="581.27" x2="724.7397" y1="125" y2="125"/></g><!--class ManufacturingIndexInfoBySplitDto--><g class="entity" data-qualified-name="Modelos.ManufacturingIndexInfoBySplitDto" data-source-line="16" id="ent0008"><rect fill="#F1F1F1" height="48" rx="2.5" ry="2.5" style="stroke:#181818;stroke-width:0.5;" width="272.4268" x="760.79" y="85"/><ellipse cx="775.79" cy="101" fill="#ADD1B2" rx="11" ry="11" style="stroke:#181818;stroke-width:1;"/><path d="M778.7588,106.6406 Q778.1806,106.9375 777.54,107.0781 Q776.8994,107.2344 776.1963,107.2344 Q773.6963,107.2344 772.3681,105.5938 Q771.0556,103.9375 771.0556,100.8125 Q771.0556,97.6875 772.3681,96.0313 Q773.6963,94.375 776.1963,94.375 Q776.8994,94.375 777.54,94.5313 Q778.1963,94.6875 778.7588,94.9844 L778.7588,97.7031 Q778.1338,97.125 777.54,96.8594 Q776.9463,96.5781 776.3213,96.5781 Q774.9775,96.5781 774.29,97.6563 Q773.6025,98.7188 773.6025,100.8125 Q773.6025,102.9063 774.29,103.9844 Q774.9775,105.0469 776.3213,105.0469 Q776.9463,105.0469 777.54,104.7813 Q778.1338,104.5 778.7588,103.9219 L778.7588,106.6406 Z " fill="#000000"/><text fill="#000000" font-family="sans-serif" font-size="14" lengthAdjust="spacing" textLength="240.4268" x="789.79" y="105.8467">ManufacturingIndexInfoBySplitDto</text><line style="stroke:#181818;stroke-width:0.5;" x1="761.79" x2="1032.2168" y1="117" y2="117"/><line style="stroke:#181818;stroke-width:0.5;" x1="761.79" x2="1032.2168" y1="125" y2="125"/></g><!--class ManufacturingInfoBySplitToCalculateDto--><g class="entity" data-qualified-name="Modelos.ManufacturingInfoBySplitToCalculateDto" data-source-line="17" id="ent0009"><rect fill="#F1F1F1" height="48" rx="2.5" ry="2.5" style="stroke:#181818;stroke-width:0.5;" width="316.1426" x="1067.93" y="85"/><ellipse cx="1082.93" cy="101" fill="#ADD1B2" rx="11" ry="11" style="stroke:#181818;stroke-width:1;"/><path d="M1085.8988,106.6406 Q1085.3206,106.9375 1084.68,107.0781 Q1084.0394,107.2344 1083.3363,107.2344 Q1080.8363,107.2344 1079.5081,105.5938 Q1078.1956,103.9375 1078.1956,100.8125 Q1078.1956,97.6875 1079.5081,96.0313 Q1080.8363,94.375 1083.3363,94.375 Q1084.0394,94.375 1084.68,94.5313 Q1085.3363,94.6875 1085.8988,94.9844 L1085.8988,97.7031 Q1085.2738,97.125 1084.68,96.8594 Q1084.0863,96.5781 1083.4613,96.5781 Q1082.1175,96.5781 1081.43,97.6563 Q1080.7425,98.7188 1080.7425,100.8125 Q1080.7425,102.9063 1081.43,103.9844 Q1082.1175,105.0469 1083.4613,105.0469 Q1084.0863,105.0469 1084.68,104.7813 Q1085.2738,104.5 1085.8988,103.9219 L1085.8988,106.6406 Z " fill="#000000"/><text fill="#000000" font-family="sans-serif" font-size="14" lengthAdjust="spacing" textLength="284.1426" x="1096.93" y="105.8467">ManufacturingInfoBySplitToCalculateDto</text><line style="stroke:#181818;stroke-width:0.5;" x1="1068.93" x2="1383.0726" y1="117" y2="117"/><line style="stroke:#181818;stroke-width:0.5;" x1="1068.93" x2="1383.0726" y1="125" y2="125"/></g><!--class ManufacturingInfoServiceV2--><g class="entity" data-qualified-name="Modelos.API.ManufacturingInfoServiceV2" data-source-line="8" id="ent0004"><rect fill="#F1F1F1" height="48" rx="2.5" ry="2.5" style="stroke:#181818;stroke-width:0.5;" width="230.0986" x="46.95" y="85"/><ellipse cx="61.95" cy="101" fill="#ADD1B2" rx="11" ry="11" style="stroke:#181818;stroke-width:1;"/><path d="M64.9188,106.6406 Q64.3406,106.9375 63.7,107.0781 Q63.0594,107.2344 62.3563,107.2344 Q59.8563,107.2344 58.5281,105.5938 Q57.2156,103.9375 57.2156,100.8125 Q57.2156,97.6875 58.5281,96.0313 Q59.8563,94.375 62.3563,94.375 Q63.0594,94.375 63.7,94.5313 Q64.3563,94.6875 64.9188,94.9844 L64.9188,97.7031 Q64.2938,97.125 63.7,96.8594 Q63.1063,96.5781 62.4813,96.5781 Q61.1375,96.5781 60.45,97.6563 Q59.7625,98.7188 59.7625,100.8125 Q59.7625,102.9063 60.45,103.9844 Q61.1375,105.0469 62.4813,105.0469 Q63.1063,105.0469 63.7,104.7813 Q64.2938,104.5 64.9188,103.9219 L64.9188,106.6406 Z " fill="#000000"/><text fill="#000000" font-family="sans-serif" font-size="14" lengthAdjust="spacing" textLength="198.0986" x="75.95" y="105.8467">ManufacturingInfoServiceV2</text><line style="stroke:#181818;stroke-width:0.5;" x1="47.95" x2="276.0486" y1="117" y2="117"/><line style="stroke:#181818;stroke-width:0.5;" x1="47.95" x2="276.0486" y1="125" y2="125"/></g><!--class ManufacturingInfoService--><g class="entity" data-qualified-name="Modelos.vt-master-api.ManufacturingInfoService" data-source-line="12" id="ent0006"><rect fill="#F1F1F1" height="48" rx="2.5" ry="2.5" style="stroke:#181818;stroke-width:0.5;" width="211.6143" x="333.19" y="85"/><ellipse cx="348.19" cy="101" fill="#ADD1B2" rx="11" ry="11" style="stroke:#181818;stroke-width:1;"/><path d="M351.1588,106.6406 Q350.5806,106.9375 349.94,107.0781 Q349.2994,107.2344 348.5963,107.2344 Q346.0963,107.2344 344.7681,105.5938 Q343.4556,103.9375 343.4556,100.8125 Q343.4556,97.6875 344.7681,96.0313 Q346.0963,94.375 348.5963,94.375 Q349.2994,94.375 349.94,94.5313 Q350.5963,94.6875 351.1588,94.9844 L351.1588,97.7031 Q350.5338,97.125 349.94,96.8594 Q349.3463,96.5781 348.7213,96.5781 Q347.3775,96.5781 346.69,97.6563 Q346.0025,98.7188 346.0025,100.8125 Q346.0025,102.9063 346.69,103.9844 Q347.3775,105.0469 348.7213,105.0469 Q349.3463,105.0469 349.94,104.7813 Q350.5338,104.5 351.1588,103.9219 L351.1588,106.6406 Z " fill="#000000"/><text fill="#000000" font-family="sans-serif" font-size="14" lengthAdjust="spacing" textLength="179.6143" x="362.19" y="105.8467">ManufacturingInfoService</text><line style="stroke:#181818;stroke-width:0.5;" x1="334.19" x2="543.8043" y1="117" y2="117"/><line style="stroke:#181818;stroke-width:0.5;" x1="334.19" x2="543.8043" y1="125" y2="125"/></g><!--class Performance--><g class="entity" data-qualified-name="Vistas.Performance" data-source-line="21" id="ent0011"><rect fill="#F1F1F1" height="48" rx="2.5" ry="2.5" style="stroke:#181818;stroke-width:0.5;" width="121.4619" x="592.27" y="275"/><ellipse cx="607.27" cy="291" fill="#ADD1B2" rx="11" ry="11" style="stroke:#181818;stroke-width:1;"/><path d="M610.2388,296.6406 Q609.6606,296.9375 609.02,297.0781 Q608.3794,297.2344 607.6763,297.2344 Q605.1763,297.2344 603.8481,295.5938 Q602.5356,293.9375 602.5356,290.8125 Q602.5356,287.6875 603.8481,286.0313 Q605.1763,284.375 607.6763,284.375 Q608.3794,284.375 609.02,284.5313 Q609.6763,284.6875 610.2388,284.9844 L610.2388,287.7031 Q609.6138,287.125 609.02,286.8594 Q608.4263,286.5781 607.8013,286.5781 Q606.4575,286.5781 605.77,287.6563 Q605.0825,288.7188 605.0825,290.8125 Q605.0825,292.9063 605.77,293.9844 Q606.4575,295.0469 607.8013,295.0469 Q608.4263,295.0469 609.02,294.7813 Q609.6138,294.5 610.2388,293.9219 L610.2388,296.6406 Z " fill="#000000"/><text fill="#000000" font-family="sans-serif" font-size="14" lengthAdjust="spacing" textLength="89.4619" x="621.27" y="295.8467">Performance</text><line style="stroke:#181818;stroke-width:0.5;" x1="593.27" x2="712.7319" y1="307" y2="307"/><line style="stroke:#181818;stroke-width:0.5;" x1="593.27" x2="712.7319" y1="315" y2="315"/></g><!--class PerformanceSpeedCurve--><g class="entity" data-qualified-name="Vistas.PerformanceSpeedCurve" data-source-line="22" id="ent0012"><rect fill="#F1F1F1" height="48" rx="2.5" ry="2.5" style="stroke:#181818;stroke-width:0.5;" width="206.6514" x="117.67" y="275"/><ellipse cx="132.67" cy="291" fill="#ADD1B2" rx="11" ry="11" style="stroke:#181818;stroke-width:1;"/><path d="M135.6388,296.6406 Q135.0606,296.9375 134.42,297.0781 Q133.7794,297.2344 133.0763,297.2344 Q130.5763,297.2344 129.2481,295.5938 Q127.9356,293.9375 127.9356,290.8125 Q127.9356,287.6875 129.2481,286.0313 Q130.5763,284.375 133.0763,284.375 Q133.7794,284.375 134.42,284.5313 Q135.0763,284.6875 135.6388,284.9844 L135.6388,287.7031 Q135.0138,287.125 134.42,286.8594 Q133.8263,286.5781 133.2013,286.5781 Q131.8575,286.5781 131.17,287.6563 Q130.4825,288.7188 130.4825,290.8125 Q130.4825,292.9063 131.17,293.9844 Q131.8575,295.0469 133.2013,295.0469 Q133.8263,295.0469 134.42,294.7813 Q135.0138,294.5 135.6388,293.9219 L135.6388,296.6406 Z " fill="#000000"/><text fill="#000000" font-family="sans-serif" font-size="14" lengthAdjust="spacing" textLength="174.6514" x="146.67" y="295.8467">PerformanceSpeedCurve</text><line style="stroke:#181818;stroke-width:0.5;" x1="118.67" x2="323.3214" y1="307" y2="307"/><line style="stroke:#181818;stroke-width:0.5;" x1="118.67" x2="323.3214" y1="315" y2="315"/></g><!--class PerformanceInfoGraphs--><g class="entity" data-qualified-name="Vistas.PerformanceInfoGraphs" data-source-line="23" id="ent0013"><rect fill="#F1F1F1" height="48" rx="2.5" ry="2.5" style="stroke:#181818;stroke-width:0.5;" width="198.1953" x="358.9" y="275"/><ellipse cx="373.9" cy="291" fill="#ADD1B2" rx="11" ry="11" style="stroke:#181818;stroke-width:1;"/><path d="M376.8688,296.6406 Q376.2906,296.9375 375.65,297.0781 Q375.0094,297.2344 374.3063,297.2344 Q371.8063,297.2344 370.4781,295.5938 Q369.1656,293.9375 369.1656,290.8125 Q369.1656,287.6875 370.4781,286.0313 Q371.8063,284.375 374.3063,284.375 Q375.0094,284.375 375.65,284.5313 Q376.3063,284.6875 376.8688,284.9844 L376.8688,287.7031 Q376.2438,287.125 375.65,286.8594 Q375.0563,286.5781 374.4313,286.5781 Q373.0875,286.5781 372.4,287.6563 Q371.7125,288.7188 371.7125,290.8125 Q371.7125,292.9063 372.4,293.9844 Q373.0875,295.0469 374.4313,295.0469 Q375.0563,295.0469 375.65,294.7813 Q376.2438,294.5 376.8688,293.9219 L376.8688,296.6406 Z " fill="#000000"/><text fill="#000000" font-family="sans-serif" font-size="14" lengthAdjust="spacing" textLength="166.1953" x="387.9" y="295.8467">PerformanceInfoGraphs</text><line style="stroke:#181818;stroke-width:0.5;" x1="359.9" x2="556.0953" y1="307" y2="307"/><line style="stroke:#181818;stroke-width:0.5;" x1="359.9" x2="556.0953" y1="315" y2="315"/></g><!--class PerformanceTable--><g class="entity" data-qualified-name="Vistas.PerformanceTable" data-source-line="24" id="ent0014"><rect fill="#F1F1F1" height="48" rx="2.5" ry="2.5" style="stroke:#181818;stroke-width:0.5;" width="159.9824" x="141.01" y="383"/><ellipse cx="156.01" cy="399" fill="#ADD1B2" rx="11" ry="11" style="stroke:#181818;stroke-width:1;"/><path d="M158.9788,404.6406 Q158.4006,404.9375 157.76,405.0781 Q157.1194,405.2344 156.4163,405.2344 Q153.9163,405.2344 152.5881,403.5938 Q151.2756,401.9375 151.2756,398.8125 Q151.2756,395.6875 152.5881,394.0313 Q153.9163,392.375 156.4163,392.375 Q157.1194,392.375 157.76,392.5313 Q158.4163,392.6875 158.9788,392.9844 L158.9788,395.7031 Q158.3538,395.125 157.76,394.8594 Q157.1663,394.5781 156.5413,394.5781 Q155.1975,394.5781 154.51,395.6563 Q153.8225,396.7188 153.8225,398.8125 Q153.8225,400.9063 154.51,401.9844 Q155.1975,403.0469 156.5413,403.0469 Q157.1663,403.0469 157.76,402.7813 Q158.3538,402.5 158.9788,401.9219 L158.9788,404.6406 Z " fill="#000000"/><text fill="#000000" font-family="sans-serif" font-size="14" lengthAdjust="spacing" textLength="127.9824" x="170.01" y="403.8467">PerformanceTable</text><line style="stroke:#181818;stroke-width:0.5;" x1="142.01" x2="299.9924" y1="415" y2="415"/><line style="stroke:#181818;stroke-width:0.5;" x1="142.01" x2="299.9924" y1="423" y2="423"/></g><!--class PerformanceSplitState--><g class="entity" data-qualified-name="Vistas.PerformanceSplitState" data-source-line="25" id="ent0015"><rect fill="#F1F1F1" height="48" rx="2.5" ry="2.5" style="stroke:#181818;stroke-width:0.5;" width="189.5615" x="336.22" y="383"/><ellipse cx="351.22" cy="399" fill="#ADD1B2" rx="11" ry="11" style="stroke:#181818;stroke-width:1;"/><path d="M354.1888,404.6406 Q353.6106,404.9375 352.97,405.0781 Q352.3294,405.2344 351.6263,405.2344 Q349.1263,405.2344 347.7981,403.5938 Q346.4856,401.9375 346.4856,398.8125 Q346.4856,395.6875 347.7981,394.0313 Q349.1263,392.375 351.6263,392.375 Q352.3294,392.375 352.97,392.5313 Q353.6263,392.6875 354.1888,392.9844 L354.1888,395.7031 Q353.5638,395.125 352.97,394.8594 Q352.3763,394.5781 351.7513,394.5781 Q350.4075,394.5781 349.72,395.6563 Q349.0325,396.7188 349.0325,398.8125 Q349.0325,400.9063 349.72,401.9844 Q350.4075,403.0469 351.7513,403.0469 Q352.3763,403.0469 352.97,402.7813 Q353.5638,402.5 354.1888,401.9219 L354.1888,404.6406 Z " fill="#000000"/><text fill="#000000" font-family="sans-serif" font-size="14" lengthAdjust="spacing" textLength="157.5615" x="365.22" y="403.8467">PerformanceSplitState</text><line style="stroke:#181818;stroke-width:0.5;" x1="337.22" x2="524.7815" y1="415" y2="415"/><line style="stroke:#181818;stroke-width:0.5;" x1="337.22" x2="524.7815" y1="423" y2="423"/></g><!--class ApiManufacturingInfoController--><g class="entity" data-qualified-name="Controladores.API.ApiManufacturingInfoController" data-source-line="30" id="ent0018"><rect fill="#F1F1F1" height="48" rx="2.5" ry="2.5" style="stroke:#181818;stroke-width:0.5;" width="229.0459" x="825.48" y="275"/><ellipse cx="840.48" cy="291" fill="#ADD1B2" rx="11" ry="11" style="stroke:#181818;stroke-width:1;"/><path d="M843.4488,296.6406 Q842.8706,296.9375 842.23,297.0781 Q841.5894,297.2344 840.8863,297.2344 Q838.3863,297.2344 837.0581,295.5938 Q835.7456,293.9375 835.7456,290.8125 Q835.7456,287.6875 837.0581,286.0313 Q838.3863,284.375 840.8863,284.375 Q841.5894,284.375 842.23,284.5313 Q842.8863,284.6875 843.4488,284.9844 L843.4488,287.7031 Q842.8238,287.125 842.23,286.8594 Q841.6363,286.5781 841.0113,286.5781 Q839.6675,286.5781 838.98,287.6563 Q838.2925,288.7188 838.2925,290.8125 Q838.2925,292.9063 838.98,293.9844 Q839.6675,295.0469 841.0113,295.0469 Q841.6363,295.0469 842.23,294.7813 Q842.8238,294.5 843.4488,293.9219 L843.4488,296.6406 Z " fill="#000000"/><text fill="#000000" font-family="sans-serif" font-size="14" lengthAdjust="spacing" textLength="197.0459" x="854.48" y="295.8467">ManufacturingInfoController</text><line style="stroke:#181818;stroke-width:0.5;" x1="826.48" x2="1053.5259" y1="307" y2="307"/><line style="stroke:#181818;stroke-width:0.5;" x1="826.48" x2="1053.5259" y1="315" y2="315"/></g><!--class MasterManufacturingInfoController--><g class="entity" data-qualified-name="Controladores.vt-master-api.MasterManufacturingInfoController" data-source-line="33" id="ent0020"><rect fill="#F1F1F1" height="48" rx="2.5" ry="2.5" style="stroke:#181818;stroke-width:0.5;" width="229.0459" x="1111.48" y="275"/><ellipse cx="1126.48" cy="291" fill="#ADD1B2" rx="11" ry="11" style="stroke:#181818;stroke-width:1;"/><path d="M1129.4488,296.6406 Q1128.8706,296.9375 1128.23,297.0781 Q1127.5894,297.2344 1126.8863,297.2344 Q1124.3863,297.2344 1123.0581,295.5938 Q1121.7456,293.9375 1121.7456,290.8125 Q1121.7456,287.6875 1123.0581,286.0313 Q1124.3863,284.375 1126.8863,284.375 Q1127.5894,284.375 1128.23,284.5313 Q1128.8863,284.6875 1129.4488,284.9844 L1129.4488,287.7031 Q1128.8238,287.125 1128.23,286.8594 Q1127.6363,286.5781 1127.0113,286.5781 Q1125.6675,286.5781 1124.98,287.6563 Q1124.2925,288.7188 1124.2925,290.8125 Q1124.2925,292.9063 1124.98,293.9844 Q1125.6675,295.0469 1127.0113,295.0469 Q1127.6363,295.0469 1128.23,294.7813 Q1128.8238,294.5 1129.4488,293.9219 L1129.4488,296.6406 Z " fill="#000000"/><text fill="#000000" font-family="sans-serif" font-size="14" lengthAdjust="spacing" textLength="197.0459" x="1140.48" y="295.8467">ManufacturingInfoController</text><line style="stroke:#181818;stroke-width:0.5;" x1="1112.48" x2="1339.5259" y1="307" y2="307"/><line style="stroke:#181818;stroke-width:0.5;" x1="1112.48" x2="1339.5259" y1="315" y2="315"/></g><!--link AssignmentSplit to Performance--><!--link ManufacturingInfoBySplitToCalculateDto to MasterManufacturingInfoController--><?plantuml-src ZL9BRW8n3Dtd51ORLaXL3r29KhLYWOGqY4tLXKay4969eyH32nL7wgf7u6AT6MW5b5-Mzlivjd00OPYm21TWR2GjbhrAS-i3HYmWe9xZb39PEeAwZNxgQ0-W7QRK5ObsKWhrDVlChWZkbDfHeJLWGuvJ2pwL0lWhTuVzkWJLQqHWWBxCKKiPhP_sVSuPnONLDBwlGEi3xa8w1IQXsC5WRrFvrTYYkYdPgI_8InQS5NM6RUYZbdXSDgWdONNMPeSPSG-TBXqArV3rtZ-CRH9CsxHRaI75d6E1ledthvO58jChu-9ajpPzYHXcwLHtX1DtHhHAcKcLxo1SZxr4TcWuqYxZ-Ksr_as_epkABS3gUuEz06bMSTishpeD6k8rishIDZnpN644TDOJQhlvzh2WA5QZWpAXDzoOKW9AWVJcAwzQIQcZM-cypgmnvDyCl_lEmy4IsnUE-19FgTlk2Ov5hex_0m00?></g></svg>