<svg xmlns="http://www.w3.org/2000/svg" xmlns:xlink="http://www.w3.org/1999/xlink" contentStyleType="text/css" data-diagram-type="DESCRIPTION" height="797px" preserveAspectRatio="none" style="width:564px;height:797px;background:#FFFFFF;" version="1.1" viewBox="0 0 564 797" width="564px" zoomAndPan="magnify"><?plantuml 1.2026.3beta6?><defs/><g><!--cluster ObtenerDatosProducci?n()--><g class="cluster" data-qualified-name="ObtenerDatosProducci.n.." data-source-line="5" id="ent0003"><path d="M8.5,128.8 L220.2383,128.8 A3.75,3.75 0 0 1 222.7383,131.3 L229.7383,151.0969 L449.5,151.0969 A2.5,2.5 0 0 1 452,153.5969 L452,780.08 A2.5,2.5 0 0 1 449.5,782.58 L8.5,782.58 A2.5,2.5 0 0 1 6,780.08 L6,131.3 A2.5,2.5 0 0 1 8.5,128.8" fill="none" style="stroke:#000000;stroke-width:1.5;"/><line style="stroke:#000000;stroke-width:1.5;" x1="6" x2="229.7383" y1="151.0969" y2="151.0969"/><text fill="#000000" font-family="sans-serif" font-size="14" font-weight="700" lengthAdjust="spacing" textLength="210.7383" x="10" y="143.7951">ObtenerDatosProducci&#243;n()</text></g><!--entity Performance--><g class="entity" data-qualified-name="ObtenerDatosProducci.n...Performance" data-source-line="7" id="ent0004"><rect fill="#F1F1F1" height="36.2969" rx="2.5" ry="2.5" style="stroke:#181818;stroke-width:0.5;" width="109.4619" x="22.27" y="163.8"/><text fill="#000000" font-family="sans-serif" font-size="14" lengthAdjust="spacing" textLength="89.4619" x="32.27" y="186.7951">Performance</text></g><!--entity MasterController--><g class="entity" data-qualified-name="ObtenerDatosProducci.n...MasterController" data-source-line="8" id="ent0005"><rect fill="#F1F1F1" height="36.2969" rx="2.5" ry="2.5" style="stroke:#181818;stroke-width:0.5;" width="318.6484" x="21.68" y="277.1"/><text fill="#000000" font-family="sans-serif" font-size="14" lengthAdjust="spacing" textLength="298.6484" x="31.68" y="300.0951">ManufacturingInfoController_vt-master-api</text></g><!--entity MasterService--><g class="entity" data-qualified-name="ObtenerDatosProducci.n...MasterService" data-source-line="9" id="ent0006"><rect fill="#F1F1F1" height="36.2969" rx="2.5" ry="2.5" style="stroke:#181818;stroke-width:0.5;" width="301.2168" x="22.39" y="390.39"/><text fill="#000000" font-family="sans-serif" font-size="14" lengthAdjust="spacing" textLength="281.2168" x="32.39" y="413.3851">ManufacturingInfoService_vt-master-api</text></g><!--entity ApiController--><g class="entity" data-qualified-name="ObtenerDatosProducci.n...ApiController" data-source-line="10" id="ent0007"><rect fill="#F1F1F1" height="36.2969" rx="2.5" ry="2.5" style="stroke:#181818;stroke-width:0.5;" width="246.1943" x="21.9" y="503.69"/><text fill="#000000" font-family="sans-serif" font-size="14" lengthAdjust="spacing" textLength="226.1943" x="31.9" y="526.6851">ManufacturingInfoController_API</text></g><!--entity ApiService--><g class="entity" data-qualified-name="ObtenerDatosProducci.n...ApiService" data-source-line="11" id="ent0008"><rect fill="#F1F1F1" height="36.2969" rx="2.5" ry="2.5" style="stroke:#181818;stroke-width:0.5;" width="228.7627" x="21.62" y="616.99"/><text fill="#000000" font-family="sans-serif" font-size="14" lengthAdjust="spacing" textLength="208.7627" x="31.62" y="639.9851">ManufacturingInfoService_API</text></g><!--entity ObtencionDatos--><g class="entity" data-qualified-name="ObtenerDatosProducci.n...ObtencionDatos" data-source-line="13" id="ent0009"><rect fill="#F1F1F1" height="36.2969" rx="2.5" ry="2.5" style="stroke:#181818;stroke-width:0.5;" width="157.1221" x="37.44" y="730.28"/><text fill="#000000" font-family="sans-serif" font-size="14" lengthAdjust="spacing" textLength="137.1221" x="47.44" y="753.2751">Obtenci&#243;n de datos</text></g><!--entity Responsable--><g class="entity" data-qualified-name="Responsable" data-source-line="3" id="ent0002"><ellipse cx="77.0013" cy="14" fill="#F1F1F1" rx="8" ry="8" style="stroke:#181818;stroke-width:0.5;"/><path d="M77.0013,22 L77.0013,49 M64.0013,30 L90.0013,30 M77.0013,49 L64.0013,64 M77.0013,49 L90.0013,64" fill="none" style="stroke:#181818;stroke-width:0.5;"/><text fill="#000000" font-family="sans-serif" font-size="14" lengthAdjust="spacing" textLength="89.2227" x="32.39" y="78.4951">Responsable</text></g><!--link MasterController to MasterService--><!--link MasterController to MasterService--><g class="link" data-entity-1="ent0005" data-entity-2="ent0006" data-link-type="dependency" data-source-line="21" id="lnk15"><path d="M179.75,313.63 C178.26,334.42 176.1995,363.0254 174.6995,383.9254" fill="none" id="MasterController-to-MasterService-1" style="stroke:#181818;stroke-width:1;"/><polygon fill="#181818" points="174.27,389.91,178.904,381.2194,174.6279,384.9228,170.9245,380.6467,174.27,389.91" style="stroke:#181818;stroke-width:1;"/><text fill="#000000" font-family="sans-serif" font-size="13" lengthAdjust="spacing" textLength="370.6206" x="178" y="356.4569">enviarSolicitud(ManufacturingInfoBySplitToCalculateDto)</text></g><!--link MasterService to ApiController--><!--link MasterService to ApiController--><g class="link" data-entity-1="ent0006" data-entity-2="ent0007" data-link-type="dependency" data-source-line="22" id="lnk16"><path d="M168.62,426.93 C163.4,447.72 156.1524,476.491 150.9024,497.381" fill="none" id="MasterService-to-ApiController-1" style="stroke:#181818;stroke-width:1;"/><polygon fill="#181818" points="149.44,503.2,155.513,495.4464,150.6587,498.3508,147.7543,493.4965,149.44,503.2" style="stroke:#181818;stroke-width:1;"/><text fill="#000000" font-family="sans-serif" font-size="13" lengthAdjust="spacing" textLength="370.6206" x="161" y="469.7569">enviarSolicitud(ManufacturingInfoBySplitToCalculateDto)</text></g><!--link ApiController to ApiService--><!--link ApiController to ApiService--><g class="link" data-entity-1="ent0007" data-entity-2="ent0008" data-link-type="dependency" data-source-line="23" id="lnk17"><path d="M143.59,540.23 C141.91,561.01 139.6036,589.6195 137.9136,610.5195" fill="none" id="ApiController-to-ApiService-1" style="stroke:#181818;stroke-width:1;"/><polygon fill="#181818" points="137.43,616.5,142.1424,607.8517,137.833,611.5163,134.1684,607.2069,137.43,616.5" style="stroke:#181818;stroke-width:1;"/><text fill="#000000" font-family="sans-serif" font-size="13" lengthAdjust="spacing" textLength="370.6206" x="142" y="583.0569">enviarSolicitud(ManufacturingInfoBySplitToCalculateDto)</text></g><!--link ApiService to ObtencionDatos--><!--link ApiService to ObtencionDatos--><g class="link" data-entity-1="ent0008" data-entity-2="ent0009" data-link-type="dependency" data-source-line="24" id="lnk18"><path d="M132.88,653.52 C129.14,674.31 123.9796,702.9943 120.2296,723.8943" fill="none" id="ApiService-to-ObtencionDatos-1" style="stroke:#181818;stroke-width:1;"/><polygon fill="#181818" points="119.17,729.8,124.6966,721.6479,120.053,724.8786,116.8223,720.235,119.17,729.8" style="stroke:#181818;stroke-width:1;"/><text fill="#000000" font-family="sans-serif" font-size="13" lengthAdjust="spacing" textLength="303.2402" x="128" y="696.3469">crearManufacturingIndexInfoBySplitDto(datos)</text></g><!--link Performance to MasterController--><g class="link" data-entity-1="ent0004" data-entity-2="ent0005" data-link-type="dependency" data-source-line="20" id="lnk14"><path d="M93.25,200.34 C112.67,221.12 140.9046,251.3251 160.4246,272.2251" fill="none" id="Performance-to-MasterController" style="stroke:#181818;stroke-width:1;"/><polygon fill="#181818" points="164.52,276.61,161.3002,267.3023,161.1072,272.9559,155.4536,272.7629,164.52,276.61" style="stroke:#181818;stroke-width:1;"/><text fill="#000000" font-family="sans-serif" font-size="13" lengthAdjust="spacing" textLength="370.6206" x="136" y="243.1669">enviarSolicitud(ManufacturingInfoBySplitToCalculateDto)</text></g><!--link Responsable to Performance--><g class="link" data-entity-1="ent0002" data-entity-2="ent0004" data-link-type="dependency" data-source-line="27" id="lnk19"><path d="M77,82.25 C77,108.73 77,136.96 77,157.36" fill="none" id="Responsable-to-Performance" style="stroke:#181818;stroke-width:1;"/><polygon fill="#181818" points="77,163.36,81,154.36,77,158.36,73,154.36,77,163.36" style="stroke:#181818;stroke-width:1;"/></g><?plantuml-src fPF1JiCm38RlUGfhf-tG5-20DBRB3XCJuuOGyX9lH6HnvReJ2F5KF08lnXfjDEr0W7Pqy_lBxz-DSWdAi69LteBpGbOzHsFGAWlSK5Loh70Lo9WIxHDk20RNAwL8CaNbQY7iQclzntiSZWRmQWn00y6u2NlfWcJDiiLeQG1OGLPtXNECzNf_QIq-RcPnpHEEAXm2oSDEYorMIb9WwHDcdifMyWjhIRBpbdu47Sx_xcYycANsSUd_RIBhFTxRxKpnfaJ14RWcvTHm-Cun1TyqzMCexXwzSnJlYykJoJfrBkpFqAbxmXRN5hdar6AsyEBBLSk_08exZxBauAtNsWrFShjwMPR1worFCDWweD9KUVJTzFsfpuSVH-p7T0wvcsydrpEncTlk8Yx02g7qO8wUC-8UCqp_siYy6PCz_0QNRV4J?></g></svg>