<svg xmlns="http://www.w3.org/2000/svg" xmlns:xlink="http://www.w3.org/1999/xlink" contentStyleType="text/css" data-diagram-type="DESCRIPTION" height="1022px" preserveAspectRatio="none" style="width:706px;height:1022px;background:#FFFFFF;" version="1.1" viewBox="0 0 706 1022" width="706px" zoomAndPan="magnify"><?plantuml 1.2026.3beta6?><defs/><g><!--cluster Visualizaci?nDatos(datosCalculados)--><g class="cluster" data-qualified-name="Visualizaci.nDatos.datosCalculados." data-source-line="5" id="ent0003"><path d="M8.5,6 L300.3828,6 A3.75,3.75 0 0 1 302.8828,8.5 L309.8828,28.2969 L670.5,28.2969 A2.5,2.5 0 0 1 673,30.7969 L673,883.87 A2.5,2.5 0 0 1 670.5,886.37 L8.5,886.37 A2.5,2.5 0 0 1 6,883.87 L6,8.5 A2.5,2.5 0 0 1 8.5,6" fill="none" style="stroke:#000000;stroke-width:1.5;"/><line style="stroke:#000000;stroke-width:1.5;" x1="6" x2="309.8828" y1="28.2969" y2="28.2969"/><text fill="#000000" font-family="sans-serif" font-size="14" font-weight="700" lengthAdjust="spacing" textLength="290.8828" x="10" y="20.9951">Visualizaci&#243;nDatos(datosCalculados)</text></g><!--entity DatosCalculados--><g class="entity" data-qualified-name="Visualizaci.nDatos.datosCalculados..DatosCalculados" data-source-line="7" id="ent0004"><rect fill="#F1F1F1" height="36.2969" rx="2.5" ry="2.5" style="stroke:#181818;stroke-width:0.5;" width="136.7373" x="248.63" y="41"/><text fill="#000000" font-family="sans-serif" font-size="14" lengthAdjust="spacing" textLength="116.7373" x="258.63" y="63.9951">DatosCalculados</text></g><!--entity APIService--><g class="entity" data-qualified-name="Visualizaci.nDatos.datosCalculados..APIService" data-source-line="9" id="ent0005"><rect fill="#F1F1F1" height="36.2969" rx="2.5" ry="2.5" style="stroke:#181818;stroke-width:0.5;" width="228.7627" x="203.62" y="154.3"/><text fill="#000000" font-family="sans-serif" font-size="14" lengthAdjust="spacing" textLength="208.7627" x="213.62" y="177.2951">ManufacturingInfoService_API</text></g><!--entity APIController--><g class="entity" data-qualified-name="Visualizaci.nDatos.datosCalculados..APIController" data-source-line="10" id="ent0006"><rect fill="#F1F1F1" height="36.2969" rx="2.5" ry="2.5" style="stroke:#181818;stroke-width:0.5;" width="246.1943" x="196.9" y="267.59"/><text fill="#000000" font-family="sans-serif" font-size="14" lengthAdjust="spacing" textLength="226.1943" x="206.9" y="290.5851">ManufacturingInfoController_API</text></g><!--entity MasterService--><g class="entity" data-qualified-name="Visualizaci.nDatos.datosCalculados..MasterService" data-source-line="11" id="ent0007"><rect fill="#F1F1F1" height="36.2969" rx="2.5" ry="2.5" style="stroke:#181818;stroke-width:0.5;" width="301.2168" x="173.39" y="380.89"/><text fill="#000000" font-family="sans-serif" font-size="14" lengthAdjust="spacing" textLength="281.2168" x="183.39" y="403.8851">ManufacturingInfoService_vt-master-api</text></g><!--entity MasterController--><g class="entity" data-qualified-name="Visualizaci.nDatos.datosCalculados..MasterController" data-source-line="12" id="ent0008"><rect fill="#F1F1F1" height="36.2969" rx="2.5" ry="2.5" style="stroke:#181818;stroke-width:0.5;" width="318.6484" x="172.68" y="494.19"/><text fill="#000000" font-family="sans-serif" font-size="14" lengthAdjust="spacing" textLength="298.6484" x="182.68" y="517.1851">ManufacturingInfoController_vt-master-api</text></g><!--entity Performance--><g class="entity" data-qualified-name="Visualizaci.nDatos.datosCalculados..Performance" data-source-line="13" id="ent0009"><rect fill="#F1F1F1" height="36.2969" rx="2.5" ry="2.5" style="stroke:#181818;stroke-width:0.5;" width="109.4619" x="294.27" y="607.48"/><text fill="#000000" font-family="sans-serif" font-size="14" lengthAdjust="spacing" textLength="89.4619" x="304.27" y="630.4751">Performance</text></g><!--entity PerformanceSpeedCurve--><g class="entity" data-qualified-name="Visualizaci.nDatos.datosCalculados..PerformanceSpeedCurve" data-source-line="14" id="ent0010"><rect fill="#F1F1F1" height="36.2969" rx="2.5" ry="2.5" style="stroke:#181818;stroke-width:0.5;" width="194.6514" x="21.67" y="720.78"/><text fill="#000000" font-family="sans-serif" font-size="14" lengthAdjust="spacing" textLength="174.6514" x="31.67" y="743.7751">PerformanceSpeedCurve</text></g><!--entity PerformanceInfoGraphs--><g class="entity" data-qualified-name="Visualizaci.nDatos.datosCalculados..PerformanceInfoGraphs" data-source-line="15" id="ent0011"><rect fill="#F1F1F1" height="36.2969" rx="2.5" ry="2.5" style="stroke:#181818;stroke-width:0.5;" width="186.1953" x="250.9" y="720.78"/><text fill="#000000" font-family="sans-serif" font-size="14" lengthAdjust="spacing" textLength="166.1953" x="260.9" y="743.7751">PerformanceInfoGraphs</text></g><!--entity PerformanceTable--><g class="entity" data-qualified-name="Visualizaci.nDatos.datosCalculados..PerformanceTable" data-source-line="16" id="ent0012"><rect fill="#F1F1F1" height="36.2969" rx="2.5" ry="2.5" style="stroke:#181818;stroke-width:0.5;" width="147.9824" x="472.01" y="720.78"/><text fill="#000000" font-family="sans-serif" font-size="14" lengthAdjust="spacing" textLength="127.9824" x="482.01" y="743.7751">PerformanceTable</text></g><!--entity VisualizacionDatos--><g class="entity" data-qualified-name="Visualizaci.nDatos.datosCalculados..VisualizacionDatos" data-source-line="17" id="ent0013"><rect fill="#F1F1F1" height="36.2969" rx="2.5" ry="2.5" style="stroke:#181818;stroke-width:0.5;" width="176.1602" x="314.92" y="834.08"/><text fill="#000000" font-family="sans-serif" font-size="14" lengthAdjust="spacing" textLength="156.1602" x="324.92" y="857.0751">Visualizaci&#243;n de datos</text></g><!--entity Responsable--><g class="entity" data-qualified-name="Responsable" data-source-line="3" id="ent0002"><ellipse cx="403.0013" cy="941.87" fill="#F1F1F1" rx="8" ry="8" style="stroke:#181818;stroke-width:0.5;"/><path d="M403.0013,949.87 L403.0013,976.87 M390.0013,957.87 L416.0013,957.87 M403.0013,976.87 L390.0013,991.87 M403.0013,976.87 L416.0013,991.87" fill="none" style="stroke:#181818;stroke-width:0.5;"/><text fill="#000000" font-family="sans-serif" font-size="14" lengthAdjust="spacing" textLength="89.2227" x="358.39" y="1006.3651">Responsable</text></g><!--link DatosCalculados to APIService--><!--link DatosCalculados to APIService--><g class="link" data-entity-1="ent0004" data-entity-2="ent0005" data-link-type="dependency" data-source-line="35" id="lnk26"><path d="M317.16,77.54 C317.34,98.32 317.5955,126.9102 317.7855,147.8102" fill="none" id="DatosCalculados-to-APIService-1" style="stroke:#181818;stroke-width:1;"/><polygon fill="#181818" points="317.84,153.81,321.758,144.774,317.7945,148.8102,313.7584,144.8467,317.84,153.81" style="stroke:#181818;stroke-width:1;"/><text fill="#000000" font-family="sans-serif" font-size="13" lengthAdjust="spacing" textLength="298.854" x="318" y="120.3669">enviarInfo(ManufacturingIndexInfoBySplitDto)</text></g><!--link APIService to APIController--><!--link APIService to APIController--><g class="link" data-entity-1="ent0005" data-entity-2="ent0006" data-link-type="dependency" data-source-line="36" id="lnk27"><path d="M318.31,190.83 C318.69,211.62 319.2038,240.2109 319.5738,261.1109" fill="none" id="APIService-to-APIController-1" style="stroke:#181818;stroke-width:1;"/><polygon fill="#181818" points="319.68,267.11,323.5201,258.0406,319.5915,262.1108,315.5213,258.1822,319.68,267.11" style="stroke:#181818;stroke-width:1;"/><text fill="#000000" font-family="sans-serif" font-size="13" lengthAdjust="spacing" textLength="298.854" x="320" y="233.6569">enviarInfo(ManufacturingIndexInfoBySplitDto)</text></g><!--link APIController to MasterService--><!--link APIController to MasterService--><g class="link" data-entity-1="ent0006" data-entity-2="ent0007" data-link-type="dependency" data-source-line="37" id="lnk28"><path d="M320.62,304.13 C321.37,324.92 322.4047,353.5139 323.1547,374.4039" fill="none" id="APIController-to-MasterService-1" style="stroke:#181818;stroke-width:1;"/><polygon fill="#181818" points="323.37,380.4,327.0445,371.2623,323.1906,375.4032,319.0497,371.5493,323.37,380.4" style="stroke:#181818;stroke-width:1;"/><text fill="#000000" font-family="sans-serif" font-size="13" lengthAdjust="spacing" textLength="298.854" x="323" y="346.9569">enviarInfo(ManufacturingIndexInfoBySplitDto)</text></g><!--link MasterService to MasterController--><!--link MasterService to MasterController--><g class="link" data-entity-1="ent0007" data-entity-2="ent0008" data-link-type="dependency" data-source-line="38" id="lnk29"><path d="M325.25,417.43 C326.74,438.21 328.8005,466.8154 330.3005,487.7154" fill="none" id="MasterService-to-MasterController-1" style="stroke:#181818;stroke-width:1;"/><polygon fill="#181818" points="330.73,493.7,334.0755,484.4367,330.3721,488.7128,326.096,485.0094,330.73,493.7" style="stroke:#181818;stroke-width:1;"/><text fill="#000000" font-family="sans-serif" font-size="13" lengthAdjust="spacing" textLength="298.854" x="329" y="460.2569">enviarInfo(ManufacturingIndexInfoBySplitDto)</text></g><!--link MasterController to Performance--><!--link MasterController to Performance--><g class="link" data-entity-1="ent0008" data-entity-2="ent0009" data-link-type="dependency" data-source-line="39" id="lnk30"><path d="M334.66,530.72 C337.83,551.51 342.2019,580.1691 345.4019,601.0691" fill="none" id="MasterController-to-Performance-1" style="stroke:#181818;stroke-width:1;"/><polygon fill="#181818" points="346.31,607,348.9018,597.4983,345.5533,602.0576,340.994,598.7091,346.31,607" style="stroke:#181818;stroke-width:1;"/><text fill="#000000" font-family="sans-serif" font-size="13" lengthAdjust="spacing" textLength="298.854" x="342" y="573.5469">enviarInfo(ManufacturingIndexInfoBySplitDto)</text></g><!--link Performance to PerformanceSpeedCurve--><!--link Performance to PerformanceSpeedCurve--><g class="link" data-entity-1="ent0009" data-entity-2="ent0010" data-link-type="dependency" data-source-line="41" id="lnk31"><path d="M293.92,632.87 C239.82,640.05 162.25,653.54 140,673.78 C126.91,685.69 122.7254,699.919 120.8554,714.459" fill="none" id="Performance-to-PerformanceSpeedCurve-1" style="stroke:#181818;stroke-width:1;"/><polygon fill="#181818" points="120.09,720.41,125.2054,711.9938,120.7278,715.4508,117.2707,710.9733,120.09,720.41" style="stroke:#181818;stroke-width:1;"/><text fill="#000000" font-family="sans-serif" font-size="13" lengthAdjust="spacing" textLength="154.7051" x="141" y="686.8469">enviar(SpeedCurveInfo)</text></g><!--link Performance to PerformanceInfoGraphs--><!--link Performance to PerformanceInfoGraphs--><g class="link" data-entity-1="ent0009" data-entity-2="ent0011" data-link-type="dependency" data-source-line="42" id="lnk32"><path d="M344.42,643.96 C342.31,652.81 340.05,663.79 339,673.78 C337.35,689.56 338.2044,701.6313 340.0644,714.5413" fill="none" id="Performance-to-PerformanceInfoGraphs-1" style="stroke:#181818;stroke-width:1;"/><polygon fill="#181818" points="340.92,720.48,343.5957,711.0016,340.207,715.5311,335.6775,712.1424,340.92,720.48" style="stroke:#181818;stroke-width:1;"/><text fill="#000000" font-family="sans-serif" font-size="13" lengthAdjust="spacing" textLength="146.853" x="340" y="686.8469">enviar(InfoGraphsInfo)</text></g><!--link Performance to PerformanceTable--><!--link Performance to PerformanceTable--><g class="link" data-entity-1="ent0009" data-entity-2="ent0012" data-link-type="dependency" data-source-line="43" id="lnk33"><path d="M404.04,635.53 C433.88,642.35 470.24,654.07 498,673.78 C515.13,685.94 525.7674,700.8639 534.0574,715.3339" fill="none" id="Performance-to-PerformanceTable-1" style="stroke:#181818;stroke-width:1;"/><polygon fill="#181818" points="537.04,720.54,536.0368,710.7424,534.5545,716.2016,529.0953,714.7192,537.04,720.54" style="stroke:#181818;stroke-width:1;"/><text fill="#000000" font-family="sans-serif" font-size="13" lengthAdjust="spacing" textLength="111.3696" x="516" y="686.8469">enviar(TableInfo)</text></g><!--link Performance to VisualizacionDatos--><!--link Performance to VisualizacionDatos--><g class="link" data-entity-1="ent0009" data-entity-2="ent0013" data-link-type="dependency" data-source-line="44" id="lnk34"><path d="M403.91,627.27 C483.44,629.35 622.98,638.02 654,673.78 C691.95,717.52 691.14,759.64 654,804.08 C633.88,828.14 561.485,839.703 497.365,845.573" fill="none" id="Performance-to-VisualizacionDatos-1" style="stroke:#181818;stroke-width:1;"/><polygon fill="#181818" points="491.39,846.12,500.7172,849.2829,496.3692,845.6642,499.9879,841.3162,491.39,846.12" style="stroke:#181818;stroke-width:1;"/></g><!--link PerformanceSpeedCurve to VisualizacionDatos--><!--link PerformanceSpeedCurve to VisualizacionDatos--><g class="link" data-entity-1="ent0010" data-entity-2="ent0013" data-link-type="dependency" data-source-line="46" id="lnk35"><path d="M108.72,757.45 C101.9,771.61 96.04,791.23 107,804.08 C133.3,834.9 231.1769,845.3824 308.4869,849.0924" fill="none" id="PerformanceSpeedCurve-to-VisualizacionDatos-1" style="stroke:#181818;stroke-width:1;"/><polygon fill="#181818" points="314.48,849.38,305.6821,844.9532,309.4857,849.1403,305.2986,852.944,314.48,849.38" style="stroke:#181818;stroke-width:1;"/><text fill="#000000" font-family="sans-serif" font-size="13" lengthAdjust="spacing" textLength="164.9946" x="108" y="800.1469">mostrar(SpeedCurveInfo)</text></g><!--link PerformanceInfoGraphs to VisualizacionDatos--><!--link PerformanceInfoGraphs to VisualizacionDatos--><g class="link" data-entity-1="ent0011" data-entity-2="ent0013" data-link-type="dependency" data-source-line="47" id="lnk36"><path d="M328.38,757.46 C318.54,770.73 309.22,789.17 318,804.08 C325.62,817.02 332.9318,823.8254 346.1218,830.8954" fill="none" id="PerformanceInfoGraphs-to-VisualizacionDatos-1" style="stroke:#181818;stroke-width:1;"/><polygon fill="#181818" points="351.41,833.73,345.3674,825.9527,347.0031,831.3679,341.588,833.0037,351.41,833.73" style="stroke:#181818;stroke-width:1;"/><text fill="#000000" font-family="sans-serif" font-size="13" lengthAdjust="spacing" textLength="157.1426" x="319" y="800.1469">mostrar(InfoGraphsInfo)</text></g><!--link PerformanceTable to VisualizacionDatos--><!--link PerformanceTable to VisualizacionDatos--><g class="link" data-entity-1="ent0012" data-entity-2="ent0013" data-link-type="dependency" data-source-line="48" id="lnk37"><path d="M532.81,757.45 C521.84,771.24 505.28,790.35 488,804.08 C473.59,815.51 461.3766,822.9982 445.9666,830.9882" fill="none" id="PerformanceTable-to-VisualizacionDatos-1" style="stroke:#181818;stroke-width:1;"/><polygon fill="#181818" points="440.64,833.75,450.4711,833.1583,445.0788,831.4485,446.7887,826.0562,440.64,833.75" style="stroke:#181818;stroke-width:1;"/><text fill="#000000" font-family="sans-serif" font-size="13" lengthAdjust="spacing" textLength="121.6592" x="506" y="800.1469">mostrar(TableInfo)</text></g><!--reverse link VisualizacionDatos to Responsable--><g class="link" data-entity-1="ent0013" data-entity-2="ent0002" data-link-type="dependency" data-source-line="52" id="lnk38"><path d="M403,876.79 C403,893.15 403,912.08 403,932.92" fill="none" id="VisualizacionDatos-backto-Responsable" style="stroke:#181818;stroke-width:1;"/><polygon fill="#181818" points="403,870.79,399,879.79,403,875.79,407,879.79,403,870.79" style="stroke:#181818;stroke-width:1;"/></g><?plantuml-src dLNTQi8m6BtFKmIlzA8l86EmAGml19bZDsECpoPgM9kK92txOK-rHzYBpSHfazYOLIWjtvTpJa_wdL0jAgm5NWcjHOa9apJNJ7248DT2udkgAi4Lh0gAK0NvAsme7ZmoLKF1FY1dFzzy2bge8J7t2HHvNG0HQZJ0dmXXRFI0RueTQ-eZ1XWK3de1OmwyNk-Cr9BnpOolnPBAXkNqvMOni_JTyw-L84u4rr8K1PKkj-t-yxsDpafGcieCAcPLvhRiRI8c57Eqe78jP0ayfnRjr57WigAKJ6hPd53QbIZP-BsJK6rLI6vNekG7avUGPvi-nSyH9XJR55ccioRs4JFX2FAIFMqP8PG_PzT-5jeYW7WVsAjTO3XLhpu5Ug9XouNxOzjTJYE2ysQLXdlJISCFGuaWkuVGwIv1mzqc-x2irvIxZenusHXZoXi6qbWO1YUKq3VJldrVLWNJKor6VfB215sYvUGYp5blEJ-L7McyKD7tw4oWfrwGgrYk3wh3jcMKHcVfROIEzBQLfjii7PcsYf3w785E-1YNGccPsfzp9X8oP_UvFoG91MU_w0kXK-XLbhc__by0?></g></svg>