<?xml version="1.0" encoding="us-ascii" standalone="no"?><svg xmlns="http://www.w3.org/2000/svg" xmlns:xlink="http://www.w3.org/1999/xlink" contentStyleType="text/css" height="720px" preserveAspectRatio="none" style="width:440px;height:720px;background:#FFFFFF;" version="1.1" viewBox="0 0 440 720" width="440px" zoomAndPan="magnify"><defs/><g><path d="M70.5,7 L320.5,7 A12.5,12.5 0 0 1 333,19.5 L333,34.6094 L58,34.6094 L58,19.5 A12.5,12.5 0 0 1 70.5,7 " fill="#F1F1F1" style="stroke:#F1F1F1;stroke-width:1.0;"/><rect fill="none" height="560.6094" rx="12.5" ry="12.5" style="stroke:#181818;stroke-width:0.5;" width="275" x="58" y="7"/><line style="stroke:#181818;stroke-width:0.5;" x1="58" x2="333" y1="34.6094" y2="34.6094"/><text fill="#000000" font-family="sans-serif" font-size="14" lengthAdjust="spacing" textLength="116" x="137.5" y="26.5332">eliminarCasoUso()</text><g id="eliminarCasoUso.SeleccionandoCasoUso"><rect fill="#F1F1F1" height="50" rx="12.5" ry="12.5" style="stroke:#181818;stroke-width:0.5;" width="50" x="70" y="137.6094"/><line style="stroke:#181818;stroke-width:0.5;" x1="70" x2="120" y1="165.2188" y2="165.2188"/><text fill="#000000" font-family="sans-serif" font-size="14" lengthAdjust="spacing" textLength="4" x="93" y="157.1426">&#160;</text></g><g id="eliminarCasoUso.ConfirmandoEliminacion"><rect fill="#F1F1F1" height="50" rx="12.5" ry="12.5" style="stroke:#181818;stroke-width:0.5;" width="50" x="70" y="275.6094"/><line style="stroke:#181818;stroke-width:0.5;" x1="70" x2="120" y1="303.2188" y2="303.2188"/><text fill="#000000" font-family="sans-serif" font-size="14" lengthAdjust="spacing" textLength="4" x="93" y="295.1426">&#160;</text></g><g id="eliminarCasoUso.EliminandoCasoUso"><rect fill="#F1F1F1" height="50" rx="12.5" ry="12.5" style="stroke:#181818;stroke-width:0.5;" width="50" x="70" y="413.6094"/><line style="stroke:#181818;stroke-width:0.5;" x1="70" x2="120" y1="441.2188" y2="441.2188"/><text fill="#000000" font-family="sans-serif" font-size="14" lengthAdjust="spacing" textLength="4" x="93" y="433.1426">&#160;</text></g><ellipse cx="95" cy="55.6094" fill="#222222" rx="10" ry="10" style="stroke:#222222;stroke-width:1.0;"/><ellipse cx="95" cy="546.6094" fill="none" rx="11" ry="11" style="stroke:#222222;stroke-width:1.0;"/><ellipse cx="95" cy="546.6094" fill="#222222" rx="6" ry="6" style="stroke:#222222;stroke-width:1.0;"/><!--link *start*eliminarCasoUso to SeleccionandoCasoUso--><g id="link_*start*eliminarCasoUso_SeleccionandoCasoUso"><path d="M95,65.9294 C95,81.7894 95,108.5194 95,131.2494 " fill="none" id="*start*eliminarCasoUso-to-SeleccionandoCasoUso" style="stroke:#008000;stroke-width:1.0;"/><polygon fill="#008000" points="95,137.2494,99,128.2494,95,132.2494,91,128.2494,95,137.2494" style="stroke:#008000;stroke-width:1.0;"/><path d="M100,88.6094 L100,114.6094 L324,114.6094 L324,98.6094 L314,88.6094 L100,88.6094 " fill="#FEFFDD" style="stroke:#181818;stroke-width:0.5;"/><path d="M314,88.6094 L314,98.6094 L324,98.6094 L314,88.6094 " fill="#FEFFDD" style="stroke:#181818;stroke-width:0.5;"/><text fill="#000000" font-family="sans-serif" font-size="13" lengthAdjust="spacing" textLength="203" x="106" y="107.1045">Se solicita eliminar un caso de uso</text></g><!--link SeleccionandoCasoUso to ConfirmandoEliminacion--><g id="link_SeleccionandoCasoUso_ConfirmandoEliminacion"><path d="M95,187.6094 C95,212.3194 95,244.6094 95,269.3894 " fill="none" id="SeleccionandoCasoUso-to-ConfirmandoEliminacion" style="stroke:#008000;stroke-width:1.0;"/><polygon fill="#008000" points="95,275.3894,99,266.3894,95,270.3894,91,266.3894,95,275.3894" style="stroke:#008000;stroke-width:1.0;"/><path d="M100,210.6094 L100,252.6094 L294,252.6094 L294,220.6094 L284,210.6094 L100,210.6094 " fill="#FEFFDD" style="stroke:#181818;stroke-width:0.5;"/><path d="M284,210.6094 L284,220.6094 L294,220.6094 L284,210.6094 " fill="#FEFFDD" style="stroke:#181818;stroke-width:0.5;"/><text fill="#000000" font-family="sans-serif" font-size="13" font-weight="bold" lengthAdjust="spacing" textLength="51" x="106" y="229.1045">Sistema</text><text fill="#000000" font-family="sans-serif" font-size="13" lengthAdjust="spacing" textLength="118" x="161" y="229.1045">solicita confirmacion</text><text fill="#000000" font-family="sans-serif" font-size="13" lengthAdjust="spacing" textLength="88" x="106" y="245.4561">de la operacion</text></g><!--link ConfirmandoEliminacion to EliminandoCasoUso--><g id="link_ConfirmandoEliminacion_EliminandoCasoUso"><path d="M95,325.6094 C95,350.3194 95,382.6094 95,407.3894 " fill="none" id="ConfirmandoEliminacion-to-EliminandoCasoUso" style="stroke:#008000;stroke-width:1.0;"/><polygon fill="#008000" points="95,413.3894,99,404.3894,95,408.3894,91,404.3894,95,413.3894" style="stroke:#008000;stroke-width:1.0;"/><path d="M100,348.6094 L100,390.6094 L299,390.6094 L299,358.6094 L289,348.6094 L100,348.6094 " fill="#FEFFDD" style="stroke:#181818;stroke-width:0.5;"/><path d="M289,348.6094 L289,358.6094 L299,358.6094 L289,348.6094 " fill="#FEFFDD" style="stroke:#181818;stroke-width:0.5;"/><text fill="#000000" font-family="sans-serif" font-size="13" font-weight="bold" lengthAdjust="spacing" textLength="51" x="106" y="367.1045">Sistema</text><text fill="#000000" font-family="sans-serif" font-size="13" lengthAdjust="spacing" textLength="123" x="161" y="367.1045">valida la confirmacion</text><text fill="#000000" font-family="sans-serif" font-size="13" lengthAdjust="spacing" textLength="137" x="106" y="383.4561">y prepara la eliminacion</text></g><!--link EliminandoCasoUso to *end*eliminarCasoUso--><g id="link_EliminandoCasoUso_*end*eliminarCasoUso"><path d="M95,463.6594 C95,486.2594 95,512.9894 95,529.4094 " fill="none" id="EliminandoCasoUso-to-*end*eliminarCasoUso" style="stroke:#008000;stroke-width:1.0;"/><polygon fill="#008000" points="95,535.4094,99,526.4094,95,530.4094,91,526.4094,95,535.4094" style="stroke:#008000;stroke-width:1.0;"/><path d="M100,486.6094 L100,512.6094 L306,512.6094 L306,496.6094 L296,486.6094 L100,486.6094 " fill="#FEFFDD" style="stroke:#181818;stroke-width:0.5;"/><path d="M296,486.6094 L296,496.6094 L306,496.6094 L296,486.6094 " fill="#FEFFDD" style="stroke:#181818;stroke-width:0.5;"/><text fill="#000000" font-family="sans-serif" font-size="13" font-weight="bold" lengthAdjust="spacing" textLength="51" x="106" y="505.1045">Sistema</text><text fill="#000000" font-family="sans-serif" font-size="13" lengthAdjust="spacing" textLength="130" x="161" y="505.1045">elimina el caso de uso</text></g><g id="CASOS_USO_ABIERTO"><rect fill="#F1F1F1" height="50" rx="12.5" ry="12.5" style="stroke:#181818;stroke-width:0.5;" width="173" x="7" y="664"/><line style="stroke:#181818;stroke-width:0.5;" x1="7" x2="180" y1="691.6094" y2="691.6094"/><text fill="#000000" font-family="sans-serif" font-size="14" lengthAdjust="spacing" textLength="153" x="17" y="683.5332">CASOS_USO_ABIERTO</text></g><g id="CASO_USO_ABIERTO"><rect fill="#F1F1F1" height="50" rx="12.5" ry="12.5" style="stroke:#181818;stroke-width:0.5;" width="164" x="215.5" y="664"/><line style="stroke:#181818;stroke-width:0.5;" x1="215.5" x2="379.5" y1="691.6094" y2="691.6094"/><text fill="#000000" font-family="sans-serif" font-size="14" lengthAdjust="spacing" textLength="144" x="225.5" y="683.5332">CASO_USO_ABIERTO</text></g><!--link eliminarCasoUso to CASOS_USO_ABIERTO--><g id="link_eliminarCasoUso_CASOS_USO_ABIERTO"><path d="M101.57,568.04 C95.35,586.55 91.5,598 91.5,598 C91.5,598 91.5,634 91.5,634 C91.5,634 91.8447,643.4742 92.3847,657.8442 " fill="none" id="eliminarCasoUso-to-CASOS_USO_ABIERTO" style="stroke:#008000;stroke-width:1.0;"/><polygon fill="#008000" points="92.61,663.84,96.2692,654.6961,92.4222,658.8435,88.2749,654.9966,92.61,663.84" style="stroke:#008000;stroke-width:1.0;"/><path d="M96.5,603 L96.5,629 L249.5,629 L249.5,613 L239.5,603 L96.5,603 " fill="#FEFFDD" style="stroke:#181818;stroke-width:0.5;"/><path d="M239.5,603 L239.5,613 L249.5,613 L239.5,603 " fill="#FEFFDD" style="stroke:#181818;stroke-width:0.5;"/><text fill="#000000" font-family="sans-serif" font-size="13" lengthAdjust="spacing" textLength="132" x="102.5" y="621.4951">completarEliminacion()</text></g><!--link eliminarCasoUso to CASO_USO_ABIERTO--><g id="link_eliminarCasoUso_CASO_USO_ABIERTO"><path d="M266.9,568.14 C276.94,607.48 284.2352,636.0566 289.7852,657.7866 " fill="none" id="eliminarCasoUso-to-CASO_USO_ABIERTO" style="stroke:#FF0000;stroke-width:1.0;"/><polygon fill="#FF0000" points="291.27,663.6,292.9184,653.8901,290.0327,658.7555,285.1672,655.8698,291.27,663.6" style="stroke:#FF0000;stroke-width:1.0;"/><path d="M287.5,603 L287.5,629 L433.5,629 L433.5,613 L423.5,603 L287.5,603 " fill="#FEFFDD" style="stroke:#181818;stroke-width:0.5;"/><path d="M423.5,603 L423.5,613 L433.5,613 L423.5,603 " fill="#FEFFDD" style="stroke:#181818;stroke-width:0.5;"/><text fill="#000000" font-family="sans-serif" font-size="13" lengthAdjust="spacing" textLength="125" x="293.5" y="621.4951">rechazarEliminacion()</text></g><!--SRC=[ZL9FQy8m5B_dKpowYmvaNq0AJZpiL5ZdIKIUwTiMJ9EIr44tzjsNrCwQnehf8VJbz-_bnHw4gj1W2L8egfkAeDAoyJ-CsHfh0fAY50hD4grUMmre8HdK9jC4VXW3jqwSn7qEbvCapeLMg0hTOMFKKgjtOKgFMPrqFIN6TOSNKYrcyxY5sURXmn2fxImTDrNQQMdbEpsqXPp0QYcugF7S9HmLS4U2Wk3O4KaLBPbrh5W_272ZdoZ2V9_cmjPKulnfd_PnUATnPheu4a5NPFfQcEkwRP0ili5xGdsX50Lw-oXL0vKX_txyAGsQ3UD5ta4oDyIxidGURX-VqYzZmpSRZ6UHP_bkdMUxnVFBwlKjOu4frsKbgKPpSOcJAUkRkQ9jgFXN7XSsn3_nUrJt3m00]--></g></svg>