<?xml version="1.0" encoding="us-ascii" standalone="no"?><svg xmlns="http://www.w3.org/2000/svg" xmlns:xlink="http://www.w3.org/1999/xlink" contentStyleType="text/css" height="736px" preserveAspectRatio="none" style="width:573px;height:736px;background:#FFFFFF;" version="1.1" viewBox="0 0 573 736" width="573px" zoomAndPan="magnify"><defs/><g><path d="M131.5,7 L425.5,7 A12.5,12.5 0 0 1 438,19.5 L438,34.6094 L119,34.6094 L119,19.5 A12.5,12.5 0 0 1 131.5,7 " fill="#F1F1F1" style="stroke:#F1F1F1;stroke-width:1.0;"/><rect fill="none" height="576.6094" rx="12.5" ry="12.5" style="stroke:#181818;stroke-width:0.5;" width="319" x="119" y="7"/><line style="stroke:#181818;stroke-width:0.5;" x1="119" x2="438" y1="34.6094" y2="34.6094"/><text fill="#000000" font-family="sans-serif" font-size="14" lengthAdjust="spacing" textLength="191" x="183" y="26.5332">actualizarRequisitoFuncional()</text><g id="actualizarRequisitoFuncional.RecuperandoRequisito"><rect fill="#F1F1F1" height="50" rx="12.5" ry="12.5" style="stroke:#181818;stroke-width:0.5;" width="50" x="131" y="137.6094"/><line style="stroke:#181818;stroke-width:0.5;" x1="131" x2="181" y1="165.2188" y2="165.2188"/><text fill="#000000" font-family="sans-serif" font-size="14" lengthAdjust="spacing" textLength="4" x="154" y="157.1426">&#160;</text></g><g id="actualizarRequisitoFuncional.EditandoRequisito"><rect fill="#F1F1F1" height="50" rx="12.5" ry="12.5" style="stroke:#181818;stroke-width:0.5;" width="50" x="131" y="275.6094"/><line style="stroke:#181818;stroke-width:0.5;" x1="131" x2="181" y1="303.2188" y2="303.2188"/><text fill="#000000" font-family="sans-serif" font-size="14" lengthAdjust="spacing" textLength="4" x="154" y="295.1426">&#160;</text></g><g id="actualizarRequisitoFuncional.GuardandoCambios"><rect fill="#F1F1F1" height="50" rx="12.5" ry="12.5" style="stroke:#181818;stroke-width:0.5;" width="50" x="131" y="413.6094"/><line style="stroke:#181818;stroke-width:0.5;" x1="131" x2="181" y1="441.2188" y2="441.2188"/><text fill="#000000" font-family="sans-serif" font-size="14" lengthAdjust="spacing" textLength="4" x="154" y="433.1426">&#160;</text></g><ellipse cx="156" cy="55.6094" fill="#222222" rx="10" ry="10" style="stroke:#222222;stroke-width:1.0;"/><ellipse cx="156" cy="562.6094" fill="none" rx="11" ry="11" style="stroke:#222222;stroke-width:1.0;"/><ellipse cx="156" cy="562.6094" fill="#222222" rx="6" ry="6" style="stroke:#222222;stroke-width:1.0;"/><!--link *start*actualizarRequisitoFuncional to RecuperandoRequisito--><g id="link_*start*actualizarRequisitoFuncional_RecuperandoRequisito"><path d="M156,65.9294 C156,81.7894 156,108.5194 156,131.2494 " fill="none" id="*start*actualizarRequisitoFuncional-to-RecuperandoRequisito" style="stroke:#008000;stroke-width:1.0;"/><polygon fill="#008000" points="156,137.2494,160,128.2494,156,132.2494,152,128.2494,156,137.2494" style="stroke:#008000;stroke-width:1.0;"/><path d="M161,88.6094 L161,114.6094 L429,114.6094 L429,98.6094 L419,88.6094 L161,88.6094 " fill="#FEFFDD" style="stroke:#181818;stroke-width:0.5;"/><path d="M419,88.6094 L419,98.6094 L429,98.6094 L419,88.6094 " fill="#FEFFDD" style="stroke:#181818;stroke-width:0.5;"/><text fill="#000000" font-family="sans-serif" font-size="13" lengthAdjust="spacing" textLength="247" x="167" y="107.1045">Se solicita actualizar un requisito funcional</text></g><!--link RecuperandoRequisito to EditandoRequisito--><g id="link_RecuperandoRequisito_EditandoRequisito"><path d="M156,187.6094 C156,212.3194 156,244.6094 156,269.3894 " fill="none" id="RecuperandoRequisito-to-EditandoRequisito" style="stroke:#008000;stroke-width:1.0;"/><polygon fill="#008000" points="156,275.3894,160,266.3894,156,270.3894,152,266.3894,156,275.3894" style="stroke:#008000;stroke-width:1.0;"/><path d="M161,210.6094 L161,252.6094 L354,252.6094 L354,220.6094 L344,210.6094 L161,210.6094 " fill="#FEFFDD" style="stroke:#181818;stroke-width:0.5;"/><path d="M344,210.6094 L344,220.6094 L354,220.6094 L344,210.6094 " fill="#FEFFDD" style="stroke:#181818;stroke-width:0.5;"/><text fill="#000000" font-family="sans-serif" font-size="13" font-weight="bold" lengthAdjust="spacing" textLength="51" x="167" y="229.1045">Sistema</text><text fill="#000000" font-family="sans-serif" font-size="13" lengthAdjust="spacing" textLength="117" x="222" y="229.1045">recupera el requisito</text><text fill="#000000" font-family="sans-serif" font-size="13" lengthAdjust="spacing" textLength="117" x="167" y="245.4561">y permite su edicion</text></g><!--link EditandoRequisito to GuardandoCambios--><g id="link_EditandoRequisito_GuardandoCambios"><path d="M156,325.6094 C156,350.3194 156,382.6094 156,407.3894 " fill="none" id="EditandoRequisito-to-GuardandoCambios" style="stroke:#008000;stroke-width:1.0;"/><polygon fill="#008000" points="156,413.3894,160,404.3894,156,408.3894,152,404.3894,156,413.3894" style="stroke:#008000;stroke-width:1.0;"/><path d="M161,348.6094 L161,390.6094 L343,390.6094 L343,358.6094 L333,348.6094 L161,348.6094 " fill="#FEFFDD" style="stroke:#181818;stroke-width:0.5;"/><path d="M333,348.6094 L333,358.6094 L343,358.6094 L333,348.6094 " fill="#FEFFDD" style="stroke:#181818;stroke-width:0.5;"/><text fill="#000000" font-family="sans-serif" font-size="13" font-weight="bold" lengthAdjust="spacing" textLength="51" x="167" y="367.1045">Sistema</text><text fill="#000000" font-family="sans-serif" font-size="13" lengthAdjust="spacing" textLength="106" x="222" y="367.1045">valida los cambios</text><text fill="#000000" font-family="sans-serif" font-size="13" lengthAdjust="spacing" textLength="70" x="167" y="383.4561">introducidos</text></g><!--link GuardandoCambios to *end*actualizarRequisitoFuncional--><g id="link_GuardandoCambios_*end*actualizarRequisitoFuncional"><path d="M156,463.7094 C156,490.3794 156,526.1094 156,545.3094 " fill="none" id="GuardandoCambios-to-*end*actualizarRequisitoFuncional" style="stroke:#008000;stroke-width:1.0;"/><polygon fill="#008000" points="156,551.3094,160,542.3094,156,546.3094,152,542.3094,156,551.3094" style="stroke:#008000;stroke-width:1.0;"/><path d="M161,486.6094 L161,528.6094 L371,528.6094 L371,496.6094 L361,486.6094 L161,486.6094 " fill="#FEFFDD" style="stroke:#181818;stroke-width:0.5;"/><path d="M361,486.6094 L361,496.6094 L371,496.6094 L361,486.6094 " fill="#FEFFDD" style="stroke:#181818;stroke-width:0.5;"/><text fill="#000000" font-family="sans-serif" font-size="13" font-weight="bold" lengthAdjust="spacing" textLength="51" x="167" y="505.1045">Sistema</text><text fill="#000000" font-family="sans-serif" font-size="13" lengthAdjust="spacing" textLength="134" x="222" y="505.1045">guarda la nueva version</text><text fill="#000000" font-family="sans-serif" font-size="13" lengthAdjust="spacing" textLength="125" x="167" y="521.4561">del requisito funcional</text></g><g id="REQUISITO_FUNCIONAL_ABIERTO"><rect fill="#F1F1F1" height="50" rx="12.5" ry="12.5" style="stroke:#181818;stroke-width:0.5;" width="247" x="7" y="680"/><line style="stroke:#181818;stroke-width:0.5;" x1="7" x2="254" y1="707.6094" y2="707.6094"/><text fill="#000000" font-family="sans-serif" font-size="14" lengthAdjust="spacing" textLength="227" x="17" y="699.5332">REQUISITO_FUNCIONAL_ABIERTO</text></g><g id="REQUISITOS_FUNCIONALES_ABIERTO"><rect fill="#F1F1F1" height="50" rx="12.5" ry="12.5" style="stroke:#181818;stroke-width:0.5;" width="274" x="289.5" y="680"/><line style="stroke:#181818;stroke-width:0.5;" x1="289.5" x2="563.5" y1="707.6094" y2="707.6094"/><text fill="#000000" font-family="sans-serif" font-size="14" lengthAdjust="spacing" textLength="254" x="299.5" y="699.5332">REQUISITOS_FUNCIONALES_ABIERTO</text></g><!--link actualizarRequisitoFuncional to REQUISITO_FUNCIONAL_ABIERTO--><g id="link_actualizarRequisitoFuncional_REQUISITO_FUNCIONAL_ABIERTO"><path d="M174,584.22 C159.68,623.65 149.2596,652.3609 141.3796,674.0409 " fill="none" id="actualizarRequisitoFuncional-to-REQUISITO_FUNCIONAL_ABIERTO" style="stroke:#008000;stroke-width:1.0;"/><polygon fill="#008000" points="139.33,679.68,146.1638,672.5878,141.038,674.9808,138.6451,669.855,139.33,679.68" style="stroke:#008000;stroke-width:1.0;"/><path d="M167.5,619 L167.5,645 L331.5,645 L331.5,629 L321.5,619 L167.5,619 " fill="#FEFFDD" style="stroke:#181818;stroke-width:0.5;"/><path d="M321.5,619 L321.5,629 L331.5,629 L321.5,619 " fill="#FEFFDD" style="stroke:#181818;stroke-width:0.5;"/><text fill="#000000" font-family="sans-serif" font-size="13" lengthAdjust="spacing" textLength="143" x="173.5" y="637.4951">completarActualizacion()</text></g><!--link actualizarRequisitoFuncional to REQUISITOS_FUNCIONALES_ABIERTO--><g id="link_actualizarRequisitoFuncional_REQUISITOS_FUNCIONALES_ABIERTO"><path d="M383,584.22 C397.32,623.65 407.7404,652.3609 415.6204,674.0409 " fill="none" id="actualizarRequisitoFuncional-to-REQUISITOS_FUNCIONALES_ABIERTO" style="stroke:#FF0000;stroke-width:1.0;"/><polygon fill="#FF0000" points="417.67,679.68,418.3549,669.855,415.962,674.9808,410.8362,672.5878,417.67,679.68" style="stroke:#FF0000;stroke-width:1.0;"/><path d="M409.5,619 L409.5,645 L566.5,645 L566.5,629 L556.5,619 L409.5,619 " fill="#FEFFDD" style="stroke:#181818;stroke-width:0.5;"/><path d="M556.5,619 L556.5,629 L566.5,629 L556.5,619 " fill="#FEFFDD" style="stroke:#181818;stroke-width:0.5;"/><text fill="#000000" font-family="sans-serif" font-size="13" lengthAdjust="spacing" textLength="136" x="415.5" y="637.4951">rechazarActualizacion()</text></g><!--SRC=[ZPBTQi9048NlynI3lT62z0L4i19Be2WrUYKYOtPg5pUxwVu8MlhktIIrcYR-PAyop3dVcTarMoupr9Y2u9BiFYF8bDZdFq5WB5e2JAn3mG-ef_JfkE5MZPnCk98e00sqhZMqEotu2WBmN-dMyiUBffIuZ3HAflv4zQwGSNkZvSMXPddF4DCrLwPaBHwNq5qyR3IHN7Rxbt5IUIiby-ctHI4cC4hmn8FF9WSdGH-5y7wShb2GP8LDIMuYLQ8qprJBqLltOsuifTXxMlSzlBG54gSWHUCUV3tbNcuS4EDviePSDMmbL6sBzsJQ-Tqm1A4C96SoBgrMp2MS_HQgGVwZAZdylTs5tXGc812aent2ZhGvpitELtJfhhw3uEgxhZoUy6qUnT5iiXhDnyDeCXwyhWRFKJYTJO9Aq4IbcI2BUd2qpjtQdU2qWLjGJQo2Z4_CC6wc-gVnWOShq1y0]--></g></svg>