<?xml version="1.0" encoding="us-ascii" standalone="no"?><svg xmlns="http://www.w3.org/2000/svg" xmlns:xlink="http://www.w3.org/1999/xlink" contentStyleType="text/css" height="688px" preserveAspectRatio="none" style="width:526px;height:688px;background:#FFFFFF;" version="1.1" viewBox="0 0 526 688" width="526px" zoomAndPan="magnify"><defs/><g><path d="M97,7 L397,7 A12.5,12.5 0 0 1 409.5,19.5 L409.5,34.6094 L84.5,34.6094 L84.5,19.5 A12.5,12.5 0 0 1 97,7 " fill="#F1F1F1" style="stroke:#F1F1F1;stroke-width:1.0;"/><rect fill="none" height="528.6094" rx="12.5" ry="12.5" style="stroke:#181818;stroke-width:0.5;" width="325" x="84.5" y="7"/><line style="stroke:#181818;stroke-width:0.5;" x1="84.5" x2="409.5" y1="34.6094" y2="34.6094"/><text fill="#000000" font-family="sans-serif" font-size="14" lengthAdjust="spacing" textLength="166" x="164" y="26.5332">consultarDocumentacion()</text><g id="consultarDocumentacion.SeleccionandoDocumento"><rect fill="#F1F1F1" height="50" rx="12.5" ry="12.5" style="stroke:#181818;stroke-width:0.5;" width="50" x="96.5" y="137.6094"/><line style="stroke:#181818;stroke-width:0.5;" x1="96.5" x2="146.5" y1="165.2188" y2="165.2188"/><text fill="#000000" font-family="sans-serif" font-size="14" lengthAdjust="spacing" textLength="4" x="119.5" y="157.1426">&#160;</text></g><g id="consultarDocumentacion.RecuperandoDetalle"><rect fill="#F1F1F1" height="50" rx="12.5" ry="12.5" style="stroke:#181818;stroke-width:0.5;" width="50" x="96.5" y="259.6094"/><line style="stroke:#181818;stroke-width:0.5;" x1="96.5" x2="146.5" y1="287.2188" y2="287.2188"/><text fill="#000000" font-family="sans-serif" font-size="14" lengthAdjust="spacing" textLength="4" x="119.5" y="279.1426">&#160;</text></g><g id="consultarDocumentacion.MostrandoContenido"><rect fill="#F1F1F1" height="50" rx="12.5" ry="12.5" style="stroke:#181818;stroke-width:0.5;" width="50" x="96.5" y="381.6094"/><line style="stroke:#181818;stroke-width:0.5;" x1="96.5" x2="146.5" y1="409.2188" y2="409.2188"/><text fill="#000000" font-family="sans-serif" font-size="14" lengthAdjust="spacing" textLength="4" x="119.5" y="401.1426">&#160;</text></g><ellipse cx="121.5" cy="55.6094" fill="#222222" rx="10" ry="10" style="stroke:#222222;stroke-width:1.0;"/><ellipse cx="121.5" cy="514.6094" fill="none" rx="11" ry="11" style="stroke:#222222;stroke-width:1.0;"/><ellipse cx="121.5" cy="514.6094" fill="#222222" rx="6" ry="6" style="stroke:#222222;stroke-width:1.0;"/><!--link *start*consultarDocumentacion to SeleccionandoDocumento--><g id="link_*start*consultarDocumentacion_SeleccionandoDocumento"><path d="M121.5,65.9294 C121.5,81.7894 121.5,108.5194 121.5,131.2494 " fill="none" id="*start*consultarDocumentacion-to-SeleccionandoDocumento" style="stroke:#008000;stroke-width:1.0;"/><polygon fill="#008000" points="121.5,137.2494,125.5,128.2494,121.5,132.2494,117.5,128.2494,121.5,137.2494" style="stroke:#008000;stroke-width:1.0;"/><path d="M126.5,88.6094 L126.5,114.6094 L397.5,114.6094 L397.5,98.6094 L387.5,88.6094 L126.5,88.6094 " fill="#FEFFDD" style="stroke:#181818;stroke-width:0.5;"/><path d="M387.5,88.6094 L387.5,98.6094 L397.5,98.6094 L387.5,88.6094 " fill="#FEFFDD" style="stroke:#181818;stroke-width:0.5;"/><text fill="#000000" font-family="sans-serif" font-size="13" lengthAdjust="spacing" textLength="250" x="132.5" y="107.1045">Se selecciona un documento para consulta</text></g><!--link SeleccionandoDocumento to RecuperandoDetalle--><g id="link_SeleccionandoDocumento_RecuperandoDetalle"><path d="M121.5,187.8894 C121.5,208.7094 121.5,232.5494 121.5,253.3594 " fill="none" id="SeleccionandoDocumento-to-RecuperandoDetalle" style="stroke:#008000;stroke-width:1.0;"/><polygon fill="#008000" points="121.5,259.3594,125.5,250.3594,121.5,254.3594,117.5,250.3594,121.5,259.3594" style="stroke:#008000;stroke-width:1.0;"/><path d="M126.5,210.6094 L126.5,236.6094 L388.5,236.6094 L388.5,220.6094 L378.5,210.6094 L126.5,210.6094 " fill="#FEFFDD" style="stroke:#181818;stroke-width:0.5;"/><path d="M378.5,210.6094 L378.5,220.6094 L388.5,220.6094 L378.5,210.6094 " fill="#FEFFDD" style="stroke:#181818;stroke-width:0.5;"/><text fill="#000000" font-family="sans-serif" font-size="13" font-weight="bold" lengthAdjust="spacing" textLength="51" x="132.5" y="229.1045">Sistema</text><text fill="#000000" font-family="sans-serif" font-size="13" lengthAdjust="spacing" textLength="186" x="187.5" y="229.1045">recupera contenido y metadatos</text></g><!--link RecuperandoDetalle to MostrandoContenido--><g id="link_RecuperandoDetalle_MostrandoContenido"><path d="M121.5,309.8894 C121.5,330.7094 121.5,354.5494 121.5,375.3594 " fill="none" id="RecuperandoDetalle-to-MostrandoContenido" style="stroke:#008000;stroke-width:1.0;"/><polygon fill="#008000" points="121.5,381.3594,125.5,372.3594,121.5,376.3594,117.5,372.3594,121.5,381.3594" style="stroke:#008000;stroke-width:1.0;"/><path d="M126.5,332.6094 L126.5,358.6094 L345.5,358.6094 L345.5,342.6094 L335.5,332.6094 L126.5,332.6094 " fill="#FEFFDD" style="stroke:#181818;stroke-width:0.5;"/><path d="M335.5,332.6094 L335.5,342.6094 L345.5,342.6094 L335.5,332.6094 " fill="#FEFFDD" style="stroke:#181818;stroke-width:0.5;"/><text fill="#000000" font-family="sans-serif" font-size="13" font-weight="bold" lengthAdjust="spacing" textLength="51" x="132.5" y="351.1045">Sistema</text><text fill="#000000" font-family="sans-serif" font-size="13" lengthAdjust="spacing" textLength="143" x="187.5" y="351.1045">prepara la vista detallada</text></g><!--link MostrandoContenido to *end*consultarDocumentacion--><g id="link_MostrandoContenido_*end*consultarDocumentacion"><path d="M121.5,431.6594 C121.5,454.2594 121.5,480.9894 121.5,497.4094 " fill="none" id="MostrandoContenido-to-*end*consultarDocumentacion" style="stroke:#008000;stroke-width:1.0;"/><polygon fill="#008000" points="121.5,503.4094,125.5,494.4094,121.5,498.4094,117.5,494.4094,121.5,503.4094" style="stroke:#008000;stroke-width:1.0;"/><path d="M126.5,454.6094 L126.5,480.6094 L400.5,480.6094 L400.5,464.6094 L390.5,454.6094 L126.5,454.6094 " fill="#FEFFDD" style="stroke:#181818;stroke-width:0.5;"/><path d="M390.5,454.6094 L390.5,464.6094 L400.5,464.6094 L390.5,454.6094 " fill="#FEFFDD" style="stroke:#181818;stroke-width:0.5;"/><text fill="#000000" font-family="sans-serif" font-size="13" lengthAdjust="spacing" textLength="253" x="132.5" y="473.1045">Se muestra la documentacion seleccionada</text></g><g id="DOCUMENTACION_ABIERTA"><rect fill="#F1F1F1" height="50" rx="12.5" ry="12.5" style="stroke:#181818;stroke-width:0.5;" width="206" x="7" y="632"/><line style="stroke:#181818;stroke-width:0.5;" x1="7" x2="213" y1="659.6094" y2="659.6094"/><text fill="#000000" font-family="sans-serif" font-size="14" lengthAdjust="spacing" textLength="186" x="17" y="651.5332">DOCUMENTACION_ABIERTA</text></g><g id="DOCUMENTACION_NO_ENCONTRADA"><rect fill="#F1F1F1" height="50" rx="12.5" ry="12.5" style="stroke:#181818;stroke-width:0.5;" width="271" x="248.5" y="632"/><line style="stroke:#181818;stroke-width:0.5;" x1="248.5" x2="519.5" y1="659.6094" y2="659.6094"/><text fill="#000000" font-family="sans-serif" font-size="14" lengthAdjust="spacing" textLength="251" x="258.5" y="651.5332">DOCUMENTACION_NO_ENCONTRADA</text></g><!--link consultarDocumentacion to DOCUMENTACION_ABIERTA--><g id="link_consultarDocumentacion_DOCUMENTACION_ABIERTA"><path d="M152.78,536.24 C138.74,575.56 128.3869,604.5091 120.6169,626.2791 " fill="none" id="consultarDocumentacion-to-DOCUMENTACION_ABIERTA" style="stroke:#008000;stroke-width:1.0;"/><polygon fill="#008000" points="118.6,631.93,125.3925,624.7983,120.2807,627.2209,117.8581,622.1091,118.6,631.93" style="stroke:#008000;stroke-width:1.0;"/><path d="M145,571 L145,597 L282,597 L282,581 L272,571 L145,571 " fill="#FEFFDD" style="stroke:#181818;stroke-width:0.5;"/><path d="M272,571 L272,581 L282,581 L272,571 " fill="#FEFFDD" style="stroke:#181818;stroke-width:0.5;"/><text fill="#000000" font-family="sans-serif" font-size="13" lengthAdjust="spacing" textLength="116" x="151" y="589.4951">completarConsulta()</text></g><!--link consultarDocumentacion to DOCUMENTACION_NO_ENCONTRADA--><g id="link_consultarDocumentacion_DOCUMENTACION_NO_ENCONTRADA"><path d="M341.22,536.24 C355.26,575.56 365.6131,604.5091 373.3831,626.2791 " fill="none" id="consultarDocumentacion-to-DOCUMENTACION_NO_ENCONTRADA" style="stroke:#FF0000;stroke-width:1.0;"/><polygon fill="#FF0000" points="375.4,631.93,376.1419,622.1091,373.7193,627.2209,368.6075,624.7983,375.4,631.93" style="stroke:#FF0000;stroke-width:1.0;"/><path d="M369,571 L369,597 L499,597 L499,581 L489,571 L369,571 " fill="#FEFFDD" style="stroke:#181818;stroke-width:0.5;"/><path d="M489,571 L489,581 L499,581 L489,571 " fill="#FEFFDD" style="stroke:#181818;stroke-width:0.5;"/><text fill="#000000" font-family="sans-serif" font-size="13" lengthAdjust="spacing" textLength="109" x="375" y="589.4951">rechazarConsulta()</text></g><!--SRC=[ZPB1Re9048Rl-nGJUz4cfYzWJ2Xoy20aQ4_6c96TjCHbb-mkJMpJT- -oeXQ1HZYn-y___JE3EUQoH8q5Y5oIFPK4fHAd-eCnOz4IP4gQIbZK2vLL1KcBMQuae85H_zLuCe9l1kuv6upSwzHh4fJLzoYvkXIehYwbh2f9UnLP58AwcfKorYj29It9d2lcHTld7KotJ- -QIEwcy_-OKZaxruThzUWFrWJcAeTA0h_eePxGTGvUJ99x1zQKzc5QIGQwwgIO7URht5WgSFPoc8DkochwkL4uGU4CE5fbUg9qEQqOFODx94QfoSz087owOmJklLsAdWXTHYk2sz7W0egAwjgQmrj_ssqpzyWVnWR-qB_GHHA-hQ9u4uJB9Du7hyietGIi5I5JHIbSMpfixCOJTcjicA69Tmbnie_YC8atQR2uuxYLVk1NF-ON]--></g></svg>