<?xml version="1.0" encoding="us-ascii" standalone="no"?><svg xmlns="http://www.w3.org/2000/svg" xmlns:xlink="http://www.w3.org/1999/xlink" contentStyleType="text/css" height="566px" preserveAspectRatio="none" style="width:463px;height:566px;background:#FFFFFF;" version="1.1" viewBox="0 0 463 566" width="463px" zoomAndPan="magnify"><defs/><g><path d="M38.5,7 L412.5,7 A12.5,12.5 0 0 1 425,19.5 L425,34.6094 L26,34.6094 L26,19.5 A12.5,12.5 0 0 1 38.5,7 " fill="#F1F1F1" style="stroke:#F1F1F1;stroke-width:1.0;"/><rect fill="none" height="406.6094" rx="12.5" ry="12.5" style="stroke:#181818;stroke-width:0.5;" width="399" x="26" y="7"/><line style="stroke:#181818;stroke-width:0.5;" x1="26" x2="425" y1="34.6094" y2="34.6094"/><text fill="#000000" font-family="sans-serif" font-size="14" lengthAdjust="spacing" textLength="138" x="156.5" y="26.5332">listarDocumentacion()</text><g id="listarDocumentacion.RecuperandoDocumentos"><rect fill="#F1F1F1" height="50" rx="12.5" ry="12.5" style="stroke:#181818;stroke-width:0.5;" width="50" x="38" y="137.6094"/><line style="stroke:#181818;stroke-width:0.5;" x1="38" x2="88" y1="165.2188" y2="165.2188"/><text fill="#000000" font-family="sans-serif" font-size="14" lengthAdjust="spacing" textLength="4" x="61" y="157.1426">&#160;</text></g><g id="listarDocumentacion.MostrandoListado"><rect fill="#F1F1F1" height="50" rx="12.5" ry="12.5" style="stroke:#181818;stroke-width:0.5;" width="50" x="38" y="259.6094"/><line style="stroke:#181818;stroke-width:0.5;" x1="38" x2="88" y1="287.2188" y2="287.2188"/><text fill="#000000" font-family="sans-serif" font-size="14" lengthAdjust="spacing" textLength="4" x="61" y="279.1426">&#160;</text></g><ellipse cx="63" cy="55.6094" fill="#222222" rx="10" ry="10" style="stroke:#222222;stroke-width:1.0;"/><ellipse cx="63" cy="392.6094" fill="none" rx="11" ry="11" style="stroke:#222222;stroke-width:1.0;"/><ellipse cx="63" cy="392.6094" fill="#222222" rx="6" ry="6" style="stroke:#222222;stroke-width:1.0;"/><!--link *start*listarDocumentacion to RecuperandoDocumentos--><g id="link_*start*listarDocumentacion_RecuperandoDocumentos"><path d="M63,65.9294 C63,81.7894 63,108.5194 63,131.2494 " fill="none" id="*start*listarDocumentacion-to-RecuperandoDocumentos" style="stroke:#008000;stroke-width:1.0;"/><polygon fill="#008000" points="63,137.2494,67,128.2494,63,132.2494,59,128.2494,63,137.2494" style="stroke:#008000;stroke-width:1.0;"/><path d="M68,88.6094 L68,114.6094 L377,114.6094 L377,98.6094 L367,88.6094 L68,88.6094 " fill="#FEFFDD" style="stroke:#181818;stroke-width:0.5;"/><path d="M367,88.6094 L367,98.6094 L377,98.6094 L367,88.6094 " fill="#FEFFDD" style="stroke:#181818;stroke-width:0.5;"/><text fill="#000000" font-family="sans-serif" font-size="13" lengthAdjust="spacing" textLength="288" x="74" y="107.1045">Se solicita el listado de documentacion registrada</text></g><!--link RecuperandoDocumentos to MostrandoListado--><g id="link_RecuperandoDocumentos_MostrandoListado"><path d="M63,187.8894 C63,208.7094 63,232.5494 63,253.3594 " fill="none" id="RecuperandoDocumentos-to-MostrandoListado" style="stroke:#008000;stroke-width:1.0;"/><polygon fill="#008000" points="63,259.3594,67,250.3594,63,254.3594,59,250.3594,63,259.3594" style="stroke:#008000;stroke-width:1.0;"/><path d="M68,210.6094 L68,236.6094 L416,236.6094 L416,220.6094 L406,210.6094 L68,210.6094 " fill="#FEFFDD" style="stroke:#181818;stroke-width:0.5;"/><path d="M406,210.6094 L406,220.6094 L416,220.6094 L406,210.6094 " fill="#FEFFDD" style="stroke:#181818;stroke-width:0.5;"/><text fill="#000000" font-family="sans-serif" font-size="13" font-weight="bold" lengthAdjust="spacing" textLength="51" x="74" y="229.1045">Sistema</text><text fill="#000000" font-family="sans-serif" font-size="13" lengthAdjust="spacing" textLength="272" x="129" y="229.1045">recupera y ordena la documentacion disponible</text></g><!--link MostrandoListado to *end*listarDocumentacion--><g id="link_MostrandoListado_*end*listarDocumentacion"><path d="M63,309.6594 C63,332.2594 63,358.9894 63,375.4094 " fill="none" id="MostrandoListado-to-*end*listarDocumentacion" style="stroke:#008000;stroke-width:1.0;"/><polygon fill="#008000" points="63,381.4094,67,372.4094,63,376.4094,59,372.4094,63,381.4094" style="stroke:#008000;stroke-width:1.0;"/><path d="M68,332.6094 L68,358.6094 L308,358.6094 L308,342.6094 L298,332.6094 L68,332.6094 " fill="#FEFFDD" style="stroke:#181818;stroke-width:0.5;"/><path d="M298,332.6094 L298,342.6094 L308,342.6094 L298,332.6094 " fill="#FEFFDD" style="stroke:#181818;stroke-width:0.5;"/><text fill="#000000" font-family="sans-serif" font-size="13" font-weight="bold" lengthAdjust="spacing" textLength="51" x="74" y="351.1045">Sistema</text><text fill="#000000" font-family="sans-serif" font-size="13" lengthAdjust="spacing" textLength="164" x="129" y="351.1045">muestra el listado resultante</text></g><g id="DOCUMENTACION_LISTADA"><rect fill="#F1F1F1" height="50" rx="12.5" ry="12.5" style="stroke:#181818;stroke-width:0.5;" width="205" x="7" y="510"/><line style="stroke:#181818;stroke-width:0.5;" x1="7" x2="212" y1="537.6094" y2="537.6094"/><text fill="#000000" font-family="sans-serif" font-size="14" lengthAdjust="spacing" textLength="185" x="17" y="529.5332">DOCUMENTACION_LISTADA</text></g><g id="DOCUMENTACION_VACIA"><rect fill="#F1F1F1" height="50" rx="12.5" ry="12.5" style="stroke:#181818;stroke-width:0.5;" width="188" x="247.5" y="510"/><line style="stroke:#181818;stroke-width:0.5;" x1="247.5" x2="435.5" y1="537.6094" y2="537.6094"/><text fill="#000000" font-family="sans-serif" font-size="14" lengthAdjust="spacing" textLength="168" x="257.5" y="529.5332">DOCUMENTACION_VACIA</text></g><!--link listarDocumentacion to DOCUMENTACION_LISTADA--><g id="link_listarDocumentacion_DOCUMENTACION_LISTADA"><path d="M152.53,414.37 C138.73,452.73 128.1818,482.0645 120.2318,504.1545 " fill="none" id="listarDocumentacion-to-DOCUMENTACION_LISTADA" style="stroke:#008000;stroke-width:1.0;"/><polygon fill="#008000" points="118.2,509.8,125.0113,502.6862,119.8931,505.0954,117.484,499.9772,118.2,509.8" style="stroke:#008000;stroke-width:1.0;"/><path d="M146.5,449 L146.5,475 L274.5,475 L274.5,459 L264.5,449 L146.5,449 " fill="#FEFFDD" style="stroke:#181818;stroke-width:0.5;"/><path d="M264.5,449 L264.5,459 L274.5,459 L264.5,449 " fill="#FEFFDD" style="stroke:#181818;stroke-width:0.5;"/><text fill="#000000" font-family="sans-serif" font-size="13" lengthAdjust="spacing" textLength="107" x="152.5" y="467.4951">completarListado()</text></g><!--link listarDocumentacion to DOCUMENTACION_VACIA--><g id="link_listarDocumentacion_DOCUMENTACION_VACIA"><path d="M298.47,414.37 C312.27,452.73 322.8182,482.0645 330.7682,504.1545 " fill="none" id="listarDocumentacion-to-DOCUMENTACION_VACIA" style="stroke:#FF0000;stroke-width:1.0;"/><polygon fill="#FF0000" points="332.8,509.8,333.516,499.9772,331.1069,505.0954,325.9887,502.6862,332.8,509.8" style="stroke:#FF0000;stroke-width:1.0;"/><path d="M326.5,449 L326.5,475 L456.5,475 L456.5,459 L446.5,449 L326.5,449 " fill="#FEFFDD" style="stroke:#181818;stroke-width:0.5;"/><path d="M446.5,449 L446.5,459 L456.5,459 L446.5,449 " fill="#FEFFDD" style="stroke:#181818;stroke-width:0.5;"/><text fill="#000000" font-family="sans-serif" font-size="13" lengthAdjust="spacing" textLength="109" x="332.5" y="467.4951">rechazarConsulta()</text></g><!--SRC=[ZPBFQiCm38VlVWhHNTf1sGkKGcbtAFGFBDqkfGmr5fsfOmNREMHZxpubsLYJPcN9mSIMlzydaN0sBaUF6LZZA9OvGSwsh3wK2X4ZoO6iVi5faP6Bc1fsW046FVl3qG0-5CZJN1t8AwLFb1OvUNIQVyevN9UjESIwQ5MHDQkwP7z_WF7-xkI9t64ylG5pB2oH4_bplP4G1BOcDH61RDE8Pj04kjMDfvEfeZNMryZfcjNaz-QrZAwyUsKcnsaYvvJXvE4ubSm62oMmr-GGB7Qqj0avEtEqrAFL3MqPoSp-9P4LL54kX-Cf53QYYvtGJwNwVeJBrCLs_hn-tEncy-LsyxfQ9hlPOgPQ3YbdkIMXV5iFH-gthJ_udlGr_KMM3bic-eRlwEViwXOksLy0]--></g></svg>