<?xml version="1.0" encoding="us-ascii" standalone="no"?><svg xmlns="http://www.w3.org/2000/svg" xmlns:xlink="http://www.w3.org/1999/xlink" contentStyleType="text/css" height="736px" preserveAspectRatio="none" style="width:570px;height:736px;background:#FFFFFF;" version="1.1" viewBox="0 0 570 736" width="570px" zoomAndPan="magnify"><defs/><g><path d="M133,7 L424,7 A12.5,12.5 0 0 1 436.5,19.5 L436.5,34.6094 L120.5,34.6094 L120.5,19.5 A12.5,12.5 0 0 1 133,7 " fill="#F1F1F1" style="stroke:#F1F1F1;stroke-width:1.0;"/><rect fill="none" height="576.6094" rx="12.5" ry="12.5" style="stroke:#181818;stroke-width:0.5;" width="316" x="120.5" y="7"/><line style="stroke:#181818;stroke-width:0.5;" x1="120.5" x2="436.5" y1="34.6094" y2="34.6094"/><text fill="#000000" font-family="sans-serif" font-size="14" lengthAdjust="spacing" textLength="189" x="184" y="26.5332">consultarRequisitoFuncional()</text><g id="consultarRequisitoFuncional.SeleccionandoRequisito"><rect fill="#F1F1F1" height="50" rx="12.5" ry="12.5" style="stroke:#181818;stroke-width:0.5;" width="50" x="132.5" y="137.6094"/><line style="stroke:#181818;stroke-width:0.5;" x1="132.5" x2="182.5" y1="165.2188" y2="165.2188"/><text fill="#000000" font-family="sans-serif" font-size="14" lengthAdjust="spacing" textLength="4" x="155.5" y="157.1426">&#160;</text></g><g id="consultarRequisitoFuncional.RecuperandoDetalle"><rect fill="#F1F1F1" height="50" rx="12.5" ry="12.5" style="stroke:#181818;stroke-width:0.5;" width="50" x="132.5" y="275.6094"/><line style="stroke:#181818;stroke-width:0.5;" x1="132.5" x2="182.5" y1="303.2188" y2="303.2188"/><text fill="#000000" font-family="sans-serif" font-size="14" lengthAdjust="spacing" textLength="4" x="155.5" y="295.1426">&#160;</text></g><g id="consultarRequisitoFuncional.MostrandoDetalle"><rect fill="#F1F1F1" height="50" rx="12.5" ry="12.5" style="stroke:#181818;stroke-width:0.5;" width="50" x="132.5" y="413.6094"/><line style="stroke:#181818;stroke-width:0.5;" x1="132.5" x2="182.5" y1="441.2188" y2="441.2188"/><text fill="#000000" font-family="sans-serif" font-size="14" lengthAdjust="spacing" textLength="4" x="155.5" y="433.1426">&#160;</text></g><ellipse cx="157.5" cy="55.6094" fill="#222222" rx="10" ry="10" style="stroke:#222222;stroke-width:1.0;"/><ellipse cx="157.5" cy="562.6094" fill="none" rx="11" ry="11" style="stroke:#222222;stroke-width:1.0;"/><ellipse cx="157.5" cy="562.6094" fill="#222222" rx="6" ry="6" style="stroke:#222222;stroke-width:1.0;"/><!--link *start*consultarRequisitoFuncional to SeleccionandoRequisito--><g id="link_*start*consultarRequisitoFuncional_SeleccionandoRequisito"><path d="M157.5,65.9294 C157.5,81.7894 157.5,108.5194 157.5,131.2494 " fill="none" id="*start*consultarRequisitoFuncional-to-SeleccionandoRequisito" style="stroke:#008000;stroke-width:1.0;"/><polygon fill="#008000" points="157.5,137.2494,161.5,128.2494,157.5,132.2494,153.5,128.2494,157.5,137.2494" style="stroke:#008000;stroke-width:1.0;"/><path d="M162.5,88.6094 L162.5,114.6094 L427.5,114.6094 L427.5,98.6094 L417.5,88.6094 L162.5,88.6094 " fill="#FEFFDD" style="stroke:#181818;stroke-width:0.5;"/><path d="M417.5,88.6094 L417.5,98.6094 L427.5,98.6094 L417.5,88.6094 " fill="#FEFFDD" style="stroke:#181818;stroke-width:0.5;"/><text fill="#000000" font-family="sans-serif" font-size="13" lengthAdjust="spacing" textLength="244" x="168.5" y="107.1045">Se solicita consultar un requisito funcional</text></g><!--link SeleccionandoRequisito to RecuperandoDetalle--><g id="link_SeleccionandoRequisito_RecuperandoDetalle"><path d="M157.5,187.6094 C157.5,212.3194 157.5,244.6094 157.5,269.3894 " fill="none" id="SeleccionandoRequisito-to-RecuperandoDetalle" style="stroke:#008000;stroke-width:1.0;"/><polygon fill="#008000" points="157.5,275.3894,161.5,266.3894,157.5,270.3894,153.5,266.3894,157.5,275.3894" style="stroke:#008000;stroke-width:1.0;"/><path d="M162.5,210.6094 L162.5,252.6094 L414.5,252.6094 L414.5,220.6094 L404.5,210.6094 L162.5,210.6094 " fill="#FEFFDD" style="stroke:#181818;stroke-width:0.5;"/><path d="M404.5,210.6094 L404.5,220.6094 L414.5,220.6094 L404.5,210.6094 " fill="#FEFFDD" style="stroke:#181818;stroke-width:0.5;"/><text fill="#000000" font-family="sans-serif" font-size="13" font-weight="bold" lengthAdjust="spacing" textLength="51" x="168.5" y="229.1045">Sistema</text><text fill="#000000" font-family="sans-serif" font-size="13" lengthAdjust="spacing" textLength="176" x="223.5" y="229.1045">toma el requisito seleccionado</text><text fill="#000000" font-family="sans-serif" font-size="13" lengthAdjust="spacing" textLength="121" x="168.5" y="245.4561">y recupera su detalle</text></g><!--link RecuperandoDetalle to MostrandoDetalle--><g id="link_RecuperandoDetalle_MostrandoDetalle"><path d="M157.5,325.6094 C157.5,350.3194 157.5,382.6094 157.5,407.3894 " fill="none" id="RecuperandoDetalle-to-MostrandoDetalle" style="stroke:#008000;stroke-width:1.0;"/><polygon fill="#008000" points="157.5,413.3894,161.5,404.3894,157.5,408.3894,153.5,404.3894,157.5,413.3894" style="stroke:#008000;stroke-width:1.0;"/><path d="M162.5,348.6094 L162.5,390.6094 L365.5,390.6094 L365.5,358.6094 L355.5,348.6094 L162.5,348.6094 " fill="#FEFFDD" style="stroke:#181818;stroke-width:0.5;"/><path d="M355.5,348.6094 L355.5,358.6094 L365.5,358.6094 L355.5,348.6094 " fill="#FEFFDD" style="stroke:#181818;stroke-width:0.5;"/><text fill="#000000" font-family="sans-serif" font-size="13" font-weight="bold" lengthAdjust="spacing" textLength="51" x="168.5" y="367.1045">Sistema</text><text fill="#000000" font-family="sans-serif" font-size="13" lengthAdjust="spacing" textLength="127" x="223.5" y="367.1045">prepara la informacion</text><text fill="#000000" font-family="sans-serif" font-size="13" lengthAdjust="spacing" textLength="120" x="168.5" y="383.4561">para su visualizacion</text></g><!--link MostrandoDetalle to *end*consultarRequisitoFuncional--><g id="link_MostrandoDetalle_*end*consultarRequisitoFuncional"><path d="M157.5,463.7094 C157.5,490.3794 157.5,526.1094 157.5,545.3094 " fill="none" id="MostrandoDetalle-to-*end*consultarRequisitoFuncional" style="stroke:#008000;stroke-width:1.0;"/><polygon fill="#008000" points="157.5,551.3094,161.5,542.3094,157.5,546.3094,153.5,542.3094,157.5,551.3094" style="stroke:#008000;stroke-width:1.0;"/><path d="M162.5,486.6094 L162.5,528.6094 L341.5,528.6094 L341.5,496.6094 L331.5,486.6094 L162.5,486.6094 " fill="#FEFFDD" style="stroke:#181818;stroke-width:0.5;"/><path d="M331.5,486.6094 L331.5,496.6094 L341.5,496.6094 L331.5,486.6094 " fill="#FEFFDD" style="stroke:#181818;stroke-width:0.5;"/><text fill="#000000" font-family="sans-serif" font-size="13" font-weight="bold" lengthAdjust="spacing" textLength="51" x="168.5" y="505.1045">Sistema</text><text fill="#000000" font-family="sans-serif" font-size="13" lengthAdjust="spacing" textLength="103" x="223.5" y="505.1045">muestra el detalle</text><text fill="#000000" font-family="sans-serif" font-size="13" lengthAdjust="spacing" textLength="125" x="168.5" y="521.4561">del requisito funcional</text></g><g id="REQUISITO_FUNCIONAL_ABIERTO"><rect fill="#F1F1F1" height="50" rx="12.5" ry="12.5" style="stroke:#181818;stroke-width:0.5;" width="247" x="7" y="680"/><line style="stroke:#181818;stroke-width:0.5;" x1="7" x2="254" y1="707.6094" y2="707.6094"/><text fill="#000000" font-family="sans-serif" font-size="14" lengthAdjust="spacing" textLength="227" x="17" y="699.5332">REQUISITO_FUNCIONAL_ABIERTO</text></g><g id="REQUISITOS_FUNCIONALES_ABIERTO"><rect fill="#F1F1F1" height="50" rx="12.5" ry="12.5" style="stroke:#181818;stroke-width:0.5;" width="274" x="289.5" y="680"/><line style="stroke:#181818;stroke-width:0.5;" x1="289.5" x2="563.5" y1="707.6094" y2="707.6094"/><text fill="#000000" font-family="sans-serif" font-size="14" lengthAdjust="spacing" textLength="254" x="299.5" y="699.5332">REQUISITOS_FUNCIONALES_ABIERTO</text></g><!--link consultarRequisitoFuncional to REQUISITO_FUNCIONAL_ABIERTO--><g id="link_consultarRequisitoFuncional_REQUISITO_FUNCIONAL_ABIERTO"><path d="M174,584.22 C159.68,623.65 149.2596,652.3609 141.3796,674.0409 " fill="none" id="consultarRequisitoFuncional-to-REQUISITO_FUNCIONAL_ABIERTO" style="stroke:#008000;stroke-width:1.0;"/><polygon fill="#008000" points="139.33,679.68,146.1638,672.5878,141.038,674.9808,138.6451,669.855,139.33,679.68" style="stroke:#008000;stroke-width:1.0;"/><path d="M167.5,619 L167.5,645 L304.5,645 L304.5,629 L294.5,619 L167.5,619 " fill="#FEFFDD" style="stroke:#181818;stroke-width:0.5;"/><path d="M294.5,619 L294.5,629 L304.5,629 L294.5,619 " fill="#FEFFDD" style="stroke:#181818;stroke-width:0.5;"/><text fill="#000000" font-family="sans-serif" font-size="13" lengthAdjust="spacing" textLength="116" x="173.5" y="637.4951">completarConsulta()</text></g><!--link consultarRequisitoFuncional to REQUISITOS_FUNCIONALES_ABIERTO--><g id="link_consultarRequisitoFuncional_REQUISITOS_FUNCIONALES_ABIERTO"><path d="M383,584.22 C397.32,623.65 407.7404,652.3609 415.6204,674.0409 " fill="none" id="consultarRequisitoFuncional-to-REQUISITOS_FUNCIONALES_ABIERTO" style="stroke:#FF0000;stroke-width:1.0;"/><polygon fill="#FF0000" points="417.67,679.68,418.3549,669.855,415.962,674.9808,410.8362,672.5878,417.67,679.68" style="stroke:#FF0000;stroke-width:1.0;"/><path d="M409.5,619 L409.5,645 L539.5,645 L539.5,629 L529.5,619 L409.5,619 " fill="#FEFFDD" style="stroke:#181818;stroke-width:0.5;"/><path d="M529.5,619 L529.5,629 L539.5,629 L529.5,619 " fill="#FEFFDD" style="stroke:#181818;stroke-width:0.5;"/><text fill="#000000" font-family="sans-serif" font-size="13" lengthAdjust="spacing" textLength="109" x="415.5" y="637.4951">rechazarConsulta()</text></g><!--SRC=[ZPBTQW8n48NlynI3lT62z0L4i5PXeLNgwfM8nDsn3MQJRNuAMlhkJUBFcgxQRgusENFEDvFe3HCbLRG0pWIQRObGIhxrFuHeGmr29eMst50rmG_BD3DoQ4N6fA0Sg8R6ZVDcgm5VX83xzbuDjrnDYXop816vF9NLTHFCR8dAgvxGKCwnhdcHsaIA89dVBw0zltjJY6BHxjvA5DAPIU47i0aRAOAMd6NCqAfvi0BKiGxMnmv30Oeyk913-QMeYEPANpMIpggRCcsme9s7LHUCB2WWF-FGfwnytypM7UwzGLl8pynZo3f115WRwd_mIeN-AG6dmCHQge9wig0C-mxeasbBETjL9p7Mxzm8ojtflpWAYzx5J-fy07aqkIit-4t8hVSUNUBWTPQaoNIy7Cv6_MGywZqlUu_9O38TamWnaqN97OZg7voRBLAr_KUSmZmAIwkqGNevpxs0Txgx7FS3]--></g></svg>