<?xml version="1.0" encoding="us-ascii" standalone="no"?><svg xmlns="http://www.w3.org/2000/svg" xmlns:xlink="http://www.w3.org/1999/xlink" contentStyleType="text/css" height="688px" preserveAspectRatio="none" style="width:504px;height:688px;background:#FFFFFF;" version="1.1" viewBox="0 0 504 688" width="504px" zoomAndPan="magnify"><defs/><g><path d="M93,7 L388,7 A12.5,12.5 0 0 1 400.5,19.5 L400.5,34.6094 L80.5,34.6094 L80.5,19.5 A12.5,12.5 0 0 1 93,7 " fill="#F1F1F1" style="stroke:#F1F1F1;stroke-width:1.0;"/><rect fill="none" height="528.6094" rx="12.5" ry="12.5" style="stroke:#181818;stroke-width:0.5;" width="320" x="80.5" y="7"/><line style="stroke:#181818;stroke-width:0.5;" x1="80.5" x2="400.5" y1="34.6094" y2="34.6094"/><text fill="#000000" font-family="sans-serif" font-size="14" lengthAdjust="spacing" textLength="157" x="162" y="26.5332">eliminarDocumentacion()</text><g id="eliminarDocumentacion.SeleccionandoDocumento"><rect fill="#F1F1F1" height="50" rx="12.5" ry="12.5" style="stroke:#181818;stroke-width:0.5;" width="50" x="92.5" y="137.6094"/><line style="stroke:#181818;stroke-width:0.5;" x1="92.5" x2="142.5" y1="165.2188" y2="165.2188"/><text fill="#000000" font-family="sans-serif" font-size="14" lengthAdjust="spacing" textLength="4" x="115.5" y="157.1426">&#160;</text></g><g id="eliminarDocumentacion.ConfirmandoEliminacion"><rect fill="#F1F1F1" height="50" rx="12.5" ry="12.5" style="stroke:#181818;stroke-width:0.5;" width="50" x="92.5" y="259.6094"/><line style="stroke:#181818;stroke-width:0.5;" x1="92.5" x2="142.5" y1="287.2188" y2="287.2188"/><text fill="#000000" font-family="sans-serif" font-size="14" lengthAdjust="spacing" textLength="4" x="115.5" y="279.1426">&#160;</text></g><g id="eliminarDocumentacion.EliminandoRegistro"><rect fill="#F1F1F1" height="50" rx="12.5" ry="12.5" style="stroke:#181818;stroke-width:0.5;" width="50" x="92.5" y="381.6094"/><line style="stroke:#181818;stroke-width:0.5;" x1="92.5" x2="142.5" y1="409.2188" y2="409.2188"/><text fill="#000000" font-family="sans-serif" font-size="14" lengthAdjust="spacing" textLength="4" x="115.5" y="401.1426">&#160;</text></g><ellipse cx="117.5" cy="55.6094" fill="#222222" rx="10" ry="10" style="stroke:#222222;stroke-width:1.0;"/><ellipse cx="117.5" cy="514.6094" fill="none" rx="11" ry="11" style="stroke:#222222;stroke-width:1.0;"/><ellipse cx="117.5" cy="514.6094" fill="#222222" rx="6" ry="6" style="stroke:#222222;stroke-width:1.0;"/><!--link *start*eliminarDocumentacion to SeleccionandoDocumento--><g id="link_*start*eliminarDocumentacion_SeleccionandoDocumento"><path d="M117.5,65.9294 C117.5,81.7894 117.5,108.5194 117.5,131.2494 " fill="none" id="*start*eliminarDocumentacion-to-SeleccionandoDocumento" style="stroke:#008000;stroke-width:1.0;"/><polygon fill="#008000" points="117.5,137.2494,121.5,128.2494,117.5,132.2494,113.5,128.2494,117.5,137.2494" style="stroke:#008000;stroke-width:1.0;"/><path d="M122.5,88.6094 L122.5,114.6094 L391.5,114.6094 L391.5,98.6094 L381.5,88.6094 L122.5,88.6094 " fill="#FEFFDD" style="stroke:#181818;stroke-width:0.5;"/><path d="M381.5,88.6094 L381.5,98.6094 L391.5,98.6094 L381.5,88.6094 " fill="#FEFFDD" style="stroke:#181818;stroke-width:0.5;"/><text fill="#000000" font-family="sans-serif" font-size="13" lengthAdjust="spacing" textLength="248" x="128.5" y="107.1045">Se selecciona la documentacion a eliminar</text></g><!--link SeleccionandoDocumento to ConfirmandoEliminacion--><g id="link_SeleccionandoDocumento_ConfirmandoEliminacion"><path d="M117.5,187.8894 C117.5,208.7094 117.5,232.5494 117.5,253.3594 " fill="none" id="SeleccionandoDocumento-to-ConfirmandoEliminacion" style="stroke:#008000;stroke-width:1.0;"/><polygon fill="#008000" points="117.5,259.3594,121.5,250.3594,117.5,254.3594,113.5,250.3594,117.5,259.3594" style="stroke:#008000;stroke-width:1.0;"/><path d="M122.5,210.6094 L122.5,236.6094 L374.5,236.6094 L374.5,220.6094 L364.5,210.6094 L122.5,210.6094 " fill="#FEFFDD" style="stroke:#181818;stroke-width:0.5;"/><path d="M364.5,210.6094 L364.5,220.6094 L374.5,220.6094 L364.5,210.6094 " fill="#FEFFDD" style="stroke:#181818;stroke-width:0.5;"/><text fill="#000000" font-family="sans-serif" font-size="13" lengthAdjust="spacing" textLength="231" x="128.5" y="229.1045">El sistema solicita confirmacion al actor</text></g><!--link ConfirmandoEliminacion to EliminandoRegistro--><g id="link_ConfirmandoEliminacion_EliminandoRegistro"><path d="M117.5,309.8894 C117.5,330.7094 117.5,354.5494 117.5,375.3594 " fill="none" id="ConfirmandoEliminacion-to-EliminandoRegistro" style="stroke:#008000;stroke-width:1.0;"/><polygon fill="#008000" points="117.5,381.3594,121.5,372.3594,117.5,376.3594,113.5,372.3594,117.5,381.3594" style="stroke:#008000;stroke-width:1.0;"/><path d="M122.5,332.6094 L122.5,358.6094 L388.5,358.6094 L388.5,342.6094 L378.5,332.6094 L122.5,332.6094 " fill="#FEFFDD" style="stroke:#181818;stroke-width:0.5;"/><path d="M378.5,332.6094 L378.5,342.6094 L388.5,342.6094 L378.5,332.6094 " fill="#FEFFDD" style="stroke:#181818;stroke-width:0.5;"/><text fill="#000000" font-family="sans-serif" font-size="13" font-weight="bold" lengthAdjust="spacing" textLength="51" x="128.5" y="351.1045">Sistema</text><text fill="#000000" font-family="sans-serif" font-size="13" lengthAdjust="spacing" textLength="190" x="183.5" y="351.1045">elimina el documento confirmado</text></g><!--link EliminandoRegistro to *end*eliminarDocumentacion--><g id="link_EliminandoRegistro_*end*eliminarDocumentacion"><path d="M117.5,431.6594 C117.5,454.2594 117.5,480.9894 117.5,497.4094 " fill="none" id="EliminandoRegistro-to-*end*eliminarDocumentacion" style="stroke:#008000;stroke-width:1.0;"/><polygon fill="#008000" points="117.5,503.4094,121.5,494.4094,117.5,498.4094,113.5,494.4094,117.5,503.4094" style="stroke:#008000;stroke-width:1.0;"/><path d="M122.5,454.6094 L122.5,480.6094 L341.5,480.6094 L341.5,464.6094 L331.5,454.6094 L122.5,454.6094 " fill="#FEFFDD" style="stroke:#181818;stroke-width:0.5;"/><path d="M331.5,454.6094 L331.5,464.6094 L341.5,464.6094 L331.5,454.6094 " fill="#FEFFDD" style="stroke:#181818;stroke-width:0.5;"/><text fill="#000000" font-family="sans-serif" font-size="13" lengthAdjust="spacing" textLength="198" x="128.5" y="473.1045">El sistema confirma la eliminacion</text></g><g id="DOCUMENTACION_ELIMINADA"><rect fill="#F1F1F1" height="50" rx="12.5" ry="12.5" style="stroke:#181818;stroke-width:0.5;" width="219" x="7" y="632"/><line style="stroke:#181818;stroke-width:0.5;" x1="7" x2="226" y1="659.6094" y2="659.6094"/><text fill="#000000" font-family="sans-serif" font-size="14" lengthAdjust="spacing" textLength="199" x="17" y="651.5332">DOCUMENTACION_ELIMINADA</text></g><g id="DOCUMENTACION_ABIERTA"><rect fill="#F1F1F1" height="50" rx="12.5" ry="12.5" style="stroke:#181818;stroke-width:0.5;" width="206" x="261.5" y="632"/><line style="stroke:#181818;stroke-width:0.5;" x1="261.5" x2="467.5" y1="659.6094" y2="659.6094"/><text fill="#000000" font-family="sans-serif" font-size="14" lengthAdjust="spacing" textLength="186" x="271.5" y="651.5332">DOCUMENTACION_ABIERTA</text></g><!--link eliminarDocumentacion to DOCUMENTACION_ELIMINADA--><g id="link_eliminarDocumentacion_DOCUMENTACION_ELIMINADA"><path d="M155.22,536.24 C142.51,575.56 133.1662,604.4511 126.1262,626.2211 " fill="none" id="eliminarDocumentacion-to-DOCUMENTACION_ELIMINADA" style="stroke:#008000;stroke-width:1.0;"/><polygon fill="#008000" points="124.28,631.93,130.8552,624.5974,125.8185,627.1726,123.2433,622.1359,124.28,631.93" style="stroke:#008000;stroke-width:1.0;"/><path d="M148.5,571 L148.5,597 L301.5,597 L301.5,581 L291.5,571 L148.5,571 " fill="#FEFFDD" style="stroke:#181818;stroke-width:0.5;"/><path d="M291.5,571 L291.5,581 L301.5,581 L291.5,571 " fill="#FEFFDD" style="stroke:#181818;stroke-width:0.5;"/><text fill="#000000" font-family="sans-serif" font-size="13" lengthAdjust="spacing" textLength="132" x="154.5" y="589.4951">completarEliminacion()</text></g><!--link eliminarDocumentacion to DOCUMENTACION_ABIERTA--><g id="link_eliminarDocumentacion_DOCUMENTACION_ABIERTA"><path d="M325.78,536.24 C338.49,575.56 347.8338,604.4511 354.8738,626.2211 " fill="none" id="eliminarDocumentacion-to-DOCUMENTACION_ABIERTA" style="stroke:#FF0000;stroke-width:1.0;"/><polygon fill="#FF0000" points="356.72,631.93,357.7567,622.1359,355.1815,627.1726,350.1448,624.5974,356.72,631.93" style="stroke:#FF0000;stroke-width:1.0;"/><path d="M351.5,571 L351.5,597 L497.5,597 L497.5,581 L487.5,571 L351.5,571 " fill="#FEFFDD" style="stroke:#181818;stroke-width:0.5;"/><path d="M487.5,571 L487.5,581 L497.5,581 L487.5,571 " fill="#FEFFDD" style="stroke:#181818;stroke-width:0.5;"/><text fill="#000000" font-family="sans-serif" font-size="13" lengthAdjust="spacing" textLength="125" x="357.5" y="589.4951">rechazarEliminacion()</text></g><!--SRC=[XPB1Re9048Rl-nGJUz4cfYzWIAXm8AcQg3qPqwpBr6vSTiZkzc2RldiNK2goMZWGc7_c-_zPx47gaXjUW98QtR54A4aTgnV6hECE0PKifEOc8V5Pe7PSIDB0BGo2bU5e0DyC_DMq3_pjnIjKAAewrpcT6wYlcv9-bwQeL6aplchgwqv5BrlYNbfdYDMYpUCMnfk7lK7Kst5qZwl9Z_DHVDX3_M65O5ivA0vvDtAxYbgDEgz7i5DlYDEnSYTQpqggmFfKM72mfAIGZeCuzJTc573XA6GbpEbO2MmlQ6EoYrQDZSdJBZhdzyzsDTJQoYdWfG_g-F2dzM_-y_pgGF1gRotiXx7mVtf9InRJrrawNyVJR35_Ir-oMJQFavXrw8AAKg7Zvc9tmn7xYtMJOp3lK-BdB5skhnW6nGV_kedu1G00]--></g></svg>