<?xml version="1.0" encoding="us-ascii" standalone="no"?><svg xmlns="http://www.w3.org/2000/svg" xmlns:xlink="http://www.w3.org/1999/xlink" contentStyleType="text/css" height="3457px" preserveAspectRatio="none" style="width:518px;height:3457px;background:#FFFFFF;" version="1.1" viewBox="0 0 518 3457" width="518px" zoomAndPan="magnify"><defs/><g><text fill="#000000" font-family="sans-serif" font-size="14" font-weight="bold" lengthAdjust="spacing" textLength="222" x="141" y="24.5332">Casos de uso - Ingeniero de QA</text><!--cluster Sistema--><g id="cluster_Sistema"><rect fill="none" height="3406" rx="2.5" ry="2.5" style="stroke:#181818;stroke-width:1.0;" width="359" x="153" y="45.6094"/><text fill="#000000" font-family="sans-serif" font-size="14" font-weight="bold" lengthAdjust="spacing" textLength="55" x="305" y="62.1426">Sistema</text></g><g id="elem_CU01"><ellipse cx="332.4767" cy="109.5128" fill="#F1F1F1" rx="40.4767" ry="27.9034" style="stroke:#181818;stroke-width:0.5;"/><text fill="#000000" font-family="sans-serif" font-size="14" lengthAdjust="spacing" textLength="37" x="313.9767" y="104.4366">Iniciar</text><text fill="#000000" font-family="sans-serif" font-size="14" lengthAdjust="spacing" textLength="41" x="311.9767" y="122.046">sesion</text></g><g id="elem_CU02"><ellipse cx="332.4767" cy="200.5128" fill="#F1F1F1" rx="40.4767" ry="27.9034" style="stroke:#181818;stroke-width:0.5;"/><text fill="#000000" font-family="sans-serif" font-size="14" lengthAdjust="spacing" textLength="41" x="311.9767" y="195.4366">Cerrar</text><text fill="#000000" font-family="sans-serif" font-size="14" lengthAdjust="spacing" textLength="41" x="311.9767" y="213.046">sesion</text></g><g id="elem_CU03"><ellipse cx="332.4197" cy="291.6213" fill="#F1F1F1" rx="115.9197" ry="28.0119" style="stroke:#181818;stroke-width:0.5;"/><text fill="#000000" font-family="sans-serif" font-size="14" lengthAdjust="spacing" textLength="147" x="255.9197" y="287.3332">Asociar documentacion</text><text fill="#000000" font-family="sans-serif" font-size="14" lengthAdjust="spacing" textLength="67" x="295.9197" y="304.9426">a proyecto</text></g><g id="elem_CU04"><ellipse cx="332.3379" cy="389.677" fill="#F1F1F1" rx="163.3379" ry="35.0676" style="stroke:#181818;stroke-width:0.5;"/><text fill="#000000" font-family="sans-serif" font-size="14" lengthAdjust="spacing" textLength="256" x="204.3379" y="384.6008">Consultar referencias de documentacion</text><text fill="#000000" font-family="sans-serif" font-size="14" lengthAdjust="spacing" textLength="95" x="284.8379" y="402.2102">de un proyecto</text></g><g id="elem_CU05"><ellipse cx="332.3675" cy="487.5128" fill="#F1F1F1" rx="79.3675" ry="27.9034" style="stroke:#181818;stroke-width:0.5;"/><text fill="#000000" font-family="sans-serif" font-size="14" lengthAdjust="spacing" textLength="35" x="314.8675" y="482.4366">Listar</text><text fill="#000000" font-family="sans-serif" font-size="14" lengthAdjust="spacing" textLength="96" x="284.3675" y="500.046">documentacion</text></g><g id="elem_CU06"><ellipse cx="332.3675" cy="578.5128" fill="#F1F1F1" rx="79.3675" ry="27.9034" style="stroke:#181818;stroke-width:0.5;"/><text fill="#000000" font-family="sans-serif" font-size="14" lengthAdjust="spacing" textLength="61" x="301.8675" y="573.4366">Consultar</text><text fill="#000000" font-family="sans-serif" font-size="14" lengthAdjust="spacing" textLength="96" x="284.3675" y="591.046">documentacion</text></g><g id="elem_CU07"><ellipse cx="332.3675" cy="669.5128" fill="#F1F1F1" rx="79.3675" ry="27.9034" style="stroke:#181818;stroke-width:0.5;"/><text fill="#000000" font-family="sans-serif" font-size="14" lengthAdjust="spacing" textLength="61" x="301.8675" y="664.4366">Actualizar</text><text fill="#000000" font-family="sans-serif" font-size="14" lengthAdjust="spacing" textLength="96" x="284.3675" y="682.046">documentacion</text></g><g id="elem_CU08"><ellipse cx="332.3675" cy="760.5128" fill="#F1F1F1" rx="79.3675" ry="27.9034" style="stroke:#181818;stroke-width:0.5;"/><text fill="#000000" font-family="sans-serif" font-size="14" lengthAdjust="spacing" textLength="50" x="307.3675" y="755.4366">Eliminar</text><text fill="#000000" font-family="sans-serif" font-size="14" lengthAdjust="spacing" textLength="96" x="284.3675" y="773.046">documentacion</text></g><g id="elem_CU10"><ellipse cx="332.3823" cy="942.5128" fill="#F1F1F1" rx="70.8823" ry="27.9034" style="stroke:#181818;stroke-width:0.5;"/><text fill="#000000" font-family="sans-serif" font-size="14" lengthAdjust="spacing" textLength="35" x="314.8823" y="937.4366">Listar</text><text fill="#000000" font-family="sans-serif" font-size="14" lengthAdjust="spacing" textLength="84" x="290.3823" y="955.046">casos de uso</text></g><g id="elem_CU11"><ellipse cx="332.4325" cy="1033.5128" fill="#F1F1F1" rx="65.9325" ry="27.9034" style="stroke:#181818;stroke-width:0.5;"/><text fill="#000000" font-family="sans-serif" font-size="14" lengthAdjust="spacing" textLength="61" x="301.9325" y="1028.4366">Consultar</text><text fill="#000000" font-family="sans-serif" font-size="14" lengthAdjust="spacing" textLength="77" x="293.9325" y="1046.046">caso de uso</text></g><g id="elem_CU12"><ellipse cx="332.4325" cy="1124.5128" fill="#F1F1F1" rx="65.9325" ry="27.9034" style="stroke:#181818;stroke-width:0.5;"/><text fill="#000000" font-family="sans-serif" font-size="14" lengthAdjust="spacing" textLength="36" x="314.4325" y="1119.4366">Crear</text><text fill="#000000" font-family="sans-serif" font-size="14" lengthAdjust="spacing" textLength="77" x="293.9325" y="1137.046">caso de uso</text></g><g id="elem_CU13"><ellipse cx="332.4325" cy="1215.5128" fill="#F1F1F1" rx="65.9325" ry="27.9034" style="stroke:#181818;stroke-width:0.5;"/><text fill="#000000" font-family="sans-serif" font-size="14" lengthAdjust="spacing" textLength="61" x="301.9325" y="1210.4366">Actualizar</text><text fill="#000000" font-family="sans-serif" font-size="14" lengthAdjust="spacing" textLength="77" x="293.9325" y="1228.046">caso de uso</text></g><g id="elem_CU14"><ellipse cx="332.4325" cy="1306.5128" fill="#F1F1F1" rx="65.9325" ry="27.9034" style="stroke:#181818;stroke-width:0.5;"/><text fill="#000000" font-family="sans-serif" font-size="14" lengthAdjust="spacing" textLength="50" x="307.4325" y="1301.4366">Eliminar</text><text fill="#000000" font-family="sans-serif" font-size="14" lengthAdjust="spacing" textLength="77" x="293.9325" y="1319.046">caso de uso</text></g><g id="elem_CU16"><ellipse cx="332.696" cy="1488.5128" fill="#F1F1F1" rx="82.196" ry="27.9034" style="stroke:#181818;stroke-width:0.5;"/><text fill="#000000" font-family="sans-serif" font-size="14" lengthAdjust="spacing" textLength="100" x="282.696" y="1483.4366">Listar requisitos</text><text fill="#000000" font-family="sans-serif" font-size="14" lengthAdjust="spacing" textLength="72" x="296.696" y="1501.046">funcionales</text></g><g id="elem_CU17"><ellipse cx="332.6836" cy="1579.5269" fill="#F1F1F1" rx="95.6836" ry="27.9176" style="stroke:#181818;stroke-width:0.5;"/><text fill="#000000" font-family="sans-serif" font-size="14" lengthAdjust="spacing" textLength="119" x="270.9754" y="1575.0444">Consultar requisito</text><text fill="#000000" font-family="sans-serif" font-size="14" lengthAdjust="spacing" textLength="57" x="301.9754" y="1592.6538">funcional</text></g><g id="elem_CU18"><ellipse cx="332.4533" cy="1670.5128" fill="#F1F1F1" rx="77.9533" ry="27.9034" style="stroke:#181818;stroke-width:0.5;"/><text fill="#000000" font-family="sans-serif" font-size="14" lengthAdjust="spacing" textLength="94" x="285.4533" y="1665.4366">Crear requisito</text><text fill="#000000" font-family="sans-serif" font-size="14" lengthAdjust="spacing" textLength="57" x="303.9533" y="1683.046">funcional</text></g><g id="elem_CU19"><ellipse cx="332.6836" cy="1761.5269" fill="#F1F1F1" rx="95.6836" ry="27.9176" style="stroke:#181818;stroke-width:0.5;"/><text fill="#000000" font-family="sans-serif" font-size="14" lengthAdjust="spacing" textLength="119" x="270.9754" y="1757.0444">Actualizar requisito</text><text fill="#000000" font-family="sans-serif" font-size="14" lengthAdjust="spacing" textLength="57" x="301.9754" y="1774.6538">funcional</text></g><g id="elem_CU20"><ellipse cx="332.3528" cy="1852.5128" fill="#F1F1F1" rx="87.8528" ry="27.9034" style="stroke:#181818;stroke-width:0.5;"/><text fill="#000000" font-family="sans-serif" font-size="14" lengthAdjust="spacing" textLength="108" x="278.3528" y="1847.4366">Eliminar requisito</text><text fill="#000000" font-family="sans-serif" font-size="14" lengthAdjust="spacing" textLength="57" x="303.8528" y="1865.046">funcional</text></g><g id="elem_CU21"><ellipse cx="332.3528" cy="1943.5128" fill="#F1F1F1" rx="87.8528" ry="27.9034" style="stroke:#181818;stroke-width:0.5;"/><text fill="#000000" font-family="sans-serif" font-size="14" lengthAdjust="spacing" textLength="108" x="278.3528" y="1938.4366">Listar escenarios</text><text fill="#000000" font-family="sans-serif" font-size="14" lengthAdjust="spacing" textLength="50" x="307.3528" y="1956.046">Gherkin</text></g><g id="elem_CU22"><ellipse cx="332.6102" cy="2034.5128" fill="#F1F1F1" rx="83.6102" ry="27.9034" style="stroke:#181818;stroke-width:0.5;"/><text fill="#000000" font-family="sans-serif" font-size="14" lengthAdjust="spacing" textLength="102" x="281.6102" y="2029.4366">Crear escenario</text><text fill="#000000" font-family="sans-serif" font-size="14" lengthAdjust="spacing" textLength="50" x="307.6102" y="2047.046">Gherkin</text></g><g id="elem_CU23"><ellipse cx="332.4607" cy="2125.5566" fill="#F1F1F1" rx="101.4607" ry="27.9472" style="stroke:#181818;stroke-width:0.5;"/><text fill="#000000" font-family="sans-serif" font-size="14" lengthAdjust="spacing" textLength="127" x="265.9607" y="2121.2685">Consultar escenario</text><text fill="#000000" font-family="sans-serif" font-size="14" lengthAdjust="spacing" textLength="50" x="304.4607" y="2138.8779">Gherkin</text></g><g id="elem_CU24"><ellipse cx="332.4607" cy="2216.5566" fill="#F1F1F1" rx="101.4607" ry="27.9472" style="stroke:#181818;stroke-width:0.5;"/><text fill="#000000" font-family="sans-serif" font-size="14" lengthAdjust="spacing" textLength="127" x="265.9607" y="2212.2685">Actualizar escenario</text><text fill="#000000" font-family="sans-serif" font-size="14" lengthAdjust="spacing" textLength="50" x="304.4607" y="2229.8779">Gherkin</text></g><g id="elem_CU25"><ellipse cx="332.533" cy="2307.5192" fill="#F1F1F1" rx="93.533" ry="27.9098" style="stroke:#181818;stroke-width:0.5;"/><text fill="#000000" font-family="sans-serif" font-size="14" lengthAdjust="spacing" textLength="116" x="273.0809" y="2302.8426">Eliminar escenario</text><text fill="#000000" font-family="sans-serif" font-size="14" lengthAdjust="spacing" textLength="50" x="306.0809" y="2320.4519">Gherkin</text></g><g id="elem_CU26"><ellipse cx="332.3187" cy="2398.5173" fill="#F1F1F1" rx="92.8187" ry="27.9079" style="stroke:#181818;stroke-width:0.5;"/><text fill="#000000" font-family="sans-serif" font-size="14" lengthAdjust="spacing" textLength="115" x="273.6145" y="2393.775">Crear borrador de</text><text fill="#000000" font-family="sans-serif" font-size="14" lengthAdjust="spacing" textLength="99" x="281.6145" y="2411.3844">caso de prueba</text></g><g id="elem_CU27"><ellipse cx="332.4828" cy="2489.5128" fill="#F1F1F1" rx="60.9828" ry="27.9034" style="stroke:#181818;stroke-width:0.5;"/><text fill="#000000" font-family="sans-serif" font-size="14" lengthAdjust="spacing" textLength="35" x="314.9828" y="2484.4366">Listar</text><text fill="#000000" font-family="sans-serif" font-size="14" lengthAdjust="spacing" textLength="70" x="297.4828" y="2502.046">borradores</text></g><g id="elem_CU28"><ellipse cx="332.6188" cy="2580.5128" fill="#F1F1F1" rx="54.6188" ry="27.9034" style="stroke:#181818;stroke-width:0.5;"/><text fill="#000000" font-family="sans-serif" font-size="14" lengthAdjust="spacing" textLength="61" x="302.1188" y="2575.4366">Consultar</text><text fill="#000000" font-family="sans-serif" font-size="14" lengthAdjust="spacing" textLength="55" x="305.1188" y="2593.046">borrador</text></g><g id="elem_CU29"><ellipse cx="332.3173" cy="2671.5128" fill="#F1F1F1" rx="84.3173" ry="27.9034" style="stroke:#181818;stroke-width:0.5;"/><text fill="#000000" font-family="sans-serif" font-size="14" lengthAdjust="spacing" textLength="103" x="280.8173" y="2666.4366">Anadir feedback</text><text fill="#000000" font-family="sans-serif" font-size="14" lengthAdjust="spacing" textLength="67" x="298.8173" y="2684.046">a borrador</text></g><g id="elem_CU30"><ellipse cx="332.4117" cy="2762.5128" fill="#F1F1F1" rx="53.9117" ry="27.9034" style="stroke:#181818;stroke-width:0.5;"/><text fill="#000000" font-family="sans-serif" font-size="14" lengthAdjust="spacing" textLength="60" x="302.4117" y="2757.4366">Rechazar</text><text fill="#000000" font-family="sans-serif" font-size="14" lengthAdjust="spacing" textLength="55" x="304.9117" y="2775.046">borrador</text></g><g id="elem_CU31"><ellipse cx="332.5473" cy="2857.5188" fill="#F1F1F1" rx="147.5473" ry="31.9095" style="stroke:#181818;stroke-width:0.5;"/><text fill="#000000" font-family="sans-serif" font-size="14" lengthAdjust="spacing" textLength="217" x="221.0473" y="2853.2307">Aceptar y publicar caso de prueba</text><text fill="#000000" font-family="sans-serif" font-size="14" lengthAdjust="spacing" textLength="124" x="267.5473" y="2870.8401">a partir de borrador</text></g><g id="elem_CU32"><ellipse cx="332.4806" cy="2952.6403" fill="#F1F1F1" rx="120.9806" ry="28.0309" style="stroke:#181818;stroke-width:0.5;"/><text fill="#000000" font-family="sans-serif" font-size="14" lengthAdjust="spacing" textLength="154" x="252.4806" y="2948.3522">Buscar casos de prueba</text><text fill="#000000" font-family="sans-serif" font-size="14" lengthAdjust="spacing" textLength="87" x="285.9806" y="2965.9616">en Kiwi TCMS</text></g><g id="elem_CU33"><ellipse cx="332.5149" cy="3043.5491" fill="#F1F1F1" rx="100.0149" ry="27.9397" style="stroke:#181818;stroke-width:0.5;"/><text fill="#000000" font-family="sans-serif" font-size="14" lengthAdjust="spacing" textLength="125" x="267.0149" y="3039.261">Ver caso de prueba</text><text fill="#000000" font-family="sans-serif" font-size="14" lengthAdjust="spacing" textLength="87" x="286.0149" y="3056.8704">en Kiwi TCMS</text></g><g id="elem_CU34"><ellipse cx="332.3112" cy="3134.5128" fill="#F1F1F1" rx="63.8112" ry="27.9034" style="stroke:#181818;stroke-width:0.5;"/><text fill="#000000" font-family="sans-serif" font-size="14" lengthAdjust="spacing" textLength="74" x="295.3112" y="3129.4366">Seleccionar</text><text fill="#000000" font-family="sans-serif" font-size="14" lengthAdjust="spacing" textLength="56" x="304.3112" y="3147.046">sesiones</text></g><g id="elem_CU35"><ellipse cx="332.3467" cy="3225.5128" fill="#F1F1F1" rx="67.3467" ry="27.9034" style="stroke:#181818;stroke-width:0.5;"/><text fill="#000000" font-family="sans-serif" font-size="14" lengthAdjust="spacing" textLength="79" x="292.8467" y="3220.4366">Crear nueva</text><text fill="#000000" font-family="sans-serif" font-size="14" lengthAdjust="spacing" textLength="41" x="311.8467" y="3238.046">sesion</text></g><g id="elem_CU36"><ellipse cx="332.3406" cy="3316.5128" fill="#F1F1F1" rx="46.8406" ry="27.9034" style="stroke:#181818;stroke-width:0.5;"/><text fill="#000000" font-family="sans-serif" font-size="14" lengthAdjust="spacing" textLength="50" x="307.3406" y="3311.4366">Eliminar</text><text fill="#000000" font-family="sans-serif" font-size="14" lengthAdjust="spacing" textLength="41" x="311.8406" y="3329.046">sesion</text></g><g id="elem_CU37"><ellipse cx="332.6543" cy="3407.5128" fill="#F1F1F1" rx="58.1543" ry="27.9034" style="stroke:#181818;stroke-width:0.5;"/><text fill="#000000" font-family="sans-serif" font-size="14" lengthAdjust="spacing" textLength="53" x="306.1543" y="3402.4366">Guardar</text><text fill="#000000" font-family="sans-serif" font-size="14" lengthAdjust="spacing" textLength="66" x="299.6543" y="3420.046">resultados</text></g><!--entity QA--><g id="elem_QA"><ellipse cx="57.5" cy="1731.1094" fill="#F1F1F1" rx="8" ry="8" style="stroke:#181818;stroke-width:0.5;"/><path d="M57.5,1739.1094 L57.5,1766.1094 M44.5,1747.1094 L70.5,1747.1094 M57.5,1766.1094 L44.5,1781.1094 M57.5,1766.1094 L70.5,1781.1094 " fill="none" style="stroke:#181818;stroke-width:0.5;"/><text fill="#000000" font-family="sans-serif" font-size="14" lengthAdjust="spacing" textLength="103" x="6" y="1797.1426">Ingeniero de QA</text></g><!--link QA to CU01--><g id="link_QA_CU01"><path d="M59.3,1722.3694 C64.34,1481.9994 93.26,216.7994 145,154.6094 C180.47,111.9794 242.6912,105.639 286.0612,106.509 " fill="none" id="QA-to-CU01" style="stroke:#181818;stroke-width:1.0;"/><polygon fill="#181818" points="292.06,106.6294,283.142,102.4497,287.061,106.5291,282.9816,110.4481,292.06,106.6294" style="stroke:#181818;stroke-width:1.0;"/></g><!--link QA to CU02--><g id="link_QA_CU02"><path d="M59.43,1722.3594 C65.08,1490.0994 96.25,304.0194 145,245.6094 C180.54,203.0294 242.7412,196.6817 286.0812,197.5317 " fill="none" id="QA-to-CU02" style="stroke:#181818;stroke-width:1.0;"/><polygon fill="#181818" points="292.08,197.6494,283.1602,193.4737,287.081,197.5513,283.0033,201.4721,292.08,197.6494" style="stroke:#181818;stroke-width:1.0;"/></g><!--link QA to CU03--><g id="link_QA_CU03"><path d="M58.15,1722.4694 C56.58,1504.4294 53.68,445.6194 145,336.6094 C163.18,314.9094 184.0199,304.0772 211.5299,297.3872 " fill="none" id="QA-to-CU03" style="stroke:#181818;stroke-width:1.0;"/><polygon fill="#181818" points="217.36,295.9694,207.6697,294.2093,212.5016,297.1509,209.5601,301.9828,217.36,295.9694" style="stroke:#181818;stroke-width:1.0;"/></g><!--link QA to CU04--><g id="link_QA_CU04"><path d="M58.42,1722.3694 C58.32,1514.0594 62.33,543.3894 145,441.6094 C157.29,426.4794 168.1011,417.9525 185.9511,410.0725 " fill="none" id="QA-to-CU04" style="stroke:#181818;stroke-width:1.0;"/><polygon fill="#181818" points="191.44,407.6494,181.5912,407.6248,186.8659,409.6686,184.822,414.9434,191.44,407.6494" style="stroke:#181818;stroke-width:1.0;"/></g><!--link QA to CU05--><g id="link_QA_CU05"><path d="M58.56,1722.4294 C59.2,1522.8894 66.47,625.4394 145,532.6094 C171.14,501.7094 208.4988,490.5967 246.8288,486.8267 " fill="none" id="QA-to-CU05" style="stroke:#181818;stroke-width:1.0;"/><polygon fill="#181818" points="252.8,486.2394,243.4517,483.1395,247.824,486.7288,244.2348,491.1011,252.8,486.2394" style="stroke:#181818;stroke-width:1.0;"/></g><!--link QA to CU06--><g id="link_QA_CU06"><path d="M58.79,1722.5294 C60.56,1532.3194 72.38,708.9694 145,623.6094 C171.22,592.7894 208.5992,581.6802 246.8992,577.8902 " fill="none" id="QA-to-CU06" style="stroke:#181818;stroke-width:1.0;"/><polygon fill="#181818" points="252.87,577.2994,243.5198,574.2051,247.8943,577.7917,244.3076,582.1662,252.87,577.2994" style="stroke:#181818;stroke-width:1.0;"/></g><!--link QA to CU07--><g id="link_QA_CU07"><path d="M59.07,1722.3994 C62.04,1541.4294 78.3,792.4894 145,714.6094 C171.32,683.8694 208.6995,672.7736 246.9795,668.9636 " fill="none" id="QA-to-CU07" style="stroke:#181818;stroke-width:1.0;"/><polygon fill="#181818" points="252.95,668.3694,243.5981,665.2804,247.9746,668.8646,244.3904,673.2411,252.95,668.3694" style="stroke:#181818;stroke-width:1.0;"/></g><!--link QA to CU08--><g id="link_QA_CU08"><path d="M59.39,1722.4194 C63.64,1551.4194 84.19,876.0594 145,805.6094 C171.44,774.9794 208.8299,763.8772 247.0799,760.0472 " fill="none" id="QA-to-CU08" style="stroke:#181818;stroke-width:1.0;"/><polygon fill="#181818" points="253.05,759.4494,243.6963,756.366,248.0749,759.9475,244.4933,764.3262,253.05,759.4494" style="stroke:#181818;stroke-width:1.0;"/></g><!--link QA to CU10--><g id="link_QA_CU10"><path d="M60.27,1722.5394 C67.38,1573.1094 95.9,1043.2894 145,987.6094 C173.64,955.1294 215.2975,944.4974 255.2675,941.4374 " fill="none" id="QA-to-CU10" style="stroke:#181818;stroke-width:1.0;"/><polygon fill="#181818" points="261.25,940.9794,251.9709,937.6781,256.2646,941.361,252.5816,945.6547,261.25,940.9794" style="stroke:#181818;stroke-width:1.0;"/></g><!--link QA to CU11--><g id="link_QA_CU11"><path d="M57.86,1722.4894 C56.54,1591.9894 59.22,1174.4694 145,1078.6094 C175.1,1044.9794 219.5917,1034.7146 260.4517,1032.1546 " fill="none" id="QA-to-CU11" style="stroke:#181818;stroke-width:1.0;"/><polygon fill="#181818" points="266.44,1031.7794,257.2075,1028.35,261.4498,1032.092,257.7077,1036.3343,266.44,1031.7794" style="stroke:#181818;stroke-width:1.0;"/></g><!--link QA to CU12--><g id="link_QA_CU12"><path d="M58.71,1722.3694 C60.17,1603.5594 70.8,1250.9494 145,1169.6094 C175.31,1136.3894 219.5231,1126.0852 260.2131,1123.3952 " fill="none" id="QA-to-CU12" style="stroke:#181818;stroke-width:1.0;"/><polygon fill="#181818" points="266.2,1122.9994,256.9557,1119.6018,261.2109,1123.3292,257.4835,1127.5844,266.2,1122.9994" style="stroke:#181818;stroke-width:1.0;"/></g><!--link QA to CU13--><g id="link_QA_CU13"><path d="M59.87,1722.4394 C64.37,1616.4794 82.26,1327.6194 145,1260.6094 C175.73,1227.7894 219.9342,1217.4825 260.5042,1214.6825 " fill="none" id="QA-to-CU13" style="stroke:#181818;stroke-width:1.0;"/><polygon fill="#181818" points="266.49,1214.2694,257.2359,1210.8985,261.5019,1214.6136,257.7868,1218.8796,266.49,1214.2694" style="stroke:#181818;stroke-width:1.0;"/></g><!--link QA to CU14--><g id="link_QA_CU14"><path d="M61.53,1722.2994 C69.42,1630.2294 93.67,1404.4394 145,1351.6094 C176.22,1319.4794 220.1266,1309.1359 260.4566,1306.1259 " fill="none" id="QA-to-CU14" style="stroke:#181818;stroke-width:1.0;"/><polygon fill="#181818" points="266.44,1305.6794,257.1673,1302.3603,261.4539,1306.0515,257.7627,1310.3381,266.44,1305.6794" style="stroke:#181818;stroke-width:1.0;"/></g><!--link QA to CU16--><g id="link_QA_CU16"><path d="M62.31,1722.2894 C69.41,1671.1594 89.42,1582.5994 145,1533.6094 C173.86,1508.1694 208.6995,1497.3726 244.7695,1492.2526 " fill="none" id="QA-to-CU16" style="stroke:#181818;stroke-width:1.0;"/><polygon fill="#181818" points="250.71,1491.4094,241.2372,1488.7139,245.7596,1492.1121,242.3615,1496.6345,250.71,1491.4094" style="stroke:#181818;stroke-width:1.0;"/></g><!--link QA to CU17--><g id="link_QA_CU17"><path d="M73.49,1722.2994 C87.39,1691.1594 111.06,1648.9594 145,1624.6094 C172.61,1604.8094 201.9291,1594.7783 234.3091,1588.5183 " fill="none" id="QA-to-CU17" style="stroke:#181818;stroke-width:1.0;"/><polygon fill="#181818" points="240.2,1587.3794,230.6044,1585.1604,235.2909,1588.3284,232.1229,1593.015,240.2,1587.3794" style="stroke:#181818;stroke-width:1.0;"/></g><!--link QA to CU18--><g id="link_QA_CU18"><path d="M109.19,1731.9294 C120.71,1725.9594 133.07,1720.1394 145,1715.6094 C182.68,1701.3094 220.5269,1691.697 256.1669,1684.247 " fill="none" id="QA-to-CU18" style="stroke:#181818;stroke-width:1.0;"/><polygon fill="#181818" points="262.04,1683.0194,252.412,1680.9455,257.1458,1684.0424,254.0489,1688.7763,262.04,1683.0194" style="stroke:#181818;stroke-width:1.0;"/></g><!--link QA to CU19--><g id="link_QA_CU19"><path d="M109.21,1761.6094 C144.98,1761.6094 187.98,1761.6094 230.87,1761.6094 " fill="none" id="QA-to-CU19" style="stroke:#181818;stroke-width:1.0;"/><polygon fill="#181818" points="236.87,1761.6094,227.87,1757.6094,231.87,1761.6094,227.87,1765.6094,236.87,1761.6094" style="stroke:#181818;stroke-width:1.0;"/></g><!--link QA to CU20--><g id="link_QA_CU20"><path d="M109.26,1790.5694 C120.78,1796.4094 133.12,1802.1294 145,1806.6094 C180.73,1820.0894 215.9416,1829.4137 250.4416,1837.0437 " fill="none" id="QA-to-CU20" style="stroke:#181818;stroke-width:1.0;"/><polygon fill="#181818" points="256.3,1838.3394,248.3761,1832.4903,251.418,1837.2597,246.6486,1840.3015,256.3,1838.3394" style="stroke:#181818;stroke-width:1.0;"/></g><!--link QA to CU21--><g id="link_QA_CU21"><path d="M73.74,1800.8994 C87.71,1831.7594 111.37,1873.4394 145,1897.6094 C174.52,1918.8194 206.8066,1929.237 240.9366,1935.437 " fill="none" id="QA-to-CU21" style="stroke:#181818;stroke-width:1.0;"/><polygon fill="#181818" points="246.84,1936.5094,238.6999,1930.9652,241.9205,1935.6157,237.27,1938.8364,246.84,1936.5094" style="stroke:#181818;stroke-width:1.0;"/></g><!--link QA to CU22--><g id="link_QA_CU22"><path d="M62.4,1800.7194 C69.6,1851.5894 89.72,1939.7094 145,1988.6094 C173.47,2013.7994 207.6379,2024.7795 243.3679,2030.1995 " fill="none" id="QA-to-CU22" style="stroke:#181818;stroke-width:1.0;"/><polygon fill="#181818" points="249.3,2031.0994,241.0017,2025.7948,244.3566,2030.3495,239.8019,2033.7043,249.3,2031.0994" style="stroke:#181818;stroke-width:1.0;"/></g><!--link QA to CU23--><g id="link_QA_CU23"><path d="M64.14,1800.8294 C75.87,1876.9494 105.14,2040.6894 145,2079.6094 C168.26,2102.3294 194.9755,2113.2377 226.4155,2119.4977 " fill="none" id="QA-to-CU23" style="stroke:#181818;stroke-width:1.0;"/><polygon fill="#181818" points="232.3,2120.6694,224.2544,2114.9889,227.3963,2119.693,222.6922,2122.8349,232.3,2120.6694" style="stroke:#181818;stroke-width:1.0;"/></g><!--link QA to CU24--><g id="link_QA_CU24"><path d="M61.56,1800.8094 C69.52,1892.6194 93.91,2117.7894 145,2170.6094 C167.72,2194.0994 194.4909,2205.2013 226.1409,2211.3713 " fill="none" id="QA-to-CU24" style="stroke:#181818;stroke-width:1.0;"/><polygon fill="#181818" points="232.03,2212.5194,223.9617,2206.8712,227.1224,2211.5627,222.4309,2214.7234,232.03,2212.5194" style="stroke:#181818;stroke-width:1.0;"/></g><!--link QA to CU25--><g id="link_QA_CU25"><path d="M59.9,1800.6794 C64.47,1906.3994 82.54,2194.5794 145,2261.6094 C169.1,2287.4694 199.299,2298.8291 233.349,2304.4091 " fill="none" id="QA-to-CU25" style="stroke:#181818;stroke-width:1.0;"/><polygon fill="#181818" points="239.27,2305.3794,231.0353,2299.9766,234.3358,2304.5708,229.7416,2307.8712,239.27,2305.3794" style="stroke:#181818;stroke-width:1.0;"/></g><!--link QA to CU26--><g id="link_QA_CU26"><path d="M58.74,1800.7694 C60.28,1919.3294 71.11,2271.2294 145,2352.6094 C168.87,2378.9094 199.2357,2390.3295 233.4757,2395.8195 " fill="none" id="QA-to-CU26" style="stroke:#181818;stroke-width:1.0;"/><polygon fill="#181818" points="239.4,2396.7694,231.1468,2391.395,234.4631,2395.9778,229.8802,2399.2941,239.4,2396.7694" style="stroke:#181818;stroke-width:1.0;"/></g><!--link QA to CU27--><g id="link_QA_CU27"><path d="M57.88,1800.6594 C56.65,1930.9094 59.57,2347.6794 145,2443.6094 C176.27,2478.7294 223.6787,2488.7859 265.3487,2491.0359 " fill="none" id="QA-to-CU27" style="stroke:#181818;stroke-width:1.0;"/><polygon fill="#181818" points="271.34,2491.3594,262.5688,2486.8799,266.3473,2491.0898,262.1374,2494.8683,271.34,2491.3594" style="stroke:#181818;stroke-width:1.0;"/></g><!--link QA to CU28--><g id="link_QA_CU28"><path d="M60.28,1800.6194 C67.44,1949.8394 96.1,2478.8794 145,2534.6094 C177.66,2571.8294 229.1934,2581.1478 271.7434,2582.5778 " fill="none" id="QA-to-CU28" style="stroke:#181818;stroke-width:1.0;"/><polygon fill="#181818" points="277.74,2582.7794,268.8794,2578.4793,272.7428,2582.6114,268.6107,2586.4748,277.74,2582.7794" style="stroke:#181818;stroke-width:1.0;"/></g><!--link QA to CU29--><g id="link_QA_CU29"><path d="M59.8,1800.7494 C65.47,1961.1194 90.28,2562.5094 145,2625.6094 C170.34,2654.8394 205.0559,2666.2787 241.9559,2670.8687 " fill="none" id="QA-to-CU29" style="stroke:#181818;stroke-width:1.0;"/><polygon fill="#181818" points="247.91,2671.6094,239.4726,2666.529,242.9482,2670.9922,238.4851,2674.4678,247.91,2671.6094" style="stroke:#181818;stroke-width:1.0;"/></g><!--link QA to CU30--><g id="link_QA_CU30"><path d="M59.41,1800.7494 C63.7,1971.5394 84.43,2646.0894 145,2716.6094 C177.48,2754.4294 229.6324,2763.5983 272.3924,2764.8183 " fill="none" id="QA-to-CU30" style="stroke:#181818;stroke-width:1.0;"/><polygon fill="#181818" points="278.39,2764.9894,269.5077,2760.7343,273.392,2764.8468,269.2796,2768.7311,278.39,2764.9894" style="stroke:#181818;stroke-width:1.0;"/></g><!--link QA to CU31--><g id="link_QA_CU31"><path d="M59.11,1800.7494 C62.29,1981.3794 79.35,2728.9794 145,2807.6094 C159.07,2824.4594 172.5366,2833.8504 193.1466,2841.6304 " fill="none" id="QA-to-CU31" style="stroke:#181818;stroke-width:1.0;"/><polygon fill="#181818" points="198.76,2843.7494,191.7526,2836.8287,194.0822,2841.9836,188.9273,2844.3132,198.76,2843.7494" style="stroke:#181818;stroke-width:1.0;"/></g><!--link QA to CU32--><g id="link_QA_CU32"><path d="M58.78,1800.9194 C60.51,1992.2594 72.17,2820.5294 145,2906.6094 C162.55,2927.3594 182.0312,2938.0187 208.3412,2945.0087 " fill="none" id="QA-to-CU32" style="stroke:#181818;stroke-width:1.0;"/><polygon fill="#181818" points="214.14,2946.5494,206.4688,2940.3725,209.3076,2945.2655,204.4147,2948.1043,214.14,2946.5494" style="stroke:#181818;stroke-width:1.0;"/></g><!--link QA to CU33--><g id="link_QA_CU33"><path d="M58.55,1800.6794 C59.15,2000.6494 66.24,2903.9894 145,2997.6094 C166.58,3023.2594 194.0541,3034.8007 226.6341,3040.6407 " fill="none" id="QA-to-CU33" style="stroke:#181818;stroke-width:1.0;"/><polygon fill="#181818" points="232.54,3041.6994,224.387,3036.1742,227.6184,3040.8172,222.9754,3044.0487,232.54,3041.6994" style="stroke:#181818;stroke-width:1.0;"/></g><!--link QA to CU34--><g id="link_QA_CU34"><path d="M58.35,1800.7594 C57.9,2009.6694 60.34,2987.4894 145,3088.6094 C174.65,3124.0194 220.8187,3134.257 262.4487,3136.497 " fill="none" id="QA-to-CU34" style="stroke:#181818;stroke-width:1.0;"/><polygon fill="#181818" points="268.44,3136.8194,259.6679,3132.3416,263.4472,3136.5507,259.2381,3140.33,268.44,3136.8194" style="stroke:#181818;stroke-width:1.0;"/></g><!--link QA to CU35--><g id="link_QA_CU35"><path d="M58.17,1800.9094 C56.72,2018.6294 54.43,3070.9794 145,3179.6094 C173.72,3214.0594 217.7523,3224.6255 258.7723,3227.2555 " fill="none" id="QA-to-CU35" style="stroke:#181818;stroke-width:1.0;"/><polygon fill="#181818" points="264.76,3227.6394,256.0344,3223.0717,259.7702,3227.3195,255.5225,3231.0553,264.76,3227.6394" style="stroke:#181818;stroke-width:1.0;"/></g><!--link QA to CU36--><g id="link_QA_CU36"><path d="M59.44,1800.6794 C65.15,2031.8394 96.61,3212.3494 145,3270.6094 C178.77,3311.2694 236.22,3319.1987 279.65,3319.3487 " fill="none" id="QA-to-CU36" style="stroke:#181818;stroke-width:1.0;"/><polygon fill="#181818" points="285.65,3319.3694,276.6639,3315.3383,280.65,3319.3521,276.6362,3323.3383,285.65,3319.3694" style="stroke:#181818;stroke-width:1.0;"/></g><!--link QA to CU37--><g id="link_QA_CU37"><path d="M59.31,1800.6794 C64.41,2039.9794 93.64,3299.5694 145,3361.6094 C175.94,3398.9894 225.9635,3408.5352 268.5535,3409.9852 " fill="none" id="QA-to-CU37" style="stroke:#181818;stroke-width:1.0;"/><polygon fill="#181818" points="274.55,3410.1894,265.6913,3405.8855,269.5529,3410.0192,265.4191,3413.8808,274.55,3410.1894" style="stroke:#181818;stroke-width:1.0;"/></g><!--SRC=[XPL1Zzem48Nl-HKMToHY0u5B9OfMgwhjOKlR4nVZ361jiAdjjDsj-jzhqnh6YKDle_3UV7apncbWxuZJnCZ3qP5Q6X1EQbKuwHeWQswr9JMGrceo9k_K0PG4eyEZfrLHSE6q8QFEyn7Xzl9pQCRLmJSQRQHrSE8ZygiWlXi8RY4OfP3SR9K5wwaNu_hBfCIQDHZJbz02QrPMXpwarg8zWN9SUEbMSN8s-iM_X8usbdJMohQDypu3Up2WV8zBsawRa5_rMarngmy-NdZ9n1cLionqG3nFSWdNyaQ-3gehh7vev4cgGUqY6Td3JsSuUAr0EuxIPIvRHbXE1g85RKUQBjN0W8mEvSzeMJvzHZdDPVTh_zPAAvssMxLlLHWMRy16qwm_XVzPvaFdwvyBcQAbwitbhdoHdyzTpp8tftiEEYaosS4Ay4OPiZyUmJpBUBPeVxatTKzCyqCQDh21pCEEQJRni7vMz0FijBzuQd-_rN0xKsVJmev7spptFuc-wwcWrS2_92gZBjsjuluw9dk0UiV5SxZDklfahvz07FbhfYsRfEE3SvZs2pctkqOANwRPBjScDqw6u5qaAvD1lMrjR61n1r3alVmXoUVrnqrq9bl_2dripfHiVWCDYCivlNuEhZDcq_u2LGlVUUV3mMRvEoCL9NjzRBcfWyPlD2okrbTeLVmkYgSL6O_V_FrktMgAQeRgAQfdg9wZkaBr0jNBM-rltbkDk2NYbeXR8cw9k2NYbeXR8cw9k1HnAU9InAM8In6N8Yv5N8gu574fuZB4POZB49SXBaDSXhWCSLdr1m00]--></g></svg>