<?xml version="1.0" encoding="us-ascii" standalone="no"?><svg xmlns="http://www.w3.org/2000/svg" xmlns:xlink="http://www.w3.org/1999/xlink" contentStyleType="text/css" height="688px" preserveAspectRatio="none" style="width:374px;height:688px;background:#FFFFFF;" version="1.1" viewBox="0 0 374 688" width="374px" zoomAndPan="magnify"><defs/><g><path d="M38.5,7 L308.5,7 A12.5,12.5 0 0 1 321,19.5 L321,34.6094 L26,34.6094 L26,19.5 A12.5,12.5 0 0 1 38.5,7 " fill="#F1F1F1" style="stroke:#F1F1F1;stroke-width:1.0;"/><rect fill="none" height="528.6094" rx="12.5" ry="12.5" style="stroke:#181818;stroke-width:0.5;" width="295" x="26" y="7"/><line style="stroke:#181818;stroke-width:0.5;" x1="26" x2="321" y1="34.6094" y2="34.6094"/><text fill="#000000" font-family="sans-serif" font-size="14" lengthAdjust="spacing" textLength="90" x="128.5" y="26.5332">iniciarSesion()</text><g id="iniciarSesion.SolicitandoCredenciales"><rect fill="#F1F1F1" height="50" rx="12.5" ry="12.5" style="stroke:#181818;stroke-width:0.5;" width="50" x="38" y="137.6094"/><line style="stroke:#181818;stroke-width:0.5;" x1="38" x2="88" y1="165.2188" y2="165.2188"/><text fill="#000000" font-family="sans-serif" font-size="14" lengthAdjust="spacing" textLength="4" x="61" y="157.1426">&#160;</text></g><g id="iniciarSesion.ValidandoCredenciales"><rect fill="#F1F1F1" height="50" rx="12.5" ry="12.5" style="stroke:#181818;stroke-width:0.5;" width="50" x="38" y="259.6094"/><line style="stroke:#181818;stroke-width:0.5;" x1="38" x2="88" y1="287.2188" y2="287.2188"/><text fill="#000000" font-family="sans-serif" font-size="14" lengthAdjust="spacing" textLength="4" x="61" y="279.1426">&#160;</text></g><g id="iniciarSesion.ConcediendoAcceso"><rect fill="#F1F1F1" height="50" rx="12.5" ry="12.5" style="stroke:#181818;stroke-width:0.5;" width="50" x="38" y="381.6094"/><line style="stroke:#181818;stroke-width:0.5;" x1="38" x2="88" y1="409.2188" y2="409.2188"/><text fill="#000000" font-family="sans-serif" font-size="14" lengthAdjust="spacing" textLength="4" x="61" y="401.1426">&#160;</text></g><ellipse cx="63" cy="55.6094" fill="#222222" rx="10" ry="10" style="stroke:#222222;stroke-width:1.0;"/><ellipse cx="63" cy="514.6094" fill="none" rx="11" ry="11" style="stroke:#222222;stroke-width:1.0;"/><ellipse cx="63" cy="514.6094" fill="#222222" rx="6" ry="6" style="stroke:#222222;stroke-width:1.0;"/><!--link *start*iniciarSesion to SolicitandoCredenciales--><g id="link_*start*iniciarSesion_SolicitandoCredenciales"><path d="M63,65.9294 C63,81.7894 63,108.5194 63,131.2494 " fill="none" id="*start*iniciarSesion-to-SolicitandoCredenciales" style="stroke:#008000;stroke-width:1.0;"/><polygon fill="#008000" points="63,137.2494,67,128.2494,63,132.2494,59,128.2494,63,137.2494" style="stroke:#008000;stroke-width:1.0;"/><path d="M68,88.6094 L68,114.6094 L230,114.6094 L230,98.6094 L220,88.6094 L68,88.6094 " fill="#FEFFDD" style="stroke:#181818;stroke-width:0.5;"/><path d="M220,88.6094 L220,98.6094 L230,98.6094 L220,88.6094 " fill="#FEFFDD" style="stroke:#181818;stroke-width:0.5;"/><text fill="#000000" font-family="sans-serif" font-size="13" lengthAdjust="spacing" textLength="141" x="74" y="107.1045">Se solicita iniciar sesion</text></g><!--link SolicitandoCredenciales to ValidandoCredenciales--><g id="link_SolicitandoCredenciales_ValidandoCredenciales"><path d="M63,187.8894 C63,208.7094 63,232.5494 63,253.3594 " fill="none" id="SolicitandoCredenciales-to-ValidandoCredenciales" style="stroke:#008000;stroke-width:1.0;"/><polygon fill="#008000" points="63,259.3594,67,250.3594,63,254.3594,59,250.3594,63,259.3594" style="stroke:#008000;stroke-width:1.0;"/><path d="M68,210.6094 L68,236.6094 L312,236.6094 L312,220.6094 L302,210.6094 L68,210.6094 " fill="#FEFFDD" style="stroke:#181818;stroke-width:0.5;"/><path d="M302,210.6094 L302,220.6094 L312,220.6094 L302,210.6094 " fill="#FEFFDD" style="stroke:#181818;stroke-width:0.5;"/><text fill="#000000" font-family="sans-serif" font-size="13" font-weight="bold" lengthAdjust="spacing" textLength="51" x="74" y="229.1045">Sistema</text><text fill="#000000" font-family="sans-serif" font-size="13" lengthAdjust="spacing" textLength="168" x="129" y="229.1045">solicita y recibe credenciales</text></g><!--link ValidandoCredenciales to ConcediendoAcceso--><g id="link_ValidandoCredenciales_ConcediendoAcceso"><path d="M63,309.8894 C63,330.7094 63,354.5494 63,375.3594 " fill="none" id="ValidandoCredenciales-to-ConcediendoAcceso" style="stroke:#008000;stroke-width:1.0;"/><polygon fill="#008000" points="63,381.3594,67,372.3594,63,376.3594,59,372.3594,63,381.3594" style="stroke:#008000;stroke-width:1.0;"/><path d="M68,332.6094 L68,358.6094 L260,358.6094 L260,342.6094 L250,332.6094 L68,332.6094 " fill="#FEFFDD" style="stroke:#181818;stroke-width:0.5;"/><path d="M250,332.6094 L250,342.6094 L260,342.6094 L250,332.6094 " fill="#FEFFDD" style="stroke:#181818;stroke-width:0.5;"/><text fill="#000000" font-family="sans-serif" font-size="13" font-weight="bold" lengthAdjust="spacing" textLength="51" x="74" y="351.1045">Sistema</text><text fill="#000000" font-family="sans-serif" font-size="13" lengthAdjust="spacing" textLength="116" x="129" y="351.1045">valida la informacion</text></g><!--link ConcediendoAcceso to *end*iniciarSesion--><g id="link_ConcediendoAcceso_*end*iniciarSesion"><path d="M63,431.6594 C63,454.2594 63,480.9894 63,497.4094 " fill="none" id="ConcediendoAcceso-to-*end*iniciarSesion" style="stroke:#008000;stroke-width:1.0;"/><polygon fill="#008000" points="63,503.4094,67,494.4094,63,498.4094,59,494.4094,63,503.4094" style="stroke:#008000;stroke-width:1.0;"/><path d="M68,454.6094 L68,480.6094 L286,480.6094 L286,464.6094 L276,454.6094 L68,454.6094 " fill="#FEFFDD" style="stroke:#181818;stroke-width:0.5;"/><path d="M276,454.6094 L276,464.6094 L286,464.6094 L276,454.6094 " fill="#FEFFDD" style="stroke:#181818;stroke-width:0.5;"/><text fill="#000000" font-family="sans-serif" font-size="13" font-weight="bold" lengthAdjust="spacing" textLength="51" x="74" y="473.1045">Sistema</text><text fill="#000000" font-family="sans-serif" font-size="13" lengthAdjust="spacing" textLength="142" x="129" y="473.1045">concede acceso al actor</text></g><g id="SISTEMA_ABIERTO"><rect fill="#F1F1F1" height="50" rx="12.5" ry="12.5" style="stroke:#181818;stroke-width:0.5;" width="147" x="7" y="632"/><line style="stroke:#181818;stroke-width:0.5;" x1="7" x2="154" y1="659.6094" y2="659.6094"/><text fill="#000000" font-family="sans-serif" font-size="14" lengthAdjust="spacing" textLength="127" x="17" y="651.5332">SISTEMA_ABIERTO</text></g><g id="SISTEMA_CERRADO"><rect fill="#F1F1F1" height="50" rx="12.5" ry="12.5" style="stroke:#181818;stroke-width:0.5;" width="156" x="189.5" y="632"/><line style="stroke:#181818;stroke-width:0.5;" x1="189.5" x2="345.5" y1="659.6094" y2="659.6094"/><text fill="#000000" font-family="sans-serif" font-size="14" lengthAdjust="spacing" textLength="136" x="199.5" y="651.5332">SISTEMA_CERRADO</text></g><!--link iniciarSesion to SISTEMA_ABIERTO--><g id="link_iniciarSesion_SISTEMA_ABIERTO"><path d="M106.1,536.24 C101.42,554.58 98.5,566 98.5,566 C98.5,566 91.8384,599.3369 86.4984,625.9969 " fill="none" id="iniciarSesion-to-SISTEMA_ABIERTO" style="stroke:#008000;stroke-width:1.0;"/><polygon fill="#008000" points="85.32,631.88,91.0097,623.8409,86.302,626.9774,83.1655,622.2697,85.32,631.88" style="stroke:#008000;stroke-width:1.0;"/><path d="M103.5,571 L103.5,597 L219.5,597 L219.5,581 L209.5,571 L103.5,571 " fill="#FEFFDD" style="stroke:#181818;stroke-width:0.5;"/><path d="M209.5,571 L209.5,581 L219.5,581 L209.5,571 " fill="#FEFFDD" style="stroke:#181818;stroke-width:0.5;"/><text fill="#000000" font-family="sans-serif" font-size="13" lengthAdjust="spacing" textLength="95" x="109.5" y="589.4951">completarInicio()</text></g><!--link iniciarSesion to SISTEMA_CERRADO--><g id="link_iniciarSesion_SISTEMA_CERRADO"><path d="M238.14,536.24 C247.78,575.56 254.8431,604.3321 260.1731,626.1021 " fill="none" id="iniciarSesion-to-SISTEMA_CERRADO" style="stroke:#FF0000;stroke-width:1.0;"/><polygon fill="#FF0000" points="261.6,631.93,263.345,622.237,260.411,627.0734,255.5745,624.1394,261.6,631.93" style="stroke:#FF0000;stroke-width:1.0;"/><path d="M258.5,571 L258.5,597 L367.5,597 L367.5,581 L357.5,571 L258.5,571 " fill="#FEFFDD" style="stroke:#181818;stroke-width:0.5;"/><path d="M357.5,571 L357.5,581 L367.5,581 L357.5,571 " fill="#FEFFDD" style="stroke:#181818;stroke-width:0.5;"/><text fill="#000000" font-family="sans-serif" font-size="13" lengthAdjust="spacing" textLength="88" x="264.5" y="589.4951">rechazarInicio()</text></g><!--SRC=[ZPB1IiD048Rl-nH3lRH2yGLA8COSSX2XALvAaSbcrAMRtR2x25LyTwSRfMxJQfDBildd- -UVYTygqwF33hGo57OzGM_rRlyYX0yO29HHKg6hoIjh03rCafFfR08VGW1VWtx2DwjggraLqBIsSDIIuH9DVYnyHAtQ_sM5DP9QHIpCfIHl1y_rzGRcwwiNHsGsy-nFMsCPnnautJOUr0J-M_yJ4tnC5J-pLwmPdCwG4_VpMKRUYoQhbG_KuUAcoGvzxC2HL0s1F4QaxPoqIfePJ-oIHjuY5_H-8i_MTIXFZsD4JxnvBHUvoKWXm061cf-2TQdVfn3fJvWilAfNvNt-bDzMvNBr8197QRjUKq1NxUljT2OE8KP8dkDlO54kb_dT4P1tyuhlftXV]--></g></svg>