<?plantuml 1.2026.2?><svg xmlns="http://www.w3.org/2000/svg" xmlns:xlink="http://www.w3.org/1999/xlink" contentStyleType="text/css" data-diagram-type="DESCRIPTION" height="1497px" preserveAspectRatio="none" style="width:723px;height:1497px;background:#FFFFFF;" version="1.1" viewBox="0 0 723 1497" width="723px" zoomAndPan="magnify"><title>Diagrama general del sistema</title><defs/><g><g class="title" data-source-line="4"><text fill="#000000" font-family="sans-serif" font-size="14" font-weight="bold" lengthAdjust="spacing" textLength="197.6475" x="255.6763" y="24.5332">Diagrama general del sistema</text></g><!--cluster kiwi-mvc\nNode.js + Express--><g class="cluster" data-qualified-name="kiwi-mvc.nNode.js . Express" data-source-line="8" id="ent0003"><rect fill="none" height="829" rx="2.5" ry="2.5" style="stroke:#181818;stroke-width:1;" width="307" x="7" y="169.1094"/><path d="M138.0029,169.1094 L138.0029,197.3281 L128.0029,207.3281 L7,207.3281" fill="none" style="stroke:#181818;stroke-width:1;"/><text fill="#000000" font-family="sans-serif" font-size="14" font-weight="bold" lengthAdjust="spacing" textLength="59.1377" x="40.9326" y="184.6426">kiwi-mvc</text><text fill="#000000" font-family="sans-serif" font-size="14" font-weight="bold" lengthAdjust="spacing" textLength="121.0029" x="10" y="202.252">Node.js + Express</text></g><!--cluster Vista SPA--><g class="cluster" data-qualified-name="kiwi-mvc.nNode.js . Express.Vista SPA" data-source-line="9" id="ent0004"><rect fill="none" height="209" rx="2.5" ry="2.5" style="stroke:#181818;stroke-width:1;" width="259" x="31" y="231.1094"/><path d="M107.1377,231.1094 L107.1377,241.7188 L97.1377,251.7188 L31,251.7188" fill="none" style="stroke:#181818;stroke-width:1;"/><text fill="#000000" font-family="sans-serif" font-size="14" font-weight="bold" lengthAdjust="spacing" textLength="66.1377" x="34" y="246.6426">Vista SPA</text></g><!--cluster Backend MVC--><g class="cluster" data-qualified-name="kiwi-mvc.nNode.js . Express.Backend MVC" data-source-line="15" id="ent0008"><rect fill="none" height="484" rx="2.5" ry="2.5" style="stroke:#181818;stroke-width:1;" width="247" x="43" y="490.1094"/><path d="M146.3584,490.1094 L146.3584,500.7188 L136.3584,510.7188 L43,510.7188" fill="none" style="stroke:#181818;stroke-width:1;"/><text fill="#000000" font-family="sans-serif" font-size="14" font-weight="bold" lengthAdjust="spacing" textLength="93.3584" x="46" y="505.6426">Backend MVC</text></g><!--cluster Agent_ApiKiwi\nFastAPI + Google ADK--><g class="cluster" data-qualified-name="Agent_ApiKiwi.nFastAPI . Google ADK" data-source-line="26" id="ent0015"><rect fill="none" height="538" rx="2.5" ry="2.5" style="stroke:#181818;stroke-width:1;" width="379" x="338" y="856.1094"/><path d="M498.5205,856.1094 L498.5205,884.3281 L488.5205,894.3281 L338,894.3281" fill="none" style="stroke:#181818;stroke-width:1;"/><text fill="#000000" font-family="sans-serif" font-size="14" font-weight="bold" lengthAdjust="spacing" textLength="98.7793" x="366.8706" y="871.6426">Agent_ApiKiwi</text><text fill="#000000" font-family="sans-serif" font-size="14" font-weight="bold" lengthAdjust="spacing" textLength="150.5205" x="341" y="889.252">FastAPI + Google ADK</text></g><!--entity IndexHtml--><g class="entity" data-qualified-name="kiwi-mvc.nNode.js . Express.Vista SPA.IndexHtml" data-source-line="10" id="ent0005"><rect fill="#F1F1F1" height="47.6094" rx="2.5" ry="2.5" style="stroke:#181818;stroke-width:0.5;" width="103.8066" x="170" y="267.1094"/><rect fill="#F1F1F1" height="10" style="stroke:#181818;stroke-width:0.5;" width="15" x="253.8066" y="272.1094"/><rect fill="#F1F1F1" height="2" style="stroke:#181818;stroke-width:0.5;" width="4" x="251.8066" y="274.1094"/><rect fill="#F1F1F1" height="2" style="stroke:#181818;stroke-width:0.5;" width="4" x="251.8066" y="278.1094"/><text fill="#000000" font-family="sans-serif" font-size="14" lengthAdjust="spacing" textLength="63.8066" x="185" y="301.6426">index.html</text></g><!--entity AppJs--><g class="entity" data-qualified-name="kiwi-mvc.nNode.js . Express.Vista SPA.AppJs" data-source-line="11" id="ent0006"><rect fill="#F1F1F1" height="47.6094" rx="2.5" ry="2.5" style="stroke:#181818;stroke-width:0.5;" width="77.3584" x="168.5" y="376.1094"/><rect fill="#F1F1F1" height="10" style="stroke:#181818;stroke-width:0.5;" width="15" x="225.8584" y="381.1094"/><rect fill="#F1F1F1" height="2" style="stroke:#181818;stroke-width:0.5;" width="4" x="223.8584" y="383.1094"/><rect fill="#F1F1F1" height="2" style="stroke:#181818;stroke-width:0.5;" width="4" x="223.8584" y="387.1094"/><text fill="#000000" font-family="sans-serif" font-size="14" lengthAdjust="spacing" textLength="37.3584" x="183.5" y="410.6426">app.js</text></g><!--entity AppCss--><g class="entity" data-qualified-name="kiwi-mvc.nNode.js . Express.Vista SPA.AppCss" data-source-line="12" id="ent0007"><rect fill="#F1F1F1" height="47.6094" rx="2.5" ry="2.5" style="stroke:#181818;stroke-width:0.5;" width="88.248" x="47" y="267.1094"/><rect fill="#F1F1F1" height="10" style="stroke:#181818;stroke-width:0.5;" width="15" x="115.248" y="272.1094"/><rect fill="#F1F1F1" height="2" style="stroke:#181818;stroke-width:0.5;" width="4" x="113.248" y="274.1094"/><rect fill="#F1F1F1" height="2" style="stroke:#181818;stroke-width:0.5;" width="4" x="113.248" y="278.1094"/><text fill="#000000" font-family="sans-serif" font-size="14" lengthAdjust="spacing" textLength="48.248" x="62" y="301.6426">app.css</text></g><!--entity Routes--><g class="entity" data-qualified-name="kiwi-mvc.nNode.js . Express.Backend MVC.Routes" data-source-line="16" id="ent0009"><rect fill="#F1F1F1" height="47.6094" rx="2.5" ry="2.5" style="stroke:#181818;stroke-width:0.5;" width="84.3584" x="153" y="526.1094"/><rect fill="#F1F1F1" height="10" style="stroke:#181818;stroke-width:0.5;" width="15" x="217.3584" y="531.1094"/><rect fill="#F1F1F1" height="2" style="stroke:#181818;stroke-width:0.5;" width="4" x="215.3584" y="533.1094"/><rect fill="#F1F1F1" height="2" style="stroke:#181818;stroke-width:0.5;" width="4" x="215.3584" y="537.1094"/><text fill="#000000" font-family="sans-serif" font-size="14" lengthAdjust="spacing" textLength="44.3584" x="168" y="560.6426">Routes</text></g><!--entity AuthMiddleware--><g class="entity" data-qualified-name="kiwi-mvc.nNode.js . Express.Backend MVC.AuthMiddleware" data-source-line="17" id="ent0010"><rect fill="#F1F1F1" height="47.6094" rx="2.5" ry="2.5" style="stroke:#181818;stroke-width:0.5;" width="140.3857" x="132" y="635.1094"/><rect fill="#F1F1F1" height="10" style="stroke:#181818;stroke-width:0.5;" width="15" x="252.3857" y="640.1094"/><rect fill="#F1F1F1" height="2" style="stroke:#181818;stroke-width:0.5;" width="4" x="250.3857" y="642.1094"/><rect fill="#F1F1F1" height="2" style="stroke:#181818;stroke-width:0.5;" width="4" x="250.3857" y="646.1094"/><text fill="#000000" font-family="sans-serif" font-size="14" lengthAdjust="spacing" textLength="100.3857" x="147" y="669.6426">AuthMiddleware</text></g><!--entity Controllers--><g class="entity" data-qualified-name="kiwi-mvc.nNode.js . Express.Backend MVC.Controllers" data-source-line="18" id="ent0011"><rect fill="#F1F1F1" height="47.6094" rx="2.5" ry="2.5" style="stroke:#181818;stroke-width:0.5;" width="107.6895" x="163" y="744.1094"/><rect fill="#F1F1F1" height="10" style="stroke:#181818;stroke-width:0.5;" width="15" x="250.6895" y="749.1094"/><rect fill="#F1F1F1" height="2" style="stroke:#181818;stroke-width:0.5;" width="4" x="248.6895" y="751.1094"/><rect fill="#F1F1F1" height="2" style="stroke:#181818;stroke-width:0.5;" width="4" x="248.6895" y="755.1094"/><text fill="#000000" font-family="sans-serif" font-size="14" lengthAdjust="spacing" textLength="67.6895" x="178" y="778.6426">Controllers</text></g><!--entity Services--><g class="entity" data-qualified-name="kiwi-mvc.nNode.js . Express.Backend MVC.Services" data-source-line="19" id="ent0012"><rect fill="#F1F1F1" height="47.6094" rx="2.5" ry="2.5" style="stroke:#181818;stroke-width:0.5;" width="93.6826" x="59" y="910.1094"/><rect fill="#F1F1F1" height="10" style="stroke:#181818;stroke-width:0.5;" width="15" x="132.6826" y="915.1094"/><rect fill="#F1F1F1" height="2" style="stroke:#181818;stroke-width:0.5;" width="4" x="130.6826" y="917.1094"/><rect fill="#F1F1F1" height="2" style="stroke:#181818;stroke-width:0.5;" width="4" x="130.6826" y="921.1094"/><text fill="#000000" font-family="sans-serif" font-size="14" lengthAdjust="spacing" textLength="53.6826" x="74" y="944.6426">Services</text></g><!--entity Models--><g class="entity" data-qualified-name="kiwi-mvc.nNode.js . Express.Backend MVC.Models" data-source-line="20" id="ent0013"><rect fill="#F1F1F1" height="47.6094" rx="2.5" ry="2.5" style="stroke:#181818;stroke-width:0.5;" width="85.1309" x="188.5" y="910.1094"/><rect fill="#F1F1F1" height="10" style="stroke:#181818;stroke-width:0.5;" width="15" x="253.6309" y="915.1094"/><rect fill="#F1F1F1" height="2" style="stroke:#181818;stroke-width:0.5;" width="4" x="251.6309" y="917.1094"/><rect fill="#F1F1F1" height="2" style="stroke:#181818;stroke-width:0.5;" width="4" x="251.6309" y="921.1094"/><text fill="#000000" font-family="sans-serif" font-size="14" lengthAdjust="spacing" textLength="45.1309" x="203.5" y="944.6426">Models</text></g><!--entity HandoffEndpoint--><g class="entity" data-qualified-name="Agent_ApiKiwi.nFastAPI . Google ADK.HandoffEndpoint" data-source-line="27" id="ent0016"><rect fill="#F1F1F1" height="47.6094" rx="2.5" ry="2.5" style="stroke:#181818;stroke-width:0.5;" width="144.3027" x="557" y="910.1094"/><rect fill="#F1F1F1" height="10" style="stroke:#181818;stroke-width:0.5;" width="15" x="681.3027" y="915.1094"/><rect fill="#F1F1F1" height="2" style="stroke:#181818;stroke-width:0.5;" width="4" x="679.3027" y="917.1094"/><rect fill="#F1F1F1" height="2" style="stroke:#181818;stroke-width:0.5;" width="4" x="679.3027" y="921.1094"/><text fill="#000000" font-family="sans-serif" font-size="14" lengthAdjust="spacing" textLength="104.3027" x="572" y="944.6426">HandoffEndpoint</text></g><!--entity KiwiOrchestrator--><g class="entity" data-qualified-name="Agent_ApiKiwi.nFastAPI . Google ADK.KiwiOrchestrator" data-source-line="28" id="ent0017"><rect fill="#F1F1F1" height="47.6094" rx="2.5" ry="2.5" style="stroke:#181818;stroke-width:0.5;" width="143.4688" x="550.5" y="1070.6094"/><rect fill="#F1F1F1" height="10" style="stroke:#181818;stroke-width:0.5;" width="15" x="673.9688" y="1075.6094"/><rect fill="#F1F1F1" height="2" style="stroke:#181818;stroke-width:0.5;" width="4" x="671.9688" y="1077.6094"/><rect fill="#F1F1F1" height="2" style="stroke:#181818;stroke-width:0.5;" width="4" x="671.9688" y="1081.6094"/><text fill="#000000" font-family="sans-serif" font-size="14" lengthAdjust="spacing" textLength="103.4688" x="565.5" y="1105.1426">KiwiOrchestrator</text></g><!--entity DraftPipelineAgent--><g class="entity" data-qualified-name="Agent_ApiKiwi.nFastAPI . Google ADK.DraftPipelineAgent" data-source-line="29" id="ent0018"><rect fill="#F1F1F1" height="47.6094" rx="2.5" ry="2.5" style="stroke:#181818;stroke-width:0.5;" width="156.7373" x="406.5" y="1213.1094"/><rect fill="#F1F1F1" height="10" style="stroke:#181818;stroke-width:0.5;" width="15" x="543.2373" y="1218.1094"/><rect fill="#F1F1F1" height="2" style="stroke:#181818;stroke-width:0.5;" width="4" x="541.2373" y="1220.1094"/><rect fill="#F1F1F1" height="2" style="stroke:#181818;stroke-width:0.5;" width="4" x="541.2373" y="1224.1094"/><text fill="#000000" font-family="sans-serif" font-size="14" lengthAdjust="spacing" textLength="116.7373" x="421.5" y="1247.6426">DraftPipelineAgent</text></g><!--entity ExtractUcRfAgent--><g class="entity" data-qualified-name="Agent_ApiKiwi.nFastAPI . Google ADK.ExtractUcRfAgent" data-source-line="30" id="ent0019"><rect fill="#F1F1F1" height="47.6094" rx="2.5" ry="2.5" style="stroke:#181818;stroke-width:0.5;" width="151.2617" x="358.5" y="1330.1094"/><rect fill="#F1F1F1" height="10" style="stroke:#181818;stroke-width:0.5;" width="15" x="489.7617" y="1335.1094"/><rect fill="#F1F1F1" height="2" style="stroke:#181818;stroke-width:0.5;" width="4" x="487.7617" y="1337.1094"/><rect fill="#F1F1F1" height="2" style="stroke:#181818;stroke-width:0.5;" width="4" x="487.7617" y="1341.1094"/><text fill="#000000" font-family="sans-serif" font-size="14" lengthAdjust="spacing" textLength="111.2617" x="373.5" y="1364.6426">ExtractUcRfAgent</text></g><!--entity KiwiGherkinAgent--><g class="entity" data-qualified-name="Agent_ApiKiwi.nFastAPI . Google ADK.KiwiGherkinAgent" data-source-line="31" id="ent0020"><rect fill="#F1F1F1" height="47.6094" rx="2.5" ry="2.5" style="stroke:#181818;stroke-width:0.5;" width="151.2754" x="544.5" y="1330.1094"/><rect fill="#F1F1F1" height="10" style="stroke:#181818;stroke-width:0.5;" width="15" x="675.7754" y="1335.1094"/><rect fill="#F1F1F1" height="2" style="stroke:#181818;stroke-width:0.5;" width="4" x="673.7754" y="1337.1094"/><rect fill="#F1F1F1" height="2" style="stroke:#181818;stroke-width:0.5;" width="4" x="673.7754" y="1341.1094"/><text fill="#000000" font-family="sans-serif" font-size="14" lengthAdjust="spacing" textLength="111.2754" x="559.5" y="1364.6426">KiwiGherkinAgent</text></g><!--entity ReviewPublishAgent--><g class="entity" data-qualified-name="Agent_ApiKiwi.nFastAPI . Google ADK.ReviewPublishAgent" data-source-line="32" id="ent0021"><rect fill="#F1F1F1" height="47.6094" rx="2.5" ry="2.5" style="stroke:#181818;stroke-width:0.5;" width="168.4063" x="354" y="910.1094"/><rect fill="#F1F1F1" height="10" style="stroke:#181818;stroke-width:0.5;" width="15" x="502.4063" y="915.1094"/><rect fill="#F1F1F1" height="2" style="stroke:#181818;stroke-width:0.5;" width="4" x="500.4063" y="917.1094"/><rect fill="#F1F1F1" height="2" style="stroke:#181818;stroke-width:0.5;" width="4" x="500.4063" y="921.1094"/><text fill="#000000" font-family="sans-serif" font-size="14" lengthAdjust="spacing" textLength="128.4063" x="369" y="944.6426">ReviewPublishAgent</text></g><!--entity DraftStoreJSON--><g class="entity" data-qualified-name="Agent_ApiKiwi.nFastAPI . Google ADK.DraftStoreJSON" data-source-line="33" id="ent0022"><rect fill="#F1F1F1" height="47.6094" rx="2.5" ry="2.5" style="stroke:#181818;stroke-width:0.5;" width="141.1377" x="367.5" y="1070.6094"/><rect fill="#F1F1F1" height="10" style="stroke:#181818;stroke-width:0.5;" width="15" x="488.6377" y="1075.6094"/><rect fill="#F1F1F1" height="2" style="stroke:#181818;stroke-width:0.5;" width="4" x="486.6377" y="1077.6094"/><rect fill="#F1F1F1" height="2" style="stroke:#181818;stroke-width:0.5;" width="4" x="486.6377" y="1081.6094"/><text fill="#000000" font-family="sans-serif" font-size="14" lengthAdjust="spacing" textLength="101.1377" x="382.5" y="1105.1426">DraftStoreJSON</text></g><!--entity SQLite--><g class="entity" data-qualified-name="Agent_ApiKiwi.nFastAPI . Google ADK.SQLite" data-source-line="34" id="ent0023"><path d="M599,1215.1094 C599,1205.1094 645.9653,1205.1094 645.9653,1205.1094 C645.9653,1205.1094 692.9307,1205.1094 692.9307,1215.1094 L692.9307,1259.3281 C692.9307,1269.3281 645.9653,1269.3281 645.9653,1269.3281 C645.9653,1269.3281 599,1269.3281 599,1259.3281 L599,1215.1094" fill="#F1F1F1" style="stroke:#181818;stroke-width:0.5;"/><path d="M599,1215.1094 C599,1225.1094 645.9653,1225.1094 645.9653,1225.1094 C645.9653,1225.1094 692.9307,1225.1094 692.9307,1215.1094" fill="none" style="stroke:#181818;stroke-width:0.5;"/><text fill="#000000" font-family="sans-serif" font-size="14" lengthAdjust="spacing" textLength="42.7998" x="609" y="1243.6426">SQLite</text><text fill="#000000" font-family="sans-serif" font-size="14" lengthAdjust="spacing" textLength="73.9307" x="609" y="1261.252">sessions.db</text></g><!--entity Usuario--><g class="entity" data-qualified-name="Usuario" data-source-line="6" id="ent0002"><ellipse cx="222.1206" cy="52.6094" fill="#F1F1F1" rx="8" ry="8" style="stroke:#181818;stroke-width:0.5;"/><path d="M222.1206,60.6094 L222.1206,87.6094 M209.1206,68.6094 L235.1206,68.6094 M222.1206,87.6094 L209.1206,102.6094 M222.1206,87.6094 L235.1206,102.6094" fill="none" style="stroke:#181818;stroke-width:0.5;"/><text fill="#000000" font-family="sans-serif" font-size="14" lengthAdjust="spacing" textLength="48.2412" x="198" y="118.6426">Usuario</text></g><!--entity MongoDB--><g class="entity" data-qualified-name="MongoDB" data-source-line="24" id="ent0014"><path d="M189,1215.1094 C189,1205.1094 254.2412,1205.1094 254.2412,1205.1094 C254.2412,1205.1094 319.4824,1205.1094 319.4824,1215.1094 L319.4824,1259.3281 C319.4824,1269.3281 254.2412,1269.3281 254.2412,1269.3281 C254.2412,1269.3281 189,1269.3281 189,1259.3281 L189,1215.1094" fill="#F1F1F1" style="stroke:#181818;stroke-width:0.5;"/><path d="M189,1215.1094 C189,1225.1094 254.2412,1225.1094 254.2412,1225.1094 C254.2412,1225.1094 319.4824,1225.1094 319.4824,1215.1094" fill="none" style="stroke:#181818;stroke-width:0.5;"/><text fill="#000000" font-family="sans-serif" font-size="14" lengthAdjust="spacing" textLength="62.2549" x="199" y="1243.6426">MongoDB</text><text fill="#000000" font-family="sans-serif" font-size="14" lengthAdjust="spacing" textLength="110.4824" x="199" y="1261.252">kiwi_mvc_manual</text></g><!--entity LLM--><g class="entity" data-qualified-name="LLM" data-source-line="37" id="ent0024"><path d="M464.984,1450.8773 C467.5476,1444.2783 472.9098,1443.0334 477.4597,1448.8874 C481.4227,1441.9862 485.2547,1443.1241 489.8303,1448.2576 C493.67,1442.7479 497.7714,1441.2908 502.458,1447.3318 C506.2826,1441.1495 511.0079,1441.0539 515.2003,1446.9436 C517.2358,1441.4855 522.2955,1440.8769 526.0648,1444.9717 C530.3229,1439.4743 536.0167,1440.4777 538.3612,1446.9392 C543.1701,1440.1496 547.9509,1439.7797 552.2069,1447.468 C556.2785,1441.4836 560.23,1443.0493 563.8978,1447.9037 C567.7213,1442.3303 572.811,1443.6278 575.8361,1448.7913 C580.0577,1443.3443 585.6788,1442.656 588.8764,1449.8479 C598.5865,1451.3817 602.2508,1457.106 596.0761,1465.8064 C601.9632,1474.3821 597.8274,1480.2595 588.7332,1482.0724 C585.2295,1489.441 579.6263,1488.421 575.554,1482.6424 C572.5061,1488.2479 566.8133,1489.2623 563.2616,1483.1719 C559.1554,1488.8837 554.3941,1488.483 550.5925,1482.8324 C547.7183,1488.4622 542.1099,1488.9882 538.7835,1483.3044 C535.7764,1489.1338 530.8375,1488.8659 527.0198,1484.2141 C522.0321,1489.9435 518.069,1489.2267 513.7283,1483.4656 C510.5595,1489.674 505.299,1489.565 502.3367,1483.2774 C498.0126,1488.9231 493.447,1490.2094 489.3838,1483.0141 C486.4883,1487.7018 481.5295,1488.5701 478.6662,1482.9806 C474.6734,1488.3691 468.8832,1486.3463 466.6372,1481.0196 C456.4822,1481.954 453.7997,1475.2982 456.3499,1466.9457 C452.261,1458.5658 454.5717,1451.4652 464.984,1450.8773" fill="#F1F1F1" style="stroke:#181818;stroke-width:0.5;"/><text fill="#000000" font-family="sans-serif" font-size="14" lengthAdjust="spacing" textLength="108.9512" x="471.5" y="1470.6426">OpenAI / LiteLLM</text></g><!--entity Kiwi--><g class="entity" data-qualified-name="Kiwi" data-source-line="38" id="ent0025"><path d="M57.4578,1070.9607 C60.1134,1064.6397 64.3945,1062.5345 69.9083,1067.9213 C73.4045,1061.7315 79.0051,1061.139 83.6848,1066.5112 C86.8183,1060.85 90.8617,1059.9759 95.4109,1064.9503 C97.753,1056.7844 102.4199,1055.0754 109.1679,1060.4857 C114.1449,1054.7843 120.4943,1055.6717 122.2964,1063.5541 C127.9552,1059.0411 132.7704,1060.3488 135.3356,1067.1268 C139.598,1062.1465 145.9498,1062.0809 148.1389,1069.3024 C153.2278,1063.7489 157.0705,1064.3957 160.0883,1071.2905 C167.0886,1072.0881 169.5987,1076.6773 165.5375,1082.7395 C173.7444,1085.548 173.1903,1090.5577 168.7971,1096.3777 C173.803,1101.4782 173.1384,1106.5011 166.1479,1109.1043 C169.2415,1114.1466 167.2735,1118.2414 161.6151,1119.4486 C158.8118,1125.7823 153.7075,1128.2163 148.4186,1122.0788 C144.98,1129.2584 138.0562,1129.5171 134.3615,1122.3295 C130.9463,1127.352 125.961,1127.3278 123.1091,1121.7326 C120.4773,1129.5893 113.5684,1130.3374 109.0968,1123.4853 C104.2953,1128.839 100.0754,1130.3286 95.598,1123.1366 C91.7513,1129.0854 85.3925,1128.1362 82.7137,1121.9015 C78.1373,1127.6527 73.9694,1125.8128 70.6556,1120.5227 C66.9464,1127.9881 61.0528,1127.382 56.8585,1121.0062 C50.0876,1117.3055 49.9358,1112.5982 55.6231,1107.7375 C48.0275,1106.1533 46.8974,1099.9571 52.438,1095.0699 C47.462,1090.3049 48.1735,1087.0773 54.427,1084.4068 C47.9803,1078.9882 51.0818,1073.4891 57.4578,1070.9607" fill="#F1F1F1" style="stroke:#181818;stroke-width:0.5;"/><text fill="#000000" font-family="sans-serif" font-size="14" lengthAdjust="spacing" textLength="69.2207" x="63.5" y="1091.6426">Kiwi TCMS</text><text fill="#000000" font-family="sans-serif" font-size="14" lengthAdjust="spacing" textLength="89.4619" x="63.5" y="1109.252">XML-RPC API</text></g><!--entity MariaDB--><g class="entity" data-qualified-name="MariaDB" data-source-line="39" id="ent0026"><path d="M63.5,1215.1094 C63.5,1205.1094 108.1104,1205.1094 108.1104,1205.1094 C108.1104,1205.1094 152.7207,1205.1094 152.7207,1215.1094 L152.7207,1259.3281 C152.7207,1269.3281 108.1104,1269.3281 108.1104,1269.3281 C108.1104,1269.3281 63.5,1269.3281 63.5,1259.3281 L63.5,1215.1094" fill="#F1F1F1" style="stroke:#181818;stroke-width:0.5;"/><path d="M63.5,1215.1094 C63.5,1225.1094 108.1104,1225.1094 108.1104,1225.1094 C108.1104,1225.1094 152.7207,1225.1094 152.7207,1215.1094" fill="none" style="stroke:#181818;stroke-width:0.5;"/><text fill="#000000" font-family="sans-serif" font-size="14" lengthAdjust="spacing" textLength="54.4551" x="73.5" y="1243.6426">MariaDB</text><text fill="#000000" font-family="sans-serif" font-size="14" lengthAdjust="spacing" textLength="69.2207" x="73.5" y="1261.252">Kiwi TCMS</text></g><!--link Usuario to IndexHtml--><g class="link" data-entity-1="ent0002" data-entity-2="ent0005" data-link-type="dependency" data-source-line="41" id="lnk27"><path d="M222,122.3694 C222,164.8394 222,226.0094 222,261.0694" fill="none" id="Usuario-to-IndexHtml" style="stroke:#181818;stroke-width:1;"/><polygon fill="#181818" points="222,267.0694,226,258.0694,222,262.0694,218,258.0694,222,267.0694" style="stroke:#181818;stroke-width:1;"/></g><!--link IndexHtml to AppJs--><g class="link" data-entity-1="ent0005" data-entity-2="ent0006" data-link-type="dependency" data-source-line="42" id="lnk28"><path d="M218.75,315.3294 C216.23,333.2694 213.5914,352.0573 211.0814,369.9973" fill="none" id="IndexHtml-to-AppJs" style="stroke:#181818;stroke-width:1;"/><polygon fill="#181818" points="210.25,375.9394,215.4585,367.5804,210.9428,370.9876,207.5356,366.4719,210.25,375.9394" style="stroke:#181818;stroke-width:1;"/></g><!--link AppJs to Routes--><g class="link" data-entity-1="ent0006" data-entity-2="ent0009" data-link-type="dependency" data-source-line="43" id="lnk29"><path d="M205.12,424.2294 C202.88,451.8794 199.6342,491.8889 197.3842,519.6789" fill="none" id="AppJs-to-Routes" style="stroke:#181818;stroke-width:1;"/><polygon fill="#181818" points="196.9,525.6594,201.6133,517.0115,197.3035,520.6757,193.6393,516.3659,196.9,525.6594" style="stroke:#181818;stroke-width:1;"/><text fill="#000000" font-family="sans-serif" font-size="13" lengthAdjust="spacing" textLength="104.749" x="203" y="470.6045">fetch REST JSON</text></g><!--link Routes to AuthMiddleware--><g class="link" data-entity-1="ent0009" data-entity-2="ent0010" data-link-type="dependency" data-source-line="45" id="lnk30"><path d="M196.52,574.3294 C197.69,592.2694 198.9195,611.0121 200.0895,628.9521" fill="none" id="Routes-to-AuthMiddleware" style="stroke:#181818;stroke-width:1;"/><polygon fill="#181818" points="200.48,634.9394,203.8858,625.6981,200.1546,629.95,195.9028,626.2188,200.48,634.9394" style="stroke:#181818;stroke-width:1;"/></g><!--link AuthMiddleware to Controllers--><g class="link" data-entity-1="ent0010" data-entity-2="ent0011" data-link-type="dependency" data-source-line="46" id="lnk31"><path d="M205.25,683.3294 C207.77,701.2694 210.4086,720.0573 212.9186,737.9973" fill="none" id="AuthMiddleware-to-Controllers" style="stroke:#181818;stroke-width:1;"/><polygon fill="#181818" points="213.75,743.9394,216.4644,734.4719,213.0572,738.9876,208.5415,735.5804,213.75,743.9394" style="stroke:#181818;stroke-width:1;"/></g><!--link Controllers to Services--><g class="link" data-entity-1="ent0011" data-entity-2="ent0012" data-link-type="dependency" data-source-line="47" id="lnk32"><path d="M201.33,792.2594 C180.18,823.5194 146.0623,873.91 124.9523,905.11" fill="none" id="Controllers-to-Services" style="stroke:#181818;stroke-width:1;"/><polygon fill="#181818" points="121.59,910.0794,129.9464,904.8668,124.3919,905.9382,123.3205,900.3837,121.59,910.0794" style="stroke:#181818;stroke-width:1;"/></g><!--link Controllers to Models--><g class="link" data-entity-1="ent0011" data-entity-2="ent0013" data-link-type="dependency" data-source-line="48" id="lnk33"><path d="M218.98,792.2594 C221.64,823.5194 225.8603,872.9011 228.5203,904.1011" fill="none" id="Controllers-to-Models" style="stroke:#181818;stroke-width:1;"/><polygon fill="#181818" points="229.03,910.0794,232.251,900.7721,228.6053,905.0974,224.2799,901.4517,229.03,910.0794" style="stroke:#181818;stroke-width:1;"/></g><!--link Models to MongoDB--><g class="link" data-entity-1="ent0013" data-entity-2="ent0014" data-link-type="dependency" data-source-line="49" id="lnk34"><path d="M232.77,958.2294 C236.86,1011.7794 246.5331,1138.3768 251.1631,1198.9968" fill="none" id="Models-to-MongoDB" style="stroke:#181818;stroke-width:1;"/><polygon fill="#181818" points="251.62,1204.9794,254.923,1195.7009,251.2392,1199.9939,246.9462,1196.3101,251.62,1204.9794" style="stroke:#181818;stroke-width:1;"/></g><!--link Controllers to HandoffEndpoint--><g class="link" data-entity-1="ent0011" data-entity-2="ent0016" data-link-type="dependency" data-source-line="51" id="lnk35"><path d="M271.25,773.7394 C338.05,781.3094 453.3,800.6094 540,848.1094 C568.3,863.6094 590.2922,885.8294 606.7622,905.1894" fill="none" id="Controllers-to-HandoffEndpoint" style="stroke:#181818;stroke-width:1;"/><polygon fill="#181818" points="610.65,909.7594,607.865,900.3125,607.4102,905.951,601.7716,905.4962,610.65,909.7594" style="stroke:#181818;stroke-width:1;"/><text fill="#000000" font-family="sans-serif" font-size="13" lengthAdjust="spacing" textLength="110.5762" x="525" y="836.6045">handoff autom&#225;tico</text></g><!--link HandoffEndpoint to KiwiOrchestrator--><g class="link" data-entity-1="ent0016" data-entity-2="ent0017" data-link-type="dependency" data-source-line="52" id="lnk36"><path d="M627.98,958.1594 C626.65,988.2094 624.6152,1034.4752 623.2852,1064.5352" fill="none" id="HandoffEndpoint-to-KiwiOrchestrator" style="stroke:#181818;stroke-width:1;"/><polygon fill="#181818" points="623.02,1070.5294,627.4139,1061.715,623.241,1065.5343,619.4217,1061.3614,623.02,1070.5294" style="stroke:#181818;stroke-width:1;"/></g><!--link KiwiOrchestrator to MongoDB--><g class="link" data-entity-1="ent0017" data-entity-2="ent0014" data-link-type="dependency" data-source-line="53" id="lnk37"><path d="M553.16,1118.6194 C544.05,1121.5394 534.81,1124.4394 526,1127.1094 C478.32,1141.5494 464.63,1139.5594 418,1157.1094 C381.91,1170.6894 348.3263,1186.546 317.4463,1202.276" fill="none" id="KiwiOrchestrator-to-MongoDB" style="stroke:#181818;stroke-width:1;"/><polygon fill="#181818" points="312.1,1204.9994,321.9351,1204.4785,316.5553,1202.7299,318.3039,1197.3501,312.1,1204.9994" style="stroke:#181818;stroke-width:1;"/><text fill="#000000" font-family="sans-serif" font-size="13" lengthAdjust="spacing" textLength="117.0698" x="419" y="1171.6045">leer documentations</text></g><!--link KiwiOrchestrator to DraftPipelineAgent--><g class="link" data-entity-1="ent0017" data-entity-2="ent0018" data-link-type="dependency" data-source-line="54" id="lnk38"><path d="M599.38,1118.8094 C573.99,1144.8394 537.2387,1182.5335 511.8487,1208.5735" fill="none" id="KiwiOrchestrator-to-DraftPipelineAgent" style="stroke:#181818;stroke-width:1;"/><polygon fill="#181818" points="507.66,1212.8694,516.807,1209.218,511.1506,1209.2894,511.0791,1203.633,507.66,1212.8694" style="stroke:#181818;stroke-width:1;"/></g><!--link DraftPipelineAgent to ExtractUcRfAgent--><g class="link" data-entity-1="ent0018" data-entity-2="ent0019" data-link-type="dependency" data-source-line="55" id="lnk39"><path d="M474.68,1261.3794 C465.83,1281.3294 455.5817,1304.4442 446.7417,1324.3842" fill="none" id="DraftPipelineAgent-to-ExtractUcRfAgent" style="stroke:#181818;stroke-width:1;"/><polygon fill="#181818" points="444.31,1329.8694,451.6143,1323.2628,446.3364,1325.2984,444.3008,1320.0205,444.31,1329.8694" style="stroke:#181818;stroke-width:1;"/></g><!--link DraftPipelineAgent to KiwiGherkinAgent--><g class="link" data-entity-1="ent0018" data-entity-2="ent0020" data-link-type="dependency" data-source-line="56" id="lnk40"><path d="M512.32,1261.3794 C535.74,1281.3294 564.7424,1306.0388 588.1524,1325.9788" fill="none" id="DraftPipelineAgent-to-KiwiGherkinAgent" style="stroke:#181818;stroke-width:1;"/><polygon fill="#181818" points="592.72,1329.8694,588.4623,1320.9884,588.9136,1326.6272,583.2748,1327.0786,592.72,1329.8694" style="stroke:#181818;stroke-width:1;"/></g><!--link ExtractUcRfAgent to LLM--><g class="link" data-entity-1="ent0019" data-entity-2="ent0024" data-link-type="dependency" data-source-line="57" id="lnk41"><path d="M453.51,1378.2294 C469.12,1396.7194 487.0395,1417.9547 502.6495,1436.4447" fill="none" id="ExtractUcRfAgent-to-LLM" style="stroke:#181818;stroke-width:1;"/><polygon fill="#181818" points="506.52,1441.0294,503.7706,1431.5721,503.2946,1437.2088,497.6578,1436.7328,506.52,1441.0294" style="stroke:#181818;stroke-width:1;"/></g><!--link KiwiGherkinAgent to LLM--><g class="link" data-entity-1="ent0020" data-entity-2="ent0024" data-link-type="dependency" data-source-line="58" id="lnk42"><path d="M600.07,1378.2294 C584.11,1396.7194 565.7677,1417.995 549.8277,1436.485" fill="none" id="KiwiGherkinAgent-to-LLM" style="stroke:#181818;stroke-width:1;"/><polygon fill="#181818" points="545.91,1441.0294,554.8161,1436.8245,549.1747,1437.2424,548.7569,1431.601,545.91,1441.0294" style="stroke:#181818;stroke-width:1;"/></g><!--link ReviewPublishAgent to DraftStoreJSON--><g class="link" data-entity-1="ent0021" data-entity-2="ent0022" data-link-type="dependency" data-source-line="59" id="lnk43"><path d="M438,958.1594 C438,988.2094 438,1034.4694 438,1064.5294" fill="none" id="ReviewPublishAgent-to-DraftStoreJSON" style="stroke:#181818;stroke-width:1;"/><polygon fill="#181818" points="438,1070.5294,442,1061.5294,438,1065.5294,434,1061.5294,438,1070.5294" style="stroke:#181818;stroke-width:1;"/></g><!--link KiwiOrchestrator to SQLite--><g class="link" data-entity-1="ent0017" data-entity-2="ent0023" data-link-type="dependency" data-source-line="60" id="lnk44"><path d="M625.96,1118.8094 C629.98,1142.3494 635.2197,1173.015 639.6697,1199.065" fill="none" id="KiwiOrchestrator-to-SQLite" style="stroke:#181818;stroke-width:1;"/><polygon fill="#181818" points="640.68,1204.9794,643.1074,1195.4343,639.8381,1200.0508,635.2216,1196.7814,640.68,1204.9794" style="stroke:#181818;stroke-width:1;"/></g><!--link Services to Kiwi--><g class="link" data-entity-1="ent0012" data-entity-2="ent0025" data-link-type="dependency" data-source-line="62" id="lnk45"><path d="M106.29,958.1594 C106.64,985.5494 107.1337,1025.3899 107.5237,1056.0499" fill="none" id="Services-to-Kiwi" style="stroke:#181818;stroke-width:1;"/><polygon fill="#181818" points="107.6,1062.0494,111.4852,1052.9992,107.5364,1057.0498,103.4859,1053.101,107.6,1062.0494" style="stroke:#181818;stroke-width:1;"/><text fill="#000000" font-family="sans-serif" font-size="13" lengthAdjust="spacing" textLength="91.7744" x="108" y="1028.6045">publicar manual</text></g><!--link ReviewPublishAgent to Kiwi--><g class="link" data-entity-1="ent0021" data-entity-2="ent0025" data-link-type="dependency" data-source-line="63" id="lnk46"><path d="M390.02,958.1594 C331.2,986.3994 236.9386,1031.682 173.1986,1062.292" fill="none" id="ReviewPublishAgent-to-Kiwi" style="stroke:#181818;stroke-width:1;"/><polygon fill="#181818" points="167.79,1064.8894,177.6346,1064.599,172.2972,1062.7249,174.1714,1057.3875,167.79,1064.8894" style="stroke:#181818;stroke-width:1;"/><text fill="#000000" font-family="sans-serif" font-size="13" lengthAdjust="spacing" textLength="112.728" x="274" y="1028.6045">publicar autom&#225;tico</text></g><!--link Kiwi to MariaDB--><g class="link" data-entity-1="ent0025" data-entity-2="ent0026" data-link-type="dependency" data-source-line="64" id="lnk47"><path d="M108,1127.1394 C108,1150.2794 108,1175.5694 108,1198.6794" fill="none" id="Kiwi-to-MariaDB" style="stroke:#181818;stroke-width:1;"/><polygon fill="#181818" points="108,1204.6794,112,1195.6794,108,1199.6794,104,1195.6794,108,1204.6794" style="stroke:#181818;stroke-width:1;"/></g><?plantuml-src TLJBRjim4BppAnQ-5axlFHHGR3SlAt6j9EZ1GB2XLXORYXH8AavHz6FwBVsnafGYsv9piSITsGTdHxOlGjLei88Q-GjkANE_984Xxb1j9J7R4so9kTu9jOK2fIN6d72UEXUuzJ32bXGPb92J12kiemePG-wqWGVRe16QiS8p2IOlOYUcrIlVg5kTqzbF2vzWyLORidO2lnb0ntlqPH2oLT960RYkQgr8EPW8bTFRMUagEG6qS1MEb_uqv65T-mQHazJrjJs5SziJPZOm_h3z4ETU658vf8-pyHXhtJWQramQLwOYpoNjqD00d6dbZ9QIp30j8_Cg-AXQwYMIxL1-h1mTFgFrSwLQRVNyVAE2cazUpQSALOEj71tOAvxuxRYdf1OtdhnHtz2wP7NbPR_GsgyPalbDUxbztqjKkIwAXSfhBPGxmaALEyDBiiwWt_0HE3TOk9MeIGf5iV4Hl7ZpETmzy7Kn1aFXYvACTzqONDEheDsgUPR2bcCuzityD7ITtTrwQAzLzdqf76sKzGuJMjcp_3dArCQ3hbpg9eV9NKqgkOBF4EBBPHfP_lcEX_dWVfPc6_KZNKxNgnbu7IChG8VhyOx7i9u-fLrC6sQi-oPWElrwODx-BSPRmyRVU6xT1b-W8CTBM2-oUuXtPHqIauxTTtoCZ4CB7hn7h3VX4EXis3wwIEUn8NNW73zlsKO06wUhVt-Tu9eDMI5pvAjXuB2nhok93EIQDvKt0BgmsjCf9pmv3aNco9uVy4PE7IP6Lh3EaDa3Op_lPztx-EHzEkEoztNr8tbHwb2Geu7s_-2ZDaFsuMuY5gNkxFeV?></g></svg>