<?xml version="1.0" encoding="us-ascii" standalone="no"?><svg xmlns="http://www.w3.org/2000/svg" xmlns:xlink="http://www.w3.org/1999/xlink" contentStyleType="text/css" height="598px" preserveAspectRatio="none" style="width:450px;height:598px;background:#FFFFFF;" version="1.1" viewBox="0 0 450 598" width="450px" zoomAndPan="magnify"><defs/><g><path d="M19.5,7 L424.5,7 A12.5,12.5 0 0 1 437,19.5 L437,34.6094 L7,34.6094 L7,19.5 A12.5,12.5 0 0 1 19.5,7 " fill="#F1F1F1" style="stroke:#F1F1F1;stroke-width:1.0;"/><rect fill="none" height="438.6094" rx="12.5" ry="12.5" style="stroke:#181818;stroke-width:0.5;" width="430" x="7" y="7"/><line style="stroke:#181818;stroke-width:0.5;" x1="7" x2="437" y1="34.6094" y2="34.6094"/><text fill="#000000" font-family="sans-serif" font-size="14" lengthAdjust="spacing" textLength="160" x="142" y="26.5332">listarEscenariosGherkin()</text><g id="listarEscenariosGherkin.RecuperandoEscenarios"><rect fill="#F1F1F1" height="50" rx="12.5" ry="12.5" style="stroke:#181818;stroke-width:0.5;" width="50" x="19" y="137.6094"/><line style="stroke:#181818;stroke-width:0.5;" x1="19" x2="69" y1="165.2188" y2="165.2188"/><text fill="#000000" font-family="sans-serif" font-size="14" lengthAdjust="spacing" textLength="4" x="42" y="157.1426">&#160;</text></g><g id="listarEscenariosGherkin.MostrandoEscenarios"><rect fill="#F1F1F1" height="50" rx="12.5" ry="12.5" style="stroke:#181818;stroke-width:0.5;" width="50" x="19" y="275.6094"/><line style="stroke:#181818;stroke-width:0.5;" x1="19" x2="69" y1="303.2188" y2="303.2188"/><text fill="#000000" font-family="sans-serif" font-size="14" lengthAdjust="spacing" textLength="4" x="42" y="295.1426">&#160;</text></g><ellipse cx="44" cy="55.6094" fill="#222222" rx="10" ry="10" style="stroke:#222222;stroke-width:1.0;"/><ellipse cx="44" cy="424.6094" fill="none" rx="11" ry="11" style="stroke:#222222;stroke-width:1.0;"/><ellipse cx="44" cy="424.6094" fill="#222222" rx="6" ry="6" style="stroke:#222222;stroke-width:1.0;"/><!--link *start*listarEscenariosGherkin to RecuperandoEscenarios--><g id="link_*start*listarEscenariosGherkin_RecuperandoEscenarios"><path d="M44,65.9294 C44,81.7894 44,108.5194 44,131.2494 " fill="none" id="*start*listarEscenariosGherkin-to-RecuperandoEscenarios" style="stroke:#008000;stroke-width:1.0;"/><polygon fill="#008000" points="44,137.2494,48,128.2494,44,132.2494,40,128.2494,44,137.2494" style="stroke:#008000;stroke-width:1.0;"/><path d="M49,88.6094 L49,114.6094 L279,114.6094 L279,98.6094 L269,88.6094 L49,88.6094 " fill="#FEFFDD" style="stroke:#181818;stroke-width:0.5;"/><path d="M269,88.6094 L269,98.6094 L279,98.6094 L269,88.6094 " fill="#FEFFDD" style="stroke:#181818;stroke-width:0.5;"/><text fill="#000000" font-family="sans-serif" font-size="13" lengthAdjust="spacing" textLength="209" x="55" y="107.1045">Se solicita listar escenarios Gherkin</text></g><!--link RecuperandoEscenarios to MostrandoEscenarios--><g id="link_RecuperandoEscenarios_MostrandoEscenarios"><path d="M44,187.6094 C44,212.3194 44,244.6094 44,269.3894 " fill="none" id="RecuperandoEscenarios-to-MostrandoEscenarios" style="stroke:#008000;stroke-width:1.0;"/><polygon fill="#008000" points="44,275.3894,48,266.3894,44,270.3894,40,266.3894,44,275.3894" style="stroke:#008000;stroke-width:1.0;"/><path d="M49,210.6094 L49,252.6094 L428,252.6094 L428,220.6094 L418,210.6094 L49,210.6094 " fill="#FEFFDD" style="stroke:#181818;stroke-width:0.5;"/><path d="M418,210.6094 L418,220.6094 L428,220.6094 L418,210.6094 " fill="#FEFFDD" style="stroke:#181818;stroke-width:0.5;"/><text fill="#000000" font-family="sans-serif" font-size="13" font-weight="bold" lengthAdjust="spacing" textLength="51" x="55" y="229.1045">Sistema</text><text fill="#000000" font-family="sans-serif" font-size="13" lengthAdjust="spacing" textLength="138" x="110" y="229.1045">recupera los escenarios</text><text fill="#000000" font-family="sans-serif" font-size="13" lengthAdjust="spacing" textLength="358" x="55" y="245.4561">registrados del borrador y cubriendo y trazando casos de uso.</text></g><!--link MostrandoEscenarios to *end*listarEscenariosGherkin--><g id="link_MostrandoEscenarios_*end*listarEscenariosGherkin"><path d="M44,325.7094 C44,352.3794 44,388.1094 44,407.3094 " fill="none" id="MostrandoEscenarios-to-*end*listarEscenariosGherkin" style="stroke:#008000;stroke-width:1.0;"/><polygon fill="#008000" points="44,413.3094,48,404.3094,44,408.3094,40,404.3094,44,413.3094" style="stroke:#008000;stroke-width:1.0;"/><path d="M49,348.6094 L49,390.6094 L214,390.6094 L214,358.6094 L204,348.6094 L49,348.6094 " fill="#FEFFDD" style="stroke:#181818;stroke-width:0.5;"/><path d="M204,348.6094 L204,358.6094 L214,358.6094 L204,348.6094 " fill="#FEFFDD" style="stroke:#181818;stroke-width:0.5;"/><text fill="#000000" font-family="sans-serif" font-size="13" font-weight="bold" lengthAdjust="spacing" textLength="51" x="55" y="367.1045">Sistema</text><text fill="#000000" font-family="sans-serif" font-size="13" lengthAdjust="spacing" textLength="89" x="110" y="367.1045">muestra la lista</text><text fill="#000000" font-family="sans-serif" font-size="13" lengthAdjust="spacing" textLength="130" x="55" y="383.4561">de escenarios Gherkin</text></g><g id="ESCENARIOS_GHERKIN_ABIERTO"><rect fill="#F1F1F1" height="50" rx="12.5" ry="12.5" style="stroke:#181818;stroke-width:0.5;" width="244" x="100" y="542"/><line style="stroke:#181818;stroke-width:0.5;" x1="100" x2="344" y1="569.6094" y2="569.6094"/><text fill="#000000" font-family="sans-serif" font-size="14" lengthAdjust="spacing" textLength="224" x="110" y="561.5332">ESCENARIOS_GHERKIN_ABIERTO</text></g><!--link listarEscenariosGherkin to ESCENARIOS_GHERKIN_ABIERTO--><g id="link_listarEscenariosGherkin_ESCENARIOS_GHERKIN_ABIERTO"><path d="M137.58,446.03 C130.51,464.32 126,476 126,476 C126,476 126,512 126,512 C126,512 148.2599,524.5296 173.8199,538.8996 " fill="none" id="listarEscenariosGherkin-to-ESCENARIOS_GHERKIN_ABIERTO" style="stroke:#008000;stroke-width:1.0;"/><polygon fill="#008000" points="179.05,541.84,173.1651,533.9427,174.6916,539.3897,169.2446,540.9161,179.05,541.84" style="stroke:#008000;stroke-width:1.0;"/><path d="M131,481 L131,507 L268,507 L268,491 L258,481 L131,481 " fill="#FEFFDD" style="stroke:#181818;stroke-width:0.5;"/><path d="M258,481 L258,491 L268,491 L258,481 " fill="#FEFFDD" style="stroke:#181818;stroke-width:0.5;"/><text fill="#000000" font-family="sans-serif" font-size="13" lengthAdjust="spacing" textLength="116" x="137" y="499.4951">completarConsulta()</text></g><!--link listarEscenariosGherkin to ESCENARIOS_GHERKIN_ABIERTO--><g id="link_listarEscenariosGherkin_ESCENARIOS_GHERKIN_ABIERTO"><path d="M270.37,446.03 C274.41,464.32 277,476 277,476 C277,476 277,512 277,512 C277,512 265.5334,523.2685 250.8834,537.6385 " fill="none" id="listarEscenariosGherkin-to-ESCENARIOS_GHERKIN_ABIERTO-1" style="stroke:#FF0000;stroke-width:1.0;"/><polygon fill="#FF0000" points="246.6,541.84,255.8261,538.3933,250.1695,538.3387,250.2241,532.6822,246.6,541.84" style="stroke:#FF0000;stroke-width:1.0;"/><path d="M282,481 L282,507 L412,507 L412,491 L402,481 L282,481 " fill="#FEFFDD" style="stroke:#181818;stroke-width:0.5;"/><path d="M402,481 L402,491 L412,491 L402,481 " fill="#FEFFDD" style="stroke:#181818;stroke-width:0.5;"/><text fill="#000000" font-family="sans-serif" font-size="13" lengthAdjust="spacing" textLength="109" x="288" y="499.4951">rechazarConsulta()</text></g><!--SRC=[bL9VQy8m47_FfpZSYmxSle0Kd1HNnXJQlOb8cXuQJ9EIj0_Ts7VVfPQvRj5jxKERtE_VNUAEKbVSyXAKr5Yt5K9bLEiNZBcQrqW5-jhO2TJSIkEM1xJ40kvWTA4sdepWZJ6WvwGnefVmAOgcGijrOSwSdx1du-hle0wrkTt2T7EpjuXwEuskw6b3SaRxhexTHeRWZ992rhpl2F2J0dtk3ecwwEWdow3584GeRJ32B8yoSiQIp-xp26ol38e4SSYrk9TUjQ1IWGfoO_t2GWkYoQsaZ8R-2V7gdK5mro6XSUOkq4KWuw076koVCfSDUY5G_H0x3Dd-DiftnYvTewynucmHh-PfiivsoySuVKfMk_b34gSlQpP89anPAIIvXT6kKJKVJzYvuIjE5el_-D0H7MZ2GPiF]--></g></svg>