<svg xmlns="http://www.w3.org/2000/svg" xmlns:xlink="http://www.w3.org/1999/xlink" contentStyleType="text/css" data-diagram-type="ACTIVITY" height="351px" preserveAspectRatio="none" style="width:218px;height:351px;background:#FFFFFF;" version="1.1" viewBox="0 0 218 351" width="218px" zoomAndPan="magnify"><?plantuml 1.2026.3beta6?><defs/><g><ellipse cx="98.3782" cy="25" fill="#222222" rx="10" ry="10" style="stroke:#222222;stroke-width:1;"/><rect fill="#F1F1F1" height="33.9688" rx="12.5" ry="12.5" style="stroke:#181818;stroke-width:0.5;" width="104.9668" x="45.8948" y="55"/><text fill="#000000" font-family="sans-serif" font-size="12" lengthAdjust="spacing" textLength="84.9668" x="55.8948" y="76.1387">Lista partici&#243;n</text><rect fill="#F1F1F1" height="33.9688" rx="12.5" ry="12.5" style="stroke:#181818;stroke-width:0.5;" width="118.6016" x="39.0774" y="157.3711"/><text fill="#000000" font-family="sans-serif" font-size="12" lengthAdjust="spacing" textLength="98.6016" x="49.0774" y="178.5098">Lista particiones</text><polygon fill="#F1F1F1" points="37,108.9688,159.7563,108.9688,171.7563,120.9688,159.7563,132.9688,37,132.9688,25,120.9688,37,108.9688" style="stroke:#181818;stroke-width:0.5;"/><text fill="#000000" font-family="sans-serif" font-size="11" lengthAdjust="spacing" textLength="10.0386" x="102.3782" y="143.1792">S&#237;</text><text fill="#000000" font-family="sans-serif" font-size="11" lengthAdjust="spacing" textLength="122.7563" x="37" y="124.7769">&#191;Cambia de partici&#243;n?</text><text fill="#000000" font-family="sans-serif" font-size="11" lengthAdjust="spacing" textLength="14.9585" x="171.7563" y="118.3745">No</text><polygon fill="#F1F1F1" points="98.3782,211.3398,110.3782,223.3398,98.3782,235.3398,86.3782,223.3398,98.3782,211.3398" style="stroke:#181818;stroke-width:0.5;"/><rect fill="#F1F1F1" height="33.9688" rx="12.5" ry="12.5" style="stroke:#181818;stroke-width:0.5;" width="104.9668" x="45.8948" y="255.3398"/><text fill="#000000" font-family="sans-serif" font-size="12" lengthAdjust="spacing" textLength="84.9668" x="55.8948" y="276.4785">Lista partici&#243;n</text><ellipse cx="98.3782" cy="320.3086" fill="none" rx="11" ry="11" style="stroke:#222222;stroke-width:1;"/><ellipse cx="98.3782" cy="320.3086" fill="#222222" rx="6" ry="6" style="stroke:#222222;stroke-width:1;"/><line style="stroke:#181818;stroke-width:1;" x1="98.3782" x2="98.3782" y1="35" y2="55"/><polygon fill="#181818" points="94.3782,45,98.3782,55,102.3782,45,98.3782,49" style="stroke:#181818;stroke-width:1;"/><line style="stroke:#181818;stroke-width:1;" x1="98.3782" x2="98.3782" y1="132.9688" y2="157.3711"/><polygon fill="#181818" points="94.3782,147.3711,98.3782,157.3711,102.3782,147.3711,98.3782,151.3711" style="stroke:#181818;stroke-width:1;"/><line style="stroke:#181818;stroke-width:1;" x1="171.7563" x2="183.7563" y1="120.9688" y2="120.9688"/><polygon fill="#181818" points="179.7563,164.3555,183.7563,174.3555,187.7563,164.3555,183.7563,168.3555" style="stroke:#181818;stroke-width:1;"/><line style="stroke:#181818;stroke-width:1;" x1="183.7563" x2="183.7563" y1="120.9688" y2="223.3398"/><line style="stroke:#181818;stroke-width:1;" x1="183.7563" x2="110.3782" y1="223.3398" y2="223.3398"/><polygon fill="#181818" points="120.3782,219.3398,110.3782,223.3398,120.3782,227.3398,116.3782,223.3398" style="stroke:#181818;stroke-width:1;"/><line style="stroke:#181818;stroke-width:1;" x1="98.3782" x2="98.3782" y1="191.3398" y2="211.3398"/><polygon fill="#181818" points="94.3782,201.3398,98.3782,211.3398,102.3782,201.3398,98.3782,205.3398" style="stroke:#181818;stroke-width:1;"/><line style="stroke:#181818;stroke-width:1;" x1="98.3782" x2="98.3782" y1="88.9688" y2="108.9688"/><polygon fill="#181818" points="94.3782,98.9688,98.3782,108.9688,102.3782,98.9688,98.3782,102.9688" style="stroke:#181818;stroke-width:1;"/><line style="stroke:#181818;stroke-width:1;" x1="98.3782" x2="98.3782" y1="235.3398" y2="255.3398"/><polygon fill="#181818" points="94.3782,245.3398,98.3782,255.3398,102.3782,245.3398,98.3782,249.3398" style="stroke:#181818;stroke-width:1;"/><line style="stroke:#181818;stroke-width:1;" x1="98.3782" x2="98.3782" y1="289.3086" y2="309.3086"/><polygon fill="#181818" points="94.3782,299.3086,98.3782,309.3086,102.3782,299.3086,98.3782,303.3086" style="stroke:#181818;stroke-width:1;"/><?plantuml-src Aov9B2hXuhBooImkILGe078oapCFRywpvkBAJ5FGEBJVEJ4tAJDH8IKLIT9UKw4a8pLFGSClNvEBApMdE5L18_ZmMaqk1GLKW_BpKek19gNcfMIcORUak2I_0000?></g></svg>