<svg xmlns="http://www.w3.org/2000/svg" xmlns:xlink="http://www.w3.org/1999/xlink" contentStyleType="text/css" data-diagram-type="STATE" height="278px" preserveAspectRatio="none" style="width:335px;height:278px;background:#FFFFFF;" version="1.1" viewBox="0 0 335 278" width="335px" zoomAndPan="magnify"><?plantuml 1.2026.3beta6?><defs/><g><g class="start_entity" data-qualified-name=".start." data-source-line="1" id="ent0002"><ellipse cx="91.61" cy="16" fill="#222222" rx="10" ry="10" style="stroke:#222222;stroke-width:1;"/></g><g class="entity" data-qualified-name="LISTAR_PARTICI.N" id="ent0003"><rect fill="#F1F1F1" height="50" rx="12.5" ry="12.5" style="stroke:#181818;stroke-width:0.5;" width="151.4961" x="15.87" y="103"/><line style="stroke:#181818;stroke-width:0.5;" x1="15.87" x2="167.3661" y1="129.2969" y2="129.2969"/><text fill="#000000" font-family="sans-serif" font-size="14" lengthAdjust="spacing" textLength="131.4961" x="25.87" y="120.9951">LISTAR_PARTICI&#211;N</text></g><g class="entity" data-qualified-name="LISTAR_PARTICIONES" id="ent0005"><rect fill="#F1F1F1" height="50" rx="12.5" ry="12.5" style="stroke:#181818;stroke-width:0.5;" width="169.2285" x="7" y="214"/><line style="stroke:#181818;stroke-width:0.5;" x1="7" x2="176.2285" y1="240.2969" y2="240.2969"/><text fill="#000000" font-family="sans-serif" font-size="14" lengthAdjust="spacing" textLength="149.2285" x="17" y="231.9951">LISTAR_PARTICIONES</text></g><g class="end_entity" data-qualified-name=".end." data-source-line="7" id="ent0008"><ellipse cx="222.61" cy="239" fill="none" rx="11" ry="11" style="stroke:#222222;stroke-width:1;"/><ellipse cx="222.61" cy="239" fill="#222222" rx="6" ry="6" style="stroke:#222222;stroke-width:1;"/></g><!--link *start* to LISTAR_PARTICI?N--><g class="link" data-entity-1="ent0002" data-entity-2="ent0003" data-link-type="dependency" data-source-line="1" id="lnk4"><path d="M91.61,26.38 C91.61,43.11 91.61,72.59 91.61,96.63" fill="none" id="*start*-to-LISTAR_PARTICI&#211;N" style="stroke:#181818;stroke-width:1;"/><polygon fill="#181818" points="91.61,102.63,95.61,93.63,91.61,97.63,87.61,93.63,91.61,102.63" style="stroke:#181818;stroke-width:1;"/><text fill="#000000" font-family="sans-serif" font-size="13" lengthAdjust="spacing" textLength="226.7319" x="92.61" y="69.0669">navegaci&#243;n a pesta&#241;a rendimiento</text></g><!--link LISTAR_PARTICI?N to LISTAR_PARTICIONES--><g class="link" data-entity-1="ent0003" data-entity-2="ent0005" data-link-type="dependency" data-source-line="3" id="lnk6"><path d="M80.77,153.46 C78.22,171.41 77.3852,189.7498 79.9352,207.6798" fill="none" id="LISTAR_PARTICI&#211;N-to-LISTAR_PARTICIONES" style="stroke:#181818;stroke-width:1;"/><polygon fill="#181818" points="80.78,213.62,83.4729,204.1464,80.076,208.6698,75.5526,205.2729,80.78,213.62" style="stroke:#181818;stroke-width:1;"/></g><!--link LISTAR_PARTICIONES to LISTAR_PARTICI?N--><g class="link" data-entity-1="ent0005" data-entity-2="ent0003" data-link-type="dependency" data-source-line="5" id="lnk7"><path d="M103.08,213.62 C105.79,195.69 106.6792,177.3437 103.9892,159.3937" fill="none" id="LISTAR_PARTICIONES-to-LISTAR_PARTICI&#211;N" style="stroke:#181818;stroke-width:1;"/><polygon fill="#181818" points="103.1,153.46,100.478,162.9534,103.841,158.4048,108.3897,161.7678,103.1,153.46" style="stroke:#181818;stroke-width:1;"/></g><!--link LISTAR_PARTICI?N to *end*--><g class="link" data-entity-1="ent0003" data-entity-2="ent0008" data-link-type="dependency" data-source-line="7" id="lnk9"><path d="M121.01,153.46 C151.19,178.57 191.6186,212.2014 209.8786,227.4014" fill="none" id="LISTAR_PARTICI&#211;N-to-*end*" style="stroke:#181818;stroke-width:1;"/><polygon fill="#181818" points="214.49,231.24,210.132,222.4078,210.6472,228.0411,205.0138,228.5563,214.49,231.24" style="stroke:#181818;stroke-width:1;"/></g><?plantuml-src YzQALT3LjLFmyGmESGoA3t0C2l5qzZmysK_1IY4liImrFJ4vy_3cF8L4XOBKufB4mniJ5OfIyr8oSpDJyqhokRWmzM4npj_FDHXTAKXC0OVL2ZZDZTQA1G00?></g></svg>