<svg xmlns="http://www.w3.org/2000/svg" xmlns:xlink="http://www.w3.org/1999/xlink" contentStyleType="text/css" data-diagram-type="DESCRIPTION" height="191px" preserveAspectRatio="none" style="width:456px;height:191px;background:#FFFFFF;" version="1.1" viewBox="0 0 456 191" width="456px" zoomAndPan="magnify"><?plantuml 1.2026.3beta6?><defs/><g><!--cluster VT--><g class="cluster" data-qualified-name="VT" data-source-line="5" id="ent0003"><path d="M218.97,6 L240.3548,6 A3.75,3.75 0 0 1 242.8548,8.5 L249.8548,28.2969 L438.8,28.2969 A2.5,2.5 0 0 1 441.3,30.7969 L441.3,173.5 A2.5,2.5 0 0 1 438.8,176 L218.97,176 A2.5,2.5 0 0 1 216.47,173.5 L216.47,8.5 A2.5,2.5 0 0 1 218.97,6" fill="none" style="stroke:#000000;stroke-width:1.5;"/><line style="stroke:#000000;stroke-width:1.5;" x1="216.47" x2="249.8548" y1="28.2969" y2="28.2969"/><text fill="#000000" font-family="sans-serif" font-size="14" font-weight="700" lengthAdjust="spacing" textLength="20.3848" x="220.47" y="20.9951">VT</text></g><!--entity CU02--><g class="entity" data-qualified-name="VT.CU02" data-source-line="7" id="ent0004"><ellipse cx="328.8899" cy="139.996" fill="#F1F1F1" rx="89.3299" ry="20.266" style="stroke:#181818;stroke-width:0.5;"/><text fill="#000000" font-family="sans-serif" font-size="14" lengthAdjust="spacing" textLength="152.2227" x="252.7786" y="144.6444">CU-02 Listar partici&#243;n</text></g><!--entity CU01--><g class="entity" data-qualified-name="VT.CU01" data-source-line="8" id="ent0005"><ellipse cx="328.8876" cy="63.0035" fill="#F1F1F1" rx="96.4176" ry="21.6835" style="stroke:#181818;stroke-width:0.5;"/><text fill="#000000" font-family="sans-serif" font-size="14" lengthAdjust="spacing" textLength="168.1299" x="244.8226" y="67.6519">CU-01 Listar particiones</text></g><!--entity ResponsableProducci?n--><g class="entity" data-qualified-name="ResponsableProducci.n" data-source-line="3" id="ent0002"><ellipse cx="89.2344" cy="72.35" fill="#F1F1F1" rx="8" ry="8" style="stroke:#181818;stroke-width:0.5;"/><path d="M89.2344,80.35 L89.2344,107.35 M76.2344,88.35 L102.2344,88.35 M89.2344,107.35 L76.2344,122.35 M89.2344,107.35 L102.2344,122.35" fill="none" style="stroke:#181818;stroke-width:0.5;"/><text fill="#000000" font-family="sans-serif" font-size="14" lengthAdjust="spacing" textLength="166.4688" x="6" y="136.8451">ResponsableProducci&#243;n</text></g><!--link ResponsableProducci?n to CU01--><g class="link" data-entity-1="ent0002" data-entity-2="ent0005" data-link-type="dependency" data-source-line="13" id="lnk6"><path d="M172.69,88.47 C197.76,84.36 219.2991,80.8209 244.0591,76.7609" fill="none" id="ResponsableProducci&#243;n-to-CU01" style="stroke:#181818;stroke-width:1;"/><polygon fill="#181818" points="249.98,75.79,240.4514,73.299,245.0459,76.5991,241.7459,81.1936,249.98,75.79" style="stroke:#181818;stroke-width:1;"/></g><!--link ResponsableProducci?n to CU02--><g class="link" data-entity-1="ent0002" data-entity-2="ent0004" data-link-type="dependency" data-source-line="14" id="lnk7"><path d="M172.69,115.18 C199.36,119.45 222.8252,123.2029 248.7852,127.3529" fill="none" id="ResponsableProducci&#243;n-to-CU02" style="stroke:#181818;stroke-width:1;"/><polygon fill="#181818" points="254.71,128.3,246.4543,122.9294,249.7727,127.5107,245.1914,130.8291,254.71,128.3" style="stroke:#181818;stroke-width:1;"/></g><?plantuml-src VSun2i9040NGVaxnIR-Gv00sQIr4ZFsu6UDYs5rs9fLuAe_WnGoAJH3R_z-7FydPO0abZ1V348fu2oaIiRTKi1VDAIgV9jcLDCpUX-TZQJFxAu-2wdYeS2CGCAjurYNgUbUts0OrBiXSBBn75LZHzNMxjitAfYZwnGtHdOX-tu1pcm_wtxSl?></g></svg>