<?xml version="1.0" encoding="us-ascii" standalone="no"?><svg xmlns="http://www.w3.org/2000/svg" xmlns:xlink="http://www.w3.org/1999/xlink" contentStyleType="text/css" height="258px" preserveAspectRatio="none" style="width:530px;height:258px;background:#FFFFFF;" version="1.1" viewBox="0 0 530 258" width="530px" zoomAndPan="magnify"><defs/><g><text fill="#000000" font-family="sans-serif" font-size="14" font-weight="bold" lengthAdjust="spacing" textLength="153" x="181.5" y="24.5332">Diagrama de contexto</text><!--entity QA--><g id="elem_QA"><ellipse cx="57.5" cy="183.6094" fill="#F1F1F1" rx="8" ry="8" style="stroke:#181818;stroke-width:0.5;"/><path d="M57.5,191.6094 L57.5,218.6094 M44.5,199.6094 L70.5,199.6094 M57.5,218.6094 L44.5,233.6094 M57.5,218.6094 L70.5,233.6094 " fill="none" style="stroke:#181818;stroke-width:0.5;"/><text fill="#000000" font-family="sans-serif" font-size="14" lengthAdjust="spacing" textLength="103" x="6" y="249.6426">Ingeniero de QA</text></g><!--entity SISTEMA--><g id="elem_SISTEMA"><rect fill="#F1F1F1" height="37.6094" rx="2.5" ry="2.5" style="stroke:#181818;stroke-width:0.5;" width="70" x="170" y="143.1094"/><text fill="#000000" font-family="sans-serif" font-size="14" lengthAdjust="spacing" textLength="50" x="180" y="167.6426">Sistema</text></g><!--entity MODELO--><g id="elem_MODELO"><rect fill="#F1F1F1" height="55.2188" rx="2.5" ry="2.5" style="stroke:#181818;stroke-width:0.5;" width="102" x="412.5" y="45.6094"/><text fill="#000000" font-family="sans-serif" font-size="14" lengthAdjust="spacing" textLength="82" x="422.5" y="70.1426">Modelo de IA</text><text fill="#000000" font-family="sans-serif" font-size="14" lengthAdjust="spacing" textLength="57" x="422.5" y="87.752">(OpenAI)</text></g><!--entity KIWI--><g id="elem_KIWI"><rect fill="#F1F1F1" height="55.2188" rx="2.5" ry="2.5" style="stroke:#181818;stroke-width:0.5;" width="121" x="403" y="148.6094"/><text fill="#000000" font-family="sans-serif" font-size="14" lengthAdjust="spacing" textLength="67" x="413" y="173.1426">Kiwi TCMS</text><text fill="#000000" font-family="sans-serif" font-size="14" lengthAdjust="spacing" textLength="101" x="413" y="190.752">Sistema externo</text></g><!--link QA to SISTEMA--><g id="link_QA_SISTEMA"><path d="M109.39,195.9194 C129.38,188.7794 146.1597,182.7778 164.1597,176.3478 " fill="none" id="QA-to-SISTEMA" style="stroke:#181818;stroke-width:1.0;"/><polygon fill="#181818" points="169.81,174.3294,159.9889,173.5901,165.1014,176.0114,162.6801,181.1239,169.81,174.3294" style="stroke:#181818;stroke-width:1.0;"/></g><!--link QA to KIWI--><g id="link_QA_KIWI"><path d="M109.37,209.7694 C145.76,206.6294 195.91,202.2294 240,198.1094 C295.07,192.9594 351.8103,187.3321 396.5803,182.8121 " fill="none" id="QA-to-KIWI" style="stroke:#181818;stroke-width:1.0;"/><polygon fill="#181818" points="402.55,182.2094,393.1937,179.1337,397.5753,182.7116,393.9973,187.0932,402.55,182.2094" style="stroke:#181818;stroke-width:1.0;"/></g><!--link MODELO to SISTEMA--><g id="link_MODELO_SISTEMA"><path d="M412.41,90.4894 C361.56,108.1294 289.8784,133.0024 245.7284,148.3224 " fill="none" id="MODELO-to-SISTEMA" style="stroke:#181818;stroke-width:1.0;"/><polygon fill="#181818" points="240.06,150.2894,249.8739,151.1179,244.7837,148.6503,247.2514,143.56,240.06,150.2894" style="stroke:#181818;stroke-width:1.0;"/></g><!--link SISTEMA to MODELO--><g id="link_SISTEMA_MODELO"><path d="M219.74,143.0594 C231.37,128.4794 249.42,109.1994 270,99.1094 C314.66,77.2094 365.7606,72.0026 406.1406,71.4426 " fill="none" id="SISTEMA-to-MODELO" style="stroke:#181818;stroke-width:1.0;"/><polygon fill="#181818" points="412.14,71.3594,403.0854,67.4846,407.1405,71.4287,403.1963,75.4838,412.14,71.3594" style="stroke:#181818;stroke-width:1.0;"/><text fill="#000000" font-family="sans-serif" font-size="13" lengthAdjust="spacing" textLength="101" x="271" y="70.6045">Consume modelo</text></g><!--link SISTEMA to KIWI--><g id="link_SISTEMA_KIWI"><path d="M240.06,172.9594 C281.49,179.4494 346.14,183.9872 396.71,183.8372 " fill="none" id="SISTEMA-to-KIWI" style="stroke:#181818;stroke-width:1.0;"/><polygon fill="#181818" points="402.71,183.8194,393.6982,179.8461,397.71,183.8342,393.7219,187.8461,402.71,183.8194" style="stroke:#181818;stroke-width:1.0;"/></g><!--link KIWI to SISTEMA--><g id="link_KIWI_SISTEMA"><path d="M402.71,161.2294 C352.14,155.3894 287.4814,151.9083 246.0514,154.1283 " fill="none" id="KIWI-to-SISTEMA" style="stroke:#181818;stroke-width:1.0;"/><polygon fill="#181818" points="240.06,154.4494,249.2611,157.9621,245.0528,154.1818,248.8331,149.9735,240.06,154.4494" style="stroke:#181818;stroke-width:1.0;"/></g><!--SRC=[LOwn2i9038RtF4Nef8Clu20Swd1eALB1nULeOmsqYLmZ-lYsfuMw92JV__z9IpT3KupSt0rhZbGPgu2njOGx3aqCNS2Qi58nUfi2XCeqOkQb8M6AEjAJop3qGmCO8u8qWpqhkJVgGaAbBy_xtCrnhZMroUxTLHR5WyJvPLBdnMv_BERY0xyOpzkylCel5eTtA8ecmy5VFC39uMgrcMxXD2VuZPnpc7JZxeVNk5NfdnrXbxxxqumv2AdEptm0]--></g></svg>