<?xml version="1.0" encoding="us-ascii" standalone="no"?><svg xmlns="http://www.w3.org/2000/svg" xmlns:xlink="http://www.w3.org/1999/xlink" contentStyleType="text/css" height="720px" preserveAspectRatio="none" style="width:406px;height:720px;background:#FFFFFF;" version="1.1" viewBox="0 0 406 720" width="406px" zoomAndPan="magnify"><defs/><g><path d="M21,7 L346,7 A12.5,12.5 0 0 1 358.5,19.5 L358.5,34.6094 L8.5,34.6094 L8.5,19.5 A12.5,12.5 0 0 1 21,7 " fill="#F1F1F1" style="stroke:#F1F1F1;stroke-width:1.0;"/><rect fill="none" height="560.6094" rx="12.5" ry="12.5" style="stroke:#181818;stroke-width:0.5;" width="350" x="8.5" y="7"/><line style="stroke:#181818;stroke-width:0.5;" x1="8.5" x2="358.5" y1="34.6094" y2="34.6094"/><text fill="#000000" font-family="sans-serif" font-size="14" lengthAdjust="spacing" textLength="133" x="117" y="26.5332">verCasoPruebaKiwi()</text><g id="verCasoPruebaKiwi.SeleccionandoCaso"><rect fill="#F1F1F1" height="50" rx="12.5" ry="12.5" style="stroke:#181818;stroke-width:0.5;" width="50" x="20.5" y="137.6094"/><line style="stroke:#181818;stroke-width:0.5;" x1="20.5" x2="70.5" y1="165.2188" y2="165.2188"/><text fill="#000000" font-family="sans-serif" font-size="14" lengthAdjust="spacing" textLength="4" x="43.5" y="157.1426">&#160;</text></g><g id="verCasoPruebaKiwi.RecuperandoDetalle"><rect fill="#F1F1F1" height="50" rx="12.5" ry="12.5" style="stroke:#181818;stroke-width:0.5;" width="50" x="20.5" y="275.6094"/><line style="stroke:#181818;stroke-width:0.5;" x1="20.5" x2="70.5" y1="303.2188" y2="303.2188"/><text fill="#000000" font-family="sans-serif" font-size="14" lengthAdjust="spacing" textLength="4" x="43.5" y="295.1426">&#160;</text></g><g id="verCasoPruebaKiwi.MostrandoDetalle"><rect fill="#F1F1F1" height="50" rx="12.5" ry="12.5" style="stroke:#181818;stroke-width:0.5;" width="50" x="20.5" y="413.6094"/><line style="stroke:#181818;stroke-width:0.5;" x1="20.5" x2="70.5" y1="441.2188" y2="441.2188"/><text fill="#000000" font-family="sans-serif" font-size="14" lengthAdjust="spacing" textLength="4" x="43.5" y="433.1426">&#160;</text></g><ellipse cx="45.5" cy="55.6094" fill="#222222" rx="10" ry="10" style="stroke:#222222;stroke-width:1.0;"/><ellipse cx="45.5" cy="546.6094" fill="none" rx="11" ry="11" style="stroke:#222222;stroke-width:1.0;"/><ellipse cx="45.5" cy="546.6094" fill="#222222" rx="6" ry="6" style="stroke:#222222;stroke-width:1.0;"/><!--link *start*verCasoPruebaKiwi to SeleccionandoCaso--><g id="link_*start*verCasoPruebaKiwi_SeleccionandoCaso"><path d="M45.5,65.9294 C45.5,81.7894 45.5,108.5194 45.5,131.2494 " fill="none" id="*start*verCasoPruebaKiwi-to-SeleccionandoCaso" style="stroke:#008000;stroke-width:1.0;"/><polygon fill="#008000" points="45.5,137.2494,49.5,128.2494,45.5,132.2494,41.5,128.2494,45.5,137.2494" style="stroke:#008000;stroke-width:1.0;"/><path d="M50.5,88.6094 L50.5,114.6094 L349.5,114.6094 L349.5,98.6094 L339.5,88.6094 L50.5,88.6094 " fill="#FEFFDD" style="stroke:#181818;stroke-width:0.5;"/><path d="M339.5,88.6094 L339.5,98.6094 L349.5,98.6094 L339.5,88.6094 " fill="#FEFFDD" style="stroke:#181818;stroke-width:0.5;"/><text fill="#000000" font-family="sans-serif" font-size="13" lengthAdjust="spacing" textLength="278" x="56.5" y="107.1045">Se solicita ver un caso de prueba en Kiwi TCMS</text></g><!--link SeleccionandoCaso to RecuperandoDetalle--><g id="link_SeleccionandoCaso_RecuperandoDetalle"><path d="M45.5,187.6094 C45.5,212.3194 45.5,244.6094 45.5,269.3894 " fill="none" id="SeleccionandoCaso-to-RecuperandoDetalle" style="stroke:#008000;stroke-width:1.0;"/><polygon fill="#008000" points="45.5,275.3894,49.5,266.3894,45.5,270.3894,41.5,266.3894,45.5,275.3894" style="stroke:#008000;stroke-width:1.0;"/><path d="M50.5,210.6094 L50.5,252.6094 L262.5,252.6094 L262.5,220.6094 L252.5,210.6094 L50.5,210.6094 " fill="#FEFFDD" style="stroke:#181818;stroke-width:0.5;"/><path d="M252.5,210.6094 L252.5,220.6094 L262.5,220.6094 L252.5,210.6094 " fill="#FEFFDD" style="stroke:#181818;stroke-width:0.5;"/><text fill="#000000" font-family="sans-serif" font-size="13" lengthAdjust="spacing" textLength="175" x="56.5" y="229.1045">Se toma el caso seleccionado</text><text fill="#000000" font-family="sans-serif" font-size="13" lengthAdjust="spacing" textLength="191" x="56.5" y="245.4561">y solicita su detalle a Kiwi TCMS</text></g><!--link RecuperandoDetalle to MostrandoDetalle--><g id="link_RecuperandoDetalle_MostrandoDetalle"><path d="M45.5,325.6094 C45.5,350.3194 45.5,382.6094 45.5,407.3894 " fill="none" id="RecuperandoDetalle-to-MostrandoDetalle" style="stroke:#008000;stroke-width:1.0;"/><polygon fill="#008000" points="45.5,413.3894,49.5,404.3894,45.5,408.3894,41.5,404.3894,45.5,413.3894" style="stroke:#008000;stroke-width:1.0;"/><path d="M50.5,348.6094 L50.5,390.6094 L282.5,390.6094 L282.5,358.6094 L272.5,348.6094 L50.5,348.6094 " fill="#FEFFDD" style="stroke:#181818;stroke-width:0.5;"/><path d="M272.5,348.6094 L272.5,358.6094 L282.5,358.6094 L272.5,348.6094 " fill="#FEFFDD" style="stroke:#181818;stroke-width:0.5;"/><text fill="#000000" font-family="sans-serif" font-size="13" lengthAdjust="spacing" textLength="211" x="56.5" y="367.1045">Se recupera la informacion completa</text><text fill="#000000" font-family="sans-serif" font-size="13" lengthAdjust="spacing" textLength="110" x="56.5" y="383.4561">del caso de prueba</text></g><!--link MostrandoDetalle to *end*verCasoPruebaKiwi--><g id="link_MostrandoDetalle_*end*verCasoPruebaKiwi"><path d="M45.5,463.6594 C45.5,486.2594 45.5,512.9894 45.5,529.4094 " fill="none" id="MostrandoDetalle-to-*end*verCasoPruebaKiwi" style="stroke:#008000;stroke-width:1.0;"/><polygon fill="#008000" points="45.5,535.4094,49.5,526.4094,45.5,530.4094,41.5,526.4094,45.5,535.4094" style="stroke:#008000;stroke-width:1.0;"/><path d="M50.5,486.6094 L50.5,512.6094 L247.5,512.6094 L247.5,496.6094 L237.5,486.6094 L50.5,486.6094 " fill="#FEFFDD" style="stroke:#181818;stroke-width:0.5;"/><path d="M237.5,486.6094 L237.5,496.6094 L247.5,496.6094 L237.5,486.6094 " fill="#FEFFDD" style="stroke:#181818;stroke-width:0.5;"/><text fill="#000000" font-family="sans-serif" font-size="13" lengthAdjust="spacing" textLength="176" x="56.5" y="505.1045">Se muestra el detalle del caso</text></g><g id="KIWI_TCMS_ABIERTO"><rect fill="#F1F1F1" height="50" rx="12.5" ry="12.5" style="stroke:#181818;stroke-width:0.5;" width="163" x="7" y="664"/><line style="stroke:#181818;stroke-width:0.5;" x1="7" x2="170" y1="691.6094" y2="691.6094"/><text fill="#000000" font-family="sans-serif" font-size="14" lengthAdjust="spacing" textLength="143" x="17" y="683.5332">KIWI_TCMS_ABIERTO</text></g><g id="SISTEMA_ABIERTO"><rect fill="#F1F1F1" height="50" rx="12.5" ry="12.5" style="stroke:#181818;stroke-width:0.5;" width="147" x="205" y="664"/><line style="stroke:#181818;stroke-width:0.5;" x1="205" x2="352" y1="691.6094" y2="691.6094"/><text fill="#000000" font-family="sans-serif" font-size="14" lengthAdjust="spacing" textLength="127" x="215" y="683.5332">SISTEMA_ABIERTO</text></g><!--link verCasoPruebaKiwi to KIWI_TCMS_ABIERTO--><g id="link_verCasoPruebaKiwi_KIWI_TCMS_ABIERTO"><path d="M97.7,568.04 C92.02,586.55 88.5,598 88.5,598 C88.5,598 88.5,631.22 88.5,657.88 " fill="none" id="verCasoPruebaKiwi-to-KIWI_TCMS_ABIERTO" style="stroke:#008000;stroke-width:1.0;"/><polygon fill="#008000" points="88.5,663.88,92.5,654.88,88.5,658.88,84.5,654.88,88.5,663.88" style="stroke:#008000;stroke-width:1.0;"/><path d="M93.5,603 L93.5,629 L230.5,629 L230.5,613 L220.5,603 L93.5,603 " fill="#FEFFDD" style="stroke:#181818;stroke-width:0.5;"/><path d="M220.5,603 L220.5,613 L230.5,613 L220.5,603 " fill="#FEFFDD" style="stroke:#181818;stroke-width:0.5;"/><text fill="#000000" font-family="sans-serif" font-size="13" lengthAdjust="spacing" textLength="116" x="99.5" y="621.4951">completarConsulta()</text></g><!--link verCasoPruebaKiwi to SISTEMA_ABIERTO--><g id="link_verCasoPruebaKiwi_SISTEMA_ABIERTO"><path d="M250,568.14 C259.35,607.48 266.1412,636.0329 271.3112,657.7629 " fill="none" id="verCasoPruebaKiwi-to-SISTEMA_ABIERTO" style="stroke:#FF0000;stroke-width:1.0;"/><polygon fill="#FF0000" points="272.7,663.6,274.5082,653.9186,271.5427,658.7358,266.7255,655.7702,272.7,663.6" style="stroke:#FF0000;stroke-width:1.0;"/><path d="M269.5,603 L269.5,629 L399.5,629 L399.5,613 L389.5,603 L269.5,603 " fill="#FEFFDD" style="stroke:#181818;stroke-width:0.5;"/><path d="M389.5,603 L389.5,613 L399.5,613 L389.5,603 " fill="#FEFFDD" style="stroke:#181818;stroke-width:0.5;"/><text fill="#000000" font-family="sans-serif" font-size="13" lengthAdjust="spacing" textLength="109" x="275.5" y="621.4951">rechazarConsulta()</text></g><!--SRC=[VP9HJuCm58NV-ojkvijcihzWCd4FP26QGUB3iYnNk6gpqfAsQD3utstBs6I0y4HpxZdVkTGSkQnGOmc2Ix9DHL0fqVWFnen5I_11EaAZddHDBxZXdnpGm6nmEb_Cu9inS4yxDtElKwOaAC-vaYWBvKU6aYtbTKNQ2nx8eX0qr2JAs9uYI7QtUrZkRjuqaTmlxoR2f78-IlgAnt2G4XWbUCuj-dfGIyYT60hNFXG2aX2gPb6IXX6IHV1X9uEhd1x5H9yn3AjA5oRQU7DsBLhmve9fQaSNl03_HHk6zzW6UvmYqoSV40XSlYfTeaU3N9MLSBD1LtJevysD45r7zdZS7vn4A6loatu_NVSki1_pmzZmblvDsSJFyS4lxB2wZzVRx97ryhfEEbBIrCBYVC4k7KQjDHNXmiLfjavMuxPkXU_uDUxw2m00]--></g></svg>