<?xml version="1.0" encoding="us-ascii" standalone="no"?><svg xmlns="http://www.w3.org/2000/svg" xmlns:xlink="http://www.w3.org/1999/xlink" contentStyleType="text/css" height="688px" preserveAspectRatio="none" style="width:584px;height:688px;background:#FFFFFF;" version="1.1" viewBox="0 0 584 688" width="584px" zoomAndPan="magnify"><defs/><g><path d="M157,7 L441,7 A12.5,12.5 0 0 1 453.5,19.5 L453.5,34.6094 L144.5,34.6094 L144.5,19.5 A12.5,12.5 0 0 1 157,7 " fill="#F1F1F1" style="stroke:#F1F1F1;stroke-width:1.0;"/><rect fill="none" height="528.6094" rx="12.5" ry="12.5" style="stroke:#181818;stroke-width:0.5;" width="309" x="144.5" y="7"/><line style="stroke:#181818;stroke-width:0.5;" x1="144.5" x2="453.5" y1="34.6094" y2="34.6094"/><text fill="#000000" font-family="sans-serif" font-size="14" lengthAdjust="spacing" textLength="172" x="213" y="26.5332">eliminarEscenarioGherkin()</text><g id="eliminarEscenarioGherkin.SeleccionandoEscenario"><rect fill="#F1F1F1" height="50" rx="12.5" ry="12.5" style="stroke:#181818;stroke-width:0.5;" width="50" x="156.5" y="137.6094"/><line style="stroke:#181818;stroke-width:0.5;" x1="156.5" x2="206.5" y1="165.2188" y2="165.2188"/><text fill="#000000" font-family="sans-serif" font-size="14" lengthAdjust="spacing" textLength="4" x="179.5" y="157.1426">&#160;</text></g><g id="eliminarEscenarioGherkin.ConfirmandoEliminacion"><rect fill="#F1F1F1" height="50" rx="12.5" ry="12.5" style="stroke:#181818;stroke-width:0.5;" width="50" x="156.5" y="259.6094"/><line style="stroke:#181818;stroke-width:0.5;" x1="156.5" x2="206.5" y1="287.2188" y2="287.2188"/><text fill="#000000" font-family="sans-serif" font-size="14" lengthAdjust="spacing" textLength="4" x="179.5" y="279.1426">&#160;</text></g><g id="eliminarEscenarioGherkin.EliminandoEscenario"><rect fill="#F1F1F1" height="50" rx="12.5" ry="12.5" style="stroke:#181818;stroke-width:0.5;" width="50" x="156.5" y="381.6094"/><line style="stroke:#181818;stroke-width:0.5;" x1="156.5" x2="206.5" y1="409.2188" y2="409.2188"/><text fill="#000000" font-family="sans-serif" font-size="14" lengthAdjust="spacing" textLength="4" x="179.5" y="401.1426">&#160;</text></g><ellipse cx="181.5" cy="55.6094" fill="#222222" rx="10" ry="10" style="stroke:#222222;stroke-width:1.0;"/><ellipse cx="181.5" cy="514.6094" fill="none" rx="11" ry="11" style="stroke:#222222;stroke-width:1.0;"/><ellipse cx="181.5" cy="514.6094" fill="#222222" rx="6" ry="6" style="stroke:#222222;stroke-width:1.0;"/><!--link *start*eliminarEscenarioGherkin to SeleccionandoEscenario--><g id="link_*start*eliminarEscenarioGherkin_SeleccionandoEscenario"><path d="M181.5,65.9294 C181.5,81.7894 181.5,108.5194 181.5,131.2494 " fill="none" id="*start*eliminarEscenarioGherkin-to-SeleccionandoEscenario" style="stroke:#008000;stroke-width:1.0;"/><polygon fill="#008000" points="181.5,137.2494,185.5,128.2494,181.5,132.2494,177.5,128.2494,181.5,137.2494" style="stroke:#008000;stroke-width:1.0;"/><path d="M186.5,88.6094 L186.5,114.6094 L423.5,114.6094 L423.5,98.6094 L413.5,88.6094 L186.5,88.6094 " fill="#FEFFDD" style="stroke:#181818;stroke-width:0.5;"/><path d="M413.5,88.6094 L413.5,98.6094 L423.5,98.6094 L413.5,88.6094 " fill="#FEFFDD" style="stroke:#181818;stroke-width:0.5;"/><text fill="#000000" font-family="sans-serif" font-size="13" lengthAdjust="spacing" textLength="216" x="192.5" y="107.1045">Se selecciona el escenario a eliminar</text></g><!--link SeleccionandoEscenario to ConfirmandoEliminacion--><g id="link_SeleccionandoEscenario_ConfirmandoEliminacion"><path d="M181.5,187.8894 C181.5,208.7094 181.5,232.5494 181.5,253.3594 " fill="none" id="SeleccionandoEscenario-to-ConfirmandoEliminacion" style="stroke:#008000;stroke-width:1.0;"/><polygon fill="#008000" points="181.5,259.3594,185.5,250.3594,181.5,254.3594,177.5,250.3594,181.5,259.3594" style="stroke:#008000;stroke-width:1.0;"/><path d="M186.5,210.6094 L186.5,236.6094 L438.5,236.6094 L438.5,220.6094 L428.5,210.6094 L186.5,210.6094 " fill="#FEFFDD" style="stroke:#181818;stroke-width:0.5;"/><path d="M428.5,210.6094 L428.5,220.6094 L438.5,220.6094 L428.5,210.6094 " fill="#FEFFDD" style="stroke:#181818;stroke-width:0.5;"/><text fill="#000000" font-family="sans-serif" font-size="13" lengthAdjust="spacing" textLength="231" x="192.5" y="229.1045">El sistema solicita confirmacion al actor</text></g><!--link ConfirmandoEliminacion to EliminandoEscenario--><g id="link_ConfirmandoEliminacion_EliminandoEscenario"><path d="M181.5,309.8894 C181.5,330.7094 181.5,354.5494 181.5,375.3594 " fill="none" id="ConfirmandoEliminacion-to-EliminandoEscenario" style="stroke:#008000;stroke-width:1.0;"/><polygon fill="#008000" points="181.5,381.3594,185.5,372.3594,181.5,376.3594,177.5,372.3594,181.5,381.3594" style="stroke:#008000;stroke-width:1.0;"/><path d="M186.5,332.6094 L186.5,358.6094 L444.5,358.6094 L444.5,342.6094 L434.5,332.6094 L186.5,332.6094 " fill="#FEFFDD" style="stroke:#181818;stroke-width:0.5;"/><path d="M434.5,332.6094 L434.5,342.6094 L444.5,342.6094 L434.5,332.6094 " fill="#FEFFDD" style="stroke:#181818;stroke-width:0.5;"/><text fill="#000000" font-family="sans-serif" font-size="13" font-weight="bold" lengthAdjust="spacing" textLength="51" x="192.5" y="351.1045">Sistema</text><text fill="#000000" font-family="sans-serif" font-size="13" lengthAdjust="spacing" textLength="182" x="247.5" y="351.1045">elimina el escenario confirmado</text></g><!--link EliminandoEscenario to *end*eliminarEscenarioGherkin--><g id="link_EliminandoEscenario_*end*eliminarEscenarioGherkin"><path d="M181.5,431.6594 C181.5,454.2594 181.5,480.9894 181.5,497.4094 " fill="none" id="EliminandoEscenario-to-*end*eliminarEscenarioGherkin" style="stroke:#008000;stroke-width:1.0;"/><polygon fill="#008000" points="181.5,503.4094,185.5,494.4094,181.5,498.4094,177.5,494.4094,181.5,503.4094" style="stroke:#008000;stroke-width:1.0;"/><path d="M186.5,454.6094 L186.5,480.6094 L405.5,480.6094 L405.5,464.6094 L395.5,454.6094 L186.5,454.6094 " fill="#FEFFDD" style="stroke:#181818;stroke-width:0.5;"/><path d="M395.5,454.6094 L395.5,464.6094 L405.5,464.6094 L395.5,454.6094 " fill="#FEFFDD" style="stroke:#181818;stroke-width:0.5;"/><text fill="#000000" font-family="sans-serif" font-size="13" lengthAdjust="spacing" textLength="198" x="192.5" y="473.1045">El sistema confirma la eliminacion</text></g><g id="ESCENARIOS_GHERKIN_ACTUALIZADOS"><rect fill="#F1F1F1" height="50" rx="12.5" ry="12.5" style="stroke:#181818;stroke-width:0.5;" width="288" x="7" y="632"/><line style="stroke:#181818;stroke-width:0.5;" x1="7" x2="295" y1="659.6094" y2="659.6094"/><text fill="#000000" font-family="sans-serif" font-size="14" lengthAdjust="spacing" textLength="268" x="17" y="651.5332">ESCENARIOS_GHERKIN_ACTUALIZADOS</text></g><g id="ESCENARIO_GHERKIN_ABIERTO"><rect fill="#F1F1F1" height="50" rx="12.5" ry="12.5" style="stroke:#181818;stroke-width:0.5;" width="235" x="330.5" y="632"/><line style="stroke:#181818;stroke-width:0.5;" x1="330.5" x2="565.5" y1="659.6094" y2="659.6094"/><text fill="#000000" font-family="sans-serif" font-size="14" lengthAdjust="spacing" textLength="215" x="340.5" y="651.5332">ESCENARIO_GHERKIN_ABIERTO</text></g><!--link eliminarEscenarioGherkin to ESCENARIOS_GHERKIN_ACTUALIZADOS--><g id="link_eliminarEscenarioGherkin_ESCENARIOS_GHERKIN_ACTUALIZADOS"><path d="M197.22,536.24 C182.04,575.56 170.8499,604.5622 162.4499,626.3322 " fill="none" id="eliminarEscenarioGherkin-to-ESCENARIOS_GHERKIN_ACTUALIZADOS" style="stroke:#008000;stroke-width:1.0;"/><polygon fill="#008000" points="160.29,631.93,167.2617,624.9733,162.0899,627.2652,159.798,622.0934,160.29,631.93" style="stroke:#008000;stroke-width:1.0;"/><path d="M188,571 L188,597 L341,597 L341,581 L331,571 L188,571 " fill="#FEFFDD" style="stroke:#181818;stroke-width:0.5;"/><path d="M331,571 L331,581 L341,581 L331,571 " fill="#FEFFDD" style="stroke:#181818;stroke-width:0.5;"/><text fill="#000000" font-family="sans-serif" font-size="13" lengthAdjust="spacing" textLength="132" x="194" y="589.4951">completarEliminacion()</text></g><!--link eliminarEscenarioGherkin to ESCENARIO_GHERKIN_ABIERTO--><g id="link_eliminarEscenarioGherkin_ESCENARIO_GHERKIN_ABIERTO"><path d="M401.47,536.24 C416.75,575.56 428.0167,604.5674 436.4767,626.3374 " fill="none" id="eliminarEscenarioGherkin-to-ESCENARIO_GHERKIN_ABIERTO" style="stroke:#FF0000;stroke-width:1.0;"/><polygon fill="#FF0000" points="438.65,631.93,439.1184,622.0923,436.8389,627.2695,431.6617,624.99,438.65,631.93" style="stroke:#FF0000;stroke-width:1.0;"/><path d="M431,571 L431,597 L577,597 L577,581 L567,571 L431,571 " fill="#FEFFDD" style="stroke:#181818;stroke-width:0.5;"/><path d="M567,571 L567,581 L577,581 L567,571 " fill="#FEFFDD" style="stroke:#181818;stroke-width:0.5;"/><text fill="#000000" font-family="sans-serif" font-size="13" lengthAdjust="spacing" textLength="125" x="437" y="589.4951">rechazarEliminacion()</text></g><!--SRC=[XP9HQy8m58NVyoikxaK7iZyWGkUAAniAnhrCH69wDuDfKfAykB7_lhJQIcYixKDfSyxzJavgZqALpB02f53eJYL2gUMfUY74EkOGK8f2A6PIoz4_X9uVq7WRC0k3Mul3qG1-2VZhF6JWRw-dA95peHLJkMuzNTrCgozXYbfr9bIchkwo60ohLPl7BOmt3zy6KMt7qpwmqdwULbK1n_e3HR2jt6yViD43QzkebQZosauklXWZYD6phqwCL88Lrc71m6efk70C-CLVkO19ODpfM9Gu9uWIgowQOxAVqdEEoTD-sXGGzjBaodKaJ8GK9F5dTRU11W2oFOAskPRsHyZDdpNOEfsbYsILBUbk_fgkthB5BfcjFvBtx3DvML8I1E6wA2KwF_AA7Ox8TOjzI8Dv0BpodhDqjLw6A8Fym7vkalu1]--></g></svg>