<?xml version="1.0" encoding="us-ascii" standalone="no"?><svg xmlns="http://www.w3.org/2000/svg" xmlns:xlink="http://www.w3.org/1999/xlink" contentStyleType="text/css" height="688px" preserveAspectRatio="none" style="width:452px;height:688px;background:#FFFFFF;" version="1.1" viewBox="0 0 452 688" width="452px" zoomAndPan="magnify"><defs/><g><path d="M27.5,7 L386.5,7 A12.5,12.5 0 0 1 399,19.5 L399,34.6094 L15,34.6094 L15,19.5 A12.5,12.5 0 0 1 27.5,7 " fill="#F1F1F1" style="stroke:#F1F1F1;stroke-width:1.0;"/><rect fill="none" height="528.6094" rx="12.5" ry="12.5" style="stroke:#181818;stroke-width:0.5;" width="384" x="15" y="7"/><line style="stroke:#181818;stroke-width:0.5;" x1="15" x2="399" y1="34.6094" y2="34.6094"/><text fill="#000000" font-family="sans-serif" font-size="14" lengthAdjust="spacing" textLength="102" x="156" y="26.5332">eliminarSesion()</text><g id="eliminarSesion.SeleccionandoSesion"><rect fill="#F1F1F1" height="50" rx="12.5" ry="12.5" style="stroke:#181818;stroke-width:0.5;" width="50" x="27" y="137.6094"/><line style="stroke:#181818;stroke-width:0.5;" x1="27" x2="77" y1="165.2188" y2="165.2188"/><text fill="#000000" font-family="sans-serif" font-size="14" lengthAdjust="spacing" textLength="4" x="50" y="157.1426">&#160;</text></g><g id="eliminarSesion.ConfirmandoEliminacion"><rect fill="#F1F1F1" height="50" rx="12.5" ry="12.5" style="stroke:#181818;stroke-width:0.5;" width="50" x="27" y="259.6094"/><line style="stroke:#181818;stroke-width:0.5;" x1="27" x2="77" y1="287.2188" y2="287.2188"/><text fill="#000000" font-family="sans-serif" font-size="14" lengthAdjust="spacing" textLength="4" x="50" y="279.1426">&#160;</text></g><g id="eliminarSesion.EliminandoArtefactos"><rect fill="#F1F1F1" height="50" rx="12.5" ry="12.5" style="stroke:#181818;stroke-width:0.5;" width="50" x="27" y="381.6094"/><line style="stroke:#181818;stroke-width:0.5;" x1="27" x2="77" y1="409.2188" y2="409.2188"/><text fill="#000000" font-family="sans-serif" font-size="14" lengthAdjust="spacing" textLength="4" x="50" y="401.1426">&#160;</text></g><ellipse cx="52" cy="55.6094" fill="#222222" rx="10" ry="10" style="stroke:#222222;stroke-width:1.0;"/><ellipse cx="52" cy="514.6094" fill="none" rx="11" ry="11" style="stroke:#222222;stroke-width:1.0;"/><ellipse cx="52" cy="514.6094" fill="#222222" rx="6" ry="6" style="stroke:#222222;stroke-width:1.0;"/><!--link *start*eliminarSesion to SeleccionandoSesion--><g id="link_*start*eliminarSesion_SeleccionandoSesion"><path d="M52,65.9294 C52,81.7894 52,108.5194 52,131.2494 " fill="none" id="*start*eliminarSesion-to-SeleccionandoSesion" style="stroke:#008000;stroke-width:1.0;"/><polygon fill="#008000" points="52,137.2494,56,128.2494,52,132.2494,48,128.2494,52,137.2494" style="stroke:#008000;stroke-width:1.0;"/><path d="M57,88.6094 L57,114.6094 L276,114.6094 L276,98.6094 L266,88.6094 L57,88.6094 " fill="#FEFFDD" style="stroke:#181818;stroke-width:0.5;"/><path d="M266,88.6094 L266,98.6094 L276,98.6094 L266,88.6094 " fill="#FEFFDD" style="stroke:#181818;stroke-width:0.5;"/><text fill="#000000" font-family="sans-serif" font-size="13" lengthAdjust="spacing" textLength="198" x="63" y="107.1045">Se selecciona la sesion a eliminar</text></g><!--link SeleccionandoSesion to ConfirmandoEliminacion--><g id="link_SeleccionandoSesion_ConfirmandoEliminacion"><path d="M52,187.8894 C52,208.7094 52,232.5494 52,253.3594 " fill="none" id="SeleccionandoSesion-to-ConfirmandoEliminacion" style="stroke:#008000;stroke-width:1.0;"/><polygon fill="#008000" points="52,259.3594,56,250.3594,52,254.3594,48,250.3594,52,259.3594" style="stroke:#008000;stroke-width:1.0;"/><path d="M57,210.6094 L57,236.6094 L309,236.6094 L309,220.6094 L299,210.6094 L57,210.6094 " fill="#FEFFDD" style="stroke:#181818;stroke-width:0.5;"/><path d="M299,210.6094 L299,220.6094 L309,220.6094 L299,210.6094 " fill="#FEFFDD" style="stroke:#181818;stroke-width:0.5;"/><text fill="#000000" font-family="sans-serif" font-size="13" lengthAdjust="spacing" textLength="231" x="63" y="229.1045">El sistema solicita confirmacion al actor</text></g><!--link ConfirmandoEliminacion to EliminandoArtefactos--><g id="link_ConfirmandoEliminacion_EliminandoArtefactos"><path d="M52,309.8894 C52,330.7094 52,354.5494 52,375.3594 " fill="none" id="ConfirmandoEliminacion-to-EliminandoArtefactos" style="stroke:#008000;stroke-width:1.0;"/><polygon fill="#008000" points="52,381.3594,56,372.3594,52,376.3594,48,372.3594,52,381.3594" style="stroke:#008000;stroke-width:1.0;"/><path d="M57,332.6094 L57,358.6094 L390,358.6094 L390,342.6094 L380,332.6094 L57,332.6094 " fill="#FEFFDD" style="stroke:#181818;stroke-width:0.5;"/><path d="M380,332.6094 L380,342.6094 L390,342.6094 L380,332.6094 " fill="#FEFFDD" style="stroke:#181818;stroke-width:0.5;"/><text fill="#000000" font-family="sans-serif" font-size="13" font-weight="bold" lengthAdjust="spacing" textLength="51" x="63" y="351.1045">Sistema</text><text fill="#000000" font-family="sans-serif" font-size="13" lengthAdjust="spacing" textLength="257" x="118" y="351.1045">elimina la sesion y sus artefactos asociados</text></g><!--link EliminandoArtefactos to *end*eliminarSesion--><g id="link_EliminandoArtefactos_*end*eliminarSesion"><path d="M52,431.6594 C52,454.2594 52,480.9894 52,497.4094 " fill="none" id="EliminandoArtefactos-to-*end*eliminarSesion" style="stroke:#008000;stroke-width:1.0;"/><polygon fill="#008000" points="52,503.4094,56,494.4094,52,498.4094,48,494.4094,52,503.4094" style="stroke:#008000;stroke-width:1.0;"/><path d="M57,454.6094 L57,480.6094 L276,480.6094 L276,464.6094 L266,454.6094 L57,454.6094 " fill="#FEFFDD" style="stroke:#181818;stroke-width:0.5;"/><path d="M266,454.6094 L266,464.6094 L276,464.6094 L266,454.6094 " fill="#FEFFDD" style="stroke:#181818;stroke-width:0.5;"/><text fill="#000000" font-family="sans-serif" font-size="13" lengthAdjust="spacing" textLength="198" x="63" y="473.1045">El sistema confirma la eliminacion</text></g><g id="SESIONES_ACTUALIZADAS"><rect fill="#F1F1F1" height="50" rx="12.5" ry="12.5" style="stroke:#181818;stroke-width:0.5;" width="198" x="7" y="632"/><line style="stroke:#181818;stroke-width:0.5;" x1="7" x2="205" y1="659.6094" y2="659.6094"/><text fill="#000000" font-family="sans-serif" font-size="14" lengthAdjust="spacing" textLength="178" x="17" y="651.5332">SESIONES_ACTUALIZADAS</text></g><g id="SESION_ACTIVA"><rect fill="#F1F1F1" height="50" rx="12.5" ry="12.5" style="stroke:#181818;stroke-width:0.5;" width="127" x="245.5" y="632"/><line style="stroke:#181818;stroke-width:0.5;" x1="245.5" x2="372.5" y1="659.6094" y2="659.6094"/><text fill="#000000" font-family="sans-serif" font-size="14" lengthAdjust="spacing" textLength="107" x="255.5" y="651.5332">SESION_ACTIVA</text></g><!--link eliminarSesion to SESIONES_ACTUALIZADAS--><g id="link_eliminarSesion_SESIONES_ACTUALIZADAS"><path d="M113.54,536.24 C107.05,554.58 103,566 103,566 C103,566 103,602 103,602 C103,602 103.5265,611.4793 104.3265,625.8493 " fill="none" id="eliminarSesion-to-SESIONES_ACTUALIZADAS" style="stroke:#008000;stroke-width:1.0;"/><polygon fill="#008000" points="104.66,631.84,108.1535,622.6316,104.3821,626.8477,100.1659,623.0763,104.66,631.84" style="stroke:#008000;stroke-width:1.0;"/><path d="M108,571 L108,597 L261,597 L261,581 L251,571 L108,571 " fill="#FEFFDD" style="stroke:#181818;stroke-width:0.5;"/><path d="M251,571 L251,581 L261,581 L251,571 " fill="#FEFFDD" style="stroke:#181818;stroke-width:0.5;"/><text fill="#000000" font-family="sans-serif" font-size="13" lengthAdjust="spacing" textLength="132" x="114" y="589.4951">completarEliminacion()</text></g><!--link eliminarSesion to SESION_ACTIVA--><g id="link_eliminarSesion_SESION_ACTIVA"><path d="M277.15,536.24 C287.61,575.56 295.2678,604.3616 301.0578,626.1316 " fill="none" id="eliminarSesion-to-SESION_ACTIVA" style="stroke:#FF0000;stroke-width:1.0;"/><polygon fill="#FF0000" points="302.6,631.93,304.1524,622.2043,301.3149,627.098,296.4211,624.2605,302.6,631.93" style="stroke:#FF0000;stroke-width:1.0;"/><path d="M299,571 L299,597 L445,597 L445,581 L435,571 L299,571 " fill="#FEFFDD" style="stroke:#181818;stroke-width:0.5;"/><path d="M435,571 L435,581 L445,581 L435,571 " fill="#FEFFDD" style="stroke:#181818;stroke-width:0.5;"/><text fill="#000000" font-family="sans-serif" font-size="13" lengthAdjust="spacing" textLength="125" x="305" y="589.4951">rechazarEliminacion()</text></g><!--SRC=[XL9BJiCm4Dtx5AEoQP4gBb1LYaeMaH0i32oeAZHrfc3LiIFRB0BYxZYVfdMJbcHb-ytxsMulTOaM2r1IawzAWjAegbumvZnw0bAoa1ej9oUD1dGmYRUcimdyC0XVEp09Vq1nKYH4E4UTcnOv1AsCtabRr92q9HMZkEumm1BhQOV26ySQsFfs0_FrpOSbqflvygAiDe4j-0_Hziq69t0z5XI6LHkmJzp0IEVDBEk61koH-fKy0mEf0YUTfo986oM5z0YYcnUD4mLrq34VupgHbT7AHeqijalU6bdSRPU7-2ULLE2-761F4sx428bvHnXR6zEDZ8KR-xUGGm-r2JehifVxPUpiSKOF8UNPqsFAtvFLyqloaBqbzmbdaQWmHQd8eptfS3fZnpn3UalvaRocpbwJcDII-CJlYvn_]--></g></svg>