<?xml version="1.0" encoding="us-ascii" standalone="no"?><svg xmlns="http://www.w3.org/2000/svg" xmlns:xlink="http://www.w3.org/1999/xlink" contentStyleType="text/css" height="736px" preserveAspectRatio="none" style="width:551px;height:736px;background:#FFFFFF;" version="1.1" viewBox="0 0 551 736" width="551px" zoomAndPan="magnify"><defs/><g><path d="M120,7 L442,7 A12.5,12.5 0 0 1 454.5,19.5 L454.5,34.6094 L107.5,34.6094 L107.5,19.5 A12.5,12.5 0 0 1 120,7 " fill="#F1F1F1" style="stroke:#F1F1F1;stroke-width:1.0;"/><rect fill="none" height="576.6094" rx="12.5" ry="12.5" style="stroke:#181818;stroke-width:0.5;" width="347" x="107.5" y="7"/><line style="stroke:#181818;stroke-width:0.5;" x1="107.5" x2="454.5" y1="34.6094" y2="34.6094"/><text fill="#000000" font-family="sans-serif" font-size="14" lengthAdjust="spacing" textLength="197" x="182.5" y="26.5332">extraerRequisitosFuncionales()</text><g id="extraerRequisitosFuncionales.ProcesandoDocumentacion"><rect fill="#F1F1F1" height="50" rx="12.5" ry="12.5" style="stroke:#181818;stroke-width:0.5;" width="50" x="119.5" y="137.6094"/><line style="stroke:#181818;stroke-width:0.5;" x1="119.5" x2="169.5" y1="165.2188" y2="165.2188"/><text fill="#000000" font-family="sans-serif" font-size="14" lengthAdjust="spacing" textLength="4" x="142.5" y="157.1426">&#160;</text></g><g id="extraerRequisitosFuncionales.IdentificandoRequisitos"><rect fill="#F1F1F1" height="50" rx="12.5" ry="12.5" style="stroke:#181818;stroke-width:0.5;" width="50" x="119.5" y="275.6094"/><line style="stroke:#181818;stroke-width:0.5;" x1="119.5" x2="169.5" y1="303.2188" y2="303.2188"/><text fill="#000000" font-family="sans-serif" font-size="14" lengthAdjust="spacing" textLength="4" x="142.5" y="295.1426">&#160;</text></g><g id="extraerRequisitosFuncionales.RegistrandoRequisitos"><rect fill="#F1F1F1" height="50" rx="12.5" ry="12.5" style="stroke:#181818;stroke-width:0.5;" width="50" x="119.5" y="413.6094"/><line style="stroke:#181818;stroke-width:0.5;" x1="119.5" x2="169.5" y1="441.2188" y2="441.2188"/><text fill="#000000" font-family="sans-serif" font-size="14" lengthAdjust="spacing" textLength="4" x="142.5" y="433.1426">&#160;</text></g><ellipse cx="144.5" cy="55.6094" fill="#222222" rx="10" ry="10" style="stroke:#222222;stroke-width:1.0;"/><ellipse cx="144.5" cy="562.6094" fill="none" rx="11" ry="11" style="stroke:#222222;stroke-width:1.0;"/><ellipse cx="144.5" cy="562.6094" fill="#222222" rx="6" ry="6" style="stroke:#222222;stroke-width:1.0;"/><!--link *start*extraerRequisitosFuncionales to ProcesandoDocumentacion--><g id="link_*start*extraerRequisitosFuncionales_ProcesandoDocumentacion"><path d="M144.5,65.9294 C144.5,81.7894 144.5,108.5194 144.5,131.2494 " fill="none" id="*start*extraerRequisitosFuncionales-to-ProcesandoDocumentacion" style="stroke:#008000;stroke-width:1.0;"/><polygon fill="#008000" points="144.5,137.2494,148.5,128.2494,144.5,132.2494,140.5,128.2494,144.5,137.2494" style="stroke:#008000;stroke-width:1.0;"/><path d="M149.5,88.6094 L149.5,114.6094 L445.5,114.6094 L445.5,98.6094 L435.5,88.6094 L149.5,88.6094 " fill="#FEFFDD" style="stroke:#181818;stroke-width:0.5;"/><path d="M435.5,88.6094 L435.5,98.6094 L445.5,98.6094 L435.5,88.6094 " fill="#FEFFDD" style="stroke:#181818;stroke-width:0.5;"/><text fill="#000000" font-family="sans-serif" font-size="13" lengthAdjust="spacing" textLength="275" x="155.5" y="107.1045">Se inicia la extraccion de requisitos funcionales</text></g><!--link ProcesandoDocumentacion to IdentificandoRequisitos--><g id="link_ProcesandoDocumentacion_IdentificandoRequisitos"><path d="M144.5,187.6094 C144.5,212.3194 144.5,244.6094 144.5,269.3894 " fill="none" id="ProcesandoDocumentacion-to-IdentificandoRequisitos" style="stroke:#008000;stroke-width:1.0;"/><polygon fill="#008000" points="144.5,275.3894,148.5,266.3894,144.5,270.3894,140.5,266.3894,144.5,275.3894" style="stroke:#008000;stroke-width:1.0;"/><path d="M149.5,210.6094 L149.5,252.6094 L407.5,252.6094 L407.5,220.6094 L397.5,210.6094 L149.5,210.6094 " fill="#FEFFDD" style="stroke:#181818;stroke-width:0.5;"/><path d="M397.5,210.6094 L397.5,220.6094 L407.5,220.6094 L397.5,210.6094 " fill="#FEFFDD" style="stroke:#181818;stroke-width:0.5;"/><text fill="#000000" font-family="sans-serif" font-size="13" lengthAdjust="spacing" textLength="172" x="155.5" y="229.1045">Se procesa la documentacion</text><text fill="#000000" font-family="sans-serif" font-size="13" lengthAdjust="spacing" textLength="237" x="155.5" y="245.4561">y se identifican los requisitos funcionales</text></g><!--link IdentificandoRequisitos to RegistrandoRequisitos--><g id="link_IdentificandoRequisitos_RegistrandoRequisitos"><path d="M144.5,325.6094 C144.5,350.3194 144.5,382.6094 144.5,407.3894 " fill="none" id="IdentificandoRequisitos-to-RegistrandoRequisitos" style="stroke:#008000;stroke-width:1.0;"/><polygon fill="#008000" points="144.5,413.3894,148.5,404.3894,144.5,408.3894,140.5,404.3894,144.5,413.3894" style="stroke:#008000;stroke-width:1.0;"/><path d="M149.5,348.6094 L149.5,390.6094 L333.5,390.6094 L333.5,358.6094 L323.5,348.6094 L149.5,348.6094 " fill="#FEFFDD" style="stroke:#181818;stroke-width:0.5;"/><path d="M323.5,348.6094 L323.5,358.6094 L333.5,358.6094 L323.5,348.6094 " fill="#FEFFDD" style="stroke:#181818;stroke-width:0.5;"/><text fill="#000000" font-family="sans-serif" font-size="13" font-weight="bold" lengthAdjust="spacing" textLength="51" x="155.5" y="367.1045">Sistema</text><text fill="#000000" font-family="sans-serif" font-size="13" lengthAdjust="spacing" textLength="104" x="210.5" y="367.1045">prepara el registro</text><text fill="#000000" font-family="sans-serif" font-size="13" lengthAdjust="spacing" textLength="163" x="155.5" y="383.4561">de los requisitos detectados</text></g><!--link RegistrandoRequisitos to *end*extraerRequisitosFuncionales--><g id="link_RegistrandoRequisitos_*end*extraerRequisitosFuncionales"><path d="M144.5,463.7094 C144.5,490.3794 144.5,526.1094 144.5,545.3094 " fill="none" id="RegistrandoRequisitos-to-*end*extraerRequisitosFuncionales" style="stroke:#008000;stroke-width:1.0;"/><polygon fill="#008000" points="144.5,551.3094,148.5,542.3094,144.5,546.3094,140.5,542.3094,144.5,551.3094" style="stroke:#008000;stroke-width:1.0;"/><path d="M149.5,486.6094 L149.5,528.6094 L414.5,528.6094 L414.5,496.6094 L404.5,486.6094 L149.5,486.6094 " fill="#FEFFDD" style="stroke:#181818;stroke-width:0.5;"/><path d="M404.5,486.6094 L404.5,496.6094 L414.5,496.6094 L404.5,486.6094 " fill="#FEFFDD" style="stroke:#181818;stroke-width:0.5;"/><text fill="#000000" font-family="sans-serif" font-size="13" font-weight="bold" lengthAdjust="spacing" textLength="51" x="155.5" y="505.1045">Sistema</text><text fill="#000000" font-family="sans-serif" font-size="13" lengthAdjust="spacing" textLength="189" x="210.5" y="505.1045">guarda los requisitos funcionales</text><text fill="#000000" font-family="sans-serif" font-size="13" lengthAdjust="spacing" textLength="4" x="155.5" y="521.4561">&#160;</text></g><g id="REQUISITOS_FUNCIONALES_ABIERTO"><rect fill="#F1F1F1" height="50" rx="12.5" ry="12.5" style="stroke:#181818;stroke-width:0.5;" width="274" x="7" y="680"/><line style="stroke:#181818;stroke-width:0.5;" x1="7" x2="281" y1="707.6094" y2="707.6094"/><text fill="#000000" font-family="sans-serif" font-size="14" lengthAdjust="spacing" textLength="254" x="17" y="699.5332">REQUISITOS_FUNCIONALES_ABIERTO</text></g><g id="DOCUMENTACION_ABIERTA"><rect fill="#F1F1F1" height="50" rx="12.5" ry="12.5" style="stroke:#181818;stroke-width:0.5;" width="206" x="316" y="680"/><line style="stroke:#181818;stroke-width:0.5;" x1="316" x2="522" y1="707.6094" y2="707.6094"/><text fill="#000000" font-family="sans-serif" font-size="14" lengthAdjust="spacing" textLength="186" x="326" y="699.5332">DOCUMENTACION_ABIERTA</text></g><!--link extraerRequisitosFuncionales to REQUISITOS_FUNCIONALES_ABIERTO--><g id="link_extraerRequisitosFuncionales_REQUISITOS_FUNCIONALES_ABIERTO"><path d="M184.27,584.22 C171.01,623.65 161.3823,652.3129 154.0923,673.9929 " fill="none" id="extraerRequisitosFuncionales-to-REQUISITOS_FUNCIONALES_ABIERTO" style="stroke:#008000;stroke-width:1.0;"/><polygon fill="#008000" points="152.18,679.68,158.8399,672.4242,153.7736,674.9408,151.2571,669.8745,152.18,679.68" style="stroke:#008000;stroke-width:1.0;"/><path d="M179,619 L179,645 L327,645 L327,629 L317,619 L179,619 " fill="#FEFFDD" style="stroke:#181818;stroke-width:0.5;"/><path d="M317,619 L317,629 L327,629 L317,619 " fill="#FEFFDD" style="stroke:#181818;stroke-width:0.5;"/><text fill="#000000" font-family="sans-serif" font-size="13" lengthAdjust="spacing" textLength="127" x="185" y="637.4951">completarExtraccion()</text></g><!--link extraerRequisitosFuncionales to DOCUMENTACION_ABIERTA--><g id="link_extraerRequisitosFuncionales_DOCUMENTACION_ABIERTA"><path d="M378.43,584.22 C391.79,623.65 401.4959,652.3169 408.8359,673.9969 " fill="none" id="extraerRequisitosFuncionales-to-DOCUMENTACION_ABIERTA" style="stroke:#FF0000;stroke-width:1.0;"/><polygon fill="#FF0000" points="410.76,679.68,411.6626,669.8726,409.1566,674.9441,404.0851,672.438,410.76,679.68" style="stroke:#FF0000;stroke-width:1.0;"/><path d="M403,619 L403,645 L544,645 L544,629 L534,619 L403,619 " fill="#FEFFDD" style="stroke:#181818;stroke-width:0.5;"/><path d="M534,619 L534,629 L544,629 L534,619 " fill="#FEFFDD" style="stroke:#181818;stroke-width:0.5;"/><text fill="#000000" font-family="sans-serif" font-size="13" lengthAdjust="spacing" textLength="120" x="409" y="637.4951">rechazarExtraccion()</text></g><!--SRC=[ZPDHRu8m58NV-HKtxaMNcFq1Oy8K4v9DDj4dOqnjhwuHMjQMP6xPVryBYwGJcV14EJtdkuUYZrmKH94SCYxGd0g4GcOdzn04sX23W1z64LGBV2-vvaRgMIaebu9ag85ew7K9-eCUV0K1sAjswzdRRdfHag8cWicff6MEmX2tvL8OC_kExpbrsYRYKhZ00zSMn9TLklNz1eRhkuD259lXk3DSI6ifXQlZM2sa25nmoWbafEw2EZ4m17NEWNqpShKB1QkiQe0hWHvKrw1jK4NjwQZOnHGdq1QxSOJCCjwCUmN5msslknLsj1kdLeiv6JtinXOStOa3p2nHPI8hcItq3oL3WzGG9jiWMm4yHFlPRm8wb4GnqbsH3_0T19r_XLTKzBgAqtYPfDlPQZw9atdu5ANRy36E5iiayE2ep8iC3L7H-Ppr1q4pzt-X2fcBd2QJrNCqNuOkxJSfz9CKqZVoUIte1m00]--></g></svg>