<?xml version="1.0" encoding="us-ascii" standalone="no"?><svg xmlns="http://www.w3.org/2000/svg" xmlns:xlink="http://www.w3.org/1999/xlink" contentStyleType="text/css" height="688px" preserveAspectRatio="none" style="width:528px;height:688px;background:#FFFFFF;" version="1.1" viewBox="0 0 528 688" width="528px" zoomAndPan="magnify"><defs/><g><path d="M122.5,7 L400.5,7 A12.5,12.5 0 0 1 413,19.5 L413,34.6094 L110,34.6094 L110,19.5 A12.5,12.5 0 0 1 122.5,7 " fill="#F1F1F1" style="stroke:#F1F1F1;stroke-width:1.0;"/><rect fill="none" height="528.6094" rx="12.5" ry="12.5" style="stroke:#181818;stroke-width:0.5;" width="303" x="110" y="7"/><line style="stroke:#181818;stroke-width:0.5;" x1="110" x2="413" y1="34.6094" y2="34.6094"/><text fill="#000000" font-family="sans-serif" font-size="14" lengthAdjust="spacing" textLength="156" x="183.5" y="26.5332">crearEscenarioGherkin()</text><g id="crearEscenarioGherkin.IntroduciendoEscenario"><rect fill="#F1F1F1" height="50" rx="12.5" ry="12.5" style="stroke:#181818;stroke-width:0.5;" width="50" x="122" y="137.6094"/><line style="stroke:#181818;stroke-width:0.5;" x1="122" x2="172" y1="165.2188" y2="165.2188"/><text fill="#000000" font-family="sans-serif" font-size="14" lengthAdjust="spacing" textLength="4" x="145" y="157.1426">&#160;</text></g><g id="crearEscenarioGherkin.ValidandoPasos"><rect fill="#F1F1F1" height="50" rx="12.5" ry="12.5" style="stroke:#181818;stroke-width:0.5;" width="50" x="122" y="259.6094"/><line style="stroke:#181818;stroke-width:0.5;" x1="122" x2="172" y1="287.2188" y2="287.2188"/><text fill="#000000" font-family="sans-serif" font-size="14" lengthAdjust="spacing" textLength="4" x="145" y="279.1426">&#160;</text></g><g id="crearEscenarioGherkin.RegistrandoEscenario"><rect fill="#F1F1F1" height="50" rx="12.5" ry="12.5" style="stroke:#181818;stroke-width:0.5;" width="50" x="122" y="381.6094"/><line style="stroke:#181818;stroke-width:0.5;" x1="122" x2="172" y1="409.2188" y2="409.2188"/><text fill="#000000" font-family="sans-serif" font-size="14" lengthAdjust="spacing" textLength="4" x="145" y="401.1426">&#160;</text></g><ellipse cx="147" cy="55.6094" fill="#222222" rx="10" ry="10" style="stroke:#222222;stroke-width:1.0;"/><ellipse cx="147" cy="514.6094" fill="none" rx="11" ry="11" style="stroke:#222222;stroke-width:1.0;"/><ellipse cx="147" cy="514.6094" fill="#222222" rx="6" ry="6" style="stroke:#222222;stroke-width:1.0;"/><!--link *start*crearEscenarioGherkin to IntroduciendoEscenario--><g id="link_*start*crearEscenarioGherkin_IntroduciendoEscenario"><path d="M147,65.9294 C147,81.7894 147,108.5194 147,131.2494 " fill="none" id="*start*crearEscenarioGherkin-to-IntroduciendoEscenario" style="stroke:#008000;stroke-width:1.0;"/><polygon fill="#008000" points="147,137.2494,151,128.2494,147,132.2494,143,128.2494,147,137.2494" style="stroke:#008000;stroke-width:1.0;"/><path d="M152,88.6094 L152,114.6094 L404,114.6094 L404,98.6094 L394,88.6094 L152,88.6094 " fill="#FEFFDD" style="stroke:#181818;stroke-width:0.5;"/><path d="M394,88.6094 L394,98.6094 L404,98.6094 L394,88.6094 " fill="#FEFFDD" style="stroke:#181818;stroke-width:0.5;"/><text fill="#000000" font-family="sans-serif" font-size="13" lengthAdjust="spacing" textLength="231" x="158" y="107.1045">El actor introduce titulo, feature y pasos</text></g><!--link IntroduciendoEscenario to ValidandoPasos--><g id="link_IntroduciendoEscenario_ValidandoPasos"><path d="M147,187.8894 C147,208.7094 147,232.5494 147,253.3594 " fill="none" id="IntroduciendoEscenario-to-ValidandoPasos" style="stroke:#008000;stroke-width:1.0;"/><polygon fill="#008000" points="147,259.3594,151,250.3594,147,254.3594,143,250.3594,147,259.3594" style="stroke:#008000;stroke-width:1.0;"/><path d="M152,210.6094 L152,236.6094 L385,236.6094 L385,220.6094 L375,210.6094 L152,210.6094 " fill="#FEFFDD" style="stroke:#181818;stroke-width:0.5;"/><path d="M375,210.6094 L375,220.6094 L385,220.6094 L375,210.6094 " fill="#FEFFDD" style="stroke:#181818;stroke-width:0.5;"/><text fill="#000000" font-family="sans-serif" font-size="13" font-weight="bold" lengthAdjust="spacing" textLength="51" x="158" y="229.1045">Sistema</text><text fill="#000000" font-family="sans-serif" font-size="13" lengthAdjust="spacing" textLength="157" x="213" y="229.1045">valida la estructura Gherkin</text></g><!--link ValidandoPasos to RegistrandoEscenario--><g id="link_ValidandoPasos_RegistrandoEscenario"><path d="M147,309.8894 C147,330.7094 147,354.5494 147,375.3594 " fill="none" id="ValidandoPasos-to-RegistrandoEscenario" style="stroke:#008000;stroke-width:1.0;"/><polygon fill="#008000" points="147,381.3594,151,372.3594,147,376.3594,143,372.3594,147,381.3594" style="stroke:#008000;stroke-width:1.0;"/><path d="M152,332.6094 L152,358.6094 L395,358.6094 L395,342.6094 L385,332.6094 L152,332.6094 " fill="#FEFFDD" style="stroke:#181818;stroke-width:0.5;"/><path d="M385,332.6094 L385,342.6094 L395,342.6094 L385,332.6094 " fill="#FEFFDD" style="stroke:#181818;stroke-width:0.5;"/><text fill="#000000" font-family="sans-serif" font-size="13" font-weight="bold" lengthAdjust="spacing" textLength="51" x="158" y="351.1045">Sistema</text><text fill="#000000" font-family="sans-serif" font-size="13" lengthAdjust="spacing" textLength="167" x="213" y="351.1045">registra el escenario validado</text></g><!--link RegistrandoEscenario to *end*crearEscenarioGherkin--><g id="link_RegistrandoEscenario_*end*crearEscenarioGherkin"><path d="M147,431.6594 C147,454.2594 147,480.9894 147,497.4094 " fill="none" id="RegistrandoEscenario-to-*end*crearEscenarioGherkin" style="stroke:#008000;stroke-width:1.0;"/><polygon fill="#008000" points="147,503.4094,151,494.4094,147,498.4094,143,494.4094,147,503.4094" style="stroke:#008000;stroke-width:1.0;"/><path d="M152,454.6094 L152,480.6094 L355,480.6094 L355,464.6094 L345,454.6094 L152,454.6094 " fill="#FEFFDD" style="stroke:#181818;stroke-width:0.5;"/><path d="M345,454.6094 L345,464.6094 L355,464.6094 L345,454.6094 " fill="#FEFFDD" style="stroke:#181818;stroke-width:0.5;"/><text fill="#000000" font-family="sans-serif" font-size="13" lengthAdjust="spacing" textLength="182" x="158" y="473.1045">El sistema confirma la creacion</text></g><g id="ESCENARIO_GHERKIN_ABIERTO"><rect fill="#F1F1F1" height="50" rx="12.5" ry="12.5" style="stroke:#181818;stroke-width:0.5;" width="235" x="7" y="632"/><line style="stroke:#181818;stroke-width:0.5;" x1="7" x2="242" y1="659.6094" y2="659.6094"/><text fill="#000000" font-family="sans-serif" font-size="14" lengthAdjust="spacing" textLength="215" x="17" y="651.5332">ESCENARIO_GHERKIN_ABIERTO</text></g><g id="ESCENARIOS_GHERKIN_ABIERTO"><rect fill="#F1F1F1" height="50" rx="12.5" ry="12.5" style="stroke:#181818;stroke-width:0.5;" width="244" x="277.5" y="632"/><line style="stroke:#181818;stroke-width:0.5;" x1="277.5" x2="521.5" y1="659.6094" y2="659.6094"/><text fill="#000000" font-family="sans-serif" font-size="14" lengthAdjust="spacing" textLength="224" x="287.5" y="651.5332">ESCENARIOS_GHERKIN_ABIERTO</text></g><!--link crearEscenarioGherkin to ESCENARIO_GHERKIN_ABIERTO--><g id="link_crearEscenarioGherkin_ESCENARIO_GHERKIN_ABIERTO"><path d="M167.28,536.24 C153.24,575.56 142.8869,604.5091 135.1169,626.2791 " fill="none" id="crearEscenarioGherkin-to-ESCENARIO_GHERKIN_ABIERTO" style="stroke:#008000;stroke-width:1.0;"/><polygon fill="#008000" points="133.1,631.93,139.8925,624.7983,134.7807,627.2209,132.3581,622.1091,133.1,631.93" style="stroke:#008000;stroke-width:1.0;"/><path d="M159.5,571 L159.5,597 L296.5,597 L296.5,581 L286.5,571 L159.5,571 " fill="#FEFFDD" style="stroke:#181818;stroke-width:0.5;"/><path d="M286.5,571 L286.5,581 L296.5,581 L286.5,571 " fill="#FEFFDD" style="stroke:#181818;stroke-width:0.5;"/><text fill="#000000" font-family="sans-serif" font-size="13" lengthAdjust="spacing" textLength="116" x="165.5" y="589.4951">completarCreacion()</text></g><!--link crearEscenarioGherkin to ESCENARIOS_GHERKIN_ABIERTO--><g id="link_crearEscenarioGherkin_ESCENARIOS_GHERKIN_ABIERTO"><path d="M356.4,536.24 C370.56,575.56 380.9793,604.5141 388.8093,626.2841 " fill="none" id="crearEscenarioGherkin-to-ESCENARIOS_GHERKIN_ABIERTO" style="stroke:#FF0000;stroke-width:1.0;"/><polygon fill="#FF0000" points="390.84,631.93,391.558,622.1073,389.1478,627.2251,384.0301,624.8149,390.84,631.93" style="stroke:#FF0000;stroke-width:1.0;"/><path d="M383.5,571 L383.5,597 L513.5,597 L513.5,581 L503.5,571 L383.5,571 " fill="#FEFFDD" style="stroke:#181818;stroke-width:0.5;"/><path d="M503.5,571 L503.5,581 L513.5,581 L503.5,571 " fill="#FEFFDD" style="stroke:#181818;stroke-width:0.5;"/><text fill="#000000" font-family="sans-serif" font-size="13" lengthAdjust="spacing" textLength="109" x="389.5" y="589.4951">rechazarCreacion()</text></g><!--SRC=[ZPBHQi8m58Rl-nG7TwDZiXSGmKbnPQ2ZZjs8o34zQZ1DoaawS6FlljXsRfrHbbmbEV_v_Z-9tKjT86CEIcfoXuAWCEfmN4IHTUW811DoR0LfP6acEsAl0RJG2PvqUntuYC2FMjxnqnSdsh79IY59P-QaEQzxHIKpz3NFQ8qzFqzfAwrZR7MfoXQtI-WlRhPCf9VzuJMYDhwXqSVC-seZLe326GRPY0YSTAKoTx0XT2KJ7A0uEV8TgnurE0ngUGcaElCmM0_dFXhbEBXV3-6jae1289-t5Du4GdF70HDjGWiUlBB_ME162AIyYUzSjR7C14o4I2qh_eqkFe2joI2CtaZEg-Z77oQa-HFuCuh2d_8tAfwFu-aeJMQhoMESFYNJrUWXYTENMTI22vCNYXpok45rUz5Fg8iOfgm5cL-dC8aTleSXNm00]--></g></svg>