<?xml version="1.0" encoding="us-ascii" standalone="no"?><svg xmlns="http://www.w3.org/2000/svg" xmlns:xlink="http://www.w3.org/1999/xlink" contentStyleType="text/css" height="736px" preserveAspectRatio="none" style="width:429px;height:736px;background:#FFFFFF;" version="1.1" viewBox="0 0 429 736" width="429px" zoomAndPan="magnify"><defs/><g><path d="M59,7 L335,7 A12.5,12.5 0 0 1 347.5,19.5 L347.5,34.6094 L46.5,34.6094 L46.5,19.5 A12.5,12.5 0 0 1 59,7 " fill="#F1F1F1" style="stroke:#F1F1F1;stroke-width:1.0;"/><rect fill="none" height="576.6094" rx="12.5" ry="12.5" style="stroke:#181818;stroke-width:0.5;" width="301" x="46.5" y="7"/><line style="stroke:#181818;stroke-width:0.5;" x1="46.5" x2="347.5" y1="34.6094" y2="34.6094"/><text fill="#000000" font-family="sans-serif" font-size="14" lengthAdjust="spacing" textLength="124" x="135" y="26.5332">consultarBorrador()</text><g id="consultarBorrador.SeleccionandoBorrador"><rect fill="#F1F1F1" height="50" rx="12.5" ry="12.5" style="stroke:#181818;stroke-width:0.5;" width="50" x="58.5" y="137.6094"/><line style="stroke:#181818;stroke-width:0.5;" x1="58.5" x2="108.5" y1="165.2188" y2="165.2188"/><text fill="#000000" font-family="sans-serif" font-size="14" lengthAdjust="spacing" textLength="4" x="81.5" y="157.1426">&#160;</text></g><g id="consultarBorrador.RecuperandoDetalle"><rect fill="#F1F1F1" height="50" rx="12.5" ry="12.5" style="stroke:#181818;stroke-width:0.5;" width="50" x="58.5" y="275.6094"/><line style="stroke:#181818;stroke-width:0.5;" x1="58.5" x2="108.5" y1="303.2188" y2="303.2188"/><text fill="#000000" font-family="sans-serif" font-size="14" lengthAdjust="spacing" textLength="4" x="81.5" y="295.1426">&#160;</text></g><g id="consultarBorrador.MostrandoDetalle"><rect fill="#F1F1F1" height="50" rx="12.5" ry="12.5" style="stroke:#181818;stroke-width:0.5;" width="50" x="58.5" y="413.6094"/><line style="stroke:#181818;stroke-width:0.5;" x1="58.5" x2="108.5" y1="441.2188" y2="441.2188"/><text fill="#000000" font-family="sans-serif" font-size="14" lengthAdjust="spacing" textLength="4" x="81.5" y="433.1426">&#160;</text></g><ellipse cx="83.5" cy="55.6094" fill="#222222" rx="10" ry="10" style="stroke:#222222;stroke-width:1.0;"/><ellipse cx="83.5" cy="562.6094" fill="none" rx="11" ry="11" style="stroke:#222222;stroke-width:1.0;"/><ellipse cx="83.5" cy="562.6094" fill="#222222" rx="6" ry="6" style="stroke:#222222;stroke-width:1.0;"/><!--link *start*consultarBorrador to SeleccionandoBorrador--><g id="link_*start*consultarBorrador_SeleccionandoBorrador"><path d="M83.5,65.9294 C83.5,81.7894 83.5,108.5194 83.5,131.2494 " fill="none" id="*start*consultarBorrador-to-SeleccionandoBorrador" style="stroke:#008000;stroke-width:1.0;"/><polygon fill="#008000" points="83.5,137.2494,87.5,128.2494,83.5,132.2494,79.5,128.2494,83.5,137.2494" style="stroke:#008000;stroke-width:1.0;"/><path d="M88.5,88.6094 L88.5,114.6094 L296.5,114.6094 L296.5,98.6094 L286.5,88.6094 L88.5,88.6094 " fill="#FEFFDD" style="stroke:#181818;stroke-width:0.5;"/><path d="M286.5,88.6094 L286.5,98.6094 L296.5,98.6094 L286.5,88.6094 " fill="#FEFFDD" style="stroke:#181818;stroke-width:0.5;"/><text fill="#000000" font-family="sans-serif" font-size="13" lengthAdjust="spacing" textLength="187" x="94.5" y="107.1045">Se solicita consultar un borrador</text></g><!--link SeleccionandoBorrador to RecuperandoDetalle--><g id="link_SeleccionandoBorrador_RecuperandoDetalle"><path d="M83.5,187.6094 C83.5,212.3194 83.5,244.6094 83.5,269.3894 " fill="none" id="SeleccionandoBorrador-to-RecuperandoDetalle" style="stroke:#008000;stroke-width:1.0;"/><polygon fill="#008000" points="83.5,275.3894,87.5,266.3894,83.5,270.3894,79.5,266.3894,83.5,275.3894" style="stroke:#008000;stroke-width:1.0;"/><path d="M88.5,210.6094 L88.5,252.6094 L338.5,252.6094 L338.5,220.6094 L328.5,210.6094 L88.5,210.6094 " fill="#FEFFDD" style="stroke:#181818;stroke-width:0.5;"/><path d="M328.5,210.6094 L328.5,220.6094 L338.5,220.6094 L328.5,210.6094 " fill="#FEFFDD" style="stroke:#181818;stroke-width:0.5;"/><text fill="#000000" font-family="sans-serif" font-size="13" font-weight="bold" lengthAdjust="spacing" textLength="51" x="94.5" y="229.1045">Sistema</text><text fill="#000000" font-family="sans-serif" font-size="13" lengthAdjust="spacing" textLength="174" x="149.5" y="229.1045">toma el borrador seleccionado</text><text fill="#000000" font-family="sans-serif" font-size="13" lengthAdjust="spacing" textLength="121" x="94.5" y="245.4561">y recupera su detalle</text></g><!--link RecuperandoDetalle to MostrandoDetalle--><g id="link_RecuperandoDetalle_MostrandoDetalle"><path d="M83.5,325.6094 C83.5,350.3194 83.5,382.6094 83.5,407.3894 " fill="none" id="RecuperandoDetalle-to-MostrandoDetalle" style="stroke:#008000;stroke-width:1.0;"/><polygon fill="#008000" points="83.5,413.3894,87.5,404.3894,83.5,408.3894,79.5,404.3894,83.5,413.3894" style="stroke:#008000;stroke-width:1.0;"/><path d="M88.5,348.6094 L88.5,390.6094 L291.5,390.6094 L291.5,358.6094 L281.5,348.6094 L88.5,348.6094 " fill="#FEFFDD" style="stroke:#181818;stroke-width:0.5;"/><path d="M281.5,348.6094 L281.5,358.6094 L291.5,358.6094 L281.5,348.6094 " fill="#FEFFDD" style="stroke:#181818;stroke-width:0.5;"/><text fill="#000000" font-family="sans-serif" font-size="13" font-weight="bold" lengthAdjust="spacing" textLength="51" x="94.5" y="367.1045">Sistema</text><text fill="#000000" font-family="sans-serif" font-size="13" lengthAdjust="spacing" textLength="127" x="149.5" y="367.1045">prepara la informacion</text><text fill="#000000" font-family="sans-serif" font-size="13" lengthAdjust="spacing" textLength="120" x="94.5" y="383.4561">para su visualizacion</text></g><!--link MostrandoDetalle to *end*consultarBorrador--><g id="link_MostrandoDetalle_*end*consultarBorrador"><path d="M83.5,463.7094 C83.5,490.3794 83.5,526.1094 83.5,545.3094 " fill="none" id="MostrandoDetalle-to-*end*consultarBorrador" style="stroke:#008000;stroke-width:1.0;"/><polygon fill="#008000" points="83.5,551.3094,87.5,542.3094,83.5,546.3094,79.5,542.3094,83.5,551.3094" style="stroke:#008000;stroke-width:1.0;"/><path d="M88.5,486.6094 L88.5,528.6094 L267.5,528.6094 L267.5,496.6094 L257.5,486.6094 L88.5,486.6094 " fill="#FEFFDD" style="stroke:#181818;stroke-width:0.5;"/><path d="M257.5,486.6094 L257.5,496.6094 L267.5,496.6094 L257.5,486.6094 " fill="#FEFFDD" style="stroke:#181818;stroke-width:0.5;"/><text fill="#000000" font-family="sans-serif" font-size="13" font-weight="bold" lengthAdjust="spacing" textLength="51" x="94.5" y="505.1045">Sistema</text><text fill="#000000" font-family="sans-serif" font-size="13" lengthAdjust="spacing" textLength="103" x="149.5" y="505.1045">muestra el detalle</text><text fill="#000000" font-family="sans-serif" font-size="13" lengthAdjust="spacing" textLength="68" x="94.5" y="521.4561">del borrador</text></g><g id="BORRADOR_ABIERTO"><rect fill="#F1F1F1" height="50" rx="12.5" ry="12.5" style="stroke:#181818;stroke-width:0.5;" width="168" x="7" y="680"/><line style="stroke:#181818;stroke-width:0.5;" x1="7" x2="175" y1="707.6094" y2="707.6094"/><text fill="#000000" font-family="sans-serif" font-size="14" lengthAdjust="spacing" textLength="148" x="17" y="699.5332">BORRADOR_ABIERTO</text></g><g id="BORRADORES_ABIERTO"><rect fill="#F1F1F1" height="50" rx="12.5" ry="12.5" style="stroke:#181818;stroke-width:0.5;" width="186" x="210" y="680"/><line style="stroke:#181818;stroke-width:0.5;" x1="210" x2="396" y1="707.6094" y2="707.6094"/><text fill="#000000" font-family="sans-serif" font-size="14" lengthAdjust="spacing" textLength="166" x="220" y="699.5332">BORRADORES_ABIERTO</text></g><!--link consultarBorrador to BORRADOR_ABIERTO--><g id="link_consultarBorrador_BORRADOR_ABIERTO"><path d="M120.9,584.13 C116.01,602.6 113,614 113,614 C113,614 104.8333,647.3913 98.3233,674.0513 " fill="none" id="consultarBorrador-to-BORRADOR_ABIERTO" style="stroke:#008000;stroke-width:1.0;"/><polygon fill="#008000" points="96.9,679.88,102.9208,672.0858,98.0861,675.0227,95.1491,670.188,96.9,679.88" style="stroke:#008000;stroke-width:1.0;"/><path d="M118,619 L118,645 L255,645 L255,629 L245,619 L118,619 " fill="#FEFFDD" style="stroke:#181818;stroke-width:0.5;"/><path d="M245,619 L245,629 L255,629 L245,619 " fill="#FEFFDD" style="stroke:#181818;stroke-width:0.5;"/><text fill="#000000" font-family="sans-serif" font-size="13" lengthAdjust="spacing" textLength="116" x="124" y="637.4951">completarConsulta()</text></g><!--link consultarBorrador to BORRADORES_ABIERTO--><g id="link_consultarBorrador_BORRADORES_ABIERTO"><path d="M271.84,584.22 C282.1,623.65 289.5194,652.1933 295.1594,673.8733 " fill="none" id="consultarBorrador-to-BORRADORES_ABIERTO" style="stroke:#FF0000;stroke-width:1.0;"/><polygon fill="#FF0000" points="296.67,679.68,298.2752,669.9628,295.4112,674.8411,290.5329,671.977,296.67,679.68" style="stroke:#FF0000;stroke-width:1.0;"/><path d="M292,619 L292,645 L422,645 L422,629 L412,619 L292,619 " fill="#FEFFDD" style="stroke:#181818;stroke-width:0.5;"/><path d="M412,619 L412,629 L422,629 L412,619 " fill="#FEFFDD" style="stroke:#181818;stroke-width:0.5;"/><text fill="#000000" font-family="sans-serif" font-size="13" lengthAdjust="spacing" textLength="109" x="298" y="637.4951">rechazarConsulta()</text></g><!--SRC=[ZPB1JiCm38RlUGfhN3QaYHUO9cri1mweKijjcf3N68YMnbMI8cs8ToSfOsjeGMjFTN___sSdRgzCZHOhqCgGFzG4DUj3_132UVG49HlNQ8zsoTQYP0leODIhZYSZ-102mlFTDmflK1QagImL6pIIVyHzMKvbKvEDeXLvr9hwcaTsFb6qaitj5gQRcrTBPBRJ-J-1XeCNcpZglYqK18wrAfN7ovZG6DXrsyZ8jbMSUWRi4u0_HkcbptRpGZbF5SxkTdFmN26GFcU3EoT9RXiEO4_Mu1gG7UyKiG-GyFNMU0rTRIdU4z08ohomhJ2IjSgs7e3UbMjGg-FbJuhrEpU12gTu5KVLK7I9Y-ekG7OMbqP_2j6_mTtaPPRdYrMMFo-M3-lyAHC9GibLhKEGlJ-PZ2VYCjQWioNPzLqNmyxXBD_mE6py1G00]--></g></svg>