<?xml version="1.0" encoding="us-ascii" standalone="no"?><svg xmlns="http://www.w3.org/2000/svg" xmlns:xlink="http://www.w3.org/1999/xlink" contentStyleType="text/css" height="566px" preserveAspectRatio="none" style="width:381px;height:566px;background:#FFFFFF;" version="1.1" viewBox="0 0 381 566" width="381px" zoomAndPan="magnify"><defs/><g><path d="M60.5,7 L295.5,7 A12.5,12.5 0 0 1 308,19.5 L308,34.6094 L48,34.6094 L48,19.5 A12.5,12.5 0 0 1 60.5,7 " fill="#F1F1F1" style="stroke:#F1F1F1;stroke-width:1.0;"/><rect fill="none" height="406.6094" rx="12.5" ry="12.5" style="stroke:#181818;stroke-width:0.5;" width="260" x="48" y="7"/><line style="stroke:#181818;stroke-width:0.5;" x1="48" x2="308" y1="34.6094" y2="34.6094"/><text fill="#000000" font-family="sans-serif" font-size="14" lengthAdjust="spacing" textLength="91" x="132.5" y="26.5332">cerrarSesion()</text><g id="cerrarSesion.SolicitandoCierre"><rect fill="#F1F1F1" height="50" rx="12.5" ry="12.5" style="stroke:#181818;stroke-width:0.5;" width="50" x="60" y="137.6094"/><line style="stroke:#181818;stroke-width:0.5;" x1="60" x2="110" y1="165.2188" y2="165.2188"/><text fill="#000000" font-family="sans-serif" font-size="14" lengthAdjust="spacing" textLength="4" x="83" y="157.1426">&#160;</text></g><g id="cerrarSesion.CerrandoSesion"><rect fill="#F1F1F1" height="50" rx="12.5" ry="12.5" style="stroke:#181818;stroke-width:0.5;" width="50" x="60" y="259.6094"/><line style="stroke:#181818;stroke-width:0.5;" x1="60" x2="110" y1="287.2188" y2="287.2188"/><text fill="#000000" font-family="sans-serif" font-size="14" lengthAdjust="spacing" textLength="4" x="83" y="279.1426">&#160;</text></g><ellipse cx="85" cy="55.6094" fill="#222222" rx="10" ry="10" style="stroke:#222222;stroke-width:1.0;"/><ellipse cx="85" cy="392.6094" fill="none" rx="11" ry="11" style="stroke:#222222;stroke-width:1.0;"/><ellipse cx="85" cy="392.6094" fill="#222222" rx="6" ry="6" style="stroke:#222222;stroke-width:1.0;"/><!--link *start*cerrarSesion to SolicitandoCierre--><g id="link_*start*cerrarSesion_SolicitandoCierre"><path d="M85,65.9294 C85,81.7894 85,108.5194 85,131.2494 " fill="none" id="*start*cerrarSesion-to-SolicitandoCierre" style="stroke:#008000;stroke-width:1.0;"/><polygon fill="#008000" points="85,137.2494,89,128.2494,85,132.2494,81,128.2494,85,137.2494" style="stroke:#008000;stroke-width:1.0;"/><path d="M90,88.6094 L90,114.6094 L251,114.6094 L251,98.6094 L241,88.6094 L90,88.6094 " fill="#FEFFDD" style="stroke:#181818;stroke-width:0.5;"/><path d="M241,88.6094 L241,98.6094 L251,98.6094 L241,88.6094 " fill="#FEFFDD" style="stroke:#181818;stroke-width:0.5;"/><text fill="#000000" font-family="sans-serif" font-size="13" lengthAdjust="spacing" textLength="140" x="96" y="107.1045">Se solicita cerrar sesion</text></g><!--link SolicitandoCierre to CerrandoSesion--><g id="link_SolicitandoCierre_CerrandoSesion"><path d="M85,187.8894 C85,208.7094 85,232.5494 85,253.3594 " fill="none" id="SolicitandoCierre-to-CerrandoSesion" style="stroke:#008000;stroke-width:1.0;"/><polygon fill="#008000" points="85,259.3594,89,250.3594,85,254.3594,81,250.3594,85,259.3594" style="stroke:#008000;stroke-width:1.0;"/><path d="M90,210.6094 L90,236.6094 L299,236.6094 L299,220.6094 L289,210.6094 L90,210.6094 " fill="#FEFFDD" style="stroke:#181818;stroke-width:0.5;"/><path d="M289,210.6094 L289,220.6094 L299,220.6094 L289,210.6094 " fill="#FEFFDD" style="stroke:#181818;stroke-width:0.5;"/><text fill="#000000" font-family="sans-serif" font-size="13" font-weight="bold" lengthAdjust="spacing" textLength="51" x="96" y="229.1045">Sistema</text><text fill="#000000" font-family="sans-serif" font-size="13" lengthAdjust="spacing" textLength="133" x="151" y="229.1045">finaliza la sesion activa</text></g><!--link CerrandoSesion to *end*cerrarSesion--><g id="link_CerrandoSesion_*end*cerrarSesion"><path d="M85,309.6594 C85,332.2594 85,358.9894 85,375.4094 " fill="none" id="CerrandoSesion-to-*end*cerrarSesion" style="stroke:#008000;stroke-width:1.0;"/><polygon fill="#008000" points="85,381.4094,89,372.4094,85,376.4094,81,372.4094,85,381.4094" style="stroke:#008000;stroke-width:1.0;"/><path d="M90,332.6094 L90,358.6094 L294,358.6094 L294,342.6094 L284,332.6094 L90,332.6094 " fill="#FEFFDD" style="stroke:#181818;stroke-width:0.5;"/><path d="M284,332.6094 L284,342.6094 L294,342.6094 L284,332.6094 " fill="#FEFFDD" style="stroke:#181818;stroke-width:0.5;"/><text fill="#000000" font-family="sans-serif" font-size="13" font-weight="bold" lengthAdjust="spacing" textLength="51" x="96" y="351.1045">Sistema</text><text fill="#000000" font-family="sans-serif" font-size="13" lengthAdjust="spacing" textLength="128" x="151" y="351.1045">vuelve al estado inicial</text></g><g id="SISTEMA_CERRADO"><rect fill="#F1F1F1" height="50" rx="12.5" ry="12.5" style="stroke:#181818;stroke-width:0.5;" width="156" x="7" y="510"/><line style="stroke:#181818;stroke-width:0.5;" x1="7" x2="163" y1="537.6094" y2="537.6094"/><text fill="#000000" font-family="sans-serif" font-size="14" lengthAdjust="spacing" textLength="136" x="17" y="529.5332">SISTEMA_CERRADO</text></g><g id="SISTEMA_ABIERTO"><rect fill="#F1F1F1" height="50" rx="12.5" ry="12.5" style="stroke:#181818;stroke-width:0.5;" width="147" x="198.5" y="510"/><line style="stroke:#181818;stroke-width:0.5;" x1="198.5" x2="345.5" y1="537.6094" y2="537.6094"/><text fill="#000000" font-family="sans-serif" font-size="14" lengthAdjust="spacing" textLength="127" x="208.5" y="529.5332">SISTEMA_ABIERTO</text></g><!--link cerrarSesion to SISTEMA_CERRADO--><g id="link_cerrarSesion_SISTEMA_CERRADO"><path d="M109.17,414.08 C102.99,432.27 99,444 99,444 C99,444 93.8229,477.2914 89.6729,503.9514 " fill="none" id="cerrarSesion-to-SISTEMA_CERRADO" style="stroke:#008000;stroke-width:1.0;"/><polygon fill="#008000" points="88.75,509.88,94.0867,501.6023,89.5191,504.9395,86.1819,500.3719,88.75,509.88" style="stroke:#008000;stroke-width:1.0;"/><path d="M104,449 L104,475 L224,475 L224,459 L214,449 L104,449 " fill="#FEFFDD" style="stroke:#181818;stroke-width:0.5;"/><path d="M214,449 L214,459 L224,459 L214,449 " fill="#FEFFDD" style="stroke:#181818;stroke-width:0.5;"/><text fill="#000000" font-family="sans-serif" font-size="13" lengthAdjust="spacing" textLength="99" x="110" y="467.4951">completarCierre()</text></g><!--link cerrarSesion to SISTEMA_ABIERTO--><g id="link_cerrarSesion_SISTEMA_ABIERTO"><path d="M237.13,414.37 C248.31,452.73 256.8307,481.9498 263.2707,504.0398 " fill="none" id="cerrarSesion-to-SISTEMA_ABIERTO" style="stroke:#FF0000;stroke-width:1.0;"/><polygon fill="#FF0000" points="264.95,509.8,266.2712,500.0402,263.5506,504.9998,258.5909,502.2792,264.95,509.8" style="stroke:#FF0000;stroke-width:1.0;"/><path d="M261,449 L261,475 L374,475 L374,459 L364,449 L261,449 " fill="#FEFFDD" style="stroke:#181818;stroke-width:0.5;"/><path d="M364,449 L364,459 L374,459 L364,449 " fill="#FEFFDD" style="stroke:#181818;stroke-width:0.5;"/><text fill="#000000" font-family="sans-serif" font-size="13" lengthAdjust="spacing" textLength="92" x="267" y="467.4951">rechazarCierre()</text></g><!--SRC=[ZP71QiCm38RlVWgHNTf1sGkKG9RbqCCO9BsLCjH4sqmTEzXUe1rxzobrO7MQmU9JxD_V9ydkA7M75bjGKfC_TGITKQVXHmZdqHFKP2tQYfmq6j11ShsnM2Rm9GJm5z89BmvLHibQUjIDoINdwJQI3nW-3w30sDtlORMxUxT4UhzA_y1emnGkXgiyNZOg0ZScntB11UfmIhgvN0cA6sGad1GrQriVqaewJosk7mufl4cDIfuH58vMmDhB7cVaCJuoS-l_qlMVf7e2L40ypiQ0rDmFgjZsBKJqRj5GDzMsUCvUyw8iiwSN4HbhqtQAFDemdCLI_7Om9LfghddPuwOejnEUfVe3ptEu7m00]--></g></svg>