<?xml version="1.0" encoding="us-ascii" standalone="no"?><svg xmlns="http://www.w3.org/2000/svg" xmlns:xlink="http://www.w3.org/1999/xlink" contentStyleType="text/css" height="688px" preserveAspectRatio="none" style="width:528px;height:688px;background:#FFFFFF;" version="1.1" viewBox="0 0 528 688" width="528px" zoomAndPan="magnify"><defs/><g><path d="M104.5,7 L418.5,7 A12.5,12.5 0 0 1 431,19.5 L431,34.6094 L92,34.6094 L92,19.5 A12.5,12.5 0 0 1 104.5,7 " fill="#F1F1F1" style="stroke:#F1F1F1;stroke-width:1.0;"/><rect fill="none" height="528.6094" rx="12.5" ry="12.5" style="stroke:#181818;stroke-width:0.5;" width="339" x="92" y="7"/><line style="stroke:#181818;stroke-width:0.5;" x1="92" x2="431" y1="34.6094" y2="34.6094"/><text fill="#000000" font-family="sans-serif" font-size="14" lengthAdjust="spacing" textLength="181" x="171" y="26.5332">consultarEscenarioGherkin()</text><g id="consultarEscenarioGherkin.SeleccionandoEscenario"><rect fill="#F1F1F1" height="50" rx="12.5" ry="12.5" style="stroke:#181818;stroke-width:0.5;" width="50" x="104" y="137.6094"/><line style="stroke:#181818;stroke-width:0.5;" x1="104" x2="154" y1="165.2188" y2="165.2188"/><text fill="#000000" font-family="sans-serif" font-size="14" lengthAdjust="spacing" textLength="4" x="127" y="157.1426">&#160;</text></g><g id="consultarEscenarioGherkin.RecuperandoDetalle"><rect fill="#F1F1F1" height="50" rx="12.5" ry="12.5" style="stroke:#181818;stroke-width:0.5;" width="50" x="104" y="259.6094"/><line style="stroke:#181818;stroke-width:0.5;" x1="104" x2="154" y1="287.2188" y2="287.2188"/><text fill="#000000" font-family="sans-serif" font-size="14" lengthAdjust="spacing" textLength="4" x="127" y="279.1426">&#160;</text></g><g id="consultarEscenarioGherkin.MostrandoEscenario"><rect fill="#F1F1F1" height="50" rx="12.5" ry="12.5" style="stroke:#181818;stroke-width:0.5;" width="50" x="104" y="381.6094"/><line style="stroke:#181818;stroke-width:0.5;" x1="104" x2="154" y1="409.2188" y2="409.2188"/><text fill="#000000" font-family="sans-serif" font-size="14" lengthAdjust="spacing" textLength="4" x="127" y="401.1426">&#160;</text></g><ellipse cx="129" cy="55.6094" fill="#222222" rx="10" ry="10" style="stroke:#222222;stroke-width:1.0;"/><ellipse cx="129" cy="514.6094" fill="none" rx="11" ry="11" style="stroke:#222222;stroke-width:1.0;"/><ellipse cx="129" cy="514.6094" fill="#222222" rx="6" ry="6" style="stroke:#222222;stroke-width:1.0;"/><!--link *start*consultarEscenarioGherkin to SeleccionandoEscenario--><g id="link_*start*consultarEscenarioGherkin_SeleccionandoEscenario"><path d="M129,65.9294 C129,81.7894 129,108.5194 129,131.2494 " fill="none" id="*start*consultarEscenarioGherkin-to-SeleccionandoEscenario" style="stroke:#008000;stroke-width:1.0;"/><polygon fill="#008000" points="129,137.2494,133,128.2494,129,132.2494,125,128.2494,129,137.2494" style="stroke:#008000;stroke-width:1.0;"/><path d="M134,88.6094 L134,114.6094 L364,114.6094 L364,98.6094 L354,88.6094 L134,88.6094 " fill="#FEFFDD" style="stroke:#181818;stroke-width:0.5;"/><path d="M354,88.6094 L354,98.6094 L364,98.6094 L354,88.6094 " fill="#FEFFDD" style="stroke:#181818;stroke-width:0.5;"/><text fill="#000000" font-family="sans-serif" font-size="13" lengthAdjust="spacing" textLength="209" x="140" y="107.1045">Se selecciona un escenario Gherkin</text></g><!--link SeleccionandoEscenario to RecuperandoDetalle--><g id="link_SeleccionandoEscenario_RecuperandoDetalle"><path d="M129,187.8894 C129,208.7094 129,232.5494 129,253.3594 " fill="none" id="SeleccionandoEscenario-to-RecuperandoDetalle" style="stroke:#008000;stroke-width:1.0;"/><polygon fill="#008000" points="129,259.3594,133,250.3594,129,254.3594,125,250.3594,129,259.3594" style="stroke:#008000;stroke-width:1.0;"/><path d="M134,210.6094 L134,236.6094 L391,236.6094 L391,220.6094 L381,210.6094 L134,210.6094 " fill="#FEFFDD" style="stroke:#181818;stroke-width:0.5;"/><path d="M381,210.6094 L381,220.6094 L391,220.6094 L381,210.6094 " fill="#FEFFDD" style="stroke:#181818;stroke-width:0.5;"/><text fill="#000000" font-family="sans-serif" font-size="13" font-weight="bold" lengthAdjust="spacing" textLength="51" x="140" y="229.1045">Sistema</text><text fill="#000000" font-family="sans-serif" font-size="13" lengthAdjust="spacing" textLength="181" x="195" y="229.1045">recupera el escenario completo</text></g><!--link RecuperandoDetalle to MostrandoEscenario--><g id="link_RecuperandoDetalle_MostrandoEscenario"><path d="M129,309.8894 C129,330.7094 129,354.5494 129,375.3594 " fill="none" id="RecuperandoDetalle-to-MostrandoEscenario" style="stroke:#008000;stroke-width:1.0;"/><polygon fill="#008000" points="129,381.3594,133,372.3594,129,376.3594,125,372.3594,129,381.3594" style="stroke:#008000;stroke-width:1.0;"/><path d="M134,332.6094 L134,358.6094 L390,358.6094 L390,342.6094 L380,332.6094 L134,332.6094 " fill="#FEFFDD" style="stroke:#181818;stroke-width:0.5;"/><path d="M380,332.6094 L380,342.6094 L390,342.6094 L380,332.6094 " fill="#FEFFDD" style="stroke:#181818;stroke-width:0.5;"/><text fill="#000000" font-family="sans-serif" font-size="13" lengthAdjust="spacing" textLength="235" x="140" y="351.1045">Se prepara la visualizacion del escenario</text></g><!--link MostrandoEscenario to *end*consultarEscenarioGherkin--><g id="link_MostrandoEscenario_*end*consultarEscenarioGherkin"><path d="M129,431.6594 C129,454.2594 129,480.9894 129,497.4094 " fill="none" id="MostrandoEscenario-to-*end*consultarEscenarioGherkin" style="stroke:#008000;stroke-width:1.0;"/><polygon fill="#008000" points="129,503.4094,133,494.4094,129,498.4094,125,494.4094,129,503.4094" style="stroke:#008000;stroke-width:1.0;"/><path d="M134,454.6094 L134,480.6094 L422,480.6094 L422,464.6094 L412,454.6094 L134,454.6094 " fill="#FEFFDD" style="stroke:#181818;stroke-width:0.5;"/><path d="M412,454.6094 L412,464.6094 L422,464.6094 L412,454.6094 " fill="#FEFFDD" style="stroke:#181818;stroke-width:0.5;"/><text fill="#000000" font-family="sans-serif" font-size="13" lengthAdjust="spacing" textLength="267" x="140" y="473.1045">El sistema muestra el escenario seleccionado</text></g><g id="ESCENARIO_GHERKIN_ABIERTO"><rect fill="#F1F1F1" height="50" rx="12.5" ry="12.5" style="stroke:#181818;stroke-width:0.5;" width="235" x="7" y="632"/><line style="stroke:#181818;stroke-width:0.5;" x1="7" x2="242" y1="659.6094" y2="659.6094"/><text fill="#000000" font-family="sans-serif" font-size="14" lengthAdjust="spacing" textLength="215" x="17" y="651.5332">ESCENARIO_GHERKIN_ABIERTO</text></g><g id="ESCENARIOS_GHERKIN_ABIERTO"><rect fill="#F1F1F1" height="50" rx="12.5" ry="12.5" style="stroke:#181818;stroke-width:0.5;" width="244" x="277.5" y="632"/><line style="stroke:#181818;stroke-width:0.5;" x1="277.5" x2="521.5" y1="659.6094" y2="659.6094"/><text fill="#000000" font-family="sans-serif" font-size="14" lengthAdjust="spacing" textLength="224" x="287.5" y="651.5332">ESCENARIOS_GHERKIN_ABIERTO</text></g><!--link consultarEscenarioGherkin to ESCENARIO_GHERKIN_ABIERTO--><g id="link_consultarEscenarioGherkin_ESCENARIO_GHERKIN_ABIERTO"><path d="M167.28,536.24 C153.24,575.56 142.8869,604.5091 135.1169,626.2791 " fill="none" id="consultarEscenarioGherkin-to-ESCENARIO_GHERKIN_ABIERTO" style="stroke:#008000;stroke-width:1.0;"/><polygon fill="#008000" points="133.1,631.93,139.8925,624.7983,134.7807,627.2209,132.3581,622.1091,133.1,631.93" style="stroke:#008000;stroke-width:1.0;"/><path d="M159.5,571 L159.5,597 L296.5,597 L296.5,581 L286.5,571 L159.5,571 " fill="#FEFFDD" style="stroke:#181818;stroke-width:0.5;"/><path d="M286.5,571 L286.5,581 L296.5,581 L286.5,571 " fill="#FEFFDD" style="stroke:#181818;stroke-width:0.5;"/><text fill="#000000" font-family="sans-serif" font-size="13" lengthAdjust="spacing" textLength="116" x="165.5" y="589.4951">completarConsulta()</text></g><!--link consultarEscenarioGherkin to ESCENARIOS_GHERKIN_ABIERTO--><g id="link_consultarEscenarioGherkin_ESCENARIOS_GHERKIN_ABIERTO"><path d="M356.4,536.24 C370.56,575.56 380.9793,604.5141 388.8093,626.2841 " fill="none" id="consultarEscenarioGherkin-to-ESCENARIOS_GHERKIN_ABIERTO" style="stroke:#FF0000;stroke-width:1.0;"/><polygon fill="#FF0000" points="390.84,631.93,391.558,622.1073,389.1478,627.2251,384.0301,624.8149,390.84,631.93" style="stroke:#FF0000;stroke-width:1.0;"/><path d="M383.5,571 L383.5,597 L513.5,597 L513.5,581 L503.5,571 L383.5,571 " fill="#FEFFDD" style="stroke:#181818;stroke-width:0.5;"/><path d="M503.5,571 L503.5,581 L513.5,581 L503.5,571 " fill="#FEFFDD" style="stroke:#181818;stroke-width:0.5;"/><text fill="#000000" font-family="sans-serif" font-size="13" lengthAdjust="spacing" textLength="109" x="389.5" y="589.4951">rechazarConsulta()</text></g><!--SRC=[VPBTQi9048Nlzoc6z4OBqXUGWBN1Igb2qZiH6PEXBcvsm-wceANltarCrMr-agjipintpioQ8vS5Qin1S4dsL10KIfog3yQCHKkGAcbAOL579YM9cgl5WRIh0pGGzFuTZGFuPk2UIvl0lQuW8K5fofL4cQbhJLiNKreMf2lL2raKWjgQTsMizllKeitZ5YQRXqzD9BUJS8WfbMkdP9N-M1ya1EOgXr82_UcX2LRBI6PrBMkAkW2UXvuyBVvq7oRSMCfn-hGFGJTbGEBEIQhoGf1L7LRQ7Cz6nyZwnb1egcu628GlRaeK_8nLHiZklNHOQ3Cy2suxtSn8WBb4XxoageUV-hQNx1_sXx7-MthFZf9vj9h5o_LkyHh5RylLRlQyZEAFDVFSDFD5FM-wZiRibd4GfIdpGCamoUttWETkq2y0]--></g></svg>