<?plantuml 1.2026.2?><svg xmlns="http://www.w3.org/2000/svg" xmlns:xlink="http://www.w3.org/1999/xlink" contentStyleType="text/css" data-diagram-type="DESCRIPTION" height="692px" preserveAspectRatio="none" style="width:663px;height:692px;background:#FFFFFF;" version="1.1" viewBox="0 0 663 692" width="663px" zoomAndPan="magnify"><title>Login y publicaci&#243;n en Kiwi TCMS</title><defs/><g><g class="title" data-source-line="4"><text fill="#000000" font-family="sans-serif" font-size="14" font-weight="bold" lengthAdjust="spacing" textLength="227.8965" x="210.5518" y="24.5332">Login y publicaci&#243;n en Kiwi TCMS</text></g><!--cluster kiwi-mvc--><g class="cluster" data-qualified-name="kiwi-mvc" data-source-line="6" id="ent0002"><rect fill="none" height="352" rx="2.5" ry="2.5" style="stroke:#181818;stroke-width:1;" width="572" x="85" y="45.6094"/><path d="M154.1377,45.6094 L154.1377,56.2188 L144.1377,66.2188 L85,66.2188" fill="none" style="stroke:#181818;stroke-width:1;"/><text fill="#000000" font-family="sans-serif" font-size="14" font-weight="bold" lengthAdjust="spacing" textLength="59.1377" x="88" y="61.1426">kiwi-mvc</text></g><!--cluster Kiwi TCMS XML-RPC--><g class="cluster" data-qualified-name="Kiwi TCMS XML-RPC" data-source-line="13" id="ent0007"><rect fill="none" height="100" rx="2.5" ry="2.5" style="stroke:#181818;stroke-width:1;" width="313" x="7" y="447.6094"/><path d="M156.9932,447.6094 L156.9932,458.2188 L146.9932,468.2188 L7,468.2188" fill="none" style="stroke:#181818;stroke-width:1;"/><text fill="#000000" font-family="sans-serif" font-size="14" font-weight="bold" lengthAdjust="spacing" textLength="139.9932" x="10" y="463.1426">Kiwi TCMS XML-RPC</text></g><!--entity DraftsView--><g class="entity" data-qualified-name="kiwi-mvc.DraftsView" data-source-line="7" id="ent0003"><rect fill="#F1F1F1" height="47.6094" rx="2.5" ry="2.5" style="stroke:#181818;stroke-width:0.5;" width="107.6826" x="288" y="81.6094"/><rect fill="#F1F1F1" height="10" style="stroke:#181818;stroke-width:0.5;" width="15" x="375.6826" y="86.6094"/><rect fill="#F1F1F1" height="2" style="stroke:#181818;stroke-width:0.5;" width="4" x="373.6826" y="88.6094"/><rect fill="#F1F1F1" height="2" style="stroke:#181818;stroke-width:0.5;" width="4" x="373.6826" y="92.6094"/><text fill="#000000" font-family="sans-serif" font-size="14" lengthAdjust="spacing" textLength="67.6826" x="303" y="116.1426">DraftsView</text></g><!--entity DraftController--><g class="entity" data-qualified-name="kiwi-mvc.DraftController" data-source-line="8" id="ent0004"><rect fill="#F1F1F1" height="47.6094" rx="2.5" ry="2.5" style="stroke:#181818;stroke-width:0.5;" width="131.0273" x="276.5" y="207.6094"/><rect fill="#F1F1F1" height="10" style="stroke:#181818;stroke-width:0.5;" width="15" x="387.5273" y="212.6094"/><rect fill="#F1F1F1" height="2" style="stroke:#181818;stroke-width:0.5;" width="4" x="385.5273" y="214.6094"/><rect fill="#F1F1F1" height="2" style="stroke:#181818;stroke-width:0.5;" width="4" x="385.5273" y="218.6094"/><text fill="#000000" font-family="sans-serif" font-size="14" lengthAdjust="spacing" textLength="91.0273" x="291.5" y="242.1426">DraftController</text></g><!--entity ManualKiwiService--><g class="entity" data-qualified-name="kiwi-mvc.ManualKiwiService" data-source-line="9" id="ent0005"><rect fill="#F1F1F1" height="47.6094" rx="2.5" ry="2.5" style="stroke:#181818;stroke-width:0.5;" width="158.2686" x="174" y="333.6094"/><rect fill="#F1F1F1" height="10" style="stroke:#181818;stroke-width:0.5;" width="15" x="312.2686" y="338.6094"/><rect fill="#F1F1F1" height="2" style="stroke:#181818;stroke-width:0.5;" width="4" x="310.2686" y="340.6094"/><rect fill="#F1F1F1" height="2" style="stroke:#181818;stroke-width:0.5;" width="4" x="310.2686" y="344.6094"/><text fill="#000000" font-family="sans-serif" font-size="14" lengthAdjust="spacing" textLength="118.2686" x="189" y="368.1426">ManualKiwiService</text></g><!--entity Draft--><g class="entity" data-qualified-name="kiwi-mvc.Draft" data-source-line="10" id="ent0006"><rect fill="#F1F1F1" height="47.6094" rx="2.5" ry="2.5" style="stroke:#181818;stroke-width:0.5;" width="70.3379" x="397" y="333.6094"/><rect fill="#F1F1F1" height="10" style="stroke:#181818;stroke-width:0.5;" width="15" x="447.3379" y="338.6094"/><rect fill="#F1F1F1" height="2" style="stroke:#181818;stroke-width:0.5;" width="4" x="445.3379" y="340.6094"/><rect fill="#F1F1F1" height="2" style="stroke:#181818;stroke-width:0.5;" width="4" x="445.3379" y="344.6094"/><text fill="#000000" font-family="sans-serif" font-size="14" lengthAdjust="spacing" textLength="30.3379" x="412" y="368.1426">Draft</text></g><!--entity Login--><g class="entity" data-qualified-name="Kiwi TCMS XML-RPC.Login" data-source-line="14" id="ent0008"><rect fill="#F1F1F1" height="47.6094" rx="2.5" ry="2.5" style="stroke:#181818;stroke-width:0.5;" width="102.2686" x="202" y="483.6094"/><rect fill="#F1F1F1" height="10" style="stroke:#181818;stroke-width:0.5;" width="15" x="284.2686" y="488.6094"/><rect fill="#F1F1F1" height="2" style="stroke:#181818;stroke-width:0.5;" width="4" x="282.2686" y="490.6094"/><rect fill="#F1F1F1" height="2" style="stroke:#181818;stroke-width:0.5;" width="4" x="282.2686" y="494.6094"/><text fill="#000000" font-family="sans-serif" font-size="14" lengthAdjust="spacing" textLength="62.2686" x="217" y="518.1426">Auth.login</text></g><!--entity Create--><g class="entity" data-qualified-name="Kiwi TCMS XML-RPC.Create" data-source-line="15" id="ent0009"><rect fill="#F1F1F1" height="47.6094" rx="2.5" ry="2.5" style="stroke:#181818;stroke-width:0.5;" width="142.71" x="23.5" y="483.6094"/><rect fill="#F1F1F1" height="10" style="stroke:#181818;stroke-width:0.5;" width="15" x="146.21" y="488.6094"/><rect fill="#F1F1F1" height="2" style="stroke:#181818;stroke-width:0.5;" width="4" x="144.21" y="490.6094"/><rect fill="#F1F1F1" height="2" style="stroke:#181818;stroke-width:0.5;" width="4" x="144.21" y="494.6094"/><text fill="#000000" font-family="sans-serif" font-size="14" lengthAdjust="spacing" textLength="102.71" x="38.5" y="518.1426">TestCase.create</text></g><!--entity MariaDB--><g class="entity" data-qualified-name="MariaDB" data-source-line="18" id="ent0010"><path d="M50.5,621.6094 C50.5,611.6094 95.1104,611.6094 95.1104,611.6094 C95.1104,611.6094 139.7207,611.6094 139.7207,621.6094 L139.7207,665.8281 C139.7207,675.8281 95.1104,675.8281 95.1104,675.8281 C95.1104,675.8281 50.5,675.8281 50.5,665.8281 L50.5,621.6094" fill="#F1F1F1" style="stroke:#181818;stroke-width:0.5;"/><path d="M50.5,621.6094 C50.5,631.6094 95.1104,631.6094 95.1104,631.6094 C95.1104,631.6094 139.7207,631.6094 139.7207,621.6094" fill="none" style="stroke:#181818;stroke-width:0.5;"/><text fill="#000000" font-family="sans-serif" font-size="14" lengthAdjust="spacing" textLength="54.4551" x="60.5" y="650.1426">MariaDB</text><text fill="#000000" font-family="sans-serif" font-size="14" lengthAdjust="spacing" textLength="69.2207" x="60.5" y="667.752">Kiwi TCMS</text></g><!--link DraftsView to DraftController--><g class="link" data-entity-1="ent0003" data-entity-2="ent0004" data-link-type="dependency" data-source-line="20" id="lnk11"><path d="M342,129.6394 C342,151.7794 342,179.0494 342,201.2794" fill="none" id="DraftsView-to-DraftController" style="stroke:#181818;stroke-width:1;"/><polygon fill="#181818" points="342,207.2794,346,198.2794,342,202.2794,338,198.2794,342,207.2794" style="stroke:#181818;stroke-width:1;"/><text fill="#000000" font-family="sans-serif" font-size="13" lengthAdjust="spacing" textLength="158.2407" x="343" y="174.1045">POST /api/drafts/:id/publish</text></g><!--link DraftController to Draft--><g class="link" data-entity-1="ent0004" data-entity-2="ent0006" data-link-type="dependency" data-source-line="21" id="lnk12"><path d="M355.6,255.8494 C364.15,269.9794 375.67,288.2094 387,303.6094 C394.44,313.7194 399.3331,319.8229 407.1931,328.9029" fill="none" id="DraftController-to-Draft" style="stroke:#181818;stroke-width:1;"/><polygon fill="#181818" points="411.12,333.4394,408.2539,324.0168,407.8476,329.659,402.2053,329.2527,411.12,333.4394" style="stroke:#181818;stroke-width:1;"/><text fill="#000000" font-family="sans-serif" font-size="13" lengthAdjust="spacing" textLength="74.4263" x="388" y="300.1045">leer borrador</text></g><!--link DraftController to Draft--><g class="link" data-entity-1="ent0004" data-entity-2="ent0006" data-link-type="dependency" data-source-line="28" id="lnk19"><path d="M407.56,244.8594 C430.3,252.5894 453.47,265.1694 467,285.6094 C477.02,300.7394 471.1968,314.4935 459.5268,328.7735" fill="none" id="DraftController-to-Draft-1" style="stroke:#181818;stroke-width:1;"/><polygon fill="#181818" points="455.73,333.4194,464.5224,328.9817,458.894,329.5478,458.3279,323.9193,455.73,333.4194" style="stroke:#181818;stroke-width:1;"/><text fill="#000000" font-family="sans-serif" font-size="13" lengthAdjust="spacing" textLength="133.3262" x="472" y="300.1045">published + kiwiCaseId</text></g><!--link DraftController to ManualKiwiService--><g class="link" data-entity-1="ent0004" data-entity-2="ent0005" data-link-type="dependency" data-source-line="22" id="lnk13"><path d="M276.27,240.4694 C221.8,248.4894 150.59,263.0094 133,285.6094 C114.86,308.9194 135.6186,324.1239 168.2286,335.7539" fill="none" id="DraftController-to-ManualKiwiService" style="stroke:#181818;stroke-width:1;"/><polygon fill="#181818" points="173.88,337.7694,166.7466,330.9786,169.1705,336.0898,164.0593,338.5137,173.88,337.7694" style="stroke:#181818;stroke-width:1;"/><text fill="#000000" font-family="sans-serif" font-size="13" lengthAdjust="spacing" textLength="117.0317" x="134" y="300.1045">publishDraftToKiwi()</text></g><!--link ManualKiwiService to DraftController--><g class="link" data-entity-1="ent0005" data-entity-2="ent0004" data-link-type="dependency" data-source-line="27" id="lnk18"><path d="M263.9,333.3394 C271.05,319.0294 281.07,300.6194 292,285.6094 C299.59,275.1794 304.8857,268.9496 313.5457,260.0496" fill="none" id="ManualKiwiService-to-DraftController" style="stroke:#181818;stroke-width:1;"/><polygon fill="#181818" points="317.73,255.7494,308.5868,259.4102,314.2431,259.3329,314.3204,264.9892,317.73,255.7494" style="stroke:#181818;stroke-width:1;"/><text fill="#000000" font-family="sans-serif" font-size="13" lengthAdjust="spacing" textLength="53.479" x="293" y="300.1045">resultado</text></g><!--link ManualKiwiService to Login--><g class="link" data-entity-1="ent0005" data-entity-2="ent0008" data-link-type="dependency" data-source-line="23" id="lnk14"><path d="M251.47,381.6094 C250.88,391.4594 250.29,403.0894 250,413.6094 C249.35,437.3494 250.1088,458.4985 251.1488,477.3085" fill="none" id="ManualKiwiService-to-Login" style="stroke:#181818;stroke-width:1;"/><polygon fill="#181818" points="251.48,483.2994,254.9771,474.0923,251.204,478.307,246.9893,474.5339,251.48,483.2994" style="stroke:#181818;stroke-width:1;"/><text fill="#000000" font-family="sans-serif" font-size="13" lengthAdjust="spacing" textLength="110.5698" x="251" y="428.1045">usuario/contrase&#241;a</text></g><!--link Login to ManualKiwiService--><g class="link" data-entity-1="ent0008" data-entity-2="ent0005" data-link-type="dependency" data-source-line="24" id="lnk15"><path d="M304.32,489.0894 C343.09,472.8194 386.41,446.2494 366,413.6094 C357.44,399.9194 349.6367,392.4419 335.4067,384.6119" fill="none" id="Login-to-ManualKiwiService" style="stroke:#181818;stroke-width:1;"/><polygon fill="#181818" points="330.15,381.7194,336.1068,389.5626,334.5306,384.1298,339.9635,382.5536,330.15,381.7194" style="stroke:#181818;stroke-width:1;"/><text fill="#000000" font-family="sans-serif" font-size="13" lengthAdjust="spacing" textLength="96.8398" x="372" y="428.1045">cookie de sesi&#243;n</text></g><!--link ManualKiwiService to Create--><g class="link" data-entity-1="ent0005" data-entity-2="ent0009" data-link-type="dependency" data-source-line="25" id="lnk16"><path d="M173.91,372.1594 C149.31,380.2294 124.37,393.0894 108,413.6094 C92.34,433.2294 90.4495,456.9108 91.7195,477.4408" fill="none" id="ManualKiwiService-to-Create" style="stroke:#181818;stroke-width:1;"/><polygon fill="#181818" points="92.09,483.4294,95.5267,474.1996,91.7813,478.4389,87.5419,474.6935,92.09,483.4294" style="stroke:#181818;stroke-width:1;"/><text fill="#000000" font-family="sans-serif" font-size="13" lengthAdjust="spacing" textLength="132.9136" x="109" y="428.1045">summary, text, ids Kiwi</text></g><!--link Create to MariaDB--><g class="link" data-entity-1="ent0009" data-entity-2="ent0010" data-link-type="dependency" data-source-line="26" id="lnk17"><path d="M95,531.6494 C95,553.6494 95,580.9694 95,605.3594" fill="none" id="Create-to-MariaDB" style="stroke:#181818;stroke-width:1;"/><polygon fill="#181818" points="95,611.3594,99,602.3594,95,606.3594,91,602.3594,95,611.3594" style="stroke:#181818;stroke-width:1;"/><text fill="#000000" font-family="sans-serif" font-size="13" lengthAdjust="spacing" textLength="112.728" x="96" y="578.1045">persistencia interna</text></g><?plantuml-src VLB1JiCm3BtdAwoUG31wtm49oWN1168Jui35IxtDMffKSSgO41-5-0H-ZAITYbWPjyX-py_lnR9cMwF72chKQrpID6mDWISTq2uDAUa1iiBIRTWkOO56IAd08K9ltP8jRA5kveOrQlxwj40MRdZ3C2icKwKMaKwGhMDbLBte3DuKW7PLxIpP05SU5q4UcJR3Sk5iyCuOyhzw4xGDcYGn9V_2cePCzTuBzwl0q-Hsz71Vx6-GNJHXTMQIamnGEa-_4JEIKA3GcVQ4WLfOqJwJK8a1vx4BsGGzuzNbi-r5M-YkhDIFMHYDplTDmXZkxwOpoB7cl6oX-PZBl0rNLceVte-8H4EnC7VUns_oVo87gKNMRd8BdxdKEpfMGs2YTpyzXaQQwCRbEasFfhy-K7MzGoBQkJKJb0H2aWxaW48NQ2H8KrNejwSGw3MS0fVItfFQ0JgTDj5aWRom1BAQ4TW6yXOF20pZzYID2J6oVxFTfKGbd40wutG9rwNw1W00?></g></svg>