<?plantuml 1.2026.2?><svg xmlns="http://www.w3.org/2000/svg" xmlns:xlink="http://www.w3.org/1999/xlink" contentStyleType="text/css" data-diagram-type="CLASS" height="1323px" preserveAspectRatio="none" style="width:2464px;height:1323px;background:#FFFFFF;" version="1.1" viewBox="0 0 2464 1323" width="2464px" zoomAndPan="magnify"><title>Estructura de paquetes MVC - kiwi-mvc</title><defs/><g><g class="title" data-source-line="4"><text fill="#000000" font-family="sans-serif" font-size="14" font-weight="bold" lengthAdjust="spacing" textLength="262.1787" x="1093.9106" y="24.5332">Estructura de paquetes MVC - kiwi-mvc</text></g><!--cluster kiwi-mvc--><g class="cluster" data-qualified-name="kiwi-mvc" data-source-line="6" id="ent0002"><rect fill="none" height="972" rx="2.5" ry="2.5" style="stroke:#000000;stroke-width:1.5;" width="2353" x="7" y="345.6094"/><text fill="#000000" font-family="sans-serif" font-size="14" font-weight="bold" lengthAdjust="spacing" textLength="59.1377" x="1153.9312" y="362.1426">kiwi-mvc</text></g><!--cluster Vista--><g class="cluster" data-qualified-name="kiwi-mvc.Vista" data-source-line="8" id="ent0003"><rect fill="none" height="236" rx="2.5" ry="2.5" style="stroke:#000000;stroke-width:1.5;" width="394" x="1942" y="405.6094"/><text fill="#000000" font-family="sans-serif" font-size="14" font-weight="bold" lengthAdjust="spacing" textLength="33.4619" x="2122.269" y="422.1426">Vista</text></g><!--cluster public--><g class="cluster" data-qualified-name="kiwi-mvc.Vista.public" data-source-line="9" id="ent0004"><rect fill="none" height="168" rx="2.5" ry="2.5" style="stroke:#000000;stroke-width:1.5;" width="346" x="1966" y="449.6094"/><text fill="#000000" font-family="sans-serif" font-size="14" font-weight="bold" lengthAdjust="spacing" textLength="41.2207" x="2118.3896" y="466.1426">public</text></g><!--cluster index--><g class="cluster" data-qualified-name="kiwi-mvc.Vista.public.index" data-source-line="10" id="ent0006"><rect fill="none" height="100" rx="2.5" ry="2.5" style="stroke:#000000;stroke-width:1.5;" width="90" x="2198" y="493.6094"/><text fill="#000000" font-family="sans-serif" font-size="14" font-weight="bold" lengthAdjust="spacing" textLength="36.5654" x="2224.7173" y="510.1426">index</text></g><!--cluster css/app--><g class="cluster" data-qualified-name="kiwi-mvc.Vista.public.css.app" data-source-line="11" id="ent0008"><rect fill="none" height="100" rx="2.5" ry="2.5" style="stroke:#000000;stroke-width:1.5;" width="86" x="2088" y="493.6094"/><text fill="#000000" font-family="sans-serif" font-size="14" font-weight="bold" lengthAdjust="spacing" textLength="52.1377" x="2104.9312" y="510.1426">css/app</text></g><!--cluster js/app--><g class="cluster" data-qualified-name="kiwi-mvc.Vista.public.js.app" data-source-line="12" id="ent0010"><rect fill="none" height="100" rx="2.5" ry="2.5" style="stroke:#000000;stroke-width:1.5;" width="74" x="1990" y="493.6094"/><text fill="#000000" font-family="sans-serif" font-size="14" font-weight="bold" lengthAdjust="spacing" textLength="40.4551" x="2006.7725" y="510.1426">js/app</text></g><!--cluster Controlador--><g class="cluster" data-qualified-name="kiwi-mvc.Controlador" data-source-line="16" id="ent0011"><rect fill="none" height="268" rx="2.5" ry="2.5" style="stroke:#000000;stroke-width:1.5;" width="1552" x="366" y="389.6094"/><text fill="#000000" font-family="sans-serif" font-size="14" font-weight="bold" lengthAdjust="spacing" textLength="80.1035" x="1101.9482" y="406.1426">Controlador</text></g><!--cluster src/routes--><g class="cluster" data-qualified-name="kiwi-mvc.Controlador.src.routes" data-source-line="17" id="ent0012"><rect fill="none" height="168" rx="2.5" ry="2.5" style="stroke:#000000;stroke-width:1.5;" width="122" x="1772" y="449.6094"/><text fill="#000000" font-family="sans-serif" font-size="14" font-weight="bold" lengthAdjust="spacing" textLength="67.6963" x="1799.1519" y="466.1426">src/routes</text></g><!--cluster index--><g class="cluster" data-qualified-name="kiwi-mvc.Controlador.src.routes.index" data-source-line="18" id="ent0014"><rect fill="none" height="100" rx="2.5" ry="2.5" style="stroke:#000000;stroke-width:1.5;" width="74" x="1796" y="493.6094"/><text fill="#000000" font-family="sans-serif" font-size="14" font-weight="bold" lengthAdjust="spacing" textLength="36.5654" x="1814.7173" y="510.1426">index</text></g><!--cluster src/controllers--><g class="cluster" data-qualified-name="kiwi-mvc.Controlador.src.controllers" data-source-line="21" id="ent0015"><rect fill="none" height="184" rx="2.5" ry="2.5" style="stroke:#000000;stroke-width:1.5;" width="1196" x="544" y="441.6094"/><text fill="#000000" font-family="sans-serif" font-size="14" font-weight="bold" lengthAdjust="spacing" textLength="97.2617" x="1093.3691" y="458.1426">src/controllers</text></g><!--cluster authController--><g class="cluster" data-qualified-name="kiwi-mvc.Controlador.src.controllers.authController" data-source-line="22" id="ent0017"><rect fill="none" height="100" rx="2.5" ry="2.5" style="stroke:#000000;stroke-width:1.5;" width="112" x="1596" y="493.6094"/><text fill="#000000" font-family="sans-serif" font-size="14" font-weight="bold" lengthAdjust="spacing" textLength="96.4414" x="1603.7793" y="510.1426">authController</text></g><!--cluster sessionController--><g class="cluster" data-qualified-name="kiwi-mvc.Controlador.src.controllers.sessionController" data-source-line="23" id="ent0019"><rect fill="none" height="100" rx="2.5" ry="2.5" style="stroke:#000000;stroke-width:1.5;" width="135" x="1437" y="493.6094"/><text fill="#000000" font-family="sans-serif" font-size="14" font-weight="bold" lengthAdjust="spacing" textLength="119.0273" x="1444.9863" y="510.1426">sessionController</text></g><!--cluster documentationController--><g class="cluster" data-qualified-name="kiwi-mvc.Controlador.src.controllers.documentationController" data-source-line="24" id="ent0021"><rect fill="none" height="100" rx="2.5" ry="2.5" style="stroke:#000000;stroke-width:1.5;" width="183" x="1230" y="493.6094"/><text fill="#000000" font-family="sans-serif" font-size="14" font-weight="bold" lengthAdjust="spacing" textLength="167.2207" x="1237.8896" y="510.1426">documentationController</text></g><!--cluster useCaseController--><g class="cluster" data-qualified-name="kiwi-mvc.Controlador.src.controllers.useCaseController" data-source-line="25" id="ent0023"><rect fill="none" height="100" rx="2.5" ry="2.5" style="stroke:#000000;stroke-width:1.5;" width="140" x="1066" y="493.6094"/><text fill="#000000" font-family="sans-serif" font-size="14" font-weight="bold" lengthAdjust="spacing" textLength="124.4824" x="1073.7588" y="510.1426">useCaseController</text></g><!--cluster requirementController--><g class="cluster" data-qualified-name="kiwi-mvc.Controlador.src.controllers.requirementController" data-source-line="26" id="ent0025"><rect fill="none" height="100" rx="2.5" ry="2.5" style="stroke:#000000;stroke-width:1.5;" width="163" x="722" y="493.6094"/><text fill="#000000" font-family="sans-serif" font-size="14" font-weight="bold" lengthAdjust="spacing" textLength="147.7998" x="729.6001" y="510.1426">requirementController</text></g><!--cluster gherkinController--><g class="cluster" data-qualified-name="kiwi-mvc.Controlador.src.controllers.gherkinController" data-source-line="27" id="ent0027"><rect fill="none" height="100" rx="2.5" ry="2.5" style="stroke:#000000;stroke-width:1.5;" width="133" x="909" y="493.6094"/><text fill="#000000" font-family="sans-serif" font-size="14" font-weight="bold" lengthAdjust="spacing" textLength="117.4551" x="916.7725" y="510.1426">gherkinController</text></g><!--cluster draftController--><g class="cluster" data-qualified-name="kiwi-mvc.Controlador.src.controllers.draftController" data-source-line="28" id="ent0029"><rect fill="none" height="100" rx="2.5" ry="2.5" style="stroke:#000000;stroke-width:1.5;" width="114" x="584" y="493.6094"/><text fill="#000000" font-family="sans-serif" font-size="14" font-weight="bold" lengthAdjust="spacing" textLength="98" x="592" y="510.1426">draftController</text></g><!--cluster src/middleware--><g class="cluster" data-qualified-name="kiwi-mvc.Controlador.src.middleware" data-source-line="31" id="ent0030"><rect fill="none" height="168" rx="2.5" ry="2.5" style="stroke:#000000;stroke-width:1.5;" width="122" x="390" y="449.6094"/><text fill="#000000" font-family="sans-serif" font-size="14" font-weight="bold" lengthAdjust="spacing" textLength="101.9375" x="400.0313" y="466.1426">src/middleware</text></g><!--cluster auth--><g class="cluster" data-qualified-name="kiwi-mvc.Controlador.src.middleware.auth" data-source-line="32" id="ent0032"><rect fill="none" height="100" rx="2.5" ry="2.5" style="stroke:#000000;stroke-width:1.5;" width="74" x="414" y="493.6094"/><text fill="#000000" font-family="sans-serif" font-size="14" font-weight="bold" lengthAdjust="spacing" textLength="29.5518" x="436.2241" y="510.1426">auth</text></g><!--cluster Modelo--><g class="cluster" data-qualified-name="kiwi-mvc.Modelo" data-source-line="36" id="ent0033"><rect fill="none" height="268" rx="2.5" ry="2.5" style="stroke:#000000;stroke-width:1.5;" width="994" x="512" y="1025.6094"/><text fill="#000000" font-family="sans-serif" font-size="14" font-weight="bold" lengthAdjust="spacing" textLength="48.9932" x="984.5034" y="1042.1426">Modelo</text></g><!--cluster src/models--><g class="cluster" data-qualified-name="kiwi-mvc.Modelo.src.models" data-source-line="37" id="ent0034"><rect fill="none" height="184" rx="2.5" ry="2.5" style="stroke:#000000;stroke-width:1.5;" width="930" x="544" y="1077.6094"/><text fill="#000000" font-family="sans-serif" font-size="14" font-weight="bold" lengthAdjust="spacing" textLength="73.9238" x="972.0381" y="1094.1426">src/models</text></g><!--cluster User--><g class="cluster" data-qualified-name="kiwi-mvc.Modelo.src.models.User" data-source-line="38" id="ent0036"><rect fill="none" height="100" rx="2.5" ry="2.5" style="stroke:#000000;stroke-width:1.5;" width="74" x="1368" y="1129.6094"/><text fill="#000000" font-family="sans-serif" font-size="14" font-weight="bold" lengthAdjust="spacing" textLength="31.1309" x="1389.4346" y="1146.1426">User</text></g><!--cluster Session--><g class="cluster" data-qualified-name="kiwi-mvc.Modelo.src.models.Session" data-source-line="39" id="ent0038"><rect fill="none" height="100" rx="2.5" ry="2.5" style="stroke:#000000;stroke-width:1.5;" width="74" x="922" y="1129.6094"/><text fill="#000000" font-family="sans-serif" font-size="14" font-weight="bold" lengthAdjust="spacing" textLength="53.6895" x="932.1553" y="1146.1426">Session</text></g><!--cluster Documentation--><g class="cluster" data-qualified-name="kiwi-mvc.Modelo.src.models.Documentation" data-source-line="40" id="ent0040"><rect fill="none" height="100" rx="2.5" ry="2.5" style="stroke:#000000;stroke-width:1.5;" width="117" x="781" y="1129.6094"/><text fill="#000000" font-family="sans-serif" font-size="14" font-weight="bold" lengthAdjust="spacing" textLength="101.8896" x="788.5552" y="1146.1426">Documentation</text></g><!--cluster UseCase--><g class="cluster" data-qualified-name="kiwi-mvc.Modelo.src.models.UseCase" data-source-line="41" id="ent0042"><rect fill="none" height="100" rx="2.5" ry="2.5" style="stroke:#000000;stroke-width:1.5;" width="75" x="682" y="1129.6094"/><text fill="#000000" font-family="sans-serif" font-size="14" font-weight="bold" lengthAdjust="spacing" textLength="59.1514" x="689.9243" y="1146.1426">UseCase</text></g><!--cluster FunctionalRequirement--><g class="cluster" data-qualified-name="kiwi-mvc.Modelo.src.models.FunctionalRequirement" data-source-line="42" id="ent0044"><rect fill="none" height="100" rx="2.5" ry="2.5" style="stroke:#000000;stroke-width:1.5;" width="172" x="1172" y="1129.6094"/><text fill="#000000" font-family="sans-serif" font-size="14" font-weight="bold" lengthAdjust="spacing" textLength="156.3447" x="1179.8276" y="1146.1426">FunctionalRequirement</text></g><!--cluster GherkinScenario--><g class="cluster" data-qualified-name="kiwi-mvc.Modelo.src.models.GherkinScenario" data-source-line="43" id="ent0046"><rect fill="none" height="100" rx="2.5" ry="2.5" style="stroke:#000000;stroke-width:1.5;" width="128" x="1020" y="1129.6094"/><text fill="#000000" font-family="sans-serif" font-size="14" font-weight="bold" lengthAdjust="spacing" textLength="112.041" x="1027.9795" y="1146.1426">GherkinScenario</text></g><!--cluster Draft--><g class="cluster" data-qualified-name="kiwi-mvc.Modelo.src.models.Draft" data-source-line="44" id="ent0048"><rect fill="none" height="100" rx="2.5" ry="2.5" style="stroke:#000000;stroke-width:1.5;" width="74" x="584" y="1129.6094"/><text fill="#000000" font-family="sans-serif" font-size="14" font-weight="bold" lengthAdjust="spacing" textLength="32.6689" x="604.6655" y="1146.1426">Draft</text></g><!--cluster Servicios auxiliares--><g class="cluster" data-qualified-name="kiwi-mvc.Servicios auxiliares" data-source-line="48" id="ent0049"><rect fill="none" height="268" rx="2.5" ry="2.5" style="stroke:#000000;stroke-width:1.5;" width="1180" x="597" y="707.6094"/><text fill="#000000" font-family="sans-serif" font-size="14" font-weight="bold" lengthAdjust="spacing" textLength="130.751" x="1121.6245" y="724.1426">Servicios auxiliares</text></g><!--cluster src/services--><g class="cluster" data-qualified-name="kiwi-mvc.Servicios auxiliares.src.services" data-source-line="49" id="ent0050"><rect fill="none" height="184" rx="2.5" ry="2.5" style="stroke:#000000;stroke-width:1.5;" width="1116" x="629" y="759.6094"/><text fill="#000000" font-family="sans-serif" font-size="14" font-weight="bold" lengthAdjust="spacing" textLength="80.9648" x="1146.5176" y="776.1426">src/services</text></g><!--cluster authService--><g class="cluster" data-qualified-name="kiwi-mvc.Servicios auxiliares.src.services.authService" data-source-line="50" id="ent0052"><rect fill="none" height="100" rx="2.5" ry="2.5" style="stroke:#000000;stroke-width:1.5;" width="95" x="1618" y="811.6094"/><text fill="#000000" font-family="sans-serif" font-size="14" font-weight="bold" lengthAdjust="spacing" textLength="79.3721" x="1625.814" y="828.1426">authService</text></g><!--cluster documentationService--><g class="cluster" data-qualified-name="kiwi-mvc.Servicios auxiliares.src.services.documentationService" data-source-line="51" id="ent0054"><rect fill="none" height="100" rx="2.5" ry="2.5" style="stroke:#000000;stroke-width:1.5;" width="166" x="1113" y="811.6094"/><text fill="#000000" font-family="sans-serif" font-size="14" font-weight="bold" lengthAdjust="spacing" textLength="150.1514" x="1120.9243" y="828.1426">documentationService</text></g><!--cluster gherkinService--><g class="cluster" data-qualified-name="kiwi-mvc.Servicios auxiliares.src.services.gherkinService" data-source-line="52" id="ent0056"><rect fill="none" height="100" rx="2.5" ry="2.5" style="stroke:#000000;stroke-width:1.5;" width="116" x="973" y="811.6094"/><text fill="#000000" font-family="sans-serif" font-size="14" font-weight="bold" lengthAdjust="spacing" textLength="100.3857" x="980.8071" y="828.1426">gherkinService</text></g><!--cluster identifierService--><g class="cluster" data-qualified-name="kiwi-mvc.Servicios auxiliares.src.services.identifierService" data-source-line="53" id="ent0058"><rect fill="none" height="100" rx="2.5" ry="2.5" style="stroke:#000000;stroke-width:1.5;" width="124" x="1470" y="811.6094"/><text fill="#000000" font-family="sans-serif" font-size="14" font-weight="bold" lengthAdjust="spacing" textLength="108.9375" x="1477.5313" y="828.1426">identifierService</text></g><!--cluster manualKiwiService--><g class="cluster" data-qualified-name="kiwi-mvc.Servicios auxiliares.src.services.manualKiwiService" data-source-line="54" id="ent0060"><rect fill="none" height="100" rx="2.5" ry="2.5" style="stroke:#000000;stroke-width:1.5;" width="143" x="1303" y="811.6094"/><text fill="#000000" font-family="sans-serif" font-size="14" font-weight="bold" lengthAdjust="spacing" textLength="127.6133" x="1310.6934" y="828.1426">manualKiwiService</text></g><!--cluster sessionService--><g class="cluster" data-qualified-name="kiwi-mvc.Servicios auxiliares.src.services.sessionService" data-source-line="55" id="ent0062"><rect fill="none" height="100" rx="2.5" ry="2.5" style="stroke:#000000;stroke-width:1.5;" width="117" x="832" y="811.6094"/><text fill="#000000" font-family="sans-serif" font-size="14" font-weight="bold" lengthAdjust="spacing" textLength="101.958" x="839.521" y="828.1426">sessionService</text></g><!--cluster traceabilityService--><g class="cluster" data-qualified-name="kiwi-mvc.Servicios auxiliares.src.services.traceabilityService" data-source-line="56" id="ent0064"><rect fill="none" height="100" rx="2.5" ry="2.5" style="stroke:#000000;stroke-width:1.5;" width="139" x="669" y="811.6094"/><text fill="#000000" font-family="sans-serif" font-size="14" font-weight="bold" lengthAdjust="spacing" textLength="123.7441" x="676.6279" y="828.1426">traceabilityService</text></g><!--cluster Configuraci?n--><g class="cluster" data-qualified-name="kiwi-mvc.Configuraci.n" data-source-line="60" id="ent0065"><rect fill="none" height="236" rx="2.5" ry="2.5" style="stroke:#000000;stroke-width:1.5;" width="311" x="31" y="405.6094"/><text fill="#000000" font-family="sans-serif" font-size="14" font-weight="bold" lengthAdjust="spacing" textLength="94.8828" x="139.0586" y="422.1426">Configuraci&#243;n</text></g><!--cluster src/config--><g class="cluster" data-qualified-name="kiwi-mvc.Configuraci.n.src.config" data-source-line="61" id="ent0066"><rect fill="none" height="168" rx="2.5" ry="2.5" style="stroke:#000000;stroke-width:1.5;" width="263" x="55" y="449.6094"/><text fill="#000000" font-family="sans-serif" font-size="14" font-weight="bold" lengthAdjust="spacing" textLength="66.9033" x="153.0483" y="466.1426">src/config</text></g><!--cluster db--><g class="cluster" data-qualified-name="kiwi-mvc.Configuraci.n.src.config.db" data-source-line="62" id="ent0068"><rect fill="none" height="100" rx="2.5" ry="2.5" style="stroke:#000000;stroke-width:1.5;" width="74" x="79" y="493.6094"/><text fill="#000000" font-family="sans-serif" font-size="14" font-weight="bold" lengthAdjust="spacing" textLength="17.1035" x="107.4482" y="510.1426">db</text></g><!--cluster loadSharedEnv--><g class="cluster" data-qualified-name="kiwi-mvc.Configuraci.n.src.config.loadSharedEnv" data-source-line="63" id="ent0070"><rect fill="none" height="100" rx="2.5" ry="2.5" style="stroke:#000000;stroke-width:1.5;" width="117" x="177" y="493.6094"/><text fill="#000000" font-family="sans-serif" font-size="14" font-weight="bold" lengthAdjust="spacing" textLength="101.917" x="184.5415" y="510.1426">loadSharedEnv</text></g><!--cluster public/js/app--><g class="cluster" data-qualified-name="public.js.app" data-source-line="68" id="ent0072"><rect fill="none" height="100" rx="2.5" ry="2.5" style="stroke:#000000;stroke-width:1.5;" width="101" x="1646" y="45.6094"/><text fill="#000000" font-family="sans-serif" font-size="14" font-weight="bold" lengthAdjust="spacing" textLength="85.5654" x="1653.7173" y="62.1426">public/js/app</text></g><!--cluster index--><g class="cluster" data-qualified-name="index" data-source-line="68" id="ent0073"><rect fill="none" height="100" rx="2.5" ry="2.5" style="stroke:#000000;stroke-width:1.5;" width="74" x="1659" y="195.6094"/><text fill="#000000" font-family="sans-serif" font-size="14" font-weight="bold" lengthAdjust="spacing" textLength="36.5654" x="1677.7173" y="212.1426">index</text></g><!--cluster auth--><g class="cluster" data-qualified-name="auth" data-source-line="69" id="ent0077"><rect fill="none" height="100" rx="2.5" ry="2.5" style="stroke:#000000;stroke-width:1.5;" width="74" x="2384" y="493.6094"/><text fill="#000000" font-family="sans-serif" font-size="14" font-weight="bold" lengthAdjust="spacing" textLength="29.5518" x="2406.2241" y="510.1426">auth</text></g><!--cluster manualKiwiService--><g class="cluster" data-qualified-name="manualKiwiService" data-source-line="74" id="ent0084"><rect fill="none" height="100" rx="2.5" ry="2.5" style="stroke:#000000;stroke-width:1.5;" width="143" x="1244" y="45.6094"/><text fill="#000000" font-family="sans-serif" font-size="14" font-weight="bold" lengthAdjust="spacing" textLength="127.6133" x="1251.6934" y="62.1426">manualKiwiService</text></g><!--class html--><g class="entity" data-qualified-name="kiwi-mvc.Vista.public.index.html" data-source-line="10" id="ent0005"><rect fill="#F1F1F1" height="48" rx="2.5" ry="2.5" style="stroke:#181818;stroke-width:0.5;" width="58.4482" x="2214" y="529.6094"/><ellipse cx="2229" cy="545.6094" fill="#ADD1B2" rx="11" ry="11" style="stroke:#181818;stroke-width:1;"/><path d="M2231.7656,541.4844 Q2231.9219,541.2656 2232.1094,541.1563 Q2232.2969,541.0469 2232.5156,541.0469 Q2232.8906,541.0469 2233.125,541.3125 Q2233.3594,541.5625 2233.3594,542.1719 L2233.3594,543.625 Q2233.3594,544.2344 2233.125,544.5 Q2232.8906,544.7656 2232.5156,544.7656 Q2232.1719,544.7656 2231.9688,544.5625 Q2231.7656,544.375 2231.6563,543.8594 Q2231.6094,543.5 2231.4219,543.3125 Q2231.0938,542.9375 2230.4844,542.7188 Q2229.875,542.5 2229.25,542.5 Q2228.4844,542.5 2227.8438,542.8281 Q2227.2188,543.1563 2226.7188,543.9063 Q2226.2344,544.6563 2226.2344,545.6875 L2226.2344,546.7813 Q2226.2344,548.0156 2227.125,548.8438 Q2228.0156,549.6563 2229.6094,549.6563 Q2230.5469,549.6563 2231.2031,549.4063 Q2231.5938,549.25 2232.0156,548.8125 Q2232.2813,548.5469 2232.4219,548.4688 Q2232.5781,548.3906 2232.7813,548.3906 Q2233.1094,548.3906 2233.3594,548.6563 Q2233.625,548.9063 2233.625,549.25 Q2233.625,549.5938 2233.2813,550 Q2232.7813,550.5781 2231.9844,550.9063 Q2230.9063,551.3594 2229.6094,551.3594 Q2228.0938,551.3594 2226.8906,550.7344 Q2225.9063,550.2344 2225.2188,549.1719 Q2224.5313,548.0938 2224.5313,546.8125 L2224.5313,545.6563 Q2224.5313,544.3281 2225.1406,543.1875 Q2225.7656,542.0313 2226.8594,541.4219 Q2227.9531,540.7969 2229.1875,540.7969 Q2229.9219,540.7969 2230.5625,540.9688 Q2231.2188,541.125 2231.7656,541.4844 Z " fill="#000000"/><text fill="#000000" font-family="sans-serif" font-size="14" lengthAdjust="spacing" textLength="26.4482" x="2243" y="551.3379">html</text><line style="stroke:#181818;stroke-width:0.5;" x1="2215" x2="2271.4482" y1="561.6094" y2="561.6094"/><line style="stroke:#181818;stroke-width:0.5;" x1="2215" x2="2271.4482" y1="569.6094" y2="569.6094"/></g><!--class css--><g class="entity" data-qualified-name="kiwi-mvc.Vista.public.css.app.css" data-source-line="11" id="ent0007"><rect fill="#F1F1F1" height="48" rx="2.5" ry="2.5" style="stroke:#181818;stroke-width:0.5;" width="53" x="2104.5" y="529.6094"/><ellipse cx="2119.5" cy="545.6094" fill="#ADD1B2" rx="11" ry="11" style="stroke:#181818;stroke-width:1;"/><path d="M2122.2656,541.4844 Q2122.4219,541.2656 2122.6094,541.1563 Q2122.7969,541.0469 2123.0156,541.0469 Q2123.3906,541.0469 2123.625,541.3125 Q2123.8594,541.5625 2123.8594,542.1719 L2123.8594,543.625 Q2123.8594,544.2344 2123.625,544.5 Q2123.3906,544.7656 2123.0156,544.7656 Q2122.6719,544.7656 2122.4688,544.5625 Q2122.2656,544.375 2122.1563,543.8594 Q2122.1094,543.5 2121.9219,543.3125 Q2121.5938,542.9375 2120.9844,542.7188 Q2120.375,542.5 2119.75,542.5 Q2118.9844,542.5 2118.3438,542.8281 Q2117.7188,543.1563 2117.2188,543.9063 Q2116.7344,544.6563 2116.7344,545.6875 L2116.7344,546.7813 Q2116.7344,548.0156 2117.625,548.8438 Q2118.5156,549.6563 2120.1094,549.6563 Q2121.0469,549.6563 2121.7031,549.4063 Q2122.0938,549.25 2122.5156,548.8125 Q2122.7813,548.5469 2122.9219,548.4688 Q2123.0781,548.3906 2123.2813,548.3906 Q2123.6094,548.3906 2123.8594,548.6563 Q2124.125,548.9063 2124.125,549.25 Q2124.125,549.5938 2123.7813,550 Q2123.2813,550.5781 2122.4844,550.9063 Q2121.4063,551.3594 2120.1094,551.3594 Q2118.5938,551.3594 2117.3906,550.7344 Q2116.4063,550.2344 2115.7188,549.1719 Q2115.0313,548.0938 2115.0313,546.8125 L2115.0313,545.6563 Q2115.0313,544.3281 2115.6406,543.1875 Q2116.2656,542.0313 2117.3594,541.4219 Q2118.4531,540.7969 2119.6875,540.7969 Q2120.4219,540.7969 2121.0625,540.9688 Q2121.7188,541.125 2122.2656,541.4844 Z " fill="#000000"/><text fill="#000000" font-family="sans-serif" font-size="14" lengthAdjust="spacing" textLength="21" x="2133.5" y="551.3379">css</text><line style="stroke:#181818;stroke-width:0.5;" x1="2105.5" x2="2156.5" y1="561.6094" y2="561.6094"/><line style="stroke:#181818;stroke-width:0.5;" x1="2105.5" x2="2156.5" y1="569.6094" y2="569.6094"/></g><!--class js--><g class="entity" data-qualified-name="kiwi-mvc.Vista.public.js.app.js" data-source-line="12" id="ent0009"><rect fill="#F1F1F1" height="48" rx="2.5" ry="2.5" style="stroke:#181818;stroke-width:0.5;" width="42.1104" x="2006" y="529.6094"/><ellipse cx="2021" cy="545.6094" fill="#ADD1B2" rx="11" ry="11" style="stroke:#181818;stroke-width:1;"/><path d="M2023.7656,541.4844 Q2023.9219,541.2656 2024.1094,541.1563 Q2024.2969,541.0469 2024.5156,541.0469 Q2024.8906,541.0469 2025.125,541.3125 Q2025.3594,541.5625 2025.3594,542.1719 L2025.3594,543.625 Q2025.3594,544.2344 2025.125,544.5 Q2024.8906,544.7656 2024.5156,544.7656 Q2024.1719,544.7656 2023.9688,544.5625 Q2023.7656,544.375 2023.6563,543.8594 Q2023.6094,543.5 2023.4219,543.3125 Q2023.0938,542.9375 2022.4844,542.7188 Q2021.875,542.5 2021.25,542.5 Q2020.4844,542.5 2019.8438,542.8281 Q2019.2188,543.1563 2018.7188,543.9063 Q2018.2344,544.6563 2018.2344,545.6875 L2018.2344,546.7813 Q2018.2344,548.0156 2019.125,548.8438 Q2020.0156,549.6563 2021.6094,549.6563 Q2022.5469,549.6563 2023.2031,549.4063 Q2023.5938,549.25 2024.0156,548.8125 Q2024.2813,548.5469 2024.4219,548.4688 Q2024.5781,548.3906 2024.7813,548.3906 Q2025.1094,548.3906 2025.3594,548.6563 Q2025.625,548.9063 2025.625,549.25 Q2025.625,549.5938 2025.2813,550 Q2024.7813,550.5781 2023.9844,550.9063 Q2022.9063,551.3594 2021.6094,551.3594 Q2020.0938,551.3594 2018.8906,550.7344 Q2017.9063,550.2344 2017.2188,549.1719 Q2016.5313,548.0938 2016.5313,546.8125 L2016.5313,545.6563 Q2016.5313,544.3281 2017.1406,543.1875 Q2017.7656,542.0313 2018.8594,541.4219 Q2019.9531,540.7969 2021.1875,540.7969 Q2021.9219,540.7969 2022.5625,540.9688 Q2023.2188,541.125 2023.7656,541.4844 Z " fill="#000000"/><text fill="#000000" font-family="sans-serif" font-size="14" lengthAdjust="spacing" textLength="10.1104" x="2035" y="551.3379">js</text><line style="stroke:#181818;stroke-width:0.5;" x1="2007" x2="2047.1104" y1="561.6094" y2="561.6094"/><line style="stroke:#181818;stroke-width:0.5;" x1="2007" x2="2047.1104" y1="569.6094" y2="569.6094"/></g><!--class js--><g class="entity" data-qualified-name="kiwi-mvc.Controlador.src.routes.index.js" data-source-line="18" id="ent0013"><rect fill="#F1F1F1" height="48" rx="2.5" ry="2.5" style="stroke:#181818;stroke-width:0.5;" width="42.1104" x="1812" y="529.6094"/><ellipse cx="1827" cy="545.6094" fill="#ADD1B2" rx="11" ry="11" style="stroke:#181818;stroke-width:1;"/><path d="M1829.7656,541.4844 Q1829.9219,541.2656 1830.1094,541.1563 Q1830.2969,541.0469 1830.5156,541.0469 Q1830.8906,541.0469 1831.125,541.3125 Q1831.3594,541.5625 1831.3594,542.1719 L1831.3594,543.625 Q1831.3594,544.2344 1831.125,544.5 Q1830.8906,544.7656 1830.5156,544.7656 Q1830.1719,544.7656 1829.9688,544.5625 Q1829.7656,544.375 1829.6563,543.8594 Q1829.6094,543.5 1829.4219,543.3125 Q1829.0938,542.9375 1828.4844,542.7188 Q1827.875,542.5 1827.25,542.5 Q1826.4844,542.5 1825.8438,542.8281 Q1825.2188,543.1563 1824.7188,543.9063 Q1824.2344,544.6563 1824.2344,545.6875 L1824.2344,546.7813 Q1824.2344,548.0156 1825.125,548.8438 Q1826.0156,549.6563 1827.6094,549.6563 Q1828.5469,549.6563 1829.2031,549.4063 Q1829.5938,549.25 1830.0156,548.8125 Q1830.2813,548.5469 1830.4219,548.4688 Q1830.5781,548.3906 1830.7813,548.3906 Q1831.1094,548.3906 1831.3594,548.6563 Q1831.625,548.9063 1831.625,549.25 Q1831.625,549.5938 1831.2813,550 Q1830.7813,550.5781 1829.9844,550.9063 Q1828.9063,551.3594 1827.6094,551.3594 Q1826.0938,551.3594 1824.8906,550.7344 Q1823.9063,550.2344 1823.2188,549.1719 Q1822.5313,548.0938 1822.5313,546.8125 L1822.5313,545.6563 Q1822.5313,544.3281 1823.1406,543.1875 Q1823.7656,542.0313 1824.8594,541.4219 Q1825.9531,540.7969 1827.1875,540.7969 Q1827.9219,540.7969 1828.5625,540.9688 Q1829.2188,541.125 1829.7656,541.4844 Z " fill="#000000"/><text fill="#000000" font-family="sans-serif" font-size="14" lengthAdjust="spacing" textLength="10.1104" x="1841" y="551.3379">js</text><line style="stroke:#181818;stroke-width:0.5;" x1="1813" x2="1853.1104" y1="561.6094" y2="561.6094"/><line style="stroke:#181818;stroke-width:0.5;" x1="1813" x2="1853.1104" y1="569.6094" y2="569.6094"/></g><!--class js--><g class="entity" data-qualified-name="kiwi-mvc.Controlador.src.controllers.authController.js" data-source-line="22" id="ent0016"><rect fill="#F1F1F1" height="48" rx="2.5" ry="2.5" style="stroke:#181818;stroke-width:0.5;" width="42.1104" x="1631" y="529.6094"/><ellipse cx="1646" cy="545.6094" fill="#ADD1B2" rx="11" ry="11" style="stroke:#181818;stroke-width:1;"/><path d="M1648.7656,541.4844 Q1648.9219,541.2656 1649.1094,541.1563 Q1649.2969,541.0469 1649.5156,541.0469 Q1649.8906,541.0469 1650.125,541.3125 Q1650.3594,541.5625 1650.3594,542.1719 L1650.3594,543.625 Q1650.3594,544.2344 1650.125,544.5 Q1649.8906,544.7656 1649.5156,544.7656 Q1649.1719,544.7656 1648.9688,544.5625 Q1648.7656,544.375 1648.6563,543.8594 Q1648.6094,543.5 1648.4219,543.3125 Q1648.0938,542.9375 1647.4844,542.7188 Q1646.875,542.5 1646.25,542.5 Q1645.4844,542.5 1644.8438,542.8281 Q1644.2188,543.1563 1643.7188,543.9063 Q1643.2344,544.6563 1643.2344,545.6875 L1643.2344,546.7813 Q1643.2344,548.0156 1644.125,548.8438 Q1645.0156,549.6563 1646.6094,549.6563 Q1647.5469,549.6563 1648.2031,549.4063 Q1648.5938,549.25 1649.0156,548.8125 Q1649.2813,548.5469 1649.4219,548.4688 Q1649.5781,548.3906 1649.7813,548.3906 Q1650.1094,548.3906 1650.3594,548.6563 Q1650.625,548.9063 1650.625,549.25 Q1650.625,549.5938 1650.2813,550 Q1649.7813,550.5781 1648.9844,550.9063 Q1647.9063,551.3594 1646.6094,551.3594 Q1645.0938,551.3594 1643.8906,550.7344 Q1642.9063,550.2344 1642.2188,549.1719 Q1641.5313,548.0938 1641.5313,546.8125 L1641.5313,545.6563 Q1641.5313,544.3281 1642.1406,543.1875 Q1642.7656,542.0313 1643.8594,541.4219 Q1644.9531,540.7969 1646.1875,540.7969 Q1646.9219,540.7969 1647.5625,540.9688 Q1648.2188,541.125 1648.7656,541.4844 Z " fill="#000000"/><text fill="#000000" font-family="sans-serif" font-size="14" lengthAdjust="spacing" textLength="10.1104" x="1660" y="551.3379">js</text><line style="stroke:#181818;stroke-width:0.5;" x1="1632" x2="1672.1104" y1="561.6094" y2="561.6094"/><line style="stroke:#181818;stroke-width:0.5;" x1="1632" x2="1672.1104" y1="569.6094" y2="569.6094"/></g><!--class js--><g class="entity" data-qualified-name="kiwi-mvc.Controlador.src.controllers.sessionController.js" data-source-line="23" id="ent0018"><rect fill="#F1F1F1" height="48" rx="2.5" ry="2.5" style="stroke:#181818;stroke-width:0.5;" width="42.1104" x="1483" y="529.6094"/><ellipse cx="1498" cy="545.6094" fill="#ADD1B2" rx="11" ry="11" style="stroke:#181818;stroke-width:1;"/><path d="M1500.7656,541.4844 Q1500.9219,541.2656 1501.1094,541.1563 Q1501.2969,541.0469 1501.5156,541.0469 Q1501.8906,541.0469 1502.125,541.3125 Q1502.3594,541.5625 1502.3594,542.1719 L1502.3594,543.625 Q1502.3594,544.2344 1502.125,544.5 Q1501.8906,544.7656 1501.5156,544.7656 Q1501.1719,544.7656 1500.9688,544.5625 Q1500.7656,544.375 1500.6563,543.8594 Q1500.6094,543.5 1500.4219,543.3125 Q1500.0938,542.9375 1499.4844,542.7188 Q1498.875,542.5 1498.25,542.5 Q1497.4844,542.5 1496.8438,542.8281 Q1496.2188,543.1563 1495.7188,543.9063 Q1495.2344,544.6563 1495.2344,545.6875 L1495.2344,546.7813 Q1495.2344,548.0156 1496.125,548.8438 Q1497.0156,549.6563 1498.6094,549.6563 Q1499.5469,549.6563 1500.2031,549.4063 Q1500.5938,549.25 1501.0156,548.8125 Q1501.2813,548.5469 1501.4219,548.4688 Q1501.5781,548.3906 1501.7813,548.3906 Q1502.1094,548.3906 1502.3594,548.6563 Q1502.625,548.9063 1502.625,549.25 Q1502.625,549.5938 1502.2813,550 Q1501.7813,550.5781 1500.9844,550.9063 Q1499.9063,551.3594 1498.6094,551.3594 Q1497.0938,551.3594 1495.8906,550.7344 Q1494.9063,550.2344 1494.2188,549.1719 Q1493.5313,548.0938 1493.5313,546.8125 L1493.5313,545.6563 Q1493.5313,544.3281 1494.1406,543.1875 Q1494.7656,542.0313 1495.8594,541.4219 Q1496.9531,540.7969 1498.1875,540.7969 Q1498.9219,540.7969 1499.5625,540.9688 Q1500.2188,541.125 1500.7656,541.4844 Z " fill="#000000"/><text fill="#000000" font-family="sans-serif" font-size="14" lengthAdjust="spacing" textLength="10.1104" x="1512" y="551.3379">js</text><line style="stroke:#181818;stroke-width:0.5;" x1="1484" x2="1524.1104" y1="561.6094" y2="561.6094"/><line style="stroke:#181818;stroke-width:0.5;" x1="1484" x2="1524.1104" y1="569.6094" y2="569.6094"/></g><!--class js--><g class="entity" data-qualified-name="kiwi-mvc.Controlador.src.controllers.documentationController.js" data-source-line="24" id="ent0020"><rect fill="#F1F1F1" height="48" rx="2.5" ry="2.5" style="stroke:#181818;stroke-width:0.5;" width="42.1104" x="1300" y="529.6094"/><ellipse cx="1315" cy="545.6094" fill="#ADD1B2" rx="11" ry="11" style="stroke:#181818;stroke-width:1;"/><path d="M1317.7656,541.4844 Q1317.9219,541.2656 1318.1094,541.1563 Q1318.2969,541.0469 1318.5156,541.0469 Q1318.8906,541.0469 1319.125,541.3125 Q1319.3594,541.5625 1319.3594,542.1719 L1319.3594,543.625 Q1319.3594,544.2344 1319.125,544.5 Q1318.8906,544.7656 1318.5156,544.7656 Q1318.1719,544.7656 1317.9688,544.5625 Q1317.7656,544.375 1317.6563,543.8594 Q1317.6094,543.5 1317.4219,543.3125 Q1317.0938,542.9375 1316.4844,542.7188 Q1315.875,542.5 1315.25,542.5 Q1314.4844,542.5 1313.8438,542.8281 Q1313.2188,543.1563 1312.7188,543.9063 Q1312.2344,544.6563 1312.2344,545.6875 L1312.2344,546.7813 Q1312.2344,548.0156 1313.125,548.8438 Q1314.0156,549.6563 1315.6094,549.6563 Q1316.5469,549.6563 1317.2031,549.4063 Q1317.5938,549.25 1318.0156,548.8125 Q1318.2813,548.5469 1318.4219,548.4688 Q1318.5781,548.3906 1318.7813,548.3906 Q1319.1094,548.3906 1319.3594,548.6563 Q1319.625,548.9063 1319.625,549.25 Q1319.625,549.5938 1319.2813,550 Q1318.7813,550.5781 1317.9844,550.9063 Q1316.9063,551.3594 1315.6094,551.3594 Q1314.0938,551.3594 1312.8906,550.7344 Q1311.9063,550.2344 1311.2188,549.1719 Q1310.5313,548.0938 1310.5313,546.8125 L1310.5313,545.6563 Q1310.5313,544.3281 1311.1406,543.1875 Q1311.7656,542.0313 1312.8594,541.4219 Q1313.9531,540.7969 1315.1875,540.7969 Q1315.9219,540.7969 1316.5625,540.9688 Q1317.2188,541.125 1317.7656,541.4844 Z " fill="#000000"/><text fill="#000000" font-family="sans-serif" font-size="14" lengthAdjust="spacing" textLength="10.1104" x="1329" y="551.3379">js</text><line style="stroke:#181818;stroke-width:0.5;" x1="1301" x2="1341.1104" y1="561.6094" y2="561.6094"/><line style="stroke:#181818;stroke-width:0.5;" x1="1301" x2="1341.1104" y1="569.6094" y2="569.6094"/></g><!--class js--><g class="entity" data-qualified-name="kiwi-mvc.Controlador.src.controllers.useCaseController.js" data-source-line="25" id="ent0022"><rect fill="#F1F1F1" height="48" rx="2.5" ry="2.5" style="stroke:#181818;stroke-width:0.5;" width="42.1104" x="1115" y="529.6094"/><ellipse cx="1130" cy="545.6094" fill="#ADD1B2" rx="11" ry="11" style="stroke:#181818;stroke-width:1;"/><path d="M1132.7656,541.4844 Q1132.9219,541.2656 1133.1094,541.1563 Q1133.2969,541.0469 1133.5156,541.0469 Q1133.8906,541.0469 1134.125,541.3125 Q1134.3594,541.5625 1134.3594,542.1719 L1134.3594,543.625 Q1134.3594,544.2344 1134.125,544.5 Q1133.8906,544.7656 1133.5156,544.7656 Q1133.1719,544.7656 1132.9688,544.5625 Q1132.7656,544.375 1132.6563,543.8594 Q1132.6094,543.5 1132.4219,543.3125 Q1132.0938,542.9375 1131.4844,542.7188 Q1130.875,542.5 1130.25,542.5 Q1129.4844,542.5 1128.8438,542.8281 Q1128.2188,543.1563 1127.7188,543.9063 Q1127.2344,544.6563 1127.2344,545.6875 L1127.2344,546.7813 Q1127.2344,548.0156 1128.125,548.8438 Q1129.0156,549.6563 1130.6094,549.6563 Q1131.5469,549.6563 1132.2031,549.4063 Q1132.5938,549.25 1133.0156,548.8125 Q1133.2813,548.5469 1133.4219,548.4688 Q1133.5781,548.3906 1133.7813,548.3906 Q1134.1094,548.3906 1134.3594,548.6563 Q1134.625,548.9063 1134.625,549.25 Q1134.625,549.5938 1134.2813,550 Q1133.7813,550.5781 1132.9844,550.9063 Q1131.9063,551.3594 1130.6094,551.3594 Q1129.0938,551.3594 1127.8906,550.7344 Q1126.9063,550.2344 1126.2188,549.1719 Q1125.5313,548.0938 1125.5313,546.8125 L1125.5313,545.6563 Q1125.5313,544.3281 1126.1406,543.1875 Q1126.7656,542.0313 1127.8594,541.4219 Q1128.9531,540.7969 1130.1875,540.7969 Q1130.9219,540.7969 1131.5625,540.9688 Q1132.2188,541.125 1132.7656,541.4844 Z " fill="#000000"/><text fill="#000000" font-family="sans-serif" font-size="14" lengthAdjust="spacing" textLength="10.1104" x="1144" y="551.3379">js</text><line style="stroke:#181818;stroke-width:0.5;" x1="1116" x2="1156.1104" y1="561.6094" y2="561.6094"/><line style="stroke:#181818;stroke-width:0.5;" x1="1116" x2="1156.1104" y1="569.6094" y2="569.6094"/></g><!--class js--><g class="entity" data-qualified-name="kiwi-mvc.Controlador.src.controllers.requirementController.js" data-source-line="26" id="ent0024"><rect fill="#F1F1F1" height="48" rx="2.5" ry="2.5" style="stroke:#181818;stroke-width:0.5;" width="42.1104" x="782" y="529.6094"/><ellipse cx="797" cy="545.6094" fill="#ADD1B2" rx="11" ry="11" style="stroke:#181818;stroke-width:1;"/><path d="M799.7656,541.4844 Q799.9219,541.2656 800.1094,541.1563 Q800.2969,541.0469 800.5156,541.0469 Q800.8906,541.0469 801.125,541.3125 Q801.3594,541.5625 801.3594,542.1719 L801.3594,543.625 Q801.3594,544.2344 801.125,544.5 Q800.8906,544.7656 800.5156,544.7656 Q800.1719,544.7656 799.9688,544.5625 Q799.7656,544.375 799.6563,543.8594 Q799.6094,543.5 799.4219,543.3125 Q799.0938,542.9375 798.4844,542.7188 Q797.875,542.5 797.25,542.5 Q796.4844,542.5 795.8438,542.8281 Q795.2188,543.1563 794.7188,543.9063 Q794.2344,544.6563 794.2344,545.6875 L794.2344,546.7813 Q794.2344,548.0156 795.125,548.8438 Q796.0156,549.6563 797.6094,549.6563 Q798.5469,549.6563 799.2031,549.4063 Q799.5938,549.25 800.0156,548.8125 Q800.2813,548.5469 800.4219,548.4688 Q800.5781,548.3906 800.7813,548.3906 Q801.1094,548.3906 801.3594,548.6563 Q801.625,548.9063 801.625,549.25 Q801.625,549.5938 801.2813,550 Q800.7813,550.5781 799.9844,550.9063 Q798.9063,551.3594 797.6094,551.3594 Q796.0938,551.3594 794.8906,550.7344 Q793.9063,550.2344 793.2188,549.1719 Q792.5313,548.0938 792.5313,546.8125 L792.5313,545.6563 Q792.5313,544.3281 793.1406,543.1875 Q793.7656,542.0313 794.8594,541.4219 Q795.9531,540.7969 797.1875,540.7969 Q797.9219,540.7969 798.5625,540.9688 Q799.2188,541.125 799.7656,541.4844 Z " fill="#000000"/><text fill="#000000" font-family="sans-serif" font-size="14" lengthAdjust="spacing" textLength="10.1104" x="811" y="551.3379">js</text><line style="stroke:#181818;stroke-width:0.5;" x1="783" x2="823.1104" y1="561.6094" y2="561.6094"/><line style="stroke:#181818;stroke-width:0.5;" x1="783" x2="823.1104" y1="569.6094" y2="569.6094"/></g><!--class js--><g class="entity" data-qualified-name="kiwi-mvc.Controlador.src.controllers.gherkinController.js" data-source-line="27" id="ent0026"><rect fill="#F1F1F1" height="48" rx="2.5" ry="2.5" style="stroke:#181818;stroke-width:0.5;" width="42.1104" x="954" y="529.6094"/><ellipse cx="969" cy="545.6094" fill="#ADD1B2" rx="11" ry="11" style="stroke:#181818;stroke-width:1;"/><path d="M971.7656,541.4844 Q971.9219,541.2656 972.1094,541.1563 Q972.2969,541.0469 972.5156,541.0469 Q972.8906,541.0469 973.125,541.3125 Q973.3594,541.5625 973.3594,542.1719 L973.3594,543.625 Q973.3594,544.2344 973.125,544.5 Q972.8906,544.7656 972.5156,544.7656 Q972.1719,544.7656 971.9688,544.5625 Q971.7656,544.375 971.6563,543.8594 Q971.6094,543.5 971.4219,543.3125 Q971.0938,542.9375 970.4844,542.7188 Q969.875,542.5 969.25,542.5 Q968.4844,542.5 967.8438,542.8281 Q967.2188,543.1563 966.7188,543.9063 Q966.2344,544.6563 966.2344,545.6875 L966.2344,546.7813 Q966.2344,548.0156 967.125,548.8438 Q968.0156,549.6563 969.6094,549.6563 Q970.5469,549.6563 971.2031,549.4063 Q971.5938,549.25 972.0156,548.8125 Q972.2813,548.5469 972.4219,548.4688 Q972.5781,548.3906 972.7813,548.3906 Q973.1094,548.3906 973.3594,548.6563 Q973.625,548.9063 973.625,549.25 Q973.625,549.5938 973.2813,550 Q972.7813,550.5781 971.9844,550.9063 Q970.9063,551.3594 969.6094,551.3594 Q968.0938,551.3594 966.8906,550.7344 Q965.9063,550.2344 965.2188,549.1719 Q964.5313,548.0938 964.5313,546.8125 L964.5313,545.6563 Q964.5313,544.3281 965.1406,543.1875 Q965.7656,542.0313 966.8594,541.4219 Q967.9531,540.7969 969.1875,540.7969 Q969.9219,540.7969 970.5625,540.9688 Q971.2188,541.125 971.7656,541.4844 Z " fill="#000000"/><text fill="#000000" font-family="sans-serif" font-size="14" lengthAdjust="spacing" textLength="10.1104" x="983" y="551.3379">js</text><line style="stroke:#181818;stroke-width:0.5;" x1="955" x2="995.1104" y1="561.6094" y2="561.6094"/><line style="stroke:#181818;stroke-width:0.5;" x1="955" x2="995.1104" y1="569.6094" y2="569.6094"/></g><!--class js--><g class="entity" data-qualified-name="kiwi-mvc.Controlador.src.controllers.draftController.js" data-source-line="28" id="ent0028"><rect fill="#F1F1F1" height="48" rx="2.5" ry="2.5" style="stroke:#181818;stroke-width:0.5;" width="42.1104" x="620" y="529.6094"/><ellipse cx="635" cy="545.6094" fill="#ADD1B2" rx="11" ry="11" style="stroke:#181818;stroke-width:1;"/><path d="M637.7656,541.4844 Q637.9219,541.2656 638.1094,541.1563 Q638.2969,541.0469 638.5156,541.0469 Q638.8906,541.0469 639.125,541.3125 Q639.3594,541.5625 639.3594,542.1719 L639.3594,543.625 Q639.3594,544.2344 639.125,544.5 Q638.8906,544.7656 638.5156,544.7656 Q638.1719,544.7656 637.9688,544.5625 Q637.7656,544.375 637.6563,543.8594 Q637.6094,543.5 637.4219,543.3125 Q637.0938,542.9375 636.4844,542.7188 Q635.875,542.5 635.25,542.5 Q634.4844,542.5 633.8438,542.8281 Q633.2188,543.1563 632.7188,543.9063 Q632.2344,544.6563 632.2344,545.6875 L632.2344,546.7813 Q632.2344,548.0156 633.125,548.8438 Q634.0156,549.6563 635.6094,549.6563 Q636.5469,549.6563 637.2031,549.4063 Q637.5938,549.25 638.0156,548.8125 Q638.2813,548.5469 638.4219,548.4688 Q638.5781,548.3906 638.7813,548.3906 Q639.1094,548.3906 639.3594,548.6563 Q639.625,548.9063 639.625,549.25 Q639.625,549.5938 639.2813,550 Q638.7813,550.5781 637.9844,550.9063 Q636.9063,551.3594 635.6094,551.3594 Q634.0938,551.3594 632.8906,550.7344 Q631.9063,550.2344 631.2188,549.1719 Q630.5313,548.0938 630.5313,546.8125 L630.5313,545.6563 Q630.5313,544.3281 631.1406,543.1875 Q631.7656,542.0313 632.8594,541.4219 Q633.9531,540.7969 635.1875,540.7969 Q635.9219,540.7969 636.5625,540.9688 Q637.2188,541.125 637.7656,541.4844 Z " fill="#000000"/><text fill="#000000" font-family="sans-serif" font-size="14" lengthAdjust="spacing" textLength="10.1104" x="649" y="551.3379">js</text><line style="stroke:#181818;stroke-width:0.5;" x1="621" x2="661.1104" y1="561.6094" y2="561.6094"/><line style="stroke:#181818;stroke-width:0.5;" x1="621" x2="661.1104" y1="569.6094" y2="569.6094"/></g><!--class js--><g class="entity" data-qualified-name="kiwi-mvc.Controlador.src.middleware.auth.js" data-source-line="32" id="ent0031"><rect fill="#F1F1F1" height="48" rx="2.5" ry="2.5" style="stroke:#181818;stroke-width:0.5;" width="42.1104" x="430" y="529.6094"/><ellipse cx="445" cy="545.6094" fill="#ADD1B2" rx="11" ry="11" style="stroke:#181818;stroke-width:1;"/><path d="M447.7656,541.4844 Q447.9219,541.2656 448.1094,541.1563 Q448.2969,541.0469 448.5156,541.0469 Q448.8906,541.0469 449.125,541.3125 Q449.3594,541.5625 449.3594,542.1719 L449.3594,543.625 Q449.3594,544.2344 449.125,544.5 Q448.8906,544.7656 448.5156,544.7656 Q448.1719,544.7656 447.9688,544.5625 Q447.7656,544.375 447.6563,543.8594 Q447.6094,543.5 447.4219,543.3125 Q447.0938,542.9375 446.4844,542.7188 Q445.875,542.5 445.25,542.5 Q444.4844,542.5 443.8438,542.8281 Q443.2188,543.1563 442.7188,543.9063 Q442.2344,544.6563 442.2344,545.6875 L442.2344,546.7813 Q442.2344,548.0156 443.125,548.8438 Q444.0156,549.6563 445.6094,549.6563 Q446.5469,549.6563 447.2031,549.4063 Q447.5938,549.25 448.0156,548.8125 Q448.2813,548.5469 448.4219,548.4688 Q448.5781,548.3906 448.7813,548.3906 Q449.1094,548.3906 449.3594,548.6563 Q449.625,548.9063 449.625,549.25 Q449.625,549.5938 449.2813,550 Q448.7813,550.5781 447.9844,550.9063 Q446.9063,551.3594 445.6094,551.3594 Q444.0938,551.3594 442.8906,550.7344 Q441.9063,550.2344 441.2188,549.1719 Q440.5313,548.0938 440.5313,546.8125 L440.5313,545.6563 Q440.5313,544.3281 441.1406,543.1875 Q441.7656,542.0313 442.8594,541.4219 Q443.9531,540.7969 445.1875,540.7969 Q445.9219,540.7969 446.5625,540.9688 Q447.2188,541.125 447.7656,541.4844 Z " fill="#000000"/><text fill="#000000" font-family="sans-serif" font-size="14" lengthAdjust="spacing" textLength="10.1104" x="459" y="551.3379">js</text><line style="stroke:#181818;stroke-width:0.5;" x1="431" x2="471.1104" y1="561.6094" y2="561.6094"/><line style="stroke:#181818;stroke-width:0.5;" x1="431" x2="471.1104" y1="569.6094" y2="569.6094"/></g><!--class js--><g class="entity" data-qualified-name="kiwi-mvc.Modelo.src.models.User.js" data-source-line="38" id="ent0035"><rect fill="#F1F1F1" height="48" rx="2.5" ry="2.5" style="stroke:#181818;stroke-width:0.5;" width="42.1104" x="1384" y="1165.6094"/><ellipse cx="1399" cy="1181.6094" fill="#ADD1B2" rx="11" ry="11" style="stroke:#181818;stroke-width:1;"/><path d="M1401.7656,1177.4844 Q1401.9219,1177.2656 1402.1094,1177.1563 Q1402.2969,1177.0469 1402.5156,1177.0469 Q1402.8906,1177.0469 1403.125,1177.3125 Q1403.3594,1177.5625 1403.3594,1178.1719 L1403.3594,1179.625 Q1403.3594,1180.2344 1403.125,1180.5 Q1402.8906,1180.7656 1402.5156,1180.7656 Q1402.1719,1180.7656 1401.9688,1180.5625 Q1401.7656,1180.375 1401.6563,1179.8594 Q1401.6094,1179.5 1401.4219,1179.3125 Q1401.0938,1178.9375 1400.4844,1178.7188 Q1399.875,1178.5 1399.25,1178.5 Q1398.4844,1178.5 1397.8438,1178.8281 Q1397.2188,1179.1563 1396.7188,1179.9063 Q1396.2344,1180.6563 1396.2344,1181.6875 L1396.2344,1182.7813 Q1396.2344,1184.0156 1397.125,1184.8438 Q1398.0156,1185.6563 1399.6094,1185.6563 Q1400.5469,1185.6563 1401.2031,1185.4063 Q1401.5938,1185.25 1402.0156,1184.8125 Q1402.2813,1184.5469 1402.4219,1184.4688 Q1402.5781,1184.3906 1402.7813,1184.3906 Q1403.1094,1184.3906 1403.3594,1184.6563 Q1403.625,1184.9063 1403.625,1185.25 Q1403.625,1185.5938 1403.2813,1186 Q1402.7813,1186.5781 1401.9844,1186.9063 Q1400.9063,1187.3594 1399.6094,1187.3594 Q1398.0938,1187.3594 1396.8906,1186.7344 Q1395.9063,1186.2344 1395.2188,1185.1719 Q1394.5313,1184.0938 1394.5313,1182.8125 L1394.5313,1181.6563 Q1394.5313,1180.3281 1395.1406,1179.1875 Q1395.7656,1178.0313 1396.8594,1177.4219 Q1397.9531,1176.7969 1399.1875,1176.7969 Q1399.9219,1176.7969 1400.5625,1176.9688 Q1401.2188,1177.125 1401.7656,1177.4844 Z " fill="#000000"/><text fill="#000000" font-family="sans-serif" font-size="14" lengthAdjust="spacing" textLength="10.1104" x="1413" y="1187.3379">js</text><line style="stroke:#181818;stroke-width:0.5;" x1="1385" x2="1425.1104" y1="1197.6094" y2="1197.6094"/><line style="stroke:#181818;stroke-width:0.5;" x1="1385" x2="1425.1104" y1="1205.6094" y2="1205.6094"/></g><!--class js--><g class="entity" data-qualified-name="kiwi-mvc.Modelo.src.models.Session.js" data-source-line="39" id="ent0037"><rect fill="#F1F1F1" height="48" rx="2.5" ry="2.5" style="stroke:#181818;stroke-width:0.5;" width="42.1104" x="938" y="1165.6094"/><ellipse cx="953" cy="1181.6094" fill="#ADD1B2" rx="11" ry="11" style="stroke:#181818;stroke-width:1;"/><path d="M955.7656,1177.4844 Q955.9219,1177.2656 956.1094,1177.1563 Q956.2969,1177.0469 956.5156,1177.0469 Q956.8906,1177.0469 957.125,1177.3125 Q957.3594,1177.5625 957.3594,1178.1719 L957.3594,1179.625 Q957.3594,1180.2344 957.125,1180.5 Q956.8906,1180.7656 956.5156,1180.7656 Q956.1719,1180.7656 955.9688,1180.5625 Q955.7656,1180.375 955.6563,1179.8594 Q955.6094,1179.5 955.4219,1179.3125 Q955.0938,1178.9375 954.4844,1178.7188 Q953.875,1178.5 953.25,1178.5 Q952.4844,1178.5 951.8438,1178.8281 Q951.2188,1179.1563 950.7188,1179.9063 Q950.2344,1180.6563 950.2344,1181.6875 L950.2344,1182.7813 Q950.2344,1184.0156 951.125,1184.8438 Q952.0156,1185.6563 953.6094,1185.6563 Q954.5469,1185.6563 955.2031,1185.4063 Q955.5938,1185.25 956.0156,1184.8125 Q956.2813,1184.5469 956.4219,1184.4688 Q956.5781,1184.3906 956.7813,1184.3906 Q957.1094,1184.3906 957.3594,1184.6563 Q957.625,1184.9063 957.625,1185.25 Q957.625,1185.5938 957.2813,1186 Q956.7813,1186.5781 955.9844,1186.9063 Q954.9063,1187.3594 953.6094,1187.3594 Q952.0938,1187.3594 950.8906,1186.7344 Q949.9063,1186.2344 949.2188,1185.1719 Q948.5313,1184.0938 948.5313,1182.8125 L948.5313,1181.6563 Q948.5313,1180.3281 949.1406,1179.1875 Q949.7656,1178.0313 950.8594,1177.4219 Q951.9531,1176.7969 953.1875,1176.7969 Q953.9219,1176.7969 954.5625,1176.9688 Q955.2188,1177.125 955.7656,1177.4844 Z " fill="#000000"/><text fill="#000000" font-family="sans-serif" font-size="14" lengthAdjust="spacing" textLength="10.1104" x="967" y="1187.3379">js</text><line style="stroke:#181818;stroke-width:0.5;" x1="939" x2="979.1104" y1="1197.6094" y2="1197.6094"/><line style="stroke:#181818;stroke-width:0.5;" x1="939" x2="979.1104" y1="1205.6094" y2="1205.6094"/></g><!--class js--><g class="entity" data-qualified-name="kiwi-mvc.Modelo.src.models.Documentation.js" data-source-line="40" id="ent0039"><rect fill="#F1F1F1" height="48" rx="2.5" ry="2.5" style="stroke:#181818;stroke-width:0.5;" width="42.1104" x="818" y="1165.6094"/><ellipse cx="833" cy="1181.6094" fill="#ADD1B2" rx="11" ry="11" style="stroke:#181818;stroke-width:1;"/><path d="M835.7656,1177.4844 Q835.9219,1177.2656 836.1094,1177.1563 Q836.2969,1177.0469 836.5156,1177.0469 Q836.8906,1177.0469 837.125,1177.3125 Q837.3594,1177.5625 837.3594,1178.1719 L837.3594,1179.625 Q837.3594,1180.2344 837.125,1180.5 Q836.8906,1180.7656 836.5156,1180.7656 Q836.1719,1180.7656 835.9688,1180.5625 Q835.7656,1180.375 835.6563,1179.8594 Q835.6094,1179.5 835.4219,1179.3125 Q835.0938,1178.9375 834.4844,1178.7188 Q833.875,1178.5 833.25,1178.5 Q832.4844,1178.5 831.8438,1178.8281 Q831.2188,1179.1563 830.7188,1179.9063 Q830.2344,1180.6563 830.2344,1181.6875 L830.2344,1182.7813 Q830.2344,1184.0156 831.125,1184.8438 Q832.0156,1185.6563 833.6094,1185.6563 Q834.5469,1185.6563 835.2031,1185.4063 Q835.5938,1185.25 836.0156,1184.8125 Q836.2813,1184.5469 836.4219,1184.4688 Q836.5781,1184.3906 836.7813,1184.3906 Q837.1094,1184.3906 837.3594,1184.6563 Q837.625,1184.9063 837.625,1185.25 Q837.625,1185.5938 837.2813,1186 Q836.7813,1186.5781 835.9844,1186.9063 Q834.9063,1187.3594 833.6094,1187.3594 Q832.0938,1187.3594 830.8906,1186.7344 Q829.9063,1186.2344 829.2188,1185.1719 Q828.5313,1184.0938 828.5313,1182.8125 L828.5313,1181.6563 Q828.5313,1180.3281 829.1406,1179.1875 Q829.7656,1178.0313 830.8594,1177.4219 Q831.9531,1176.7969 833.1875,1176.7969 Q833.9219,1176.7969 834.5625,1176.9688 Q835.2188,1177.125 835.7656,1177.4844 Z " fill="#000000"/><text fill="#000000" font-family="sans-serif" font-size="14" lengthAdjust="spacing" textLength="10.1104" x="847" y="1187.3379">js</text><line style="stroke:#181818;stroke-width:0.5;" x1="819" x2="859.1104" y1="1197.6094" y2="1197.6094"/><line style="stroke:#181818;stroke-width:0.5;" x1="819" x2="859.1104" y1="1205.6094" y2="1205.6094"/></g><!--class js--><g class="entity" data-qualified-name="kiwi-mvc.Modelo.src.models.UseCase.js" data-source-line="41" id="ent0041"><rect fill="#F1F1F1" height="48" rx="2.5" ry="2.5" style="stroke:#181818;stroke-width:0.5;" width="42.1104" x="698" y="1165.6094"/><ellipse cx="713" cy="1181.6094" fill="#ADD1B2" rx="11" ry="11" style="stroke:#181818;stroke-width:1;"/><path d="M715.7656,1177.4844 Q715.9219,1177.2656 716.1094,1177.1563 Q716.2969,1177.0469 716.5156,1177.0469 Q716.8906,1177.0469 717.125,1177.3125 Q717.3594,1177.5625 717.3594,1178.1719 L717.3594,1179.625 Q717.3594,1180.2344 717.125,1180.5 Q716.8906,1180.7656 716.5156,1180.7656 Q716.1719,1180.7656 715.9688,1180.5625 Q715.7656,1180.375 715.6563,1179.8594 Q715.6094,1179.5 715.4219,1179.3125 Q715.0938,1178.9375 714.4844,1178.7188 Q713.875,1178.5 713.25,1178.5 Q712.4844,1178.5 711.8438,1178.8281 Q711.2188,1179.1563 710.7188,1179.9063 Q710.2344,1180.6563 710.2344,1181.6875 L710.2344,1182.7813 Q710.2344,1184.0156 711.125,1184.8438 Q712.0156,1185.6563 713.6094,1185.6563 Q714.5469,1185.6563 715.2031,1185.4063 Q715.5938,1185.25 716.0156,1184.8125 Q716.2813,1184.5469 716.4219,1184.4688 Q716.5781,1184.3906 716.7813,1184.3906 Q717.1094,1184.3906 717.3594,1184.6563 Q717.625,1184.9063 717.625,1185.25 Q717.625,1185.5938 717.2813,1186 Q716.7813,1186.5781 715.9844,1186.9063 Q714.9063,1187.3594 713.6094,1187.3594 Q712.0938,1187.3594 710.8906,1186.7344 Q709.9063,1186.2344 709.2188,1185.1719 Q708.5313,1184.0938 708.5313,1182.8125 L708.5313,1181.6563 Q708.5313,1180.3281 709.1406,1179.1875 Q709.7656,1178.0313 710.8594,1177.4219 Q711.9531,1176.7969 713.1875,1176.7969 Q713.9219,1176.7969 714.5625,1176.9688 Q715.2188,1177.125 715.7656,1177.4844 Z " fill="#000000"/><text fill="#000000" font-family="sans-serif" font-size="14" lengthAdjust="spacing" textLength="10.1104" x="727" y="1187.3379">js</text><line style="stroke:#181818;stroke-width:0.5;" x1="699" x2="739.1104" y1="1197.6094" y2="1197.6094"/><line style="stroke:#181818;stroke-width:0.5;" x1="699" x2="739.1104" y1="1205.6094" y2="1205.6094"/></g><!--class js--><g class="entity" data-qualified-name="kiwi-mvc.Modelo.src.models.FunctionalRequirement.js" data-source-line="42" id="ent0043"><rect fill="#F1F1F1" height="48" rx="2.5" ry="2.5" style="stroke:#181818;stroke-width:0.5;" width="42.1104" x="1237" y="1165.6094"/><ellipse cx="1252" cy="1181.6094" fill="#ADD1B2" rx="11" ry="11" style="stroke:#181818;stroke-width:1;"/><path d="M1254.7656,1177.4844 Q1254.9219,1177.2656 1255.1094,1177.1563 Q1255.2969,1177.0469 1255.5156,1177.0469 Q1255.8906,1177.0469 1256.125,1177.3125 Q1256.3594,1177.5625 1256.3594,1178.1719 L1256.3594,1179.625 Q1256.3594,1180.2344 1256.125,1180.5 Q1255.8906,1180.7656 1255.5156,1180.7656 Q1255.1719,1180.7656 1254.9688,1180.5625 Q1254.7656,1180.375 1254.6563,1179.8594 Q1254.6094,1179.5 1254.4219,1179.3125 Q1254.0938,1178.9375 1253.4844,1178.7188 Q1252.875,1178.5 1252.25,1178.5 Q1251.4844,1178.5 1250.8438,1178.8281 Q1250.2188,1179.1563 1249.7188,1179.9063 Q1249.2344,1180.6563 1249.2344,1181.6875 L1249.2344,1182.7813 Q1249.2344,1184.0156 1250.125,1184.8438 Q1251.0156,1185.6563 1252.6094,1185.6563 Q1253.5469,1185.6563 1254.2031,1185.4063 Q1254.5938,1185.25 1255.0156,1184.8125 Q1255.2813,1184.5469 1255.4219,1184.4688 Q1255.5781,1184.3906 1255.7813,1184.3906 Q1256.1094,1184.3906 1256.3594,1184.6563 Q1256.625,1184.9063 1256.625,1185.25 Q1256.625,1185.5938 1256.2813,1186 Q1255.7813,1186.5781 1254.9844,1186.9063 Q1253.9063,1187.3594 1252.6094,1187.3594 Q1251.0938,1187.3594 1249.8906,1186.7344 Q1248.9063,1186.2344 1248.2188,1185.1719 Q1247.5313,1184.0938 1247.5313,1182.8125 L1247.5313,1181.6563 Q1247.5313,1180.3281 1248.1406,1179.1875 Q1248.7656,1178.0313 1249.8594,1177.4219 Q1250.9531,1176.7969 1252.1875,1176.7969 Q1252.9219,1176.7969 1253.5625,1176.9688 Q1254.2188,1177.125 1254.7656,1177.4844 Z " fill="#000000"/><text fill="#000000" font-family="sans-serif" font-size="14" lengthAdjust="spacing" textLength="10.1104" x="1266" y="1187.3379">js</text><line style="stroke:#181818;stroke-width:0.5;" x1="1238" x2="1278.1104" y1="1197.6094" y2="1197.6094"/><line style="stroke:#181818;stroke-width:0.5;" x1="1238" x2="1278.1104" y1="1205.6094" y2="1205.6094"/></g><!--class js--><g class="entity" data-qualified-name="kiwi-mvc.Modelo.src.models.GherkinScenario.js" data-source-line="43" id="ent0045"><rect fill="#F1F1F1" height="48" rx="2.5" ry="2.5" style="stroke:#181818;stroke-width:0.5;" width="42.1104" x="1063" y="1165.6094"/><ellipse cx="1078" cy="1181.6094" fill="#ADD1B2" rx="11" ry="11" style="stroke:#181818;stroke-width:1;"/><path d="M1080.7656,1177.4844 Q1080.9219,1177.2656 1081.1094,1177.1563 Q1081.2969,1177.0469 1081.5156,1177.0469 Q1081.8906,1177.0469 1082.125,1177.3125 Q1082.3594,1177.5625 1082.3594,1178.1719 L1082.3594,1179.625 Q1082.3594,1180.2344 1082.125,1180.5 Q1081.8906,1180.7656 1081.5156,1180.7656 Q1081.1719,1180.7656 1080.9688,1180.5625 Q1080.7656,1180.375 1080.6563,1179.8594 Q1080.6094,1179.5 1080.4219,1179.3125 Q1080.0938,1178.9375 1079.4844,1178.7188 Q1078.875,1178.5 1078.25,1178.5 Q1077.4844,1178.5 1076.8438,1178.8281 Q1076.2188,1179.1563 1075.7188,1179.9063 Q1075.2344,1180.6563 1075.2344,1181.6875 L1075.2344,1182.7813 Q1075.2344,1184.0156 1076.125,1184.8438 Q1077.0156,1185.6563 1078.6094,1185.6563 Q1079.5469,1185.6563 1080.2031,1185.4063 Q1080.5938,1185.25 1081.0156,1184.8125 Q1081.2813,1184.5469 1081.4219,1184.4688 Q1081.5781,1184.3906 1081.7813,1184.3906 Q1082.1094,1184.3906 1082.3594,1184.6563 Q1082.625,1184.9063 1082.625,1185.25 Q1082.625,1185.5938 1082.2813,1186 Q1081.7813,1186.5781 1080.9844,1186.9063 Q1079.9063,1187.3594 1078.6094,1187.3594 Q1077.0938,1187.3594 1075.8906,1186.7344 Q1074.9063,1186.2344 1074.2188,1185.1719 Q1073.5313,1184.0938 1073.5313,1182.8125 L1073.5313,1181.6563 Q1073.5313,1180.3281 1074.1406,1179.1875 Q1074.7656,1178.0313 1075.8594,1177.4219 Q1076.9531,1176.7969 1078.1875,1176.7969 Q1078.9219,1176.7969 1079.5625,1176.9688 Q1080.2188,1177.125 1080.7656,1177.4844 Z " fill="#000000"/><text fill="#000000" font-family="sans-serif" font-size="14" lengthAdjust="spacing" textLength="10.1104" x="1092" y="1187.3379">js</text><line style="stroke:#181818;stroke-width:0.5;" x1="1064" x2="1104.1104" y1="1197.6094" y2="1197.6094"/><line style="stroke:#181818;stroke-width:0.5;" x1="1064" x2="1104.1104" y1="1205.6094" y2="1205.6094"/></g><!--class js--><g class="entity" data-qualified-name="kiwi-mvc.Modelo.src.models.Draft.js" data-source-line="44" id="ent0047"><rect fill="#F1F1F1" height="48" rx="2.5" ry="2.5" style="stroke:#181818;stroke-width:0.5;" width="42.1104" x="600" y="1165.6094"/><ellipse cx="615" cy="1181.6094" fill="#ADD1B2" rx="11" ry="11" style="stroke:#181818;stroke-width:1;"/><path d="M617.7656,1177.4844 Q617.9219,1177.2656 618.1094,1177.1563 Q618.2969,1177.0469 618.5156,1177.0469 Q618.8906,1177.0469 619.125,1177.3125 Q619.3594,1177.5625 619.3594,1178.1719 L619.3594,1179.625 Q619.3594,1180.2344 619.125,1180.5 Q618.8906,1180.7656 618.5156,1180.7656 Q618.1719,1180.7656 617.9688,1180.5625 Q617.7656,1180.375 617.6563,1179.8594 Q617.6094,1179.5 617.4219,1179.3125 Q617.0938,1178.9375 616.4844,1178.7188 Q615.875,1178.5 615.25,1178.5 Q614.4844,1178.5 613.8438,1178.8281 Q613.2188,1179.1563 612.7188,1179.9063 Q612.2344,1180.6563 612.2344,1181.6875 L612.2344,1182.7813 Q612.2344,1184.0156 613.125,1184.8438 Q614.0156,1185.6563 615.6094,1185.6563 Q616.5469,1185.6563 617.2031,1185.4063 Q617.5938,1185.25 618.0156,1184.8125 Q618.2813,1184.5469 618.4219,1184.4688 Q618.5781,1184.3906 618.7813,1184.3906 Q619.1094,1184.3906 619.3594,1184.6563 Q619.625,1184.9063 619.625,1185.25 Q619.625,1185.5938 619.2813,1186 Q618.7813,1186.5781 617.9844,1186.9063 Q616.9063,1187.3594 615.6094,1187.3594 Q614.0938,1187.3594 612.8906,1186.7344 Q611.9063,1186.2344 611.2188,1185.1719 Q610.5313,1184.0938 610.5313,1182.8125 L610.5313,1181.6563 Q610.5313,1180.3281 611.1406,1179.1875 Q611.7656,1178.0313 612.8594,1177.4219 Q613.9531,1176.7969 615.1875,1176.7969 Q615.9219,1176.7969 616.5625,1176.9688 Q617.2188,1177.125 617.7656,1177.4844 Z " fill="#000000"/><text fill="#000000" font-family="sans-serif" font-size="14" lengthAdjust="spacing" textLength="10.1104" x="629" y="1187.3379">js</text><line style="stroke:#181818;stroke-width:0.5;" x1="601" x2="641.1104" y1="1197.6094" y2="1197.6094"/><line style="stroke:#181818;stroke-width:0.5;" x1="601" x2="641.1104" y1="1205.6094" y2="1205.6094"/></g><!--class js--><g class="entity" data-qualified-name="kiwi-mvc.Servicios auxiliares.src.services.authService.js" data-source-line="50" id="ent0051"><rect fill="#F1F1F1" height="48" rx="2.5" ry="2.5" style="stroke:#181818;stroke-width:0.5;" width="42.1104" x="1644" y="847.6094"/><ellipse cx="1659" cy="863.6094" fill="#ADD1B2" rx="11" ry="11" style="stroke:#181818;stroke-width:1;"/><path d="M1661.7656,859.4844 Q1661.9219,859.2656 1662.1094,859.1563 Q1662.2969,859.0469 1662.5156,859.0469 Q1662.8906,859.0469 1663.125,859.3125 Q1663.3594,859.5625 1663.3594,860.1719 L1663.3594,861.625 Q1663.3594,862.2344 1663.125,862.5 Q1662.8906,862.7656 1662.5156,862.7656 Q1662.1719,862.7656 1661.9688,862.5625 Q1661.7656,862.375 1661.6563,861.8594 Q1661.6094,861.5 1661.4219,861.3125 Q1661.0938,860.9375 1660.4844,860.7188 Q1659.875,860.5 1659.25,860.5 Q1658.4844,860.5 1657.8438,860.8281 Q1657.2188,861.1563 1656.7188,861.9063 Q1656.2344,862.6563 1656.2344,863.6875 L1656.2344,864.7813 Q1656.2344,866.0156 1657.125,866.8438 Q1658.0156,867.6563 1659.6094,867.6563 Q1660.5469,867.6563 1661.2031,867.4063 Q1661.5938,867.25 1662.0156,866.8125 Q1662.2813,866.5469 1662.4219,866.4688 Q1662.5781,866.3906 1662.7813,866.3906 Q1663.1094,866.3906 1663.3594,866.6563 Q1663.625,866.9063 1663.625,867.25 Q1663.625,867.5938 1663.2813,868 Q1662.7813,868.5781 1661.9844,868.9063 Q1660.9063,869.3594 1659.6094,869.3594 Q1658.0938,869.3594 1656.8906,868.7344 Q1655.9063,868.2344 1655.2188,867.1719 Q1654.5313,866.0938 1654.5313,864.8125 L1654.5313,863.6563 Q1654.5313,862.3281 1655.1406,861.1875 Q1655.7656,860.0313 1656.8594,859.4219 Q1657.9531,858.7969 1659.1875,858.7969 Q1659.9219,858.7969 1660.5625,858.9688 Q1661.2188,859.125 1661.7656,859.4844 Z " fill="#000000"/><text fill="#000000" font-family="sans-serif" font-size="14" lengthAdjust="spacing" textLength="10.1104" x="1673" y="869.3379">js</text><line style="stroke:#181818;stroke-width:0.5;" x1="1645" x2="1685.1104" y1="879.6094" y2="879.6094"/><line style="stroke:#181818;stroke-width:0.5;" x1="1645" x2="1685.1104" y1="887.6094" y2="887.6094"/></g><!--class js--><g class="entity" data-qualified-name="kiwi-mvc.Servicios auxiliares.src.services.documentationService.js" data-source-line="51" id="ent0053"><rect fill="#F1F1F1" height="48" rx="2.5" ry="2.5" style="stroke:#181818;stroke-width:0.5;" width="42.1104" x="1175" y="847.6094"/><ellipse cx="1190" cy="863.6094" fill="#ADD1B2" rx="11" ry="11" style="stroke:#181818;stroke-width:1;"/><path d="M1192.7656,859.4844 Q1192.9219,859.2656 1193.1094,859.1563 Q1193.2969,859.0469 1193.5156,859.0469 Q1193.8906,859.0469 1194.125,859.3125 Q1194.3594,859.5625 1194.3594,860.1719 L1194.3594,861.625 Q1194.3594,862.2344 1194.125,862.5 Q1193.8906,862.7656 1193.5156,862.7656 Q1193.1719,862.7656 1192.9688,862.5625 Q1192.7656,862.375 1192.6563,861.8594 Q1192.6094,861.5 1192.4219,861.3125 Q1192.0938,860.9375 1191.4844,860.7188 Q1190.875,860.5 1190.25,860.5 Q1189.4844,860.5 1188.8438,860.8281 Q1188.2188,861.1563 1187.7188,861.9063 Q1187.2344,862.6563 1187.2344,863.6875 L1187.2344,864.7813 Q1187.2344,866.0156 1188.125,866.8438 Q1189.0156,867.6563 1190.6094,867.6563 Q1191.5469,867.6563 1192.2031,867.4063 Q1192.5938,867.25 1193.0156,866.8125 Q1193.2813,866.5469 1193.4219,866.4688 Q1193.5781,866.3906 1193.7813,866.3906 Q1194.1094,866.3906 1194.3594,866.6563 Q1194.625,866.9063 1194.625,867.25 Q1194.625,867.5938 1194.2813,868 Q1193.7813,868.5781 1192.9844,868.9063 Q1191.9063,869.3594 1190.6094,869.3594 Q1189.0938,869.3594 1187.8906,868.7344 Q1186.9063,868.2344 1186.2188,867.1719 Q1185.5313,866.0938 1185.5313,864.8125 L1185.5313,863.6563 Q1185.5313,862.3281 1186.1406,861.1875 Q1186.7656,860.0313 1187.8594,859.4219 Q1188.9531,858.7969 1190.1875,858.7969 Q1190.9219,858.7969 1191.5625,858.9688 Q1192.2188,859.125 1192.7656,859.4844 Z " fill="#000000"/><text fill="#000000" font-family="sans-serif" font-size="14" lengthAdjust="spacing" textLength="10.1104" x="1204" y="869.3379">js</text><line style="stroke:#181818;stroke-width:0.5;" x1="1176" x2="1216.1104" y1="879.6094" y2="879.6094"/><line style="stroke:#181818;stroke-width:0.5;" x1="1176" x2="1216.1104" y1="887.6094" y2="887.6094"/></g><!--class js--><g class="entity" data-qualified-name="kiwi-mvc.Servicios auxiliares.src.services.gherkinService.js" data-source-line="52" id="ent0055"><rect fill="#F1F1F1" height="48" rx="2.5" ry="2.5" style="stroke:#181818;stroke-width:0.5;" width="42.1104" x="1010" y="847.6094"/><ellipse cx="1025" cy="863.6094" fill="#ADD1B2" rx="11" ry="11" style="stroke:#181818;stroke-width:1;"/><path d="M1027.7656,859.4844 Q1027.9219,859.2656 1028.1094,859.1563 Q1028.2969,859.0469 1028.5156,859.0469 Q1028.8906,859.0469 1029.125,859.3125 Q1029.3594,859.5625 1029.3594,860.1719 L1029.3594,861.625 Q1029.3594,862.2344 1029.125,862.5 Q1028.8906,862.7656 1028.5156,862.7656 Q1028.1719,862.7656 1027.9688,862.5625 Q1027.7656,862.375 1027.6563,861.8594 Q1027.6094,861.5 1027.4219,861.3125 Q1027.0938,860.9375 1026.4844,860.7188 Q1025.875,860.5 1025.25,860.5 Q1024.4844,860.5 1023.8438,860.8281 Q1023.2188,861.1563 1022.7188,861.9063 Q1022.2344,862.6563 1022.2344,863.6875 L1022.2344,864.7813 Q1022.2344,866.0156 1023.125,866.8438 Q1024.0156,867.6563 1025.6094,867.6563 Q1026.5469,867.6563 1027.2031,867.4063 Q1027.5938,867.25 1028.0156,866.8125 Q1028.2813,866.5469 1028.4219,866.4688 Q1028.5781,866.3906 1028.7813,866.3906 Q1029.1094,866.3906 1029.3594,866.6563 Q1029.625,866.9063 1029.625,867.25 Q1029.625,867.5938 1029.2813,868 Q1028.7813,868.5781 1027.9844,868.9063 Q1026.9063,869.3594 1025.6094,869.3594 Q1024.0938,869.3594 1022.8906,868.7344 Q1021.9063,868.2344 1021.2188,867.1719 Q1020.5313,866.0938 1020.5313,864.8125 L1020.5313,863.6563 Q1020.5313,862.3281 1021.1406,861.1875 Q1021.7656,860.0313 1022.8594,859.4219 Q1023.9531,858.7969 1025.1875,858.7969 Q1025.9219,858.7969 1026.5625,858.9688 Q1027.2188,859.125 1027.7656,859.4844 Z " fill="#000000"/><text fill="#000000" font-family="sans-serif" font-size="14" lengthAdjust="spacing" textLength="10.1104" x="1039" y="869.3379">js</text><line style="stroke:#181818;stroke-width:0.5;" x1="1011" x2="1051.1104" y1="879.6094" y2="879.6094"/><line style="stroke:#181818;stroke-width:0.5;" x1="1011" x2="1051.1104" y1="887.6094" y2="887.6094"/></g><!--class js--><g class="entity" data-qualified-name="kiwi-mvc.Servicios auxiliares.src.services.identifierService.js" data-source-line="53" id="ent0057"><rect fill="#F1F1F1" height="48" rx="2.5" ry="2.5" style="stroke:#181818;stroke-width:0.5;" width="42.1104" x="1511" y="847.6094"/><ellipse cx="1526" cy="863.6094" fill="#ADD1B2" rx="11" ry="11" style="stroke:#181818;stroke-width:1;"/><path d="M1528.7656,859.4844 Q1528.9219,859.2656 1529.1094,859.1563 Q1529.2969,859.0469 1529.5156,859.0469 Q1529.8906,859.0469 1530.125,859.3125 Q1530.3594,859.5625 1530.3594,860.1719 L1530.3594,861.625 Q1530.3594,862.2344 1530.125,862.5 Q1529.8906,862.7656 1529.5156,862.7656 Q1529.1719,862.7656 1528.9688,862.5625 Q1528.7656,862.375 1528.6563,861.8594 Q1528.6094,861.5 1528.4219,861.3125 Q1528.0938,860.9375 1527.4844,860.7188 Q1526.875,860.5 1526.25,860.5 Q1525.4844,860.5 1524.8438,860.8281 Q1524.2188,861.1563 1523.7188,861.9063 Q1523.2344,862.6563 1523.2344,863.6875 L1523.2344,864.7813 Q1523.2344,866.0156 1524.125,866.8438 Q1525.0156,867.6563 1526.6094,867.6563 Q1527.5469,867.6563 1528.2031,867.4063 Q1528.5938,867.25 1529.0156,866.8125 Q1529.2813,866.5469 1529.4219,866.4688 Q1529.5781,866.3906 1529.7813,866.3906 Q1530.1094,866.3906 1530.3594,866.6563 Q1530.625,866.9063 1530.625,867.25 Q1530.625,867.5938 1530.2813,868 Q1529.7813,868.5781 1528.9844,868.9063 Q1527.9063,869.3594 1526.6094,869.3594 Q1525.0938,869.3594 1523.8906,868.7344 Q1522.9063,868.2344 1522.2188,867.1719 Q1521.5313,866.0938 1521.5313,864.8125 L1521.5313,863.6563 Q1521.5313,862.3281 1522.1406,861.1875 Q1522.7656,860.0313 1523.8594,859.4219 Q1524.9531,858.7969 1526.1875,858.7969 Q1526.9219,858.7969 1527.5625,858.9688 Q1528.2188,859.125 1528.7656,859.4844 Z " fill="#000000"/><text fill="#000000" font-family="sans-serif" font-size="14" lengthAdjust="spacing" textLength="10.1104" x="1540" y="869.3379">js</text><line style="stroke:#181818;stroke-width:0.5;" x1="1512" x2="1552.1104" y1="879.6094" y2="879.6094"/><line style="stroke:#181818;stroke-width:0.5;" x1="1512" x2="1552.1104" y1="887.6094" y2="887.6094"/></g><!--class js--><g class="entity" data-qualified-name="kiwi-mvc.Servicios auxiliares.src.services.manualKiwiService.js" data-source-line="54" id="ent0059"><rect fill="#F1F1F1" height="48" rx="2.5" ry="2.5" style="stroke:#181818;stroke-width:0.5;" width="42.1104" x="1353" y="847.6094"/><ellipse cx="1368" cy="863.6094" fill="#ADD1B2" rx="11" ry="11" style="stroke:#181818;stroke-width:1;"/><path d="M1370.7656,859.4844 Q1370.9219,859.2656 1371.1094,859.1563 Q1371.2969,859.0469 1371.5156,859.0469 Q1371.8906,859.0469 1372.125,859.3125 Q1372.3594,859.5625 1372.3594,860.1719 L1372.3594,861.625 Q1372.3594,862.2344 1372.125,862.5 Q1371.8906,862.7656 1371.5156,862.7656 Q1371.1719,862.7656 1370.9688,862.5625 Q1370.7656,862.375 1370.6563,861.8594 Q1370.6094,861.5 1370.4219,861.3125 Q1370.0938,860.9375 1369.4844,860.7188 Q1368.875,860.5 1368.25,860.5 Q1367.4844,860.5 1366.8438,860.8281 Q1366.2188,861.1563 1365.7188,861.9063 Q1365.2344,862.6563 1365.2344,863.6875 L1365.2344,864.7813 Q1365.2344,866.0156 1366.125,866.8438 Q1367.0156,867.6563 1368.6094,867.6563 Q1369.5469,867.6563 1370.2031,867.4063 Q1370.5938,867.25 1371.0156,866.8125 Q1371.2813,866.5469 1371.4219,866.4688 Q1371.5781,866.3906 1371.7813,866.3906 Q1372.1094,866.3906 1372.3594,866.6563 Q1372.625,866.9063 1372.625,867.25 Q1372.625,867.5938 1372.2813,868 Q1371.7813,868.5781 1370.9844,868.9063 Q1369.9063,869.3594 1368.6094,869.3594 Q1367.0938,869.3594 1365.8906,868.7344 Q1364.9063,868.2344 1364.2188,867.1719 Q1363.5313,866.0938 1363.5313,864.8125 L1363.5313,863.6563 Q1363.5313,862.3281 1364.1406,861.1875 Q1364.7656,860.0313 1365.8594,859.4219 Q1366.9531,858.7969 1368.1875,858.7969 Q1368.9219,858.7969 1369.5625,858.9688 Q1370.2188,859.125 1370.7656,859.4844 Z " fill="#000000"/><text fill="#000000" font-family="sans-serif" font-size="14" lengthAdjust="spacing" textLength="10.1104" x="1382" y="869.3379">js</text><line style="stroke:#181818;stroke-width:0.5;" x1="1354" x2="1394.1104" y1="879.6094" y2="879.6094"/><line style="stroke:#181818;stroke-width:0.5;" x1="1354" x2="1394.1104" y1="887.6094" y2="887.6094"/></g><!--class js--><g class="entity" data-qualified-name="kiwi-mvc.Servicios auxiliares.src.services.sessionService.js" data-source-line="55" id="ent0061"><rect fill="#F1F1F1" height="48" rx="2.5" ry="2.5" style="stroke:#181818;stroke-width:0.5;" width="42.1104" x="869" y="847.6094"/><ellipse cx="884" cy="863.6094" fill="#ADD1B2" rx="11" ry="11" style="stroke:#181818;stroke-width:1;"/><path d="M886.7656,859.4844 Q886.9219,859.2656 887.1094,859.1563 Q887.2969,859.0469 887.5156,859.0469 Q887.8906,859.0469 888.125,859.3125 Q888.3594,859.5625 888.3594,860.1719 L888.3594,861.625 Q888.3594,862.2344 888.125,862.5 Q887.8906,862.7656 887.5156,862.7656 Q887.1719,862.7656 886.9688,862.5625 Q886.7656,862.375 886.6563,861.8594 Q886.6094,861.5 886.4219,861.3125 Q886.0938,860.9375 885.4844,860.7188 Q884.875,860.5 884.25,860.5 Q883.4844,860.5 882.8438,860.8281 Q882.2188,861.1563 881.7188,861.9063 Q881.2344,862.6563 881.2344,863.6875 L881.2344,864.7813 Q881.2344,866.0156 882.125,866.8438 Q883.0156,867.6563 884.6094,867.6563 Q885.5469,867.6563 886.2031,867.4063 Q886.5938,867.25 887.0156,866.8125 Q887.2813,866.5469 887.4219,866.4688 Q887.5781,866.3906 887.7813,866.3906 Q888.1094,866.3906 888.3594,866.6563 Q888.625,866.9063 888.625,867.25 Q888.625,867.5938 888.2813,868 Q887.7813,868.5781 886.9844,868.9063 Q885.9063,869.3594 884.6094,869.3594 Q883.0938,869.3594 881.8906,868.7344 Q880.9063,868.2344 880.2188,867.1719 Q879.5313,866.0938 879.5313,864.8125 L879.5313,863.6563 Q879.5313,862.3281 880.1406,861.1875 Q880.7656,860.0313 881.8594,859.4219 Q882.9531,858.7969 884.1875,858.7969 Q884.9219,858.7969 885.5625,858.9688 Q886.2188,859.125 886.7656,859.4844 Z " fill="#000000"/><text fill="#000000" font-family="sans-serif" font-size="14" lengthAdjust="spacing" textLength="10.1104" x="898" y="869.3379">js</text><line style="stroke:#181818;stroke-width:0.5;" x1="870" x2="910.1104" y1="879.6094" y2="879.6094"/><line style="stroke:#181818;stroke-width:0.5;" x1="870" x2="910.1104" y1="887.6094" y2="887.6094"/></g><!--class js--><g class="entity" data-qualified-name="kiwi-mvc.Servicios auxiliares.src.services.traceabilityService.js" data-source-line="56" id="ent0063"><rect fill="#F1F1F1" height="48" rx="2.5" ry="2.5" style="stroke:#181818;stroke-width:0.5;" width="42.1104" x="717" y="847.6094"/><ellipse cx="732" cy="863.6094" fill="#ADD1B2" rx="11" ry="11" style="stroke:#181818;stroke-width:1;"/><path d="M734.7656,859.4844 Q734.9219,859.2656 735.1094,859.1563 Q735.2969,859.0469 735.5156,859.0469 Q735.8906,859.0469 736.125,859.3125 Q736.3594,859.5625 736.3594,860.1719 L736.3594,861.625 Q736.3594,862.2344 736.125,862.5 Q735.8906,862.7656 735.5156,862.7656 Q735.1719,862.7656 734.9688,862.5625 Q734.7656,862.375 734.6563,861.8594 Q734.6094,861.5 734.4219,861.3125 Q734.0938,860.9375 733.4844,860.7188 Q732.875,860.5 732.25,860.5 Q731.4844,860.5 730.8438,860.8281 Q730.2188,861.1563 729.7188,861.9063 Q729.2344,862.6563 729.2344,863.6875 L729.2344,864.7813 Q729.2344,866.0156 730.125,866.8438 Q731.0156,867.6563 732.6094,867.6563 Q733.5469,867.6563 734.2031,867.4063 Q734.5938,867.25 735.0156,866.8125 Q735.2813,866.5469 735.4219,866.4688 Q735.5781,866.3906 735.7813,866.3906 Q736.1094,866.3906 736.3594,866.6563 Q736.625,866.9063 736.625,867.25 Q736.625,867.5938 736.2813,868 Q735.7813,868.5781 734.9844,868.9063 Q733.9063,869.3594 732.6094,869.3594 Q731.0938,869.3594 729.8906,868.7344 Q728.9063,868.2344 728.2188,867.1719 Q727.5313,866.0938 727.5313,864.8125 L727.5313,863.6563 Q727.5313,862.3281 728.1406,861.1875 Q728.7656,860.0313 729.8594,859.4219 Q730.9531,858.7969 732.1875,858.7969 Q732.9219,858.7969 733.5625,858.9688 Q734.2188,859.125 734.7656,859.4844 Z " fill="#000000"/><text fill="#000000" font-family="sans-serif" font-size="14" lengthAdjust="spacing" textLength="10.1104" x="746" y="869.3379">js</text><line style="stroke:#181818;stroke-width:0.5;" x1="718" x2="758.1104" y1="879.6094" y2="879.6094"/><line style="stroke:#181818;stroke-width:0.5;" x1="718" x2="758.1104" y1="887.6094" y2="887.6094"/></g><!--class js--><g class="entity" data-qualified-name="kiwi-mvc.Configuraci.n.src.config.db.js" data-source-line="62" id="ent0067"><rect fill="#F1F1F1" height="48" rx="2.5" ry="2.5" style="stroke:#181818;stroke-width:0.5;" width="42.1104" x="95" y="529.6094"/><ellipse cx="110" cy="545.6094" fill="#ADD1B2" rx="11" ry="11" style="stroke:#181818;stroke-width:1;"/><path d="M112.7656,541.4844 Q112.9219,541.2656 113.1094,541.1563 Q113.2969,541.0469 113.5156,541.0469 Q113.8906,541.0469 114.125,541.3125 Q114.3594,541.5625 114.3594,542.1719 L114.3594,543.625 Q114.3594,544.2344 114.125,544.5 Q113.8906,544.7656 113.5156,544.7656 Q113.1719,544.7656 112.9688,544.5625 Q112.7656,544.375 112.6563,543.8594 Q112.6094,543.5 112.4219,543.3125 Q112.0938,542.9375 111.4844,542.7188 Q110.875,542.5 110.25,542.5 Q109.4844,542.5 108.8438,542.8281 Q108.2188,543.1563 107.7188,543.9063 Q107.2344,544.6563 107.2344,545.6875 L107.2344,546.7813 Q107.2344,548.0156 108.125,548.8438 Q109.0156,549.6563 110.6094,549.6563 Q111.5469,549.6563 112.2031,549.4063 Q112.5938,549.25 113.0156,548.8125 Q113.2813,548.5469 113.4219,548.4688 Q113.5781,548.3906 113.7813,548.3906 Q114.1094,548.3906 114.3594,548.6563 Q114.625,548.9063 114.625,549.25 Q114.625,549.5938 114.2813,550 Q113.7813,550.5781 112.9844,550.9063 Q111.9063,551.3594 110.6094,551.3594 Q109.0938,551.3594 107.8906,550.7344 Q106.9063,550.2344 106.2188,549.1719 Q105.5313,548.0938 105.5313,546.8125 L105.5313,545.6563 Q105.5313,544.3281 106.1406,543.1875 Q106.7656,542.0313 107.8594,541.4219 Q108.9531,540.7969 110.1875,540.7969 Q110.9219,540.7969 111.5625,540.9688 Q112.2188,541.125 112.7656,541.4844 Z " fill="#000000"/><text fill="#000000" font-family="sans-serif" font-size="14" lengthAdjust="spacing" textLength="10.1104" x="124" y="551.3379">js</text><line style="stroke:#181818;stroke-width:0.5;" x1="96" x2="136.1104" y1="561.6094" y2="561.6094"/><line style="stroke:#181818;stroke-width:0.5;" x1="96" x2="136.1104" y1="569.6094" y2="569.6094"/></g><!--class js--><g class="entity" data-qualified-name="kiwi-mvc.Configuraci.n.src.config.loadSharedEnv.js" data-source-line="63" id="ent0069"><rect fill="#F1F1F1" height="48" rx="2.5" ry="2.5" style="stroke:#181818;stroke-width:0.5;" width="42.1104" x="214" y="529.6094"/><ellipse cx="229" cy="545.6094" fill="#ADD1B2" rx="11" ry="11" style="stroke:#181818;stroke-width:1;"/><path d="M231.7656,541.4844 Q231.9219,541.2656 232.1094,541.1563 Q232.2969,541.0469 232.5156,541.0469 Q232.8906,541.0469 233.125,541.3125 Q233.3594,541.5625 233.3594,542.1719 L233.3594,543.625 Q233.3594,544.2344 233.125,544.5 Q232.8906,544.7656 232.5156,544.7656 Q232.1719,544.7656 231.9688,544.5625 Q231.7656,544.375 231.6563,543.8594 Q231.6094,543.5 231.4219,543.3125 Q231.0938,542.9375 230.4844,542.7188 Q229.875,542.5 229.25,542.5 Q228.4844,542.5 227.8438,542.8281 Q227.2188,543.1563 226.7188,543.9063 Q226.2344,544.6563 226.2344,545.6875 L226.2344,546.7813 Q226.2344,548.0156 227.125,548.8438 Q228.0156,549.6563 229.6094,549.6563 Q230.5469,549.6563 231.2031,549.4063 Q231.5938,549.25 232.0156,548.8125 Q232.2813,548.5469 232.4219,548.4688 Q232.5781,548.3906 232.7813,548.3906 Q233.1094,548.3906 233.3594,548.6563 Q233.625,548.9063 233.625,549.25 Q233.625,549.5938 233.2813,550 Q232.7813,550.5781 231.9844,550.9063 Q230.9063,551.3594 229.6094,551.3594 Q228.0938,551.3594 226.8906,550.7344 Q225.9063,550.2344 225.2188,549.1719 Q224.5313,548.0938 224.5313,546.8125 L224.5313,545.6563 Q224.5313,544.3281 225.1406,543.1875 Q225.7656,542.0313 226.8594,541.4219 Q227.9531,540.7969 229.1875,540.7969 Q229.9219,540.7969 230.5625,540.9688 Q231.2188,541.125 231.7656,541.4844 Z " fill="#000000"/><text fill="#000000" font-family="sans-serif" font-size="14" lengthAdjust="spacing" textLength="10.1104" x="243" y="551.3379">js</text><line style="stroke:#181818;stroke-width:0.5;" x1="215" x2="255.1104" y1="561.6094" y2="561.6094"/><line style="stroke:#181818;stroke-width:0.5;" x1="215" x2="255.1104" y1="569.6094" y2="569.6094"/></g><!--class js--><g class="entity" data-qualified-name="public.js.app.js" data-source-line="68" id="ent0071"><rect fill="#F1F1F1" height="48" rx="2.5" ry="2.5" style="stroke:#181818;stroke-width:0.5;" width="42.1104" x="1675" y="81.6094"/><ellipse cx="1690" cy="97.6094" fill="#ADD1B2" rx="11" ry="11" style="stroke:#181818;stroke-width:1;"/><path d="M1692.7656,93.4844 Q1692.9219,93.2656 1693.1094,93.1563 Q1693.2969,93.0469 1693.5156,93.0469 Q1693.8906,93.0469 1694.125,93.3125 Q1694.3594,93.5625 1694.3594,94.1719 L1694.3594,95.625 Q1694.3594,96.2344 1694.125,96.5 Q1693.8906,96.7656 1693.5156,96.7656 Q1693.1719,96.7656 1692.9688,96.5625 Q1692.7656,96.375 1692.6563,95.8594 Q1692.6094,95.5 1692.4219,95.3125 Q1692.0938,94.9375 1691.4844,94.7188 Q1690.875,94.5 1690.25,94.5 Q1689.4844,94.5 1688.8438,94.8281 Q1688.2188,95.1563 1687.7188,95.9063 Q1687.2344,96.6563 1687.2344,97.6875 L1687.2344,98.7813 Q1687.2344,100.0156 1688.125,100.8438 Q1689.0156,101.6563 1690.6094,101.6563 Q1691.5469,101.6563 1692.2031,101.4063 Q1692.5938,101.25 1693.0156,100.8125 Q1693.2813,100.5469 1693.4219,100.4688 Q1693.5781,100.3906 1693.7813,100.3906 Q1694.1094,100.3906 1694.3594,100.6563 Q1694.625,100.9063 1694.625,101.25 Q1694.625,101.5938 1694.2813,102 Q1693.7813,102.5781 1692.9844,102.9063 Q1691.9063,103.3594 1690.6094,103.3594 Q1689.0938,103.3594 1687.8906,102.7344 Q1686.9063,102.2344 1686.2188,101.1719 Q1685.5313,100.0938 1685.5313,98.8125 L1685.5313,97.6563 Q1685.5313,96.3281 1686.1406,95.1875 Q1686.7656,94.0313 1687.8594,93.4219 Q1688.9531,92.7969 1690.1875,92.7969 Q1690.9219,92.7969 1691.5625,92.9688 Q1692.2188,93.125 1692.7656,93.4844 Z " fill="#000000"/><text fill="#000000" font-family="sans-serif" font-size="14" lengthAdjust="spacing" textLength="10.1104" x="1704" y="103.3379">js</text><line style="stroke:#181818;stroke-width:0.5;" x1="1676" x2="1716.1104" y1="113.6094" y2="113.6094"/><line style="stroke:#181818;stroke-width:0.5;" x1="1676" x2="1716.1104" y1="121.6094" y2="121.6094"/></g><!--class js--><g class="entity" data-qualified-name="index.js" data-source-line="68" id="ent0074"><rect fill="#F1F1F1" height="48" rx="2.5" ry="2.5" style="stroke:#181818;stroke-width:0.5;" width="42.1104" x="1675" y="231.6094"/><ellipse cx="1690" cy="247.6094" fill="#ADD1B2" rx="11" ry="11" style="stroke:#181818;stroke-width:1;"/><path d="M1692.7656,243.4844 Q1692.9219,243.2656 1693.1094,243.1563 Q1693.2969,243.0469 1693.5156,243.0469 Q1693.8906,243.0469 1694.125,243.3125 Q1694.3594,243.5625 1694.3594,244.1719 L1694.3594,245.625 Q1694.3594,246.2344 1694.125,246.5 Q1693.8906,246.7656 1693.5156,246.7656 Q1693.1719,246.7656 1692.9688,246.5625 Q1692.7656,246.375 1692.6563,245.8594 Q1692.6094,245.5 1692.4219,245.3125 Q1692.0938,244.9375 1691.4844,244.7188 Q1690.875,244.5 1690.25,244.5 Q1689.4844,244.5 1688.8438,244.8281 Q1688.2188,245.1563 1687.7188,245.9063 Q1687.2344,246.6563 1687.2344,247.6875 L1687.2344,248.7813 Q1687.2344,250.0156 1688.125,250.8438 Q1689.0156,251.6563 1690.6094,251.6563 Q1691.5469,251.6563 1692.2031,251.4063 Q1692.5938,251.25 1693.0156,250.8125 Q1693.2813,250.5469 1693.4219,250.4688 Q1693.5781,250.3906 1693.7813,250.3906 Q1694.1094,250.3906 1694.3594,250.6563 Q1694.625,250.9063 1694.625,251.25 Q1694.625,251.5938 1694.2813,252 Q1693.7813,252.5781 1692.9844,252.9063 Q1691.9063,253.3594 1690.6094,253.3594 Q1689.0938,253.3594 1687.8906,252.7344 Q1686.9063,252.2344 1686.2188,251.1719 Q1685.5313,250.0938 1685.5313,248.8125 L1685.5313,247.6563 Q1685.5313,246.3281 1686.1406,245.1875 Q1686.7656,244.0313 1687.8594,243.4219 Q1688.9531,242.7969 1690.1875,242.7969 Q1690.9219,242.7969 1691.5625,242.9688 Q1692.2188,243.125 1692.7656,243.4844 Z " fill="#000000"/><text fill="#000000" font-family="sans-serif" font-size="14" lengthAdjust="spacing" textLength="10.1104" x="1704" y="253.3379">js</text><line style="stroke:#181818;stroke-width:0.5;" x1="1676" x2="1716.1104" y1="263.6094" y2="263.6094"/><line style="stroke:#181818;stroke-width:0.5;" x1="1676" x2="1716.1104" y1="271.6094" y2="271.6094"/></g><!--class js--><g class="entity" data-qualified-name="auth.js" data-source-line="69" id="ent0076"><rect fill="#F1F1F1" height="48" rx="2.5" ry="2.5" style="stroke:#181818;stroke-width:0.5;" width="42.1104" x="2400" y="529.6094"/><ellipse cx="2415" cy="545.6094" fill="#ADD1B2" rx="11" ry="11" style="stroke:#181818;stroke-width:1;"/><path d="M2417.7656,541.4844 Q2417.9219,541.2656 2418.1094,541.1563 Q2418.2969,541.0469 2418.5156,541.0469 Q2418.8906,541.0469 2419.125,541.3125 Q2419.3594,541.5625 2419.3594,542.1719 L2419.3594,543.625 Q2419.3594,544.2344 2419.125,544.5 Q2418.8906,544.7656 2418.5156,544.7656 Q2418.1719,544.7656 2417.9688,544.5625 Q2417.7656,544.375 2417.6563,543.8594 Q2417.6094,543.5 2417.4219,543.3125 Q2417.0938,542.9375 2416.4844,542.7188 Q2415.875,542.5 2415.25,542.5 Q2414.4844,542.5 2413.8438,542.8281 Q2413.2188,543.1563 2412.7188,543.9063 Q2412.2344,544.6563 2412.2344,545.6875 L2412.2344,546.7813 Q2412.2344,548.0156 2413.125,548.8438 Q2414.0156,549.6563 2415.6094,549.6563 Q2416.5469,549.6563 2417.2031,549.4063 Q2417.5938,549.25 2418.0156,548.8125 Q2418.2813,548.5469 2418.4219,548.4688 Q2418.5781,548.3906 2418.7813,548.3906 Q2419.1094,548.3906 2419.3594,548.6563 Q2419.625,548.9063 2419.625,549.25 Q2419.625,549.5938 2419.2813,550 Q2418.7813,550.5781 2417.9844,550.9063 Q2416.9063,551.3594 2415.6094,551.3594 Q2414.0938,551.3594 2412.8906,550.7344 Q2411.9063,550.2344 2411.2188,549.1719 Q2410.5313,548.0938 2410.5313,546.8125 L2410.5313,545.6563 Q2410.5313,544.3281 2411.1406,543.1875 Q2411.7656,542.0313 2412.8594,541.4219 Q2413.9531,540.7969 2415.1875,540.7969 Q2415.9219,540.7969 2416.5625,540.9688 Q2417.2188,541.125 2417.7656,541.4844 Z " fill="#000000"/><text fill="#000000" font-family="sans-serif" font-size="14" lengthAdjust="spacing" textLength="10.1104" x="2429" y="551.3379">js</text><line style="stroke:#181818;stroke-width:0.5;" x1="2401" x2="2441.1104" y1="561.6094" y2="561.6094"/><line style="stroke:#181818;stroke-width:0.5;" x1="2401" x2="2441.1104" y1="569.6094" y2="569.6094"/></g><!--class js--><g class="entity" data-qualified-name="manualKiwiService.js" data-source-line="74" id="ent0083"><rect fill="#F1F1F1" height="48" rx="2.5" ry="2.5" style="stroke:#181818;stroke-width:0.5;" width="42.1104" x="1315" y="81.6094"/><ellipse cx="1330" cy="97.6094" fill="#ADD1B2" rx="11" ry="11" style="stroke:#181818;stroke-width:1;"/><path d="M1332.7656,93.4844 Q1332.9219,93.2656 1333.1094,93.1563 Q1333.2969,93.0469 1333.5156,93.0469 Q1333.8906,93.0469 1334.125,93.3125 Q1334.3594,93.5625 1334.3594,94.1719 L1334.3594,95.625 Q1334.3594,96.2344 1334.125,96.5 Q1333.8906,96.7656 1333.5156,96.7656 Q1333.1719,96.7656 1332.9688,96.5625 Q1332.7656,96.375 1332.6563,95.8594 Q1332.6094,95.5 1332.4219,95.3125 Q1332.0938,94.9375 1331.4844,94.7188 Q1330.875,94.5 1330.25,94.5 Q1329.4844,94.5 1328.8438,94.8281 Q1328.2188,95.1563 1327.7188,95.9063 Q1327.2344,96.6563 1327.2344,97.6875 L1327.2344,98.7813 Q1327.2344,100.0156 1328.125,100.8438 Q1329.0156,101.6563 1330.6094,101.6563 Q1331.5469,101.6563 1332.2031,101.4063 Q1332.5938,101.25 1333.0156,100.8125 Q1333.2813,100.5469 1333.4219,100.4688 Q1333.5781,100.3906 1333.7813,100.3906 Q1334.1094,100.3906 1334.3594,100.6563 Q1334.625,100.9063 1334.625,101.25 Q1334.625,101.5938 1334.2813,102 Q1333.7813,102.5781 1332.9844,102.9063 Q1331.9063,103.3594 1330.6094,103.3594 Q1329.0938,103.3594 1327.8906,102.7344 Q1326.9063,102.2344 1326.2188,101.1719 Q1325.5313,100.0938 1325.5313,98.8125 L1325.5313,97.6563 Q1325.5313,96.3281 1326.1406,95.1875 Q1326.7656,94.0313 1327.8594,93.4219 Q1328.9531,92.7969 1330.1875,92.7969 Q1330.9219,92.7969 1331.5625,92.9688 Q1332.2188,93.125 1332.7656,93.4844 Z " fill="#000000"/><text fill="#000000" font-family="sans-serif" font-size="14" lengthAdjust="spacing" textLength="10.1104" x="1344" y="103.3379">js</text><line style="stroke:#181818;stroke-width:0.5;" x1="1316" x2="1356.1104" y1="113.6094" y2="113.6094"/><line style="stroke:#181818;stroke-width:0.5;" x1="1316" x2="1356.1104" y1="121.6094" y2="121.6094"/></g><!--class Kiwi TCMS XML-RPC--><g class="entity" data-qualified-name="Kiwi TCMS XML-RPC" data-source-line="74" id="ent0085"><rect fill="#F1F1F1" height="48" rx="2.5" ry="2.5" style="stroke:#181818;stroke-width:0.5;" width="168.1172" x="1252" y="231.6094"/><ellipse cx="1267" cy="247.6094" fill="#ADD1B2" rx="11" ry="11" style="stroke:#181818;stroke-width:1;"/><path d="M1269.7656,243.4844 Q1269.9219,243.2656 1270.1094,243.1563 Q1270.2969,243.0469 1270.5156,243.0469 Q1270.8906,243.0469 1271.125,243.3125 Q1271.3594,243.5625 1271.3594,244.1719 L1271.3594,245.625 Q1271.3594,246.2344 1271.125,246.5 Q1270.8906,246.7656 1270.5156,246.7656 Q1270.1719,246.7656 1269.9688,246.5625 Q1269.7656,246.375 1269.6563,245.8594 Q1269.6094,245.5 1269.4219,245.3125 Q1269.0938,244.9375 1268.4844,244.7188 Q1267.875,244.5 1267.25,244.5 Q1266.4844,244.5 1265.8438,244.8281 Q1265.2188,245.1563 1264.7188,245.9063 Q1264.2344,246.6563 1264.2344,247.6875 L1264.2344,248.7813 Q1264.2344,250.0156 1265.125,250.8438 Q1266.0156,251.6563 1267.6094,251.6563 Q1268.5469,251.6563 1269.2031,251.4063 Q1269.5938,251.25 1270.0156,250.8125 Q1270.2813,250.5469 1270.4219,250.4688 Q1270.5781,250.3906 1270.7813,250.3906 Q1271.1094,250.3906 1271.3594,250.6563 Q1271.625,250.9063 1271.625,251.25 Q1271.625,251.5938 1271.2813,252 Q1270.7813,252.5781 1269.9844,252.9063 Q1268.9063,253.3594 1267.6094,253.3594 Q1266.0938,253.3594 1264.8906,252.7344 Q1263.9063,252.2344 1263.2188,251.1719 Q1262.5313,250.0938 1262.5313,248.8125 L1262.5313,247.6563 Q1262.5313,246.3281 1263.1406,245.1875 Q1263.7656,244.0313 1264.8594,243.4219 Q1265.9531,242.7969 1267.1875,242.7969 Q1267.9219,242.7969 1268.5625,242.9688 Q1269.2188,243.125 1269.7656,243.4844 Z " fill="#000000"/><text fill="#000000" font-family="sans-serif" font-size="14" lengthAdjust="spacing" textLength="136.1172" x="1281" y="253.3379">Kiwi TCMS XML-RPC</text><line style="stroke:#181818;stroke-width:0.5;" x1="1253" x2="1419.1172" y1="263.6094" y2="263.6094"/><line style="stroke:#181818;stroke-width:0.5;" x1="1253" x2="1419.1172" y1="271.6094" y2="271.6094"/></g><!--link js to js--><g class="link" data-entity-1="ent0071" data-entity-2="ent0074" data-link-type="dependency" data-source-line="68" id="lnk75"><path codeLine="68" d="M1696,129.7294 C1696,157.3794 1696,197.3694 1696,225.1594" fill="none" id="js-to-js" style="stroke:#181818;stroke-width:1;"/><polygon fill="#181818" points="1696,231.1594,1700,222.1594,1696,226.1594,1692,222.1594,1696,231.1594" style="stroke:#181818;stroke-width:1;"/><text fill="#000000" font-family="sans-serif" font-size="13" lengthAdjust="spacing" textLength="66.4663" x="1697" y="176.1045">fetch REST</text></g><!--link js to js--><g class="link" data-entity-1="ent0074" data-entity-2="ent0076" data-link-type="dependency" data-source-line="69" id="lnk78"><path codeLine="69" d="M1717.19,257.1294 C1811.25,259.7994 2190.7,274.3594 2288,337.6094 C2359.58,384.1394 2397.2876,478.369 2412.1776,523.699" fill="none" id="js-to-js-1" style="stroke:#181818;stroke-width:1;"/><polygon fill="#181818" points="2414.05,529.3994,2415.0416,519.6006,2412.4896,524.6491,2407.4411,522.0972,2414.05,529.3994" style="stroke:#181818;stroke-width:1;"/><text fill="#000000" font-family="sans-serif" font-size="13" lengthAdjust="spacing" textLength="72.2744" x="2273" y="326.1045">requireLogin</text></g><!--link js to src/controllers--><g class="link" data-entity-1="ent0074" data-entity-2="ent0015" data-link-type="dependency" data-source-line="70" id="lnk79"><path codeLine="70" d="M1674.74,261.5194 C1630.81,271.4494 1526.69,293.7694 1438,303.6094 C1391.91,308.7194 639.85,308.1994 604,337.6094 C585.2975,352.9569 572.6506,373.7713 564.2116,396.4323 C559.992,407.7629 556.8245,419.5551 554.4779,431.3565 C553.8912,434.3069 553.3559,437.2578 552.8682,440.2022 C552.8073,440.5702 553.7047,435.0151 553.6452,435.3829" fill="none" id="js-to-src/controllers" style="stroke:#181818;stroke-width:1;"/><polygon fill="#181818" points="552.6876,441.306,558.0728,433.0598,553.4856,436.3701,550.1753,431.783,552.6876,441.306" style="stroke:#181818;stroke-width:1;"/><text fill="#000000" font-family="sans-serif" font-size="13" lengthAdjust="spacing" textLength="85.2808" x="994" y="326.1045">enruta petici&#243;n</text></g><!--link src/controllers to src/services--><g class="link" data-entity-1="ent0015" data-entity-2="ent0050" data-link-type="dependency" data-source-line="71" id="lnk80"><path codeLine="71" d="M571.1976,625.9778 C571.4761,627.0133 571.7566,628.056 572.0389,629.1056 C574.2974,637.5025 576.6748,646.3409 579.1313,655.4736 C584.0443,673.7391 589.2741,693.1819 594.5038,712.6244 C604.9631,751.5094 615.4222,790.3931 623.3464,819.8544 C625.3275,827.2197 627.1501,833.9961 628.7747,840.0364 C628.8255,840.2251 627.3177,834.6191 627.368,834.8064" fill="none" id="src/controllers-to-src/services" style="stroke:#181818;stroke-width:1;"/><polygon fill="#181818" points="628.9264,840.6005,630.4516,830.8705,627.6278,835.7721,622.7261,832.9483,628.9264,840.6005" style="stroke:#181818;stroke-width:1;"/><text fill="#000000" font-family="sans-serif" font-size="13" lengthAdjust="spacing" textLength="78.7617" x="587" y="688.1045">l&#243;gica auxiliar</text></g><!--link src/controllers to src/models--><g class="link" data-entity-1="ent0015" data-entity-2="ent0034" data-link-type="dependency" data-source-line="72" id="lnk81"><path codeLine="72" d="M550.8234,625.7887 C550.8199,626.031 550.8165,626.2737 550.813,626.5165 C550.7021,634.2891 550.5932,642.358 550.4911,650.5433 C550.2869,666.9137 550.11,683.7494 550,699.6094 C549.13,825.8294 549.38,857.3894 550,983.6094 C550.11,1006.0319 550.2869,1029.8338 550.4911,1052.9781 C550.5421,1058.7642 550.5949,1064.5092 550.6488,1070.1813 C550.6622,1071.5993 550.6758,1073.0128 550.6894,1074.4212 C550.6961,1075.1254 550.703,1075.8283 550.7098,1076.5299 C550.7132,1076.8808 550.658,1071.2315 550.6615,1071.5817" fill="none" id="src/controllers-to-src/models" style="stroke:#181818;stroke-width:1;"/><polygon fill="#181818" points="550.72,1077.5814,554.632,1068.5427,550.6712,1072.5816,546.6324,1068.6208,550.72,1077.5814" style="stroke:#181818;stroke-width:1;"/><text fill="#000000" font-family="sans-serif" font-size="13" lengthAdjust="spacing" textLength="69.3672" x="551" y="877.1045">persistencia</text></g><!--link src/services to src/models--><g class="link" data-entity-1="ent0050" data-entity-2="ent0034" data-link-type="dependency" data-source-line="73" id="lnk82"><path codeLine="73" d="M628.9752,891.4434 C628.85,891.7439 628.7237,892.0475 628.5963,892.354 C628.3415,892.9672 628.0821,893.5923 627.8185,894.2291 C626.764,896.7762 625.6406,899.5097 624.4604,902.4084 C622.0998,908.2058 619.5119,914.6638 616.7925,921.6119 C605.915,949.4044 592.935,985.0394 584,1017.6094 C578.9675,1035.9594 574.4738,1055.6338 570.5584,1074.8694 C570.4361,1075.4705 570.3143,1076.0712 570.1931,1076.6714 C570.1325,1076.9715 571.2554,1071.3893 571.1951,1071.6892" fill="none" id="src/services-to-src/models" style="stroke:#181818;stroke-width:1;"/><polygon fill="#181818" points="570.0117,1077.5713,575.7082,1069.5371,570.9979,1072.6695,567.8654,1067.9592,570.0117,1077.5713" style="stroke:#181818;stroke-width:1;"/><text fill="#000000" font-family="sans-serif" font-size="13" lengthAdjust="spacing" textLength="116.3398" x="592" y="1006.1045">consultas MongoDB</text></g><!--link js to Kiwi TCMS XML-RPC--><g class="link" data-entity-1="ent0083" data-entity-2="ent0085" data-link-type="dependency" data-source-line="74" id="lnk86"><path codeLine="74" d="M1336,129.7294 C1336,157.3794 1336,197.3694 1336,225.1594" fill="none" id="js-to-Kiwi TCMS XML-RPC" style="stroke:#181818;stroke-width:1;"/><polygon fill="#181818" points="1336,231.1594,1340,222.1594,1336,226.1594,1332,222.1594,1336,231.1594" style="stroke:#181818;stroke-width:1;"/></g><?plantuml-src XLLDRzim3BthLn2vfxtdiCFSR8Srm12tnQwCp3XiPCdLHz9YsA_gJ-WVcnmdJXhPxi4mmFVuI3rJjDkohj5Y1JNABPQK-pT5O4bwrAKYuJg2ss1XzgnBMADo98Hd7wbpvssGFbY4WgBAIo1F3XPF6KnXotkULZifn54U9gVG1FuA0T35dzXvR8805z4wh1JBKnX0AdGE9gmBUhtP-4fDFWFIkLkiwvlulaAUM-3v6FydckUoWSneRusAXxH96yxAMsj2FDX0AsVPD56smeficet1Rx8ExsGwt95pRFGOfJ0oLAGz-Y-8mL66yHcXM7e9RAcH6wEL6x9nBaQxihZkq-WpgEAYKBH7Ixt-Z7opXIb8cTxFLJLGQlYZw-isRsrEWRjBSrFuiRKq1Nu4BPiKLCkpfIdjPsjaBacZPTDJlx5nn82Sx8ub6mSONbbnzD3rsk4EHEgVm5Q5lfYjGTPn70PnBg84hvdi8AL27L3zYhjXa7Ay2eEujoW9Lz44_tPDwhtjQoxZrfByyQvxBPC7Ic9OiKfhAuD5ledc5tEzkweQwnxNsErv1y5q-krYTy0CrkJb1fRp_45Sn0-qqoM8hEC5lJSbwuINB9iPaBR18zJa-N1GaPAwrFE8p41zl9SiiPkgiRpJJPl5CjR5DKvQCeehpHvwb7D1UOn_2wDBS_TTzCz1czi4uI5RvF1dSJzT_iucuZy0?></g></svg>