<?xml version="1.0" encoding="us-ascii" standalone="no"?><svg xmlns="http://www.w3.org/2000/svg" xmlns:xlink="http://www.w3.org/1999/xlink" contentStyleType="text/css" height="720px" preserveAspectRatio="none" style="width:350px;height:720px;background:#FFFFFF;" version="1.1" viewBox="0 0 350 720" width="350px" zoomAndPan="magnify"><defs/><g><path d="M19.5,7 L286.5,7 A12.5,12.5 0 0 1 299,19.5 L299,34.6094 L7,34.6094 L7,19.5 A12.5,12.5 0 0 1 19.5,7 " fill="#F1F1F1" style="stroke:#F1F1F1;stroke-width:1.0;"/><rect fill="none" height="560.6094" rx="12.5" ry="12.5" style="stroke:#181818;stroke-width:0.5;" width="292" x="7" y="7"/><line style="stroke:#181818;stroke-width:0.5;" x1="7" x2="299" y1="34.6094" y2="34.6094"/><text fill="#000000" font-family="sans-serif" font-size="14" lengthAdjust="spacing" textLength="164" x="71" y="26.5332">crearRequisitoFuncional()</text><g id="crearRequisitoFuncional.SolicitandoDatos"><rect fill="#F1F1F1" height="50" rx="12.5" ry="12.5" style="stroke:#181818;stroke-width:0.5;" width="50" x="19" y="137.6094"/><line style="stroke:#181818;stroke-width:0.5;" x1="19" x2="69" y1="165.2188" y2="165.2188"/><text fill="#000000" font-family="sans-serif" font-size="14" lengthAdjust="spacing" textLength="4" x="42" y="157.1426">&#160;</text></g><g id="crearRequisitoFuncional.ValidandoDatos"><rect fill="#F1F1F1" height="50" rx="12.5" ry="12.5" style="stroke:#181818;stroke-width:0.5;" width="50" x="19" y="275.6094"/><line style="stroke:#181818;stroke-width:0.5;" x1="19" x2="69" y1="303.2188" y2="303.2188"/><text fill="#000000" font-family="sans-serif" font-size="14" lengthAdjust="spacing" textLength="4" x="42" y="295.1426">&#160;</text></g><g id="crearRequisitoFuncional.RegistrandoRequisito"><rect fill="#F1F1F1" height="50" rx="12.5" ry="12.5" style="stroke:#181818;stroke-width:0.5;" width="50" x="19" y="413.6094"/><line style="stroke:#181818;stroke-width:0.5;" x1="19" x2="69" y1="441.2188" y2="441.2188"/><text fill="#000000" font-family="sans-serif" font-size="14" lengthAdjust="spacing" textLength="4" x="42" y="433.1426">&#160;</text></g><ellipse cx="44" cy="55.6094" fill="#222222" rx="10" ry="10" style="stroke:#222222;stroke-width:1.0;"/><ellipse cx="44" cy="546.6094" fill="none" rx="11" ry="11" style="stroke:#222222;stroke-width:1.0;"/><ellipse cx="44" cy="546.6094" fill="#222222" rx="6" ry="6" style="stroke:#222222;stroke-width:1.0;"/><!--link *start*crearRequisitoFuncional to SolicitandoDatos--><g id="link_*start*crearRequisitoFuncional_SolicitandoDatos"><path d="M44,65.9294 C44,81.7894 44,108.5194 44,131.2494 " fill="none" id="*start*crearRequisitoFuncional-to-SolicitandoDatos" style="stroke:#008000;stroke-width:1.0;"/><polygon fill="#008000" points="44,137.2494,48,128.2494,44,132.2494,40,128.2494,44,137.2494" style="stroke:#008000;stroke-width:1.0;"/><path d="M49,88.6094 L49,114.6094 L290,114.6094 L290,98.6094 L280,88.6094 L49,88.6094 " fill="#FEFFDD" style="stroke:#181818;stroke-width:0.5;"/><path d="M280,88.6094 L280,98.6094 L290,98.6094 L280,88.6094 " fill="#FEFFDD" style="stroke:#181818;stroke-width:0.5;"/><text fill="#000000" font-family="sans-serif" font-size="13" lengthAdjust="spacing" textLength="220" x="55" y="107.1045">Se solicita crear un requisito funcional</text></g><!--link SolicitandoDatos to ValidandoDatos--><g id="link_SolicitandoDatos_ValidandoDatos"><path d="M44,187.6094 C44,212.3194 44,244.6094 44,269.3894 " fill="none" id="SolicitandoDatos-to-ValidandoDatos" style="stroke:#008000;stroke-width:1.0;"/><polygon fill="#008000" points="44,275.3894,48,266.3894,44,270.3894,40,266.3894,44,275.3894" style="stroke:#008000;stroke-width:1.0;"/><path d="M49,210.6094 L49,252.6094 L244,252.6094 L244,220.6094 L234,210.6094 L49,210.6094 " fill="#FEFFDD" style="stroke:#181818;stroke-width:0.5;"/><path d="M234,210.6094 L234,220.6094 L244,220.6094 L234,210.6094 " fill="#FEFFDD" style="stroke:#181818;stroke-width:0.5;"/><text fill="#000000" font-family="sans-serif" font-size="13" font-weight="bold" lengthAdjust="spacing" textLength="51" x="55" y="229.1045">Sistema</text><text fill="#000000" font-family="sans-serif" font-size="13" lengthAdjust="spacing" textLength="119" x="110" y="229.1045">recibe la informacion</text><text fill="#000000" font-family="sans-serif" font-size="13" lengthAdjust="spacing" textLength="132" x="55" y="245.4561">introducida por el actor</text></g><!--link ValidandoDatos to RegistrandoRequisito--><g id="link_ValidandoDatos_RegistrandoRequisito"><path d="M44,325.6094 C44,350.3194 44,382.6094 44,407.3894 " fill="none" id="ValidandoDatos-to-RegistrandoRequisito" style="stroke:#008000;stroke-width:1.0;"/><polygon fill="#008000" points="44,413.3894,48,404.3894,44,408.3894,40,404.3894,44,413.3894" style="stroke:#008000;stroke-width:1.0;"/><path d="M49,348.6094 L49,390.6094 L214,390.6094 L214,358.6094 L204,348.6094 L49,348.6094 " fill="#FEFFDD" style="stroke:#181818;stroke-width:0.5;"/><path d="M204,348.6094 L204,358.6094 L214,358.6094 L204,348.6094 " fill="#FEFFDD" style="stroke:#181818;stroke-width:0.5;"/><text fill="#000000" font-family="sans-serif" font-size="13" font-weight="bold" lengthAdjust="spacing" textLength="51" x="55" y="367.1045">Sistema</text><text fill="#000000" font-family="sans-serif" font-size="13" lengthAdjust="spacing" textLength="89" x="110" y="367.1045">valida los datos</text><text fill="#000000" font-family="sans-serif" font-size="13" lengthAdjust="spacing" textLength="115" x="55" y="383.4561">y prepara el registro</text></g><!--link RegistrandoRequisito to *end*crearRequisitoFuncional--><g id="link_RegistrandoRequisito_*end*crearRequisitoFuncional"><path d="M44,463.6594 C44,486.2594 44,512.9894 44,529.4094 " fill="none" id="RegistrandoRequisito-to-*end*crearRequisitoFuncional" style="stroke:#008000;stroke-width:1.0;"/><polygon fill="#008000" points="44,535.4094,48,526.4094,44,530.4094,40,526.4094,44,535.4094" style="stroke:#008000;stroke-width:1.0;"/><path d="M49,486.6094 L49,512.6094 L290,512.6094 L290,496.6094 L280,486.6094 L49,486.6094 " fill="#FEFFDD" style="stroke:#181818;stroke-width:0.5;"/><path d="M280,486.6094 L280,496.6094 L290,496.6094 L280,486.6094 " fill="#FEFFDD" style="stroke:#181818;stroke-width:0.5;"/><text fill="#000000" font-family="sans-serif" font-size="13" font-weight="bold" lengthAdjust="spacing" textLength="51" x="55" y="505.1045">Sistema</text><text fill="#000000" font-family="sans-serif" font-size="13" lengthAdjust="spacing" textLength="165" x="110" y="505.1045">registra el requisito funcional</text></g><g id="REQUISITOS_FUNCIONALES_ABIERTO"><rect fill="#F1F1F1" height="50" rx="12.5" ry="12.5" style="stroke:#181818;stroke-width:0.5;" width="274" x="16" y="664"/><line style="stroke:#181818;stroke-width:0.5;" x1="16" x2="290" y1="691.6094" y2="691.6094"/><text fill="#000000" font-family="sans-serif" font-size="14" lengthAdjust="spacing" textLength="254" x="26" y="683.5332">REQUISITOS_FUNCIONALES_ABIERTO</text></g><!--link crearRequisitoFuncional to REQUISITOS_FUNCIONALES_ABIERTO--><g id="link_crearRequisitoFuncional_REQUISITOS_FUNCIONALES_ABIERTO"><path d="M66.29,568.04 C60.55,586.55 57,598 57,598 C57,598 57,634 57,634 C57,634 79.2599,646.5296 104.8199,660.8996 " fill="none" id="crearRequisitoFuncional-to-REQUISITOS_FUNCIONALES_ABIERTO" style="stroke:#008000;stroke-width:1.0;"/><polygon fill="#008000" points="110.05,663.84,104.1651,655.9427,105.6916,661.3897,100.2446,662.9161,110.05,663.84" style="stroke:#008000;stroke-width:1.0;"/><path d="M62,603 L62,629 L199,629 L199,613 L189,603 L62,603 " fill="#FEFFDD" style="stroke:#181818;stroke-width:0.5;"/><path d="M189,603 L189,613 L199,613 L189,603 " fill="#FEFFDD" style="stroke:#181818;stroke-width:0.5;"/><text fill="#000000" font-family="sans-serif" font-size="13" lengthAdjust="spacing" textLength="116" x="68" y="621.4951">completarCreacion()</text></g><!--link crearRequisitoFuncional to REQUISITOS_FUNCIONALES_ABIERTO--><g id="link_crearRequisitoFuncional_REQUISITOS_FUNCIONALES_ABIERTO"><path d="M202.68,568.04 C205.96,586.55 208,598 208,598 C208,598 208,634 208,634 C208,634 196.5334,645.2685 181.8834,659.6385 " fill="none" id="crearRequisitoFuncional-to-REQUISITOS_FUNCIONALES_ABIERTO-1" style="stroke:#FF0000;stroke-width:1.0;"/><polygon fill="#FF0000" points="177.6,663.84,186.8261,660.3933,181.1695,660.3387,181.2241,654.6822,177.6,663.84" style="stroke:#FF0000;stroke-width:1.0;"/><path d="M213,603 L213,629 L343,629 L343,613 L333,603 L213,603 " fill="#FEFFDD" style="stroke:#181818;stroke-width:0.5;"/><path d="M333,603 L333,613 L343,613 L333,603 " fill="#FEFFDD" style="stroke:#181818;stroke-width:0.5;"/><text fill="#000000" font-family="sans-serif" font-size="13" lengthAdjust="spacing" textLength="109" x="219" y="621.4951">rechazarCreacion()</text></g><!--SRC=[bP9HQy8m58NVyoikxaK7iZyWWdCAXQ7Cwbv494slBfWcNP8EtDX_Nz9CHsTqhdrgSpZVEVV6xBWigQO522xHxak4Kecz_o34M6eHc4QgP_XQSSEj6bUISIMf06gWTUQitMd11o7Wdk3HSg_JfqfmnYsLkNgWLfbJnJCLFBzmFiCjDrPxnH4RGClR5NINDrkDA5VTVfmbbRDIqfVTrJzI1FCj34MXag0Fph0vDAh5AFFQ8G1_0nhqI8yJTY_hfwuC5hHtb_KTbV4CGL3WSgDqGJsv5d9fjSehvXpTTZIW6pwpIaT2DRcDID7HNHFihVO4uVpoOvizb1hzpV5fTB1MaK0nQYEMszkLumb6WVV7WZu9ENTj6oCPFIsID9bFq_LuCHacqydWSPIk1_V9Q3QVaaOafefIeALww8ozLxj3VgfUe6dC_yjoL-65liTHNm00]--></g></svg>