<?xml version="1.0" encoding="us-ascii" standalone="no"?><svg xmlns="http://www.w3.org/2000/svg" xmlns:xlink="http://www.w3.org/1999/xlink" contentStyleType="text/css" height="720px" preserveAspectRatio="none" style="width:576px;height:720px;background:#FFFFFF;" version="1.1" viewBox="0 0 576 720" width="576px" zoomAndPan="magnify"><defs/><g><path d="M150.5,7 L433.5,7 A12.5,12.5 0 0 1 446,19.5 L446,34.6094 L138,34.6094 L138,19.5 A12.5,12.5 0 0 1 150.5,7 " fill="#F1F1F1" style="stroke:#F1F1F1;stroke-width:1.0;"/><rect fill="none" height="560.6094" rx="12.5" ry="12.5" style="stroke:#181818;stroke-width:0.5;" width="308" x="138" y="7"/><line style="stroke:#181818;stroke-width:0.5;" x1="138" x2="446" y1="34.6094" y2="34.6094"/><text fill="#000000" font-family="sans-serif" font-size="14" lengthAdjust="spacing" textLength="180" x="202" y="26.5332">eliminarRequisitoFuncional()</text><g id="eliminarRequisitoFuncional.SeleccionandoRequisito"><rect fill="#F1F1F1" height="50" rx="12.5" ry="12.5" style="stroke:#181818;stroke-width:0.5;" width="50" x="150" y="137.6094"/><line style="stroke:#181818;stroke-width:0.5;" x1="150" x2="200" y1="165.2188" y2="165.2188"/><text fill="#000000" font-family="sans-serif" font-size="14" lengthAdjust="spacing" textLength="4" x="173" y="157.1426">&#160;</text></g><g id="eliminarRequisitoFuncional.ConfirmandoEliminacion"><rect fill="#F1F1F1" height="50" rx="12.5" ry="12.5" style="stroke:#181818;stroke-width:0.5;" width="50" x="150" y="275.6094"/><line style="stroke:#181818;stroke-width:0.5;" x1="150" x2="200" y1="303.2188" y2="303.2188"/><text fill="#000000" font-family="sans-serif" font-size="14" lengthAdjust="spacing" textLength="4" x="173" y="295.1426">&#160;</text></g><g id="eliminarRequisitoFuncional.EliminandoRequisito"><rect fill="#F1F1F1" height="50" rx="12.5" ry="12.5" style="stroke:#181818;stroke-width:0.5;" width="50" x="150" y="413.6094"/><line style="stroke:#181818;stroke-width:0.5;" x1="150" x2="200" y1="441.2188" y2="441.2188"/><text fill="#000000" font-family="sans-serif" font-size="14" lengthAdjust="spacing" textLength="4" x="173" y="433.1426">&#160;</text></g><ellipse cx="175" cy="55.6094" fill="#222222" rx="10" ry="10" style="stroke:#222222;stroke-width:1.0;"/><ellipse cx="175" cy="546.6094" fill="none" rx="11" ry="11" style="stroke:#222222;stroke-width:1.0;"/><ellipse cx="175" cy="546.6094" fill="#222222" rx="6" ry="6" style="stroke:#222222;stroke-width:1.0;"/><!--link *start*eliminarRequisitoFuncional to SeleccionandoRequisito--><g id="link_*start*eliminarRequisitoFuncional_SeleccionandoRequisito"><path d="M175,65.9294 C175,81.7894 175,108.5194 175,131.2494 " fill="none" id="*start*eliminarRequisitoFuncional-to-SeleccionandoRequisito" style="stroke:#008000;stroke-width:1.0;"/><polygon fill="#008000" points="175,137.2494,179,128.2494,175,132.2494,171,128.2494,175,137.2494" style="stroke:#008000;stroke-width:1.0;"/><path d="M180,88.6094 L180,114.6094 L437,114.6094 L437,98.6094 L427,88.6094 L180,88.6094 " fill="#FEFFDD" style="stroke:#181818;stroke-width:0.5;"/><path d="M427,88.6094 L427,98.6094 L437,98.6094 L427,88.6094 " fill="#FEFFDD" style="stroke:#181818;stroke-width:0.5;"/><text fill="#000000" font-family="sans-serif" font-size="13" lengthAdjust="spacing" textLength="236" x="186" y="107.1045">Se solicita eliminar un requisito funcional</text></g><!--link SeleccionandoRequisito to ConfirmandoEliminacion--><g id="link_SeleccionandoRequisito_ConfirmandoEliminacion"><path d="M175,187.6094 C175,212.3194 175,244.6094 175,269.3894 " fill="none" id="SeleccionandoRequisito-to-ConfirmandoEliminacion" style="stroke:#008000;stroke-width:1.0;"/><polygon fill="#008000" points="175,275.3894,179,266.3894,175,270.3894,171,266.3894,175,275.3894" style="stroke:#008000;stroke-width:1.0;"/><path d="M180,210.6094 L180,252.6094 L374,252.6094 L374,220.6094 L364,210.6094 L180,210.6094 " fill="#FEFFDD" style="stroke:#181818;stroke-width:0.5;"/><path d="M364,210.6094 L364,220.6094 L374,220.6094 L364,210.6094 " fill="#FEFFDD" style="stroke:#181818;stroke-width:0.5;"/><text fill="#000000" font-family="sans-serif" font-size="13" font-weight="bold" lengthAdjust="spacing" textLength="51" x="186" y="229.1045">Sistema</text><text fill="#000000" font-family="sans-serif" font-size="13" lengthAdjust="spacing" textLength="118" x="241" y="229.1045">solicita confirmacion</text><text fill="#000000" font-family="sans-serif" font-size="13" lengthAdjust="spacing" textLength="88" x="186" y="245.4561">de la operacion</text></g><!--link ConfirmandoEliminacion to EliminandoRequisito--><g id="link_ConfirmandoEliminacion_EliminandoRequisito"><path d="M175,325.6094 C175,350.3194 175,382.6094 175,407.3894 " fill="none" id="ConfirmandoEliminacion-to-EliminandoRequisito" style="stroke:#008000;stroke-width:1.0;"/><polygon fill="#008000" points="175,413.3894,179,404.3894,175,408.3894,171,404.3894,175,413.3894" style="stroke:#008000;stroke-width:1.0;"/><path d="M180,348.6094 L180,390.6094 L379,390.6094 L379,358.6094 L369,348.6094 L180,348.6094 " fill="#FEFFDD" style="stroke:#181818;stroke-width:0.5;"/><path d="M369,348.6094 L369,358.6094 L379,358.6094 L369,348.6094 " fill="#FEFFDD" style="stroke:#181818;stroke-width:0.5;"/><text fill="#000000" font-family="sans-serif" font-size="13" font-weight="bold" lengthAdjust="spacing" textLength="51" x="186" y="367.1045">Sistema</text><text fill="#000000" font-family="sans-serif" font-size="13" lengthAdjust="spacing" textLength="123" x="241" y="367.1045">valida la confirmacion</text><text fill="#000000" font-family="sans-serif" font-size="13" lengthAdjust="spacing" textLength="137" x="186" y="383.4561">y prepara la eliminacion</text></g><!--link EliminandoRequisito to *end*eliminarRequisitoFuncional--><g id="link_EliminandoRequisito_*end*eliminarRequisitoFuncional"><path d="M175,463.6594 C175,486.2594 175,512.9894 175,529.4094 " fill="none" id="EliminandoRequisito-to-*end*eliminarRequisitoFuncional" style="stroke:#008000;stroke-width:1.0;"/><polygon fill="#008000" points="175,535.4094,179,526.4094,175,530.4094,171,526.4094,175,535.4094" style="stroke:#008000;stroke-width:1.0;"/><path d="M180,486.6094 L180,512.6094 L419,512.6094 L419,496.6094 L409,486.6094 L180,486.6094 " fill="#FEFFDD" style="stroke:#181818;stroke-width:0.5;"/><path d="M409,486.6094 L409,496.6094 L419,496.6094 L409,486.6094 " fill="#FEFFDD" style="stroke:#181818;stroke-width:0.5;"/><text fill="#000000" font-family="sans-serif" font-size="13" font-weight="bold" lengthAdjust="spacing" textLength="51" x="186" y="505.1045">Sistema</text><text fill="#000000" font-family="sans-serif" font-size="13" lengthAdjust="spacing" textLength="163" x="241" y="505.1045">elimina el requisito funcional</text></g><g id="REQUISITOS_FUNCIONALES_ABIERTO"><rect fill="#F1F1F1" height="50" rx="12.5" ry="12.5" style="stroke:#181818;stroke-width:0.5;" width="274" x="7" y="664"/><line style="stroke:#181818;stroke-width:0.5;" x1="7" x2="281" y1="691.6094" y2="691.6094"/><text fill="#000000" font-family="sans-serif" font-size="14" lengthAdjust="spacing" textLength="254" x="17" y="683.5332">REQUISITOS_FUNCIONALES_ABIERTO</text></g><g id="REQUISITO_FUNCIONAL_ABIERTO"><rect fill="#F1F1F1" height="50" rx="12.5" ry="12.5" style="stroke:#181818;stroke-width:0.5;" width="247" x="316.5" y="664"/><line style="stroke:#181818;stroke-width:0.5;" x1="316.5" x2="563.5" y1="691.6094" y2="691.6094"/><text fill="#000000" font-family="sans-serif" font-size="14" lengthAdjust="spacing" textLength="227" x="326.5" y="683.5332">REQUISITO_FUNCIONAL_ABIERTO</text></g><!--link eliminarRequisitoFuncional to REQUISITOS_FUNCIONALES_ABIERTO--><g id="link_eliminarRequisitoFuncional_REQUISITOS_FUNCIONALES_ABIERTO"><path d="M188.4,568.14 C173.83,607.48 163.1743,636.2437 155.1243,657.9737 " fill="none" id="eliminarRequisitoFuncional-to-REQUISITOS_FUNCIONALES_ABIERTO" style="stroke:#008000;stroke-width:1.0;"/><polygon fill="#008000" points="153.04,663.6,159.9174,656.55,154.7769,658.9114,152.4156,653.771,153.04,663.6" style="stroke:#008000;stroke-width:1.0;"/><path d="M181,603 L181,629 L334,629 L334,613 L324,603 L181,603 " fill="#FEFFDD" style="stroke:#181818;stroke-width:0.5;"/><path d="M324,603 L324,613 L334,613 L324,603 " fill="#FEFFDD" style="stroke:#181818;stroke-width:0.5;"/><text fill="#000000" font-family="sans-serif" font-size="13" lengthAdjust="spacing" textLength="132" x="187" y="621.4951">completarEliminacion()</text></g><!--link eliminarRequisitoFuncional to REQUISITO_FUNCIONAL_ABIERTO--><g id="link_eliminarRequisitoFuncional_REQUISITO_FUNCIONAL_ABIERTO"><path d="M395.6,568.14 C410.17,607.48 420.8257,636.2437 428.8757,657.9737 " fill="none" id="eliminarRequisitoFuncional-to-REQUISITO_FUNCIONAL_ABIERTO" style="stroke:#FF0000;stroke-width:1.0;"/><polygon fill="#FF0000" points="430.96,663.6,431.5844,653.771,429.2231,658.9114,424.0826,656.55,430.96,663.6" style="stroke:#FF0000;stroke-width:1.0;"/><path d="M423,603 L423,629 L569,629 L569,613 L559,603 L423,603 " fill="#FEFFDD" style="stroke:#181818;stroke-width:0.5;"/><path d="M559,603 L559,613 L569,613 L559,603 " fill="#FEFFDD" style="stroke:#181818;stroke-width:0.5;"/><text fill="#000000" font-family="sans-serif" font-size="13" lengthAdjust="spacing" textLength="125" x="429" y="621.4951">rechazarEliminacion()</text></g><!--SRC=[ZPBHQi8m58RlynG7TwC3sGj8mKc5mb1czKf4Zkrn2wP9bwO3D_RkQsgrPgsTxKLfyl_d_yv9iWENAMfCG719vfWIf4eSxGzZcK53G88dNA9Uq4VECsxKD9SHLn85O0QzszlzGG- -6OFYELNg5MzX2KbGL4fah2wsfcwYv9xhnAhyKuWrDNNLfbEiLAqVDp1SFxnf8haPUbt1KXNrbBHJE9GB8K6c18-umSi489UWppROd_iizIJZiWYht6r93an7TmsOqSuBUMOemT7Jpgl1egh6nHaJ20ILagxNNBBsM8UiRPxtO7sYu35QW0RN4L9DzfxPNVhJhWlOakxG5OTw5qsLKdp_FxCVnZfk-NNwmdzT1M6md8VRwMes2UQpyOiVRiVFWRzOpfa35Qaa5MHGNmswFs1rkzsPcc8diGviZzCKlUFNpRHV]--></g></svg>