<?xml version="1.0" encoding="us-ascii" standalone="no"?><svg xmlns="http://www.w3.org/2000/svg" xmlns:xlink="http://www.w3.org/1999/xlink" contentStyleType="text/css" height="736px" preserveAspectRatio="none" style="width:364px;height:736px;background:#FFFFFF;" version="1.1" viewBox="0 0 364 736" width="364px" zoomAndPan="magnify"><defs/><g><path d="M19.5,7 L277.5,7 A12.5,12.5 0 0 1 290,19.5 L290,34.6094 L7,34.6094 L7,19.5 A12.5,12.5 0 0 1 19.5,7 " fill="#F1F1F1" style="stroke:#F1F1F1;stroke-width:1.0;"/><rect fill="none" height="576.6094" rx="12.5" ry="12.5" style="stroke:#181818;stroke-width:0.5;" width="283" x="7" y="7"/><line style="stroke:#181818;stroke-width:0.5;" x1="7" x2="290" y1="34.6094" y2="34.6094"/><text fill="#000000" font-family="sans-serif" font-size="14" lengthAdjust="spacing" textLength="219" x="39" y="26.5332">asociarDocumentacionAProyecto()</text><g id="asociarDocumentacionAProyecto.DetectandoAusenciaProyecto"><rect fill="#F1F1F1" height="50" rx="12.5" ry="12.5" style="stroke:#181818;stroke-width:0.5;" width="50" x="19" y="153.6094"/><line style="stroke:#181818;stroke-width:0.5;" x1="19" x2="69" y1="181.2188" y2="181.2188"/><text fill="#000000" font-family="sans-serif" font-size="14" lengthAdjust="spacing" textLength="4" x="42" y="173.1426">&#160;</text></g><g id="asociarDocumentacionAProyecto.SolicitandoProyecto"><rect fill="#F1F1F1" height="50" rx="12.5" ry="12.5" style="stroke:#181818;stroke-width:0.5;" width="50" x="19" y="275.6094"/><line style="stroke:#181818;stroke-width:0.5;" x1="19" x2="69" y1="303.2188" y2="303.2188"/><text fill="#000000" font-family="sans-serif" font-size="14" lengthAdjust="spacing" textLength="4" x="42" y="295.1426">&#160;</text></g><g id="asociarDocumentacionAProyecto.RegistrandoAsociacion"><rect fill="#F1F1F1" height="50" rx="12.5" ry="12.5" style="stroke:#181818;stroke-width:0.5;" width="50" x="19" y="413.6094"/><line style="stroke:#181818;stroke-width:0.5;" x1="19" x2="69" y1="441.2188" y2="441.2188"/><text fill="#000000" font-family="sans-serif" font-size="14" lengthAdjust="spacing" textLength="4" x="42" y="433.1426">&#160;</text></g><ellipse cx="44" cy="55.6094" fill="#222222" rx="10" ry="10" style="stroke:#222222;stroke-width:1.0;"/><ellipse cx="44" cy="562.6094" fill="none" rx="11" ry="11" style="stroke:#222222;stroke-width:1.0;"/><ellipse cx="44" cy="562.6094" fill="#222222" rx="6" ry="6" style="stroke:#222222;stroke-width:1.0;"/><!--link *start*asociarDocumentacionAProyecto to DetectandoAusenciaProyecto--><g id="link_*start*asociarDocumentacionAProyecto_DetectandoAusenciaProyecto"><path d="M44,65.6994 C44,84.1694 44,120.5894 44,147.5794 " fill="none" id="*start*asociarDocumentacionAProyecto-to-DetectandoAusenciaProyecto" style="stroke:#008000;stroke-width:1.0;"/><polygon fill="#008000" points="44,153.5794,48,144.5794,44,148.5794,40,144.5794,44,153.5794" style="stroke:#008000;stroke-width:1.0;"/><path d="M49,88.6094 L49,130.6094 L264,130.6094 L264,98.6094 L254,88.6094 L49,88.6094 " fill="#FEFFDD" style="stroke:#181818;stroke-width:0.5;"/><path d="M254,88.6094 L254,98.6094 L264,98.6094 L254,88.6094 " fill="#FEFFDD" style="stroke:#181818;stroke-width:0.5;"/><text fill="#000000" font-family="sans-serif" font-size="13" lengthAdjust="spacing" textLength="194" x="55" y="107.1045">Se detecta que la documentacion</text><text fill="#000000" font-family="sans-serif" font-size="13" lengthAdjust="spacing" textLength="156" x="55" y="123.4561">no tiene proyecto asociado</text></g><!--link DetectandoAusenciaProyecto to SolicitandoProyecto--><g id="link_DetectandoAusenciaProyecto_SolicitandoProyecto"><path d="M44,203.8894 C44,224.7094 44,248.5494 44,269.3594 " fill="none" id="DetectandoAusenciaProyecto-to-SolicitandoProyecto" style="stroke:#008000;stroke-width:1.0;"/><polygon fill="#008000" points="44,275.3594,48,266.3594,44,270.3594,40,266.3594,44,275.3594" style="stroke:#008000;stroke-width:1.0;"/><path d="M49,226.6094 L49,252.6094 L281,252.6094 L281,236.6094 L271,226.6094 L49,226.6094 " fill="#FEFFDD" style="stroke:#181818;stroke-width:0.5;"/><path d="M271,226.6094 L271,236.6094 L281,236.6094 L271,226.6094 " fill="#FEFFDD" style="stroke:#181818;stroke-width:0.5;"/><text fill="#000000" font-family="sans-serif" font-size="13" font-weight="bold" lengthAdjust="spacing" textLength="51" x="55" y="245.1045">Sistema</text><text fill="#000000" font-family="sans-serif" font-size="13" lengthAdjust="spacing" textLength="156" x="110" y="245.1045">solicita el proyecto al actor</text></g><!--link SolicitandoProyecto to RegistrandoAsociacion--><g id="link_SolicitandoProyecto_RegistrandoAsociacion"><path d="M44,325.6094 C44,350.3194 44,382.6094 44,407.3894 " fill="none" id="SolicitandoProyecto-to-RegistrandoAsociacion" style="stroke:#008000;stroke-width:1.0;"/><polygon fill="#008000" points="44,413.3894,48,404.3894,44,408.3894,40,404.3894,44,413.3894" style="stroke:#008000;stroke-width:1.0;"/><path d="M49,348.6094 L49,390.6094 L239,390.6094 L239,358.6094 L229,348.6094 L49,348.6094 " fill="#FEFFDD" style="stroke:#181818;stroke-width:0.5;"/><path d="M229,348.6094 L229,358.6094 L239,358.6094 L229,348.6094 " fill="#FEFFDD" style="stroke:#181818;stroke-width:0.5;"/><text fill="#000000" font-family="sans-serif" font-size="13" font-weight="bold" lengthAdjust="spacing" textLength="51" x="55" y="367.1045">Sistema</text><text fill="#000000" font-family="sans-serif" font-size="13" lengthAdjust="spacing" textLength="114" x="110" y="367.1045">recibe el proyecto y</text><text fill="#000000" font-family="sans-serif" font-size="13" lengthAdjust="spacing" textLength="123" x="55" y="383.4561">prepara la asociacion</text></g><!--link RegistrandoAsociacion to *end*asociarDocumentacionAProyecto--><g id="link_RegistrandoAsociacion_*end*asociarDocumentacionAProyecto"><path d="M44,463.7094 C44,490.3794 44,526.1094 44,545.3094 " fill="none" id="RegistrandoAsociacion-to-*end*asociarDocumentacionAProyecto" style="stroke:#008000;stroke-width:1.0;"/><polygon fill="#008000" points="44,551.3094,48,542.3094,44,546.3094,40,542.3094,44,551.3094" style="stroke:#008000;stroke-width:1.0;"/><path d="M49,486.6094 L49,528.6094 L248,528.6094 L248,496.6094 L238,486.6094 L49,486.6094 " fill="#FEFFDD" style="stroke:#181818;stroke-width:0.5;"/><path d="M238,486.6094 L238,496.6094 L248,496.6094 L238,486.6094 " fill="#FEFFDD" style="stroke:#181818;stroke-width:0.5;"/><text fill="#000000" font-family="sans-serif" font-size="13" font-weight="bold" lengthAdjust="spacing" textLength="51" x="55" y="505.1045">Sistema</text><text fill="#000000" font-family="sans-serif" font-size="13" lengthAdjust="spacing" textLength="123" x="110" y="505.1045">registra la asociacion</text><text fill="#000000" font-family="sans-serif" font-size="13" lengthAdjust="spacing" textLength="142" x="55" y="521.4561">documentacion-proyecto</text></g><g id="DOCUMENTACION_ABIERTA"><rect fill="#F1F1F1" height="50" rx="12.5" ry="12.5" style="stroke:#181818;stroke-width:0.5;" width="206" x="45.5" y="680"/><line style="stroke:#181818;stroke-width:0.5;" x1="45.5" x2="251.5" y1="707.6094" y2="707.6094"/><text fill="#000000" font-family="sans-serif" font-size="14" lengthAdjust="spacing" textLength="186" x="55.5" y="699.5332">DOCUMENTACION_ABIERTA</text></g><!--link asociarDocumentacionAProyecto to DOCUMENTACION_ABIERTA--><g id="link_asociarDocumentacionAProyecto_DOCUMENTACION_ABIERTA"><path d="M55.19,584.13 C49.2,602.6 45.5,614 45.5,614 C45.5,614 45.5,650 45.5,650 C45.5,650 69.6856,662.6849 97.1056,677.0549 " fill="none" id="asociarDocumentacionAProyecto-to-DOCUMENTACION_ABIERTA" style="stroke:#008000;stroke-width:1.0;"/><polygon fill="#008000" points="102.42,679.84,96.3051,672.1194,97.9913,677.5191,92.5916,679.2053,102.42,679.84" style="stroke:#008000;stroke-width:1.0;"/><path d="M50.5,619 L50.5,645 L200.5,645 L200.5,629 L190.5,619 L50.5,619 " fill="#FEFFDD" style="stroke:#181818;stroke-width:0.5;"/><path d="M190.5,619 L190.5,629 L200.5,629 L190.5,619 " fill="#FEFFDD" style="stroke:#181818;stroke-width:0.5;"/><text fill="#000000" font-family="sans-serif" font-size="13" lengthAdjust="spacing" textLength="129" x="56.5" y="637.4951">completarAsociacion()</text></g><!--link asociarDocumentacionAProyecto to DOCUMENTACION_ABIERTA--><g id="link_asociarDocumentacionAProyecto_DOCUMENTACION_ABIERTA"><path d="M203.76,584.13 C207.31,602.6 209.5,614 209.5,614 C209.5,614 209.5,650 209.5,650 C209.5,650 196.5235,661.494 180.2835,675.864 " fill="none" id="asociarDocumentacionAProyecto-to-DOCUMENTACION_ABIERTA-1" style="stroke:#FF0000;stroke-width:1.0;"/><polygon fill="#FF0000" points="175.79,679.84,185.1809,676.8716,179.5345,676.5266,179.8795,670.8803,175.79,679.84" style="stroke:#FF0000;stroke-width:1.0;"/><path d="M214.5,619 L214.5,645 L357.5,645 L357.5,629 L347.5,619 L214.5,619 " fill="#FEFFDD" style="stroke:#181818;stroke-width:0.5;"/><path d="M347.5,619 L347.5,629 L357.5,629 L347.5,619 " fill="#FEFFDD" style="stroke:#181818;stroke-width:0.5;"/><text fill="#000000" font-family="sans-serif" font-size="13" lengthAdjust="spacing" textLength="122" x="220.5" y="637.4951">rechazarAsociacion()</text></g><!--SRC=[ZPF1Re9048Rl-nGJUj4cfYzWIAXwy51jn9wCQSPbOZSkktHP3hJfktS1Mzm82Xm8xCp_V_Flaf-4oj1W2b8eicL6a6bPLY-CvHOj0UQQ2pHppOkKb4Kkj8fUZIw9M-rM8RXPCHe7yCqOkAlH2zpjkkPatJAgH4T5Jie9_7LSryPQ2YxgulwY3Hr5RasjM0DL68tnxd4Fazt3qH2f_IIyvwsqKzMgYkHKVuW9agO5FWi2YP1Spdfk0Yj8kVpQQ2gAfD4abTIw3L0_WCVPD_SLuFGGncvuId7wT0WXF_S1oGiS2UYUfWEdmyVZw8vs28aXBWxaSPHrNMQeEdTLbkXB-cYTrXwSszo1A8rIXwMtcvFiCkf_cX_6Rly9tW5RpzvU5gjjD5kkL-_HytAnsKRC8-GwpIHPDErOep5hXxzhPYWPQEKsuGE_-fn-0G00]--></g></svg>