<?xml version="1.0" encoding="us-ascii" standalone="no"?><svg xmlns="http://www.w3.org/2000/svg" xmlns:xlink="http://www.w3.org/1999/xlink" contentStyleType="text/css" height="736px" preserveAspectRatio="none" style="width:567px;height:736px;background:#FFFFFF;" version="1.1" viewBox="0 0 567 736" width="567px" zoomAndPan="magnify"><defs/><g><path d="M140.5,7 L411.5,7 A12.5,12.5 0 0 1 424,19.5 L424,34.6094 L128,34.6094 L128,19.5 A12.5,12.5 0 0 1 140.5,7 " fill="#F1F1F1" style="stroke:#F1F1F1;stroke-width:1.0;"/><rect fill="none" height="576.6094" rx="12.5" ry="12.5" style="stroke:#181818;stroke-width:0.5;" width="296" x="128" y="7"/><line style="stroke:#181818;stroke-width:0.5;" x1="128" x2="424" y1="34.6094" y2="34.6094"/><text fill="#000000" font-family="sans-serif" font-size="14" lengthAdjust="spacing" textLength="180" x="186" y="26.5332">generarEscenariosGherkin()</text><g id="generarEscenariosGherkin.RecuperandoInformacionFuncional"><rect fill="#F1F1F1" height="50" rx="12.5" ry="12.5" style="stroke:#181818;stroke-width:0.5;" width="50" x="140" y="137.6094"/><line style="stroke:#181818;stroke-width:0.5;" x1="140" x2="190" y1="165.2188" y2="165.2188"/><text fill="#000000" font-family="sans-serif" font-size="14" lengthAdjust="spacing" textLength="4" x="163" y="157.1426">&#160;</text></g><g id="generarEscenariosGherkin.GenerandoEscenarios"><rect fill="#F1F1F1" height="50" rx="12.5" ry="12.5" style="stroke:#181818;stroke-width:0.5;" width="50" x="140" y="275.6094"/><line style="stroke:#181818;stroke-width:0.5;" x1="140" x2="190" y1="303.2188" y2="303.2188"/><text fill="#000000" font-family="sans-serif" font-size="14" lengthAdjust="spacing" textLength="4" x="163" y="295.1426">&#160;</text></g><g id="generarEscenariosGherkin.RegistrandoEscenarios"><rect fill="#F1F1F1" height="50" rx="12.5" ry="12.5" style="stroke:#181818;stroke-width:0.5;" width="50" x="140" y="413.6094"/><line style="stroke:#181818;stroke-width:0.5;" x1="140" x2="190" y1="441.2188" y2="441.2188"/><text fill="#000000" font-family="sans-serif" font-size="14" lengthAdjust="spacing" textLength="4" x="163" y="433.1426">&#160;</text></g><ellipse cx="165" cy="55.6094" fill="#222222" rx="10" ry="10" style="stroke:#222222;stroke-width:1.0;"/><ellipse cx="165" cy="562.6094" fill="none" rx="11" ry="11" style="stroke:#222222;stroke-width:1.0;"/><ellipse cx="165" cy="562.6094" fill="#222222" rx="6" ry="6" style="stroke:#222222;stroke-width:1.0;"/><!--link *start*generarEscenariosGherkin to RecuperandoInformacionFuncional--><g id="link_*start*generarEscenariosGherkin_RecuperandoInformacionFuncional"><path d="M165,65.9294 C165,81.7894 165,108.5194 165,131.2494 " fill="none" id="*start*generarEscenariosGherkin-to-RecuperandoInformacionFuncional" style="stroke:#008000;stroke-width:1.0;"/><polygon fill="#008000" points="165,137.2494,169,128.2494,165,132.2494,161,128.2494,165,137.2494" style="stroke:#008000;stroke-width:1.0;"/><path d="M170,88.6094 L170,114.6094 L415,114.6094 L415,98.6094 L405,88.6094 L170,88.6094 " fill="#FEFFDD" style="stroke:#181818;stroke-width:0.5;"/><path d="M405,88.6094 L405,98.6094 L415,98.6094 L405,88.6094 " fill="#FEFFDD" style="stroke:#181818;stroke-width:0.5;"/><text fill="#000000" font-family="sans-serif" font-size="13" lengthAdjust="spacing" textLength="224" x="176" y="107.1045">Se solicita generar escenarios Gherkin</text></g><!--link RecuperandoInformacionFuncional to GenerandoEscenarios--><g id="link_RecuperandoInformacionFuncional_GenerandoEscenarios"><path d="M165,187.6094 C165,212.3194 165,244.6094 165,269.3894 " fill="none" id="RecuperandoInformacionFuncional-to-GenerandoEscenarios" style="stroke:#008000;stroke-width:1.0;"/><polygon fill="#008000" points="165,275.3894,169,266.3894,165,270.3894,161,266.3894,165,275.3894" style="stroke:#008000;stroke-width:1.0;"/><path d="M170,210.6094 L170,252.6094 L378,252.6094 L378,220.6094 L368,210.6094 L170,210.6094 " fill="#FEFFDD" style="stroke:#181818;stroke-width:0.5;"/><path d="M368,210.6094 L368,220.6094 L378,220.6094 L368,210.6094 " fill="#FEFFDD" style="stroke:#181818;stroke-width:0.5;"/><text fill="#000000" font-family="sans-serif" font-size="13" font-weight="bold" lengthAdjust="spacing" textLength="51" x="176" y="229.1045">Sistema</text><text fill="#000000" font-family="sans-serif" font-size="13" lengthAdjust="spacing" textLength="132" x="231" y="229.1045">recupera casos de uso</text><text fill="#000000" font-family="sans-serif" font-size="13" lengthAdjust="spacing" textLength="136" x="176" y="245.4561">y requisitos funcionales</text></g><!--link GenerandoEscenarios to RegistrandoEscenarios--><g id="link_GenerandoEscenarios_RegistrandoEscenarios"><path d="M165,325.6094 C165,350.3194 165,382.6094 165,407.3894 " fill="none" id="GenerandoEscenarios-to-RegistrandoEscenarios" style="stroke:#008000;stroke-width:1.0;"/><polygon fill="#008000" points="165,413.3894,169,404.3894,165,408.3894,161,404.3894,165,413.3894" style="stroke:#008000;stroke-width:1.0;"/><path d="M170,348.6094 L170,390.6094 L376,390.6094 L376,358.6094 L366,348.6094 L170,348.6094 " fill="#FEFFDD" style="stroke:#181818;stroke-width:0.5;"/><path d="M366,348.6094 L366,358.6094 L376,358.6094 L366,348.6094 " fill="#FEFFDD" style="stroke:#181818;stroke-width:0.5;"/><text fill="#000000" font-family="sans-serif" font-size="13" font-weight="bold" lengthAdjust="spacing" textLength="51" x="176" y="367.1045">Sistema</text><text fill="#000000" font-family="sans-serif" font-size="13" lengthAdjust="spacing" textLength="130" x="231" y="367.1045">procesa la informacion</text><text fill="#000000" font-family="sans-serif" font-size="13" lengthAdjust="spacing" textLength="138" x="176" y="383.4561">y genera los escenarios</text></g><!--link RegistrandoEscenarios to *end*generarEscenariosGherkin--><g id="link_RegistrandoEscenarios_*end*generarEscenariosGherkin"><path d="M165,463.7094 C165,490.3794 165,526.1094 165,545.3094 " fill="none" id="RegistrandoEscenarios-to-*end*generarEscenariosGherkin" style="stroke:#008000;stroke-width:1.0;"/><polygon fill="#008000" points="165,551.3094,169,542.3094,165,546.3094,161,542.3094,165,551.3094" style="stroke:#008000;stroke-width:1.0;"/><path d="M170,486.6094 L170,528.6094 L377,528.6094 L377,496.6094 L367,486.6094 L170,486.6094 " fill="#FEFFDD" style="stroke:#181818;stroke-width:0.5;"/><path d="M367,486.6094 L367,496.6094 L377,496.6094 L367,486.6094 " fill="#FEFFDD" style="stroke:#181818;stroke-width:0.5;"/><text fill="#000000" font-family="sans-serif" font-size="13" font-weight="bold" lengthAdjust="spacing" textLength="51" x="176" y="505.1045">Sistema</text><text fill="#000000" font-family="sans-serif" font-size="13" lengthAdjust="spacing" textLength="131" x="231" y="505.1045">registra los escenarios</text><text fill="#000000" font-family="sans-serif" font-size="13" lengthAdjust="spacing" textLength="109" x="176" y="521.4561">Gherkin generados</text></g><g id="ESCENARIOS_GHERKIN_ABIERTO"><rect fill="#F1F1F1" height="50" rx="12.5" ry="12.5" style="stroke:#181818;stroke-width:0.5;" width="244" x="7" y="680"/><line style="stroke:#181818;stroke-width:0.5;" x1="7" x2="251" y1="707.6094" y2="707.6094"/><text fill="#000000" font-family="sans-serif" font-size="14" lengthAdjust="spacing" textLength="224" x="17" y="699.5332">ESCENARIOS_GHERKIN_ABIERTO</text></g><g id="REQUISITOS_FUNCIONALES_ABIERTO"><rect fill="#F1F1F1" height="50" rx="12.5" ry="12.5" style="stroke:#181818;stroke-width:0.5;" width="274" x="286" y="680"/><line style="stroke:#181818;stroke-width:0.5;" x1="286" x2="560" y1="707.6094" y2="707.6094"/><text fill="#000000" font-family="sans-serif" font-size="14" lengthAdjust="spacing" textLength="254" x="296" y="699.5332">REQUISITOS_FUNCIONALES_ABIERTO</text></g><!--link generarEscenariosGherkin to ESCENARIOS_GHERKIN_ABIERTO--><g id="link_generarEscenariosGherkin_ESCENARIOS_GHERKIN_ABIERTO"><path d="M172.21,584.22 C157.99,623.65 147.6381,652.3568 139.8081,674.0368 " fill="none" id="generarEscenariosGherkin-to-ESCENARIOS_GHERKIN_ABIERTO" style="stroke:#008000;stroke-width:1.0;"/><polygon fill="#008000" points="137.77,679.68,144.5893,672.5739,139.4684,674.9773,137.065,669.8564,137.77,679.68" style="stroke:#008000;stroke-width:1.0;"/><path d="M166,619 L166,645 L318,645 L318,629 L308,619 L166,619 " fill="#FEFFDD" style="stroke:#181818;stroke-width:0.5;"/><path d="M308,619 L308,629 L318,629 L308,619 " fill="#FEFFDD" style="stroke:#181818;stroke-width:0.5;"/><text fill="#000000" font-family="sans-serif" font-size="13" lengthAdjust="spacing" textLength="131" x="172" y="637.4951">completarGeneracion()</text></g><!--link generarEscenariosGherkin to REQUISITOS_FUNCIONALES_ABIERTO--><g id="link_generarEscenariosGherkin_REQUISITOS_FUNCIONALES_ABIERTO"><path d="M379.79,584.22 C394.01,623.65 404.3619,652.3568 412.1919,674.0368 " fill="none" id="generarEscenariosGherkin-to-REQUISITOS_FUNCIONALES_ABIERTO" style="stroke:#FF0000;stroke-width:1.0;"/><polygon fill="#FF0000" points="414.23,679.68,414.935,669.8564,412.5316,674.9773,407.4107,672.5739,414.23,679.68" style="stroke:#FF0000;stroke-width:1.0;"/><path d="M406,619 L406,645 L551,645 L551,629 L541,619 L406,619 " fill="#FEFFDD" style="stroke:#181818;stroke-width:0.5;"/><path d="M541,619 L541,629 L551,629 L541,619 " fill="#FEFFDD" style="stroke:#181818;stroke-width:0.5;"/><text fill="#000000" font-family="sans-serif" font-size="13" lengthAdjust="spacing" textLength="124" x="412" y="637.4951">rechazarGeneracion()</text></g><!--SRC=[ZPDHRu8m4CVV-oakxaMNc7q1O-8CEh85Cz0dOvOJJcs4bhNmu9PzznsWSo1kbeU6zkv-__ktjNkfKZIOG2mLPOUK8DNneVWHmcQO4Mn9aK7Zs90K6gdjT4U6qm0jTAvjTdiT-1G2U5HLElnnWazXddA6YhIhDjea64gj9hag9eml4wObWCFFYBQgMscpPbWPjxnVGNzvjpL4QjKVtYH0QIwjLM79lbm82AoEPIWpFDa1z0E2OyzbAAcepA_e_z1gogvrUg5ci1u6t2ubE7XO3y4S6H2YPJ4HGMvr6NZWlVTSMfdn-kO49TiYj0NUiAtDuLlafKQ7P15Y17csuAYlCXDYfb6zRDF75dnD89_pZMvLbTgOfujTgOgQIhw4kFeMVajnWh7ZZNnt5hnDdnp_sVNUHe-kuyzdegOkr4aQKuQcCh-mfTiJvyR_WXcAocDnNXTkuCuPDLbuOtVcZLwSe1t7zsI77zTetm00]--></g></svg>