<?xml version="1.0" encoding="us-ascii" standalone="no"?><svg xmlns="http://www.w3.org/2000/svg" xmlns:xlink="http://www.w3.org/1999/xlink" contentStyleType="text/css" height="688px" preserveAspectRatio="none" style="width:578px;height:688px;background:#FFFFFF;" version="1.1" viewBox="0 0 578 688" width="578px" zoomAndPan="magnify"><defs/><g><path d="M138.5,7 L433.5,7 A12.5,12.5 0 0 1 446,19.5 L446,34.6094 L126,34.6094 L126,19.5 A12.5,12.5 0 0 1 138.5,7 " fill="#F1F1F1" style="stroke:#F1F1F1;stroke-width:1.0;"/><rect fill="none" height="528.6094" rx="12.5" ry="12.5" style="stroke:#181818;stroke-width:0.5;" width="320" x="126" y="7"/><line style="stroke:#181818;stroke-width:0.5;" x1="126" x2="446" y1="34.6094" y2="34.6094"/><text fill="#000000" font-family="sans-serif" font-size="14" lengthAdjust="spacing" textLength="183" x="194.5" y="26.5332">actualizarEscenarioGherkin()</text><g id="actualizarEscenarioGherkin.CargandoEscenario"><rect fill="#F1F1F1" height="50" rx="12.5" ry="12.5" style="stroke:#181818;stroke-width:0.5;" width="50" x="138" y="137.6094"/><line style="stroke:#181818;stroke-width:0.5;" x1="138" x2="188" y1="165.2188" y2="165.2188"/><text fill="#000000" font-family="sans-serif" font-size="14" lengthAdjust="spacing" textLength="4" x="161" y="157.1426">&#160;</text></g><g id="actualizarEscenarioGherkin.EditandoEscenario"><rect fill="#F1F1F1" height="50" rx="12.5" ry="12.5" style="stroke:#181818;stroke-width:0.5;" width="50" x="138" y="259.6094"/><line style="stroke:#181818;stroke-width:0.5;" x1="138" x2="188" y1="287.2188" y2="287.2188"/><text fill="#000000" font-family="sans-serif" font-size="14" lengthAdjust="spacing" textLength="4" x="161" y="279.1426">&#160;</text></g><g id="actualizarEscenarioGherkin.GuardandoCambios"><rect fill="#F1F1F1" height="50" rx="12.5" ry="12.5" style="stroke:#181818;stroke-width:0.5;" width="50" x="138" y="381.6094"/><line style="stroke:#181818;stroke-width:0.5;" x1="138" x2="188" y1="409.2188" y2="409.2188"/><text fill="#000000" font-family="sans-serif" font-size="14" lengthAdjust="spacing" textLength="4" x="161" y="401.1426">&#160;</text></g><ellipse cx="163" cy="55.6094" fill="#222222" rx="10" ry="10" style="stroke:#222222;stroke-width:1.0;"/><ellipse cx="163" cy="514.6094" fill="none" rx="11" ry="11" style="stroke:#222222;stroke-width:1.0;"/><ellipse cx="163" cy="514.6094" fill="#222222" rx="6" ry="6" style="stroke:#222222;stroke-width:1.0;"/><!--link *start*actualizarEscenarioGherkin to CargandoEscenario--><g id="link_*start*actualizarEscenarioGherkin_CargandoEscenario"><path d="M163,65.9294 C163,81.7894 163,108.5194 163,131.2494 " fill="none" id="*start*actualizarEscenarioGherkin-to-CargandoEscenario" style="stroke:#008000;stroke-width:1.0;"/><polygon fill="#008000" points="163,137.2494,167,128.2494,163,132.2494,159,128.2494,163,137.2494" style="stroke:#008000;stroke-width:1.0;"/><path d="M168,88.6094 L168,114.6094 L419,114.6094 L419,98.6094 L409,88.6094 L168,88.6094 " fill="#FEFFDD" style="stroke:#181818;stroke-width:0.5;"/><path d="M409,88.6094 L409,98.6094 L419,98.6094 L409,88.6094 " fill="#FEFFDD" style="stroke:#181818;stroke-width:0.5;"/><text fill="#000000" font-family="sans-serif" font-size="13" lengthAdjust="spacing" textLength="230" x="174" y="107.1045">Se carga la version actual del escenario</text></g><!--link CargandoEscenario to EditandoEscenario--><g id="link_CargandoEscenario_EditandoEscenario"><path d="M163,187.8894 C163,208.7094 163,232.5494 163,253.3594 " fill="none" id="CargandoEscenario-to-EditandoEscenario" style="stroke:#008000;stroke-width:1.0;"/><polygon fill="#008000" points="163,259.3594,167,250.3594,163,254.3594,159,250.3594,163,259.3594" style="stroke:#008000;stroke-width:1.0;"/><path d="M168,210.6094 L168,236.6094 L437,236.6094 L437,220.6094 L427,210.6094 L168,210.6094 " fill="#FEFFDD" style="stroke:#181818;stroke-width:0.5;"/><path d="M427,210.6094 L427,220.6094 L437,220.6094 L427,210.6094 " fill="#FEFFDD" style="stroke:#181818;stroke-width:0.5;"/><text fill="#000000" font-family="sans-serif" font-size="13" lengthAdjust="spacing" textLength="248" x="174" y="229.1045">El actor modifica titulo, pasos o metadatos</text></g><!--link EditandoEscenario to GuardandoCambios--><g id="link_EditandoEscenario_GuardandoCambios"><path d="M163,309.8894 C163,330.7094 163,354.5494 163,375.3594 " fill="none" id="EditandoEscenario-to-GuardandoCambios" style="stroke:#008000;stroke-width:1.0;"/><polygon fill="#008000" points="163,381.3594,167,372.3594,163,376.3594,159,372.3594,163,381.3594" style="stroke:#008000;stroke-width:1.0;"/><path d="M168,332.6094 L168,358.6094 L431,358.6094 L431,342.6094 L421,332.6094 L168,332.6094 " fill="#FEFFDD" style="stroke:#181818;stroke-width:0.5;"/><path d="M421,332.6094 L421,342.6094 L431,342.6094 L421,332.6094 " fill="#FEFFDD" style="stroke:#181818;stroke-width:0.5;"/><text fill="#000000" font-family="sans-serif" font-size="13" font-weight="bold" lengthAdjust="spacing" textLength="51" x="174" y="351.1045">Sistema</text><text fill="#000000" font-family="sans-serif" font-size="13" lengthAdjust="spacing" textLength="187" x="229" y="351.1045">valida y persiste la actualizacion</text></g><!--link GuardandoCambios to *end*actualizarEscenarioGherkin--><g id="link_GuardandoCambios_*end*actualizarEscenarioGherkin"><path d="M163,431.6594 C163,454.2594 163,480.9894 163,497.4094 " fill="none" id="GuardandoCambios-to-*end*actualizarEscenarioGherkin" style="stroke:#008000;stroke-width:1.0;"/><polygon fill="#008000" points="163,503.4094,167,494.4094,163,498.4094,159,494.4094,163,503.4094" style="stroke:#008000;stroke-width:1.0;"/><path d="M168,454.6094 L168,480.6094 L398,480.6094 L398,464.6094 L388,454.6094 L168,454.6094 " fill="#FEFFDD" style="stroke:#181818;stroke-width:0.5;"/><path d="M388,454.6094 L388,464.6094 L398,464.6094 L388,454.6094 " fill="#FEFFDD" style="stroke:#181818;stroke-width:0.5;"/><text fill="#000000" font-family="sans-serif" font-size="13" lengthAdjust="spacing" textLength="209" x="174" y="473.1045">El sistema confirma la actualizacion</text></g><g id="ESCENARIO_GHERKIN_ACTUALIZADO"><rect fill="#F1F1F1" height="50" rx="12.5" ry="12.5" style="stroke:#181818;stroke-width:0.5;" width="270" x="7" y="632"/><line style="stroke:#181818;stroke-width:0.5;" x1="7" x2="277" y1="659.6094" y2="659.6094"/><text fill="#000000" font-family="sans-serif" font-size="14" lengthAdjust="spacing" textLength="250" x="17" y="651.5332">ESCENARIO_GHERKIN_ACTUALIZADO</text></g><g id="ESCENARIO_GHERKIN_ABIERTO"><rect fill="#F1F1F1" height="50" rx="12.5" ry="12.5" style="stroke:#181818;stroke-width:0.5;" width="235" x="312.5" y="632"/><line style="stroke:#181818;stroke-width:0.5;" x1="312.5" x2="547.5" y1="659.6094" y2="659.6094"/><text fill="#000000" font-family="sans-serif" font-size="14" lengthAdjust="spacing" textLength="215" x="322.5" y="651.5332">ESCENARIO_GHERKIN_ABIERTO</text></g><!--link actualizarEscenarioGherkin to ESCENARIO_GHERKIN_ACTUALIZADO--><g id="link_actualizarEscenarioGherkin_ESCENARIO_GHERKIN_ACTUALIZADO"><path d="M186.97,536.24 C172.2,575.56 161.3182,604.5426 153.1482,626.3126 " fill="none" id="actualizarEscenarioGherkin-to-ESCENARIO_GHERKIN_ACTUALIZADO" style="stroke:#008000;stroke-width:1.0;"/><polygon fill="#008000" points="151.04,631.93,157.9472,624.9093,152.7968,627.2488,150.4573,622.0984,151.04,631.93" style="stroke:#008000;stroke-width:1.0;"/><path d="M179,571 L179,597 L343,597 L343,581 L333,571 L179,571 " fill="#FEFFDD" style="stroke:#181818;stroke-width:0.5;"/><path d="M333,571 L333,581 L343,581 L333,571 " fill="#FEFFDD" style="stroke:#181818;stroke-width:0.5;"/><text fill="#000000" font-family="sans-serif" font-size="13" lengthAdjust="spacing" textLength="143" x="185" y="589.4951">completarActualizacion()</text></g><!--link actualizarEscenarioGherkin to ESCENARIO_GHERKIN_ABIERTO--><g id="link_actualizarEscenarioGherkin_ESCENARIO_GHERKIN_ABIERTO"><path d="M385.03,536.24 C399.8,575.56 410.6818,604.5426 418.8518,626.3126 " fill="none" id="actualizarEscenarioGherkin-to-ESCENARIO_GHERKIN_ABIERTO" style="stroke:#FF0000;stroke-width:1.0;"/><polygon fill="#FF0000" points="420.96,631.93,421.5427,622.0984,419.2032,627.2488,414.0528,624.9093,420.96,631.93" style="stroke:#FF0000;stroke-width:1.0;"/><path d="M414,571 L414,597 L571,597 L571,581 L561,571 L414,571 " fill="#FEFFDD" style="stroke:#181818;stroke-width:0.5;"/><path d="M561,571 L561,581 L571,581 L561,571 " fill="#FEFFDD" style="stroke:#181818;stroke-width:0.5;"/><text fill="#000000" font-family="sans-serif" font-size="13" lengthAdjust="spacing" textLength="136" x="420" y="589.4951">rechazarActualizacion()</text></g><!--SRC=[XPBHQi8m58RlynG7TwDZiXSGeUkAAniAwcuc8iVagC4qAKaKTEpTbrfmgxNQNZNvp_d-_vowhTGvMin0IKt-a1FaHXsA3yQSHq-0tEzGoIFQn77IQAKPRCY6Ga07hURhTgS5tmp2KpPgXJTKn6ZNg8Kvo-kIH4X_HpBOeHM59iPiAOrZ9ydiSGxTsSFQ4kbvjz_0qYRqCRg8l3qTJ0XueGI5i2VhPBWiSu4W1LIf9YrE7KfYZL3XNmzIuoUgm1aBcH5o9Jc2btwdp1Faw8m30nbv5EX3phg56gHYeJQegmvwo_v4EayPzfwNVTY7ZGg40-J5DC9vCPdpfdcOpnKVbwIAZR2Pnkok90CtUYLjXdTWFupT-2Shuv_4oJ0QfwF5u2qPlwV3HHHFFwEFz2jw7R6A5MwoN8KXs-W_kDrXVnblGos91kHBceod5pXBV8F76xHV]--></g></svg>