<?xml version="1.0" encoding="us-ascii" standalone="no"?><svg xmlns="http://www.w3.org/2000/svg" xmlns:xlink="http://www.w3.org/1999/xlink" contentStyleType="text/css" height="598px" preserveAspectRatio="none" style="width:328px;height:598px;background:#FFFFFF;" version="1.1" viewBox="0 0 328 598" width="328px" zoomAndPan="magnify"><defs/><g><path d="M19.5,7 L243.5,7 A12.5,12.5 0 0 1 256,19.5 L256,34.6094 L7,34.6094 L7,19.5 A12.5,12.5 0 0 1 19.5,7 " fill="#F1F1F1" style="stroke:#F1F1F1;stroke-width:1.0;"/><rect fill="none" height="438.6094" rx="12.5" ry="12.5" style="stroke:#181818;stroke-width:0.5;" width="249" x="7" y="7"/><line style="stroke:#181818;stroke-width:0.5;" x1="7" x2="256" y1="34.6094" y2="34.6094"/><text fill="#000000" font-family="sans-serif" font-size="14" lengthAdjust="spacing" textLength="96" x="83.5" y="26.5332">listarBorrador()</text><g id="listarBorradores.RecuperandoBorradores"><rect fill="#F1F1F1" height="50" rx="12.5" ry="12.5" style="stroke:#181818;stroke-width:0.5;" width="50" x="19" y="137.6094"/><line style="stroke:#181818;stroke-width:0.5;" x1="19" x2="69" y1="165.2188" y2="165.2188"/><text fill="#000000" font-family="sans-serif" font-size="14" lengthAdjust="spacing" textLength="4" x="42" y="157.1426">&#160;</text></g><g id="listarBorradores.MostrandoBorradores"><rect fill="#F1F1F1" height="50" rx="12.5" ry="12.5" style="stroke:#181818;stroke-width:0.5;" width="50" x="19" y="275.6094"/><line style="stroke:#181818;stroke-width:0.5;" x1="19" x2="69" y1="303.2188" y2="303.2188"/><text fill="#000000" font-family="sans-serif" font-size="14" lengthAdjust="spacing" textLength="4" x="42" y="295.1426">&#160;</text></g><ellipse cx="44" cy="55.6094" fill="#222222" rx="10" ry="10" style="stroke:#222222;stroke-width:1.0;"/><ellipse cx="44" cy="424.6094" fill="none" rx="11" ry="11" style="stroke:#222222;stroke-width:1.0;"/><ellipse cx="44" cy="424.6094" fill="#222222" rx="6" ry="6" style="stroke:#222222;stroke-width:1.0;"/><!--link *start*listarBorradores to RecuperandoBorradores--><g id="link_*start*listarBorradores_RecuperandoBorradores"><path d="M44,65.9294 C44,81.7894 44,108.5194 44,131.2494 " fill="none" id="*start*listarBorradores-to-RecuperandoBorradores" style="stroke:#008000;stroke-width:1.0;"/><polygon fill="#008000" points="44,137.2494,48,128.2494,44,132.2494,40,128.2494,44,137.2494" style="stroke:#008000;stroke-width:1.0;"/><path d="M49,88.6094 L49,114.6094 L218,114.6094 L218,98.6094 L208,88.6094 L49,88.6094 " fill="#FEFFDD" style="stroke:#181818;stroke-width:0.5;"/><path d="M208,88.6094 L208,98.6094 L218,98.6094 L208,88.6094 " fill="#FEFFDD" style="stroke:#181818;stroke-width:0.5;"/><text fill="#000000" font-family="sans-serif" font-size="13" lengthAdjust="spacing" textLength="144" x="55" y="107.1045">Se solicita listar borrador</text></g><!--link RecuperandoBorradores to MostrandoBorradores--><g id="link_RecuperandoBorradores_MostrandoBorradores"><path d="M44,187.6094 C44,212.3194 44,244.6094 44,269.3894 " fill="none" id="RecuperandoBorradores-to-MostrandoBorradores" style="stroke:#008000;stroke-width:1.0;"/><polygon fill="#008000" points="44,275.3894,48,266.3894,44,270.3894,40,266.3894,44,275.3894" style="stroke:#008000;stroke-width:1.0;"/><path d="M49,210.6094 L49,252.6094 L247,252.6094 L247,220.6094 L237,210.6094 L49,210.6094 " fill="#FEFFDD" style="stroke:#181818;stroke-width:0.5;"/><path d="M237,210.6094 L237,220.6094 L247,220.6094 L237,210.6094 " fill="#FEFFDD" style="stroke:#181818;stroke-width:0.5;"/><text fill="#000000" font-family="sans-serif" font-size="13" font-weight="bold" lengthAdjust="spacing" textLength="51" x="55" y="229.1045">Sistema</text><text fill="#000000" font-family="sans-serif" font-size="13" lengthAdjust="spacing" textLength="122" x="110" y="229.1045">recupera los borrador</text><text fill="#000000" font-family="sans-serif" font-size="13" lengthAdjust="spacing" textLength="129" x="55" y="245.4561">pendiente o disponible</text></g><!--link MostrandoBorradores to *end*listarBorradores--><g id="link_MostrandoBorradores_*end*listarBorradores"><path d="M44,325.7094 C44,352.3794 44,388.1094 44,407.3094 " fill="none" id="MostrandoBorradores-to-*end*listarBorradores" style="stroke:#008000;stroke-width:1.0;"/><polygon fill="#008000" points="44,413.3094,48,404.3094,44,408.3094,40,404.3094,44,413.3094" style="stroke:#008000;stroke-width:1.0;"/><path d="M49,348.6094 L49,390.6094 L214,390.6094 L214,358.6094 L204,348.6094 L49,348.6094 " fill="#FEFFDD" style="stroke:#181818;stroke-width:0.5;"/><path d="M204,348.6094 L204,358.6094 L214,358.6094 L204,348.6094 " fill="#FEFFDD" style="stroke:#181818;stroke-width:0.5;"/><text fill="#000000" font-family="sans-serif" font-size="13" font-weight="bold" lengthAdjust="spacing" textLength="51" x="55" y="367.1045">Sistema</text><text fill="#000000" font-family="sans-serif" font-size="13" lengthAdjust="spacing" textLength="89" x="110" y="367.1045">muestra la lista</text><text fill="#000000" font-family="sans-serif" font-size="13" lengthAdjust="spacing" textLength="4" x="55" y="383.4561">&#160;</text></g><g id="BORRADORES_ABIERTO"><rect fill="#F1F1F1" height="50" rx="12.5" ry="12.5" style="stroke:#181818;stroke-width:0.5;" width="186" x="38.5" y="542"/><line style="stroke:#181818;stroke-width:0.5;" x1="38.5" x2="224.5" y1="569.6094" y2="569.6094"/><text fill="#000000" font-family="sans-serif" font-size="14" lengthAdjust="spacing" textLength="166" x="48.5" y="561.5332">BORRADORES_ABIERTO</text></g><!--link listarBorradores to BORRADORES_ABIERTO--><g id="link_listarBorradores_BORRADORES_ABIERTO"><path d="M47.08,446.03 C40.01,464.32 35.5,476 35.5,476 C35.5,476 35.5,512 35.5,512 C35.5,512 57.7599,524.5296 83.3199,538.8996 " fill="none" id="listarBorradores-to-BORRADORES_ABIERTO" style="stroke:#008000;stroke-width:1.0;"/><polygon fill="#008000" points="88.55,541.84,82.6651,533.9427,84.1916,539.3897,78.7446,540.9161,88.55,541.84" style="stroke:#008000;stroke-width:1.0;"/><path d="M40.5,481 L40.5,507 L177.5,507 L177.5,491 L167.5,481 L40.5,481 " fill="#FEFFDD" style="stroke:#181818;stroke-width:0.5;"/><path d="M167.5,481 L167.5,491 L177.5,491 L167.5,481 " fill="#FEFFDD" style="stroke:#181818;stroke-width:0.5;"/><text fill="#000000" font-family="sans-serif" font-size="13" lengthAdjust="spacing" textLength="116" x="46.5" y="499.4951">completarConsulta()</text></g><!--link listarBorradores to BORRADORES_ABIERTO--><g id="link_listarBorradores_BORRADORES_ABIERTO"><path d="M179.87,446.03 C183.91,464.32 186.5,476 186.5,476 C186.5,476 186.5,512 186.5,512 C186.5,512 175.0334,523.2685 160.3834,537.6385 " fill="none" id="listarBorradores-to-BORRADORES_ABIERTO-1" style="stroke:#FF0000;stroke-width:1.0;"/><polygon fill="#FF0000" points="156.1,541.84,165.3261,538.3933,159.6695,538.3387,159.7241,532.6822,156.1,541.84" style="stroke:#FF0000;stroke-width:1.0;"/><path d="M191.5,481 L191.5,507 L321.5,507 L321.5,491 L311.5,481 L191.5,481 " fill="#FEFFDD" style="stroke:#181818;stroke-width:0.5;"/><path d="M311.5,481 L311.5,491 L321.5,491 L311.5,481 " fill="#FEFFDD" style="stroke:#181818;stroke-width:0.5;"/><text fill="#000000" font-family="sans-serif" font-size="13" lengthAdjust="spacing" textLength="109" x="197.5" y="499.4951">rechazarConsulta()</text></g><!--SRC=[ZL6zQiCm4Dxr58Ux98NG5mY6kCtGeHZiRY4KsJuQ4Lad97b8Iz-zPySqLIDAf47ezFtToH-LiTB97hGo64uMmP8-ZHSXV901-O5FLv1piYE77gI7B2ukbXby2W6ypfoCDyCgR0UBJfgEBlnhs0lvy1SqeNRtUrZjxjuTejclyd_q3B4ScR6BurIe4JnfrQeWvmwWcIam0T1q4-lib5IEl5CXayxh9g_P47kvVcXoSBCoQF8_4IQWvGWApKY7JdbBHZKQ4-4Irb4q7jDDKVe1Ho7GyqWO4xjz2N7rsx-DYhAgDazbjQtVDiNpjdejHUJPKcyrCl-HZ1zqa8kbkBIIadROtIBCGpp8ZxJkDm00]--></g></svg>