<?xml version="1.0" encoding="us-ascii" standalone="no"?><svg xmlns="http://www.w3.org/2000/svg" xmlns:xlink="http://www.w3.org/1999/xlink" contentStyleType="text/css" height="769px" preserveAspectRatio="none" style="width:562px;height:769px;background:#FFFFFF;" version="1.1" viewBox="0 0 562 769" width="562px" zoomAndPan="magnify"><defs/><g><path d="M19.5,7 L536.5,7 A12.5,12.5 0 0 1 549,19.5 L549,34.6094 L7,34.6094 L7,19.5 A12.5,12.5 0 0 1 19.5,7 " fill="#F1F1F1" style="stroke:#F1F1F1;stroke-width:1.0;"/><rect fill="none" height="609.6094" rx="12.5" ry="12.5" style="stroke:#181818;stroke-width:0.5;" width="542" x="7" y="7"/><line style="stroke:#181818;stroke-width:0.5;" x1="7" x2="549" y1="34.6094" y2="34.6094"/><text fill="#000000" font-family="sans-serif" font-size="14" lengthAdjust="spacing" textLength="298" x="129" y="26.5332">consultarReferenciasDocumentacionProyecto()</text><g id="consultarReferenciasDocumentacionProyecto.SolicitandoProyecto"><rect fill="#F1F1F1" height="50" rx="12.5" ry="12.5" style="stroke:#181818;stroke-width:0.5;" width="50" x="19" y="153.6094"/><line style="stroke:#181818;stroke-width:0.5;" x1="19" x2="69" y1="181.2188" y2="181.2188"/><text fill="#000000" font-family="sans-serif" font-size="14" lengthAdjust="spacing" textLength="4" x="42" y="173.1426">&#160;</text></g><g id="consultarReferenciasDocumentacionProyecto.RecuperandoReferencias"><rect fill="#F1F1F1" height="50" rx="12.5" ry="12.5" style="stroke:#181818;stroke-width:0.5;" width="50" x="19" y="291.6094"/><line style="stroke:#181818;stroke-width:0.5;" x1="19" x2="69" y1="319.2188" y2="319.2188"/><text fill="#000000" font-family="sans-serif" font-size="14" lengthAdjust="spacing" textLength="4" x="42" y="311.1426">&#160;</text></g><g id="consultarReferenciasDocumentacionProyecto.MostrandoReferencias"><rect fill="#F1F1F1" height="50" rx="12.5" ry="12.5" style="stroke:#181818;stroke-width:0.5;" width="50" x="19" y="446.6094"/><line style="stroke:#181818;stroke-width:0.5;" x1="19" x2="69" y1="474.2188" y2="474.2188"/><text fill="#000000" font-family="sans-serif" font-size="14" lengthAdjust="spacing" textLength="4" x="42" y="466.1426">&#160;</text></g><ellipse cx="44" cy="55.6094" fill="#222222" rx="10" ry="10" style="stroke:#222222;stroke-width:1.0;"/><ellipse cx="44" cy="595.6094" fill="none" rx="11" ry="11" style="stroke:#222222;stroke-width:1.0;"/><ellipse cx="44" cy="595.6094" fill="#222222" rx="6" ry="6" style="stroke:#222222;stroke-width:1.0;"/><!--link *start*consultarReferenciasDocumentacionProyecto to SolicitandoProyecto--><g id="link_*start*consultarReferenciasDocumentacionProyecto_SolicitandoProyecto"><path d="M44,65.6994 C44,84.1694 44,120.5894 44,147.5794 " fill="none" id="*start*consultarReferenciasDocumentacionProyecto-to-SolicitandoProyecto" style="stroke:#008000;stroke-width:1.0;"/><polygon fill="#008000" points="44,153.5794,48,144.5794,44,148.5794,40,144.5794,44,153.5794" style="stroke:#008000;stroke-width:1.0;"/><path d="M49,88.6094 L49,130.6094 L255,130.6094 L255,98.6094 L245,88.6094 L49,88.6094 " fill="#FEFFDD" style="stroke:#181818;stroke-width:0.5;"/><path d="M245,88.6094 L245,98.6094 L255,98.6094 L245,88.6094 " fill="#FEFFDD" style="stroke:#181818;stroke-width:0.5;"/><text fill="#000000" font-family="sans-serif" font-size="13" lengthAdjust="spacing" textLength="185" x="55" y="107.1045">Se solicita consultar referencias</text><text fill="#000000" font-family="sans-serif" font-size="13" lengthAdjust="spacing" textLength="178" x="55" y="123.4561">de documentacion de proyecto</text></g><!--link SolicitandoProyecto to RecuperandoReferencias--><g id="link_SolicitandoProyecto_RecuperandoReferencias"><path d="M44,203.6094 C44,228.3194 44,260.6094 44,285.3894 " fill="none" id="SolicitandoProyecto-to-RecuperandoReferencias" style="stroke:#008000;stroke-width:1.0;"/><polygon fill="#008000" points="44,291.3894,48,282.3894,44,286.3894,40,282.3894,44,291.3894" style="stroke:#008000;stroke-width:1.0;"/><path d="M49,226.6094 L49,268.6094 L296,268.6094 L296,236.6094 L286,226.6094 L49,226.6094 " fill="#FEFFDD" style="stroke:#181818;stroke-width:0.5;"/><path d="M286,226.6094 L286,236.6094 L296,236.6094 L286,226.6094 " fill="#FEFFDD" style="stroke:#181818;stroke-width:0.5;"/><text fill="#000000" font-family="sans-serif" font-size="13" font-weight="bold" lengthAdjust="spacing" textLength="51" x="55" y="245.1045">Sistema</text><text fill="#000000" font-family="sans-serif" font-size="13" lengthAdjust="spacing" textLength="171" x="110" y="245.1045">recibe el nombre del proyecto</text><text fill="#000000" font-family="sans-serif" font-size="13" lengthAdjust="spacing" textLength="212" x="55" y="261.4561">y recupera las referencias asociadas</text></g><!--link RecuperandoReferencias to MostrandoReferencias--><g id="link_RecuperandoReferencias_MostrandoReferencias"><path d="M44,341.8494 C44,370.4994 44,411.8794 44,440.4794 " fill="none" id="RecuperandoReferencias-to-MostrandoReferencias" style="stroke:#008000;stroke-width:1.0;"/><polygon fill="#008000" points="44,446.4794,48,437.4794,44,441.4794,40,437.4794,44,446.4794" style="stroke:#008000;stroke-width:1.0;"/><path d="M49,364.6094 L49,423.6094 L540,423.6094 L540,374.6094 L530,364.6094 L49,364.6094 " fill="#FEFFDD" style="stroke:#181818;stroke-width:0.5;"/><path d="M530,364.6094 L530,374.6094 L540,374.6094 L530,364.6094 " fill="#FEFFDD" style="stroke:#181818;stroke-width:0.5;"/><text fill="#000000" font-family="sans-serif" font-size="13" lengthAdjust="spacing" textLength="147" x="55" y="383.1045">Se prepara la informacion</text><text fill="#000000" font-family="sans-serif" font-size="13" lengthAdjust="spacing" textLength="120" x="55" y="399.4561">para su visualizacion</text><text fill="#000000" font-family="sans-serif" font-size="13" lengthAdjust="spacing" textLength="470" x="55" y="415.8076">Identificador de documentacion/ Tipo de entrada / Referencia u origen documental</text></g><!--link MostrandoReferencias to *end*consultarReferenciasDocumentacionProyecto--><g id="link_MostrandoReferencias_*end*consultarReferenciasDocumentacionProyecto"><path d="M44,496.7094 C44,523.3794 44,559.1094 44,578.3094 " fill="none" id="MostrandoReferencias-to-*end*consultarReferenciasDocumentacionProyecto" style="stroke:#008000;stroke-width:1.0;"/><polygon fill="#008000" points="44,584.3094,48,575.3094,44,579.3094,40,575.3094,44,584.3094" style="stroke:#008000;stroke-width:1.0;"/><path d="M49,519.6094 L49,561.6094 L260,561.6094 L260,529.6094 L250,519.6094 L49,519.6094 " fill="#FEFFDD" style="stroke:#181818;stroke-width:0.5;"/><path d="M250,519.6094 L250,529.6094 L260,529.6094 L250,519.6094 " fill="#FEFFDD" style="stroke:#181818;stroke-width:0.5;"/><text fill="#000000" font-family="sans-serif" font-size="13" font-weight="bold" lengthAdjust="spacing" textLength="51" x="55" y="538.1045">Sistema</text><text fill="#000000" font-family="sans-serif" font-size="13" lengthAdjust="spacing" textLength="135" x="110" y="538.1045">muestra las referencias</text><text fill="#000000" font-family="sans-serif" font-size="13" lengthAdjust="spacing" textLength="181" x="55" y="554.4561">de documentacion del proyecto</text></g><g id="DOCUMENTACION_ABIERTA"><rect fill="#F1F1F1" height="50" rx="12.5" ry="12.5" style="stroke:#181818;stroke-width:0.5;" width="206" x="175" y="713"/><line style="stroke:#181818;stroke-width:0.5;" x1="175" x2="381" y1="740.6094" y2="740.6094"/><text fill="#000000" font-family="sans-serif" font-size="14" lengthAdjust="spacing" textLength="186" x="185" y="732.5332">DOCUMENTACION_ABIERTA</text></g><!--link consultarReferenciasDocumentacionProyecto to DOCUMENTACION_ABIERTA--><g id="link_consultarReferenciasDocumentacionProyecto_DOCUMENTACION_ABIERTA"><path d="M190.6,617.07 C185.27,635.62 182,647 182,647 C182,647 182,683 182,683 C182,683 204.2599,695.5296 229.8199,709.8996 " fill="none" id="consultarReferenciasDocumentacionProyecto-to-DOCUMENTACION_ABIERTA" style="stroke:#008000;stroke-width:1.0;"/><polygon fill="#008000" points="235.05,712.84,229.1651,704.9427,230.6916,710.3897,225.2446,711.9161,235.05,712.84" style="stroke:#008000;stroke-width:1.0;"/><path d="M187,652 L187,678 L324,678 L324,662 L314,652 L187,652 " fill="#FEFFDD" style="stroke:#181818;stroke-width:0.5;"/><path d="M314,652 L314,662 L324,662 L314,652 " fill="#FEFFDD" style="stroke:#181818;stroke-width:0.5;"/><text fill="#000000" font-family="sans-serif" font-size="13" lengthAdjust="spacing" textLength="116" x="193" y="670.4951">completarConsulta()</text></g><!--link consultarReferenciasDocumentacionProyecto to DOCUMENTACION_ABIERTA--><g id="link_consultarReferenciasDocumentacionProyecto_DOCUMENTACION_ABIERTA"><path d="M328.07,617.07 C331.13,635.62 333,647 333,647 C333,647 333,683 333,683 C333,683 321.5334,694.2685 306.8834,708.6385 " fill="none" id="consultarReferenciasDocumentacionProyecto-to-DOCUMENTACION_ABIERTA-1" style="stroke:#FF0000;stroke-width:1.0;"/><polygon fill="#FF0000" points="302.6,712.84,311.8261,709.3933,306.1695,709.3387,306.2241,703.6822,302.6,712.84" style="stroke:#FF0000;stroke-width:1.0;"/><path d="M338,652 L338,678 L468,678 L468,662 L458,652 L338,652 " fill="#FEFFDD" style="stroke:#181818;stroke-width:0.5;"/><path d="M458,652 L458,662 L468,662 L458,652 " fill="#FEFFDD" style="stroke:#181818;stroke-width:0.5;"/><text fill="#000000" font-family="sans-serif" font-size="13" lengthAdjust="spacing" textLength="109" x="344" y="670.4951">rechazarConsulta()</text></g><!--SRC=[bLFDRe904Bxp51DxqIR65p0cLZruK1kr9sEQPHdjncM7x2vDjEcxTq0RGB2XS026p- -FqPsKIOGLCMXbq9yJX8JqENi80kU5Hv1aNAgzi6iye4KZbN1JaccCnWkfoBnQEgFq1C91fpMws-l0Ln007rUT3f_Ci26jfFB2HFGBhOFMADC4RGOgwTHn2tA-XifXk-Szz7TFHujezltHGrb3p4Ocg-UK3pO8xeOjgW5xvo92YCgfiq5IvaKJvTnNDmtg5NT_vAqP78QZZN8UOp4SX2Ds9bM8W9gHSMZP5zzMh9mpJ4uFcZihHU4AYQ_HJQhgkTbJnNPZ_OzQJInccyWUG9a3sJWlBd-RprqAdygbGgjByMOUSSFgeAI8oDPQ7y1M9PIDUM8v1moWi08fa5L7DCMFT4FEfX2LbBnAhRv4d6B6T5_oettH3nRcEmZQ_oNBFgUhoTjYjjoE9_FLydtyCf-jj-EWubfId6XauibDeTiBYZR-9MinQYdAs_SXBisQFm00]--></g></svg>