<?xml version="1.0" encoding="us-ascii" standalone="no"?><svg xmlns="http://www.w3.org/2000/svg" xmlns:xlink="http://www.w3.org/1999/xlink" contentStyleType="text/css" height="736px" preserveAspectRatio="none" style="width:445px;height:736px;background:#FFFFFF;" version="1.1" viewBox="0 0 445 736" width="445px" zoomAndPan="magnify"><defs/><g><path d="M60,7 L372,7 A12.5,12.5 0 0 1 384.5,19.5 L384.5,34.6094 L47.5,34.6094 L47.5,19.5 A12.5,12.5 0 0 1 60,7 " fill="#F1F1F1" style="stroke:#F1F1F1;stroke-width:1.0;"/><rect fill="none" height="576.6094" rx="12.5" ry="12.5" style="stroke:#181818;stroke-width:0.5;" width="337" x="47.5" y="7"/><line style="stroke:#181818;stroke-width:0.5;" x1="47.5" x2="384.5" y1="34.6094" y2="34.6094"/><text fill="#000000" font-family="sans-serif" font-size="14" lengthAdjust="spacing" textLength="229" x="101.5" y="26.5332">introducirDocumentacionFuncional()</text><g id="introducirDocumentacionFuncional.RecibiendoDocumentacion"><rect fill="#F1F1F1" height="50" rx="12.5" ry="12.5" style="stroke:#181818;stroke-width:0.5;" width="50" x="59.5" y="137.6094"/><line style="stroke:#181818;stroke-width:0.5;" x1="59.5" x2="109.5" y1="165.2188" y2="165.2188"/><text fill="#000000" font-family="sans-serif" font-size="14" lengthAdjust="spacing" textLength="4" x="82.5" y="157.1426">&#160;</text></g><g id="introducirDocumentacionFuncional.ValidandoDocumentacion"><rect fill="#F1F1F1" height="50" rx="12.5" ry="12.5" style="stroke:#181818;stroke-width:0.5;" width="50" x="59.5" y="275.6094"/><line style="stroke:#181818;stroke-width:0.5;" x1="59.5" x2="109.5" y1="303.2188" y2="303.2188"/><text fill="#000000" font-family="sans-serif" font-size="14" lengthAdjust="spacing" textLength="4" x="82.5" y="295.1426">&#160;</text></g><g id="introducirDocumentacionFuncional.RegistrandoDocumentacion"><rect fill="#F1F1F1" height="50" rx="12.5" ry="12.5" style="stroke:#181818;stroke-width:0.5;" width="50" x="59.5" y="413.6094"/><line style="stroke:#181818;stroke-width:0.5;" x1="59.5" x2="109.5" y1="441.2188" y2="441.2188"/><text fill="#000000" font-family="sans-serif" font-size="14" lengthAdjust="spacing" textLength="4" x="82.5" y="433.1426">&#160;</text></g><ellipse cx="84.5" cy="55.6094" fill="#222222" rx="10" ry="10" style="stroke:#222222;stroke-width:1.0;"/><ellipse cx="84.5" cy="562.6094" fill="none" rx="11" ry="11" style="stroke:#222222;stroke-width:1.0;"/><ellipse cx="84.5" cy="562.6094" fill="#222222" rx="6" ry="6" style="stroke:#222222;stroke-width:1.0;"/><!--link *start*introducirDocumentacionFuncional to RecibiendoDocumentacion--><g id="link_*start*introducirDocumentacionFuncional_RecibiendoDocumentacion"><path d="M84.5,65.9294 C84.5,81.7894 84.5,108.5194 84.5,131.2494 " fill="none" id="*start*introducirDocumentacionFuncional-to-RecibiendoDocumentacion" style="stroke:#008000;stroke-width:1.0;"/><polygon fill="#008000" points="84.5,137.2494,88.5,128.2494,84.5,132.2494,80.5,128.2494,84.5,137.2494" style="stroke:#008000;stroke-width:1.0;"/><path d="M89.5,88.6094 L89.5,114.6094 L375.5,114.6094 L375.5,98.6094 L365.5,88.6094 L89.5,88.6094 " fill="#FEFFDD" style="stroke:#181818;stroke-width:0.5;"/><path d="M365.5,88.6094 L365.5,98.6094 L375.5,98.6094 L365.5,88.6094 " fill="#FEFFDD" style="stroke:#181818;stroke-width:0.5;"/><text fill="#000000" font-family="sans-serif" font-size="13" lengthAdjust="spacing" textLength="265" x="95.5" y="107.1045">Se solicita introducir documentacion funcional</text></g><!--link RecibiendoDocumentacion to ValidandoDocumentacion--><g id="link_RecibiendoDocumentacion_ValidandoDocumentacion"><path d="M84.5,187.6094 C84.5,212.3194 84.5,244.6094 84.5,269.3894 " fill="none" id="RecibiendoDocumentacion-to-ValidandoDocumentacion" style="stroke:#008000;stroke-width:1.0;"/><polygon fill="#008000" points="84.5,275.3894,88.5,266.3894,84.5,270.3894,80.5,266.3894,84.5,275.3894" style="stroke:#008000;stroke-width:1.0;"/><path d="M89.5,210.6094 L89.5,252.6094 L306.5,252.6094 L306.5,220.6094 L296.5,210.6094 L89.5,210.6094 " fill="#FEFFDD" style="stroke:#181818;stroke-width:0.5;"/><path d="M296.5,210.6094 L296.5,220.6094 L306.5,220.6094 L296.5,210.6094 " fill="#FEFFDD" style="stroke:#181818;stroke-width:0.5;"/><text fill="#000000" font-family="sans-serif" font-size="13" font-weight="bold" lengthAdjust="spacing" textLength="51" x="95.5" y="229.1045">Sistema</text><text fill="#000000" font-family="sans-serif" font-size="13" lengthAdjust="spacing" textLength="141" x="150.5" y="229.1045">recibe la documentacion</text><text fill="#000000" font-family="sans-serif" font-size="13" lengthAdjust="spacing" textLength="121" x="95.5" y="245.4561">y valida su contenido</text></g><!--link ValidandoDocumentacion to RegistrandoDocumentacion--><g id="link_ValidandoDocumentacion_RegistrandoDocumentacion"><path d="M84.5,325.6094 C84.5,350.3194 84.5,382.6094 84.5,407.3894 " fill="none" id="ValidandoDocumentacion-to-RegistrandoDocumentacion" style="stroke:#008000;stroke-width:1.0;"/><polygon fill="#008000" points="84.5,413.3894,88.5,404.3894,84.5,408.3894,80.5,404.3894,84.5,413.3894" style="stroke:#008000;stroke-width:1.0;"/><path d="M89.5,348.6094 L89.5,390.6094 L269.5,390.6094 L269.5,358.6094 L259.5,348.6094 L89.5,348.6094 " fill="#FEFFDD" style="stroke:#181818;stroke-width:0.5;"/><path d="M259.5,348.6094 L259.5,358.6094 L269.5,358.6094 L259.5,348.6094 " fill="#FEFFDD" style="stroke:#181818;stroke-width:0.5;"/><text fill="#000000" font-family="sans-serif" font-size="13" font-weight="bold" lengthAdjust="spacing" textLength="51" x="95.5" y="367.1045">Sistema</text><text fill="#000000" font-family="sans-serif" font-size="13" lengthAdjust="spacing" textLength="104" x="150.5" y="367.1045">prepara el registro</text><text fill="#000000" font-family="sans-serif" font-size="13" lengthAdjust="spacing" textLength="120" x="95.5" y="383.4561">de la documentacion</text></g><!--link RegistrandoDocumentacion to *end*introducirDocumentacionFuncional--><g id="link_RegistrandoDocumentacion_*end*introducirDocumentacionFuncional"><path d="M84.5,463.7094 C84.5,490.3794 84.5,526.1094 84.5,545.3094 " fill="none" id="RegistrandoDocumentacion-to-*end*introducirDocumentacionFuncional" style="stroke:#008000;stroke-width:1.0;"/><polygon fill="#008000" points="84.5,551.3094,88.5,542.3094,84.5,546.3094,80.5,542.3094,84.5,551.3094" style="stroke:#008000;stroke-width:1.0;"/><path d="M89.5,486.6094 L89.5,528.6094 L339.5,528.6094 L339.5,496.6094 L329.5,486.6094 L89.5,486.6094 " fill="#FEFFDD" style="stroke:#181818;stroke-width:0.5;"/><path d="M329.5,486.6094 L329.5,496.6094 L339.5,496.6094 L329.5,486.6094 " fill="#FEFFDD" style="stroke:#181818;stroke-width:0.5;"/><text fill="#000000" font-family="sans-serif" font-size="13" font-weight="bold" lengthAdjust="spacing" textLength="51" x="95.5" y="505.1045">Sistema</text><text fill="#000000" font-family="sans-serif" font-size="13" lengthAdjust="spacing" textLength="149" x="150.5" y="505.1045">registra la documentacion</text><text fill="#000000" font-family="sans-serif" font-size="13" lengthAdjust="spacing" textLength="229" x="95.5" y="521.4561">y la deja disponible para procesamiento</text></g><g id="DOCUMENTACION_ABIERTA"><rect fill="#F1F1F1" height="50" rx="12.5" ry="12.5" style="stroke:#181818;stroke-width:0.5;" width="206" x="7" y="680"/><line style="stroke:#181818;stroke-width:0.5;" x1="7" x2="213" y1="707.6094" y2="707.6094"/><text fill="#000000" font-family="sans-serif" font-size="14" lengthAdjust="spacing" textLength="186" x="17" y="699.5332">DOCUMENTACION_ABIERTA</text></g><g id="SISTEMA_ABIERTO"><rect fill="#F1F1F1" height="50" rx="12.5" ry="12.5" style="stroke:#181818;stroke-width:0.5;" width="147" x="248.5" y="680"/><line style="stroke:#181818;stroke-width:0.5;" x1="248.5" x2="395.5" y1="707.6094" y2="707.6094"/><text fill="#000000" font-family="sans-serif" font-size="14" lengthAdjust="spacing" textLength="127" x="258.5" y="699.5332">SISTEMA_ABIERTO</text></g><!--link introducirDocumentacionFuncional to DOCUMENTACION_ABIERTA--><g id="link_introducirDocumentacionFuncional_DOCUMENTACION_ABIERTA"><path d="M141.16,584.22 C130.9,623.65 123.4806,652.1933 117.8406,673.8733 " fill="none" id="introducirDocumentacionFuncional-to-DOCUMENTACION_ABIERTA" style="stroke:#008000;stroke-width:1.0;"/><polygon fill="#008000" points="116.33,679.68,122.4671,671.977,117.5888,674.8411,114.7248,669.9628,116.33,679.68" style="stroke:#008000;stroke-width:1.0;"/><path d="M138,619 L138,645 L272,645 L272,629 L262,619 L138,619 " fill="#FEFFDD" style="stroke:#181818;stroke-width:0.5;"/><path d="M262,619 L262,629 L272,629 L262,619 " fill="#FEFFDD" style="stroke:#181818;stroke-width:0.5;"/><text fill="#000000" font-family="sans-serif" font-size="13" lengthAdjust="spacing" textLength="113" x="144" y="637.4951">completarRegistro()</text></g><!--link introducirDocumentacionFuncional to SISTEMA_ABIERTO--><g id="link_introducirDocumentacionFuncional_SISTEMA_ABIERTO"><path d="M290.84,584.22 C301.1,623.65 308.5194,652.1933 314.1594,673.8733 " fill="none" id="introducirDocumentacionFuncional-to-SISTEMA_ABIERTO" style="stroke:#FF0000;stroke-width:1.0;"/><polygon fill="#FF0000" points="315.67,679.68,317.2752,669.9628,314.4112,674.8411,309.5329,671.977,315.67,679.68" style="stroke:#FF0000;stroke-width:1.0;"/><path d="M311,619 L311,645 L438,645 L438,629 L428,619 L311,619 " fill="#FEFFDD" style="stroke:#181818;stroke-width:0.5;"/><path d="M428,619 L428,629 L438,629 L428,619 " fill="#FEFFDD" style="stroke:#181818;stroke-width:0.5;"/><text fill="#000000" font-family="sans-serif" font-size="13" lengthAdjust="spacing" textLength="106" x="317" y="637.4951">rechazarRegistro()</text></g><!--SRC=[ZPFHQi8m58RlynG7TwC3sGk8qAa3BrImRZSY8qtFN6QQX2GTkB5tNv8wPhLLMsXfEEV_l_EdiJikDJMq0C4bkhr6q4himmSXrb67mAKpAYyPDsF5oWAbeumh-LJAyA82g8NEjQ9khmFVX82_AjMElttZ4XdFECfSrVhE2r-eu3czNhV4BRVEd5V6qlNz1lhhkwr1b9l-yAAzL5vLoH3CBYwa25O9phYZHw50Vjm9RtyJnnQl77KgznQt6j65ES-01jamzSDYGGSFsH1Ca4SGj8uKI_Vm6ON1bi2KT2XvhXeGc-rFCcj9-1P6RJ3yRe32uqQTYY9luJuDiDcwnkVt-CQuAh6smC8oVlW7jrf9dWb_D0AwDegXfONVI7SIuGyXLq_BCUfuCNgUJUQhP3HTp5-Jn-bakKf83PofGWjqr1ncLzqU-G_b5ZU3UV1Af-bgCaiEBekwY_zrtkbNiyal]--></g></svg>