<?xml version="1.0" encoding="us-ascii" standalone="no"?><svg xmlns="http://www.w3.org/2000/svg" xmlns:xlink="http://www.w3.org/1999/xlink" contentStyleType="text/css" height="598px" preserveAspectRatio="none" style="width:344px;height:598px;background:#FFFFFF;" version="1.1" viewBox="0 0 344 598" width="344px" zoomAndPan="magnify"><defs/><g><path d="M19.5,7 L274.5,7 A12.5,12.5 0 0 1 287,19.5 L287,34.6094 L7,34.6094 L7,19.5 A12.5,12.5 0 0 1 19.5,7 " fill="#F1F1F1" style="stroke:#F1F1F1;stroke-width:1.0;"/><rect fill="none" height="438.6094" rx="12.5" ry="12.5" style="stroke:#181818;stroke-width:0.5;" width="280" x="7" y="7"/><line style="stroke:#181818;stroke-width:0.5;" x1="7" x2="287" y1="34.6094" y2="34.6094"/><text fill="#000000" font-family="sans-serif" font-size="14" lengthAdjust="spacing" textLength="104" x="95" y="26.5332">listarCasosUso()</text><g id="listarCasosUso.RecuperandoCasosUso"><rect fill="#F1F1F1" height="50" rx="12.5" ry="12.5" style="stroke:#181818;stroke-width:0.5;" width="50" x="19" y="137.6094"/><line style="stroke:#181818;stroke-width:0.5;" x1="19" x2="69" y1="165.2188" y2="165.2188"/><text fill="#000000" font-family="sans-serif" font-size="14" lengthAdjust="spacing" textLength="4" x="42" y="157.1426">&#160;</text></g><g id="listarCasosUso.MostrandoCasosUso"><rect fill="#F1F1F1" height="50" rx="12.5" ry="12.5" style="stroke:#181818;stroke-width:0.5;" width="50" x="19" y="275.6094"/><line style="stroke:#181818;stroke-width:0.5;" x1="19" x2="69" y1="303.2188" y2="303.2188"/><text fill="#000000" font-family="sans-serif" font-size="14" lengthAdjust="spacing" textLength="4" x="42" y="295.1426">&#160;</text></g><ellipse cx="44" cy="55.6094" fill="#222222" rx="10" ry="10" style="stroke:#222222;stroke-width:1.0;"/><ellipse cx="44" cy="424.6094" fill="none" rx="11" ry="11" style="stroke:#222222;stroke-width:1.0;"/><ellipse cx="44" cy="424.6094" fill="#222222" rx="6" ry="6" style="stroke:#222222;stroke-width:1.0;"/><!--link *start*listarCasosUso to RecuperandoCasosUso--><g id="link_*start*listarCasosUso_RecuperandoCasosUso"><path d="M44,65.9294 C44,81.7894 44,108.5194 44,131.2494 " fill="none" id="*start*listarCasosUso-to-RecuperandoCasosUso" style="stroke:#008000;stroke-width:1.0;"/><polygon fill="#008000" points="44,137.2494,48,128.2494,44,132.2494,40,128.2494,44,137.2494" style="stroke:#008000;stroke-width:1.0;"/><path d="M49,88.6094 L49,114.6094 L245,114.6094 L245,98.6094 L235,88.6094 L49,88.6094 " fill="#FEFFDD" style="stroke:#181818;stroke-width:0.5;"/><path d="M235,88.6094 L235,98.6094 L245,98.6094 L235,88.6094 " fill="#FEFFDD" style="stroke:#181818;stroke-width:0.5;"/><text fill="#000000" font-family="sans-serif" font-size="13" lengthAdjust="spacing" textLength="175" x="55" y="107.1045">Se solicita listar casos de uso</text></g><!--link RecuperandoCasosUso to MostrandoCasosUso--><g id="link_RecuperandoCasosUso_MostrandoCasosUso"><path d="M44,187.6094 C44,212.3194 44,244.6094 44,269.3894 " fill="none" id="RecuperandoCasosUso-to-MostrandoCasosUso" style="stroke:#008000;stroke-width:1.0;"/><polygon fill="#008000" points="44,275.3894,48,266.3894,44,270.3894,40,266.3894,44,275.3894" style="stroke:#008000;stroke-width:1.0;"/><path d="M49,210.6094 L49,252.6094 L278,252.6094 L278,220.6094 L268,210.6094 L49,210.6094 " fill="#FEFFDD" style="stroke:#181818;stroke-width:0.5;"/><path d="M268,210.6094 L268,220.6094 L278,220.6094 L268,210.6094 " fill="#FEFFDD" style="stroke:#181818;stroke-width:0.5;"/><text fill="#000000" font-family="sans-serif" font-size="13" font-weight="bold" lengthAdjust="spacing" textLength="51" x="55" y="229.1045">Sistema</text><text fill="#000000" font-family="sans-serif" font-size="13" lengthAdjust="spacing" textLength="153" x="110" y="229.1045">recupera los casos de uso</text><text fill="#000000" font-family="sans-serif" font-size="13" lengthAdjust="spacing" textLength="64" x="55" y="245.4561">registrados</text></g><!--link MostrandoCasosUso to *end*listarCasosUso--><g id="link_MostrandoCasosUso_*end*listarCasosUso"><path d="M44,325.7094 C44,352.3794 44,388.1094 44,407.3094 " fill="none" id="MostrandoCasosUso-to-*end*listarCasosUso" style="stroke:#008000;stroke-width:1.0;"/><polygon fill="#008000" points="44,413.3094,48,404.3094,44,408.3094,40,404.3094,44,413.3094" style="stroke:#008000;stroke-width:1.0;"/><path d="M49,348.6094 L49,390.6094 L214,390.6094 L214,358.6094 L204,348.6094 L49,348.6094 " fill="#FEFFDD" style="stroke:#181818;stroke-width:0.5;"/><path d="M204,348.6094 L204,358.6094 L214,358.6094 L204,348.6094 " fill="#FEFFDD" style="stroke:#181818;stroke-width:0.5;"/><text fill="#000000" font-family="sans-serif" font-size="13" font-weight="bold" lengthAdjust="spacing" textLength="51" x="55" y="367.1045">Sistema</text><text fill="#000000" font-family="sans-serif" font-size="13" lengthAdjust="spacing" textLength="89" x="110" y="367.1045">muestra la lista</text><text fill="#000000" font-family="sans-serif" font-size="13" lengthAdjust="spacing" textLength="96" x="55" y="383.4561">de casos de uso</text></g><g id="CASOS_USO_ABIERTO"><rect fill="#F1F1F1" height="50" rx="12.5" ry="12.5" style="stroke:#181818;stroke-width:0.5;" width="173" x="60.5" y="542"/><line style="stroke:#181818;stroke-width:0.5;" x1="60.5" x2="233.5" y1="569.6094" y2="569.6094"/><text fill="#000000" font-family="sans-serif" font-size="14" lengthAdjust="spacing" textLength="153" x="70.5" y="561.5332">CASOS_USO_ABIERTO</text></g><!--link listarCasosUso to CASOS_USO_ABIERTO--><g id="link_listarCasosUso_CASOS_USO_ABIERTO"><path d="M62.58,446.03 C55.51,464.32 51,476 51,476 C51,476 51,512 51,512 C51,512 73.2599,524.5296 98.8199,538.8996 " fill="none" id="listarCasosUso-to-CASOS_USO_ABIERTO" style="stroke:#008000;stroke-width:1.0;"/><polygon fill="#008000" points="104.05,541.84,98.1651,533.9427,99.6916,539.3897,94.2446,540.9161,104.05,541.84" style="stroke:#008000;stroke-width:1.0;"/><path d="M56,481 L56,507 L193,507 L193,491 L183,481 L56,481 " fill="#FEFFDD" style="stroke:#181818;stroke-width:0.5;"/><path d="M183,481 L183,491 L193,491 L183,481 " fill="#FEFFDD" style="stroke:#181818;stroke-width:0.5;"/><text fill="#000000" font-family="sans-serif" font-size="13" lengthAdjust="spacing" textLength="116" x="62" y="499.4951">completarConsulta()</text></g><!--link listarCasosUso to CASOS_USO_ABIERTO--><g id="link_listarCasosUso_CASOS_USO_ABIERTO"><path d="M195.37,446.03 C199.41,464.32 202,476 202,476 C202,476 202,512 202,512 C202,512 190.5334,523.2685 175.8834,537.6385 " fill="none" id="listarCasosUso-to-CASOS_USO_ABIERTO-1" style="stroke:#FF0000;stroke-width:1.0;"/><polygon fill="#FF0000" points="171.6,541.84,180.8261,538.3933,175.1695,538.3387,175.2241,532.6822,171.6,541.84" style="stroke:#FF0000;stroke-width:1.0;"/><path d="M207,481 L207,507 L337,507 L337,491 L327,481 L207,481 " fill="#FEFFDD" style="stroke:#181818;stroke-width:0.5;"/><path d="M327,481 L327,491 L337,491 L327,481 " fill="#FEFFDD" style="stroke:#181818;stroke-width:0.5;"/><text fill="#000000" font-family="sans-serif" font-size="13" lengthAdjust="spacing" textLength="109" x="213" y="499.4951">rechazarConsulta()</text></g><!--SRC=[ZP5HQy8m58NVyoiktOiEP7z02axsi8THCFea8h6vQ33DBKdwe6F_VJUrO-jQmUQX93tdEoUtuMnShRogm1g7yL8Zr6GlQID4Y2eYV-2tNwf0OHC8L82iVpIPPl0f1F1pSsIyMBR2igdHAwVfHpeKVL28VKchsJxlOBPzEdf4jvlbTrcE64KkjJ-t1n8Xa3MbYQfh3cKoW4PeEXCwtHflKIFeNlImuMZm_91BpiDApLyEEVYE2fQp1mqy7asYQWeZZGQ9lJuyceSQL0qc3DXk4As6EzmVnvSG_txstzpbGXPolv75Vl7w_hPQ5wBNeAIgjfZCv49ZevfCnU-rXboF-W4gZ_6ahkFGRm00]--></g></svg>